<?xml version="1.0" encoding="UTF-8"?>
<svg id="Capa_1" xmlns="http://www.w3.org/2000/svg" version="1.1" viewBox="0 0 1920 208.7">
  <!-- Generator: Adobe Illustrator 29.3.1, SVG Export Plug-In . SVG Version: 2.1.0 Build 151)  -->
  <defs>
    <style>
      .st0, .st1 {
        fill: #cc1719;
      }

      .st1 {
        fill-rule: evenodd;
      }
    </style>
  </defs>
  <path class="st1" d="M798.4,10.5c-42.4,0-76.8,34.4-76.8,76.8s34.4,76.8,76.8,76.8,76.8-34.4,76.8-76.8-34.4-76.8-76.8-76.8ZM850.9,72.8s-8,2.1-8.5,4.4c-.7,3.8-12.3,6.4-12.3,6.4l-7.9,4.1c-2.6.8-5.1.8-7.5,1.3-1.2.3-2.3.7-3.3,1.3-1,.7-2,1.6-2.8,2.9-.8.8-1.6,1.5-2.6,2.1-.9.6-1.4,1.6-1.7,2.7-1.2,5.6-1.4,11.1.2,16.7,1.4,5.1,5.4,9.2,10,10.2,5.2,1,10.5,2.6,15.8,1.9,5.3-.7,10,.6,14.9,2,1.7.5,1.9-.4,2.3,1.1h-2.7c-18.2,0-36.3.2-54.5,0-14-.2-28.1-.1-42.1-.3-.3,0-.6,0-.9,0-.6,0-1-.1-1-.9,0-.9.6-.7,1.1-.7,3.1-.1,6.2-.1,9.3-.4,4.9-.4,9.8-.3,14.6-.6,2.8-.1,5.6-1.2,8.5-1.1.6,0,1.4-.6,2-1.1,1.9-1.4,3.7-2.7,6.2-2.9,2-.2,3-2,3.2-4,.2-2.1.2-4.1.3-6.2,0-1,0-2,.3-2.9,1.4-4.4.4-8.2-2.4-11.7-.8-.9-1-2.1-1.3-3.1-.5-1.8-1.4-3.1-3.1-1.6-2.1,1.8-3.8-.5-4.8-.7,0,0-12.6-1.8-17.6-3.6-3.7-1.3-17.3-8.8-17.3-8.8-.7-.7-1.2-1.4-1.1-2.8.2-2.1-.3-3.6,2.4-4.1.5,0,2.1-1.9,2-3.3,0-1.8,1.5-3,1.3-4.8,0-.7.7-.9,1.4-.5.4.2.7.6,1,.9,2.6,2.9,6-.9,8.7,1,1.7-1.5,2.8-3.4,3.6-5.5.7-1.9,4.1-5.1,6.1-5.6.3,0,.7,0,.8-.3,1.3-2.1,2.6-4.3,3.8-6.4.2-.4,0-.9.2-1.3.3-1.1.3-3,1.7-2.8,1.4.2,3.4.2,4,2.2.2.7.6,1.6,1.2,1.6,2.5,0,4.4,1.4,6.5,2.5,1,.6,1.9-.5,2.1-1.5.6-4,3.6-4.4,6.7-4.7,1.4-.2,2.9-.9,3.6,1.2.2.7.9.4,1.3,0,.9-.9,1.8-1.9,2.6-2.8.5-.6.6-2.2,2-.8,0,0,.5,0,.6-.2,1.9-2.7,4.2-1.2,6.5-.6.9.2,1.5.4.8,1.5,2.2,1.1,1.5,3.5,2.3,5.2.4.8,1.6,1.2,2,.7,1-1.2,2.2-.3,3.3-.9.9-.5,1,.5,1,1.2,0,1.3,0,2.5,1.7,2.6.1,0,.3.2.4.3,2,4.2,4.9,1.7,7.5.9.9-.3,1.8-.4,1.9.8.1,1.1,1.1,1.7,1.3,2.4.5,1.7,1.4,1.4,2.6,1.3,1.5-.2,3,.2,4.2,1.4.2.3.6.7.9.7,1.8-.1,2.9.6,3.6,1.5.7,1,.9,2.2.7,3.3.1,3.6,4.7,6.6,2.2,9.2h0Z"/>
  <g>
    <path class="st0" d="M724.3,197.9v-17.7h13.2v3h-9.6v3.9h8.9v3h-8.9v4.8h9.9v3h-13.5Z"/>
    <path class="st0" d="M739.5,192.2l3.5-.3c.2,1.2.6,2,1.3,2.6s1.5.8,2.6.8,2-.2,2.6-.7c.6-.5.9-1.1.9-1.7s-.1-.8-.4-1.1c-.2-.3-.7-.6-1.3-.8-.4-.1-1.4-.4-2.9-.8-1.9-.5-3.3-1.1-4-1.8-1.1-1-1.6-2.2-1.6-3.6s.3-1.8.8-2.5,1.2-1.4,2.2-1.8c1-.4,2.1-.6,3.5-.6,2.2,0,3.9.5,5,1.5,1.1,1,1.7,2.3,1.8,3.9l-3.6.2c-.2-.9-.5-1.6-1-2-.5-.4-1.3-.6-2.3-.6s-1.8.2-2.4.6c-.4.3-.6.6-.6,1.1s.2.8.5,1.1c.5.4,1.5.8,3.3,1.2,1.7.4,3,.8,3.9,1.3.8.4,1.5,1,2,1.8.5.8.7,1.7.7,2.8s-.3,2-.8,2.9c-.6.9-1.4,1.5-2.4,2-1,.4-2.3.6-3.9.6-2.2,0-4-.5-5.2-1.6-1.2-1-1.9-2.6-2.2-4.5h0Z"/>
    <path class="st0" d="M767.8,191.4l3.5,1.1c-.5,1.9-1.4,3.4-2.7,4.3s-2.8,1.4-4.7,1.4-4.3-.8-5.8-2.4-2.3-3.8-2.3-6.6.8-5.2,2.3-6.9c1.5-1.6,3.5-2.4,6-2.4s3.9.6,5.3,1.9c.8.8,1.4,1.9,1.8,3.3l-3.5.9c-.2-.9-.7-1.6-1.3-2.2-.7-.5-1.5-.8-2.4-.8s-2.4.5-3.2,1.4c-.8.9-1.2,2.5-1.2,4.6s.4,3.8,1.2,4.8c.8.9,1.8,1.4,3.1,1.4s1.8-.3,2.5-.9,1.2-1.6,1.5-2.9h0Z"/>
    <path class="st0" d="M773.8,180.2h3.6v9.6c0,1.5,0,2.5.1,3,.2.7.5,1.3,1.1,1.8.6.4,1.4.7,2.4.7s1.8-.2,2.3-.6c.5-.4.8-.9.9-1.5s.2-1.6.2-3v-9.8h3.6v9.3c0,2.1,0,3.6-.3,4.5-.2.9-.5,1.6-1.1,2.2s-1.2,1.1-2.1,1.4-2,.5-3.4.5-3-.2-3.8-.6c-.9-.4-1.6-.9-2.1-1.5-.5-.6-.8-1.3-1-2-.2-1-.3-2.5-.3-4.5v-9.5h0Z"/>
    <path class="st0" d="M791.2,197.9v-17.7h13.2v3h-9.6v3.9h8.9v3h-8.9v4.8h9.9v3h-13.5Z"/>
    <path class="st0" d="M807.3,197.9v-17.6h3.6v14.6h8.9v3h-12.5,0Z"/>
    <path class="st0" d="M837.9,197.9h-3.9l-1.5-4h-7.1l-1.5,4h-3.8l6.9-17.7h3.8l7.1,17.7h0ZM831.3,190.9l-2.4-6.6-2.4,6.6h4.8,0Z"/>
    <path class="st0" d="M844.7,180.2h6.5c1.5,0,2.6.1,3.4.3,1,.3,1.9.9,2.7,1.6.7.8,1.3,1.7,1.7,2.9.4,1.1.6,2.5.6,4.2s-.2,2.7-.5,3.8c-.5,1.3-1.1,2.3-1.9,3.1-.6.6-1.5,1.1-2.5,1.4-.8.2-1.8.4-3.2.4h-6.7v-17.7h0ZM848.3,183.2v11.8h2.7c1,0,1.7,0,2.2-.2.6-.1,1.1-.4,1.5-.7.4-.4.7-.9.9-1.7.2-.8.4-1.9.4-3.2s-.1-2.4-.4-3.2-.6-1.3-1-1.7c-.4-.4-1-.7-1.7-.8-.5-.1-1.5-.2-2.9-.2h-1.6,0Z"/>
    <path class="st0" d="M862.1,197.9v-17.7h13.2v3h-9.6v3.9h8.9v3h-8.9v4.8h9.9v3h-13.5Z"/>
    <path class="st0" d="M884.5,197.9v-17.7h3.6v17.7h-3.6Z"/>
    <path class="st0" d="M890.9,197.9v-17.7h5.4l3.2,12.1,3.2-12.1h5.4v17.7h-3.3v-14l-3.5,14h-3.5l-3.5-14v14h-3.3,0Z"/>
    <path class="st0" d="M927.1,197.9h-3.9l-1.5-4h-7.1l-1.5,4h-3.8l6.9-17.7h3.8l7.1,17.7h0ZM920.5,190.9l-2.4-6.6-2.4,6.6h4.8Z"/>
    <path class="st0" d="M936.8,191.4v-3h7.7v7.1c-.8.7-1.8,1.4-3.3,1.9s-2.9.8-4.3.8-3.5-.4-4.8-1.2-2.4-1.9-3.1-3.3-1-3-1-4.7.4-3.5,1.2-4.9c.8-1.4,1.9-2.5,3.4-3.3,1.1-.6,2.5-.9,4.2-.9s3.9.5,5.2,1.4,2,2.2,2.4,3.8l-3.6.7c-.2-.9-.7-1.6-1.4-2.1s-1.5-.8-2.6-.8c-1.6,0-2.8.5-3.7,1.5s-1.4,2.5-1.4,4.4.5,3.7,1.4,4.7c.9,1.1,2.2,1.6,3.7,1.6s1.5-.1,2.2-.4c.8-.3,1.4-.6,1.9-1.1v-2.2h-4.1,0Z"/>
    <path class="st0" d="M947.3,197.9v-17.7h13.2v3h-9.6v3.9h8.9v3h-8.9v4.8h9.9v3h-13.5Z"/>
    <path class="st0" d="M963.3,197.9v-17.7h3.5l7.3,11.9v-11.9h3.3v17.7h-3.6l-7.2-11.6v11.6h-3.3Z"/>
    <path class="st0" d="M991.3,197.9v-7.5l-6.5-10.3h4.2l4.2,7,4.1-7h4.1l-6.5,10.3v7.4h-3.6,0Z"/>
    <path class="st0" d="M1020,191.4l3.5,1.1c-.5,1.9-1.4,3.4-2.7,4.3s-2.8,1.4-4.7,1.4-4.3-.8-5.8-2.4-2.3-3.8-2.3-6.6.8-5.2,2.3-6.9c1.5-1.6,3.5-2.4,6-2.4s3.9.6,5.3,1.9c.8.8,1.4,1.9,1.8,3.3l-3.5.9c-.2-.9-.7-1.6-1.3-2.2-.7-.5-1.5-.8-2.4-.8s-2.4.5-3.2,1.4c-.8.9-1.2,2.5-1.2,4.6s.4,3.8,1.2,4.8c.8.9,1.8,1.4,3.1,1.4s1.8-.3,2.5-.9,1.2-1.6,1.5-2.9h0Z"/>
    <path class="st0" d="M1025.3,189.2c0-1.8.3-3.3.8-4.6.4-.9,1-1.7,1.7-2.4.7-.7,1.5-1.2,2.3-1.6,1.1-.5,2.4-.7,3.8-.7,2.6,0,4.7.8,6.3,2.4,1.6,1.6,2.3,3.9,2.3,6.8s-.8,5.1-2.3,6.7c-1.6,1.6-3.6,2.4-6.2,2.4s-4.7-.8-6.3-2.4c-1.6-1.6-2.3-3.8-2.3-6.6h0ZM1029,189.1c0,2,.5,3.5,1.4,4.6.9,1,2.1,1.6,3.5,1.6s2.6-.5,3.5-1.6c.9-1,1.4-2.6,1.4-4.6s-.4-3.6-1.3-4.6c-.9-1-2.1-1.5-3.6-1.5s-2.7.5-3.6,1.5c-.9,1-1.4,2.5-1.4,4.6h0Z"/>
    <path class="st0" d="M1044.8,197.9v-17.7h5.4l3.2,12.1,3.2-12.1h5.4v17.7h-3.3v-14l-3.5,14h-3.4l-3.5-14v14h-3.3,0Z"/>
    <path class="st0" d="M1064.9,180.2h3.6v9.6c0,1.5,0,2.5.1,3,.2.7.5,1.3,1.1,1.8s1.4.7,2.4.7,1.8-.2,2.3-.6c.5-.4.8-.9.9-1.5.1-.6.2-1.6.2-3v-9.8h3.6v9.3c0,2.1,0,3.6-.3,4.5-.2.9-.6,1.6-1.1,2.2-.5.6-1.2,1.1-2.1,1.4s-2,.5-3.4.5-3-.2-3.8-.6c-.9-.4-1.6-.9-2.1-1.5-.5-.6-.8-1.3-1-2-.2-1-.3-2.5-.3-4.5v-9.5h0Z"/>
    <path class="st0" d="M1082.4,197.9v-17.7h3.5l7.3,11.9v-11.9h3.3v17.7h-3.6l-7.2-11.6v11.6h-3.3Z"/>
    <path class="st0" d="M1099.6,197.9v-17.7h3.6v17.7h-3.6Z"/>
    <path class="st0" d="M1117.5,191.4l3.5,1.1c-.5,1.9-1.4,3.4-2.7,4.3s-2.8,1.4-4.7,1.4-4.3-.8-5.8-2.4-2.3-3.8-2.3-6.6.8-5.2,2.3-6.9,3.5-2.4,6-2.4,3.9.6,5.3,1.9c.8.8,1.4,1.9,1.8,3.3l-3.5.9c-.2-.9-.7-1.6-1.3-2.2-.7-.5-1.5-.8-2.4-.8s-2.4.5-3.2,1.4c-.8.9-1.2,2.5-1.2,4.6s.4,3.8,1.2,4.8c.8.9,1.8,1.4,3.1,1.4s1.8-.3,2.5-.9c.7-.6,1.2-1.6,1.5-2.9h0Z"/>
    <path class="st0" d="M1139.5,197.9h-3.9l-1.6-4h-7.1l-1.5,4h-3.8l6.9-17.7h3.8l7.1,17.7h0ZM1132.9,190.9l-2.4-6.6-2.4,6.6h4.8Z"/>
    <path class="st0" d="M1152.3,191.4l3.5,1.1c-.5,1.9-1.4,3.4-2.7,4.3-1.2.9-2.8,1.4-4.7,1.4s-4.3-.8-5.8-2.4c-1.5-1.6-2.3-3.8-2.3-6.6s.8-5.2,2.3-6.9,3.5-2.4,6-2.4,3.9.6,5.3,1.9c.8.8,1.4,1.9,1.8,3.3l-3.6.9c-.2-.9-.6-1.6-1.3-2.2-.7-.5-1.5-.8-2.4-.8s-2.4.5-3.2,1.4c-.8.9-1.2,2.5-1.2,4.6s.4,3.8,1.2,4.8c.8.9,1.8,1.4,3.1,1.4s1.8-.3,2.5-.9,1.2-1.6,1.5-2.9h0Z"/>
    <path class="st0" d="M1158.2,197.9v-17.7h3.6v17.7h-3.6Z"/>
    <path class="st0" d="M1164,189.2c0-1.8.3-3.3.8-4.6.4-.9.9-1.7,1.7-2.4.7-.7,1.5-1.2,2.3-1.6,1.1-.5,2.4-.7,3.8-.7,2.6,0,4.7.8,6.3,2.4,1.6,1.6,2.4,3.9,2.4,6.8s-.8,5.1-2.3,6.7c-1.6,1.6-3.6,2.4-6.2,2.4s-4.7-.8-6.3-2.4c-1.6-1.6-2.3-3.8-2.3-6.6h0ZM1167.7,189.1c0,2,.5,3.5,1.4,4.6.9,1,2.1,1.6,3.5,1.6s2.6-.5,3.5-1.6c.9-1,1.4-2.6,1.4-4.6s-.4-3.6-1.3-4.6c-.9-1-2.1-1.5-3.6-1.5s-2.7.5-3.6,1.5c-.9,1-1.4,2.5-1.4,4.6h0ZM1170.4,179.2l1.7-3.6h3.8l-3.3,3.6h-2.2Z"/>
    <path class="st0" d="M1183.5,197.9v-17.7h3.5l7.3,11.9v-11.9h3.3v17.7h-3.6l-7.2-11.6v11.6h-3.3Z"/>
  </g>
  <g>
    <path class="st0" d="M958.4,132.3h-18.8l-5.5-20h-27.3l-5.4,20h-18.7l27.9-90.1h20.5l27.3,90.1h0ZM930.2,96.7l-8.2-30.3c-.6-2.3-1-5-1.3-8.1h-.4c-.2,2.6-.6,5.2-1.3,7.8l-8.3,30.5h19.6Z"/>
    <path class="st0" d="M1013.7,132.3h-45.7V42.2h17.3v73.6h28.4v16.5h0Z"/>
    <path class="st0" d="M1041.3,101.3v31h-17.3V42.2h27.1c19.3,0,29,9.6,29,28.7s-2.8,16.4-8.3,21.9c-5.6,5.6-13,8.4-22.2,8.4h-8.2ZM1041.3,57.8v28.1h6.8c9.2,0,13.8-4.7,13.8-14.2s-4.6-13.9-13.8-13.9h-6.8Z"/>
    <path class="st0" d="M1137.3,132.3h-46V42.2h44.3v16.5h-27v20h25.1v16.4h-25.1v20.6h28.7v16.5h0Z"/>
    <path class="st0" d="M1146.1,128.8v-20.1c3.1,3.1,6.5,5.4,10.1,6.9s7.3,2.3,11,2.3,4.1-.2,5.7-.7c1.6-.5,3-1.1,4.1-1.9,1.1-.8,1.9-1.8,2.4-2.9s.8-2.3.8-3.6-.4-3.3-1.3-4.7-2-2.7-3.5-3.8c-1.5-1.2-3.2-2.3-5.3-3.4-2-1.1-4.2-2.2-6.6-3.3-6-2.9-10.5-6.5-13.4-10.7-2.9-4.2-4.4-9.3-4.4-15.3s.8-8.7,2.4-12.1c1.6-3.4,3.8-6.2,6.6-8.3,2.8-2.2,6-3.8,9.6-4.8,3.6-1,7.5-1.5,11.6-1.5s7.5.3,10.6.8c3.1.6,5.9,1.4,8.5,2.6v18.8c-1.3-1-2.7-2-4.2-2.8-1.5-.8-3.1-1.5-4.7-2-1.6-.5-3.2-.9-4.8-1.2-1.6-.2-3.1-.4-4.5-.4s-3.7.2-5.3.7c-1.6.4-3,1-4.1,1.8-1.1.8-2,1.7-2.6,2.9-.6,1.1-.9,2.4-.9,3.7s.3,2.9,1,4.1c.7,1.2,1.7,2.3,2.9,3.4,1.2,1.1,2.8,2.1,4.6,3.1s3.8,2.1,6.1,3.2c3.1,1.5,5.8,3.1,8.3,4.8,2.4,1.7,4.5,3.6,6.3,5.8,1.8,2.1,3.1,4.6,4,7.3.9,2.7,1.4,5.9,1.4,9.6s-.8,9.2-2.4,12.7c-1.6,3.4-3.8,6.2-6.6,8.3-2.8,2.1-6,3.6-9.7,4.5-3.7.9-7.6,1.4-11.7,1.4s-8.2-.4-12-1.3c-3.8-.8-7.1-2.1-9.9-3.8h0Z"/>
  </g>
</svg>