<?xml version="1.0" encoding="UTF-8"?>
<svg id="Capa_1" data-name="Capa 1" xmlns="http://www.w3.org/2000/svg" viewBox="0 0 1920 208.71">
  <defs>
    <style>
      .cls-1, .cls-2 {
        fill: #cc1719;
      }

      .cls-3 {
        fill: #fff;
        font-family: OpenSans-Bold, 'Open Sans';
        font-size: 113.39px;
        font-weight: 700;
      }

      .cls-2 {
        fill-rule: evenodd;
      }
    </style>
  </defs>
  <text class="cls-3" transform="translate(412.36 -81.43)"><tspan x="0" y="0">Cración digital</tspan></text>
  <g>
    <path class="cls-2" d="M798.38,10.46c-42.43,0-76.83,34.39-76.83,76.83s34.4,76.84,76.83,76.84,76.83-34.4,76.83-76.84-34.4-76.83-76.83-76.83ZM850.9,72.84s-8.03,2.1-8.48,4.45c-.73,3.82-12.3,6.45-12.3,6.45l-7.86,4.12c-2.59.85-5.14.85-7.48,1.35-1.17.28-2.27.68-3.29,1.35-1.02.66-1.95,1.58-2.77,2.9-.79.78-1.64,1.51-2.6,2.06-.93.6-1.44,1.63-1.67,2.67-1.24,5.57-1.38,11.13.19,16.7,1.44,5.11,5.42,9.24,10.03,10.16,5.2,1.03,10.46,2.6,15.77,1.89,5.26-.71,10.02.58,14.9,1.98,1.69.48,1.88-.35,2.34,1.13h-2.68c-18.17,0-36.33.19-54.5-.06-14.03-.2-28.06-.11-42.08-.27-.3,0-.61-.01-.91,0-.6.03-1.04-.11-1.05-.85-.02-.87.6-.71,1.1-.73,3.12-.13,6.25-.13,9.35-.41,4.87-.44,9.75-.3,14.61-.55,2.83-.14,5.58-1.19,8.5-1.06.64.03,1.38-.59,1.97-1.06,1.86-1.45,3.71-2.65,6.24-2.93,1.95-.22,2.98-2.02,3.16-4,.17-2.05.18-4.12.28-6.17.05-.98-.03-2.03.27-2.94,1.4-4.38.43-8.23-2.41-11.7-.76-.93-1.01-2.05-1.3-3.14-.46-1.75-1.37-3.09-3.1-1.61-2.07,1.77-3.84-.52-4.76-.73,0,0-12.56-1.8-17.62-3.61-3.67-1.31-17.29-8.84-17.29-8.84-.67-.65-1.22-1.37-1.12-2.83.15-2.06-.3-3.56,2.44-4.05.5-.09,2.08-1.9,2.05-3.29-.05-1.77,1.47-2.99,1.29-4.78-.07-.69.71-.92,1.37-.51.38.24.73.56,1.03.9,2.59,2.93,5.97-.92,8.67,1,1.74-1.47,2.81-3.38,3.6-5.46.73-1.93,4.12-5.08,6.13-5.58.3-.07.72-.1.85-.3,1.31-2.13,2.59-4.27,3.82-6.44.2-.36.07-.89.17-1.32.28-1.13.28-2.97,1.71-2.76,1.4.2,3.37.21,4.05,2.16.22.65.57,1.61,1.16,1.6,2.55-.05,4.41,1.36,6.46,2.54,1.05.6,1.9-.46,2.06-1.52.59-4,3.61-4.36,6.73-4.69,1.42-.16,2.91-.94,3.6,1.21.21.65.92.37,1.33-.05.9-.93,1.78-1.88,2.64-2.85.53-.6.58-2.24,1.98-.85.07.07.47-.05.57-.18,1.94-2.74,4.23-1.18,6.47-.57.89.25,1.5.42.85,1.46,2.18,1.12,1.51,3.48,2.28,5.21.38.85,1.61,1.15,2.01.65.96-1.22,2.24-.32,3.3-.87.88-.45,1.05.51,1.03,1.24-.03,1.27-.04,2.51,1.73,2.57.12,0,.3.15.36.27,2.03,4.21,4.9,1.71,7.54.94.91-.27,1.76-.36,1.88.85.11,1.07,1.1,1.72,1.31,2.42.53,1.73,1.39,1.41,2.64,1.26,1.55-.18,3.03.18,4.15,1.44.25.28.6.71.88.69,1.75-.11,2.9.56,3.58,1.51.68.96.88,2.22.71,3.29.11,3.56,4.72,6.63,2.16,9.19Z"/>
    <g>
      <path class="cls-1" d="M724.34,197.94v-17.74h13.15v3h-9.57v3.94h8.9v2.98h-8.9v4.83h9.91v2.99h-13.49Z"/>
      <path class="cls-1" d="M739.46,192.17l3.49-.34c.21,1.17.64,2.03,1.28,2.58.64.55,1.51.82,2.6.82,1.15,0,2.02-.24,2.61-.73.58-.49.88-1.06.88-1.71,0-.42-.12-.78-.37-1.07-.25-.3-.68-.55-1.29-.77-.42-.15-1.38-.41-2.87-.78-1.92-.47-3.26-1.06-4.04-1.76-1.09-.98-1.63-2.16-1.63-3.57,0-.9.26-1.75.77-2.54.51-.79,1.25-1.38,2.21-1.79.96-.41,2.13-.62,3.49-.62,2.23,0,3.9.49,5.03,1.46,1.13.98,1.72,2.28,1.77,3.91l-3.58.16c-.15-.91-.48-1.57-.99-1.97-.5-.4-1.26-.6-2.27-.6s-1.85.22-2.44.64c-.38.27-.57.64-.57,1.1,0,.42.18.78.53,1.08.45.38,1.55.77,3.29,1.18,1.74.41,3.03.84,3.86,1.28.83.44,1.49,1.04,1.96,1.8.47.76.71,1.71.71,2.82,0,1.02-.28,1.97-.85,2.86-.56.89-1.36,1.54-2.39,1.98-1.03.43-2.32.65-3.86.65-2.24,0-3.97-.52-5.17-1.55-1.2-1.04-1.92-2.55-2.16-4.53Z"/>
      <path class="cls-1" d="M767.76,191.42l3.47,1.1c-.53,1.94-1.42,3.37-2.66,4.31-1.24.94-2.81,1.41-4.71,1.41-2.36,0-4.29-.8-5.81-2.41-1.52-1.61-2.28-3.81-2.28-6.6,0-2.95.76-5.24,2.29-6.88,1.52-1.64,3.53-2.45,6.01-2.45,2.17,0,3.93.64,5.29,1.92.81.76,1.41,1.85,1.81,3.27l-3.54.85c-.21-.92-.65-1.64-1.31-2.18-.67-.53-1.48-.8-2.43-.8-1.32,0-2.38.47-3.2,1.42-.82.94-1.23,2.47-1.23,4.58,0,2.24.4,3.84,1.21,4.79.8.95,1.85,1.43,3.14,1.43.95,0,1.77-.3,2.46-.91.69-.61,1.18-1.56,1.48-2.86Z"/>
      <path class="cls-1" d="M773.78,180.2h3.58v9.61c0,1.52.04,2.51.13,2.96.15.73.52,1.31,1.09,1.75.58.44,1.36.66,2.36.66s1.78-.21,2.3-.62c.52-.42.83-.93.93-1.53.1-.6.16-1.61.16-3.01v-9.81h3.58v9.32c0,2.13-.1,3.64-.29,4.51-.19.88-.55,1.62-1.07,2.23-.52.61-1.21,1.09-2.08,1.45-.87.36-2.01.54-3.41.54-1.69,0-2.98-.2-3.85-.59-.88-.39-1.57-.9-2.07-1.53-.51-.62-.84-1.28-1.01-1.96-.23-1.02-.35-2.52-.35-4.5v-9.46Z"/>
      <path class="cls-1" d="M791.2,197.94v-17.74h13.15v3h-9.57v3.94h8.9v2.98h-8.9v4.83h9.91v2.99h-13.49Z"/>
      <path class="cls-1" d="M807.33,197.94v-17.59h3.58v14.6h8.9v2.99h-12.49Z"/>
      <path class="cls-1" d="M837.88,197.94h-3.9l-1.55-4.03h-7.09l-1.47,4.03h-3.8l6.91-17.74h3.79l7.1,17.74ZM831.28,190.93l-2.44-6.58-2.39,6.58h4.84Z"/>
      <path class="cls-1" d="M844.73,180.2h6.55c1.48,0,2.6.11,3.37.34,1.04.31,1.93.85,2.67,1.64.74.78,1.31,1.74,1.69,2.87.39,1.14.58,2.53.58,4.19,0,1.46-.18,2.72-.54,3.77-.45,1.29-1.08,2.33-1.9,3.14-.62.6-1.46,1.08-2.52,1.41-.79.25-1.85.38-3.17.38h-6.74v-17.74ZM848.32,183.2v11.75h2.67c1,0,1.72-.06,2.16-.17.58-.15,1.06-.39,1.45-.74.38-.35.69-.92.94-1.71.24-.79.36-1.88.36-3.25s-.12-2.42-.36-3.16c-.24-.74-.58-1.31-1.02-1.72-.43-.41-.99-.69-1.66-.84-.5-.11-1.48-.17-2.94-.17h-1.61Z"/>
      <path class="cls-1" d="M862.14,197.94v-17.74h13.15v3h-9.57v3.94h8.9v2.98h-8.9v4.83h9.91v2.99h-13.49Z"/>
      <path class="cls-1" d="M884.45,197.94v-17.74h3.58v17.74h-3.58Z"/>
      <path class="cls-1" d="M890.91,197.94v-17.74h5.36l3.22,12.1,3.18-12.1h5.37v17.74h-3.32v-13.96l-3.52,13.96h-3.45l-3.51-13.96v13.96h-3.33Z"/>
      <path class="cls-1" d="M927.09,197.94h-3.9l-1.55-4.03h-7.09l-1.46,4.03h-3.8l6.91-17.74h3.79l7.1,17.74ZM920.5,190.93l-2.44-6.58-2.4,6.58h4.84Z"/>
      <path class="cls-1" d="M936.75,191.42v-2.99h7.72v7.07c-.75.73-1.84,1.37-3.26,1.92-1.42.55-2.86.83-4.33.83-1.85,0-3.47-.39-4.85-1.17-1.38-.78-2.42-1.89-3.11-3.34-.69-1.45-1.04-3.02-1.04-4.73,0-1.85.39-3.49,1.16-4.92.78-1.44,1.91-2.54,3.4-3.3,1.14-.59,2.55-.88,4.24-.88,2.2,0,3.92.46,5.16,1.38,1.24.92,2.03,2.2,2.39,3.83l-3.56.67c-.25-.87-.72-1.56-1.41-2.06-.69-.5-1.55-.76-2.58-.76-1.56,0-2.81.5-3.73,1.49-.92.99-1.39,2.46-1.39,4.42,0,2.1.47,3.68,1.4,4.74.93,1.05,2.16,1.58,3.68,1.58.75,0,1.5-.15,2.25-.44.75-.3,1.4-.65,1.94-1.07v-2.25h-4.1Z"/>
      <path class="cls-1" d="M947.27,197.94v-17.74h13.15v3h-9.57v3.94h8.9v2.98h-8.9v4.83h9.91v2.99h-13.49Z"/>
      <path class="cls-1" d="M963.34,197.94v-17.74h3.49l7.26,11.85v-11.85h3.33v17.74h-3.6l-7.15-11.57v11.57h-3.33Z"/>
      <path class="cls-1" d="M991.31,197.94v-7.47l-6.5-10.27h4.2l4.17,7.02,4.09-7.02h4.12l-6.52,10.3v7.44h-3.57Z"/>
      <path class="cls-1" d="M1019.97,191.42l3.47,1.1c-.53,1.94-1.42,3.37-2.66,4.31-1.24.94-2.81,1.41-4.71,1.41-2.36,0-4.29-.8-5.81-2.41-1.52-1.61-2.27-3.81-2.27-6.6,0-2.95.76-5.24,2.29-6.88,1.52-1.64,3.53-2.45,6.01-2.45,2.17,0,3.93.64,5.29,1.92.81.76,1.41,1.85,1.81,3.27l-3.55.85c-.21-.92-.65-1.64-1.31-2.18-.67-.53-1.47-.8-2.42-.8-1.32,0-2.38.47-3.2,1.42-.82.94-1.23,2.47-1.23,4.58,0,2.24.4,3.84,1.21,4.79.8.95,1.85,1.43,3.14,1.43.95,0,1.77-.3,2.46-.91.69-.61,1.18-1.56,1.48-2.86Z"/>
      <path class="cls-1" d="M1025.29,189.18c0-1.81.27-3.32.81-4.55.4-.9.96-1.72,1.65-2.43.7-.72,1.46-1.25,2.29-1.6,1.1-.47,2.38-.7,3.82-.7,2.61,0,4.71.81,6.28,2.43,1.57,1.62,2.35,3.88,2.35,6.76s-.78,5.1-2.33,6.72c-1.56,1.62-3.64,2.43-6.25,2.43s-4.73-.8-6.29-2.41c-1.55-1.61-2.33-3.83-2.33-6.65ZM1028.98,189.06c0,2.01.46,3.53,1.39,4.57.93,1.04,2.11,1.56,3.54,1.56s2.6-.51,3.51-1.55c.92-1.03,1.37-2.57,1.37-4.63s-.44-3.55-1.34-4.55c-.89-1-2.07-1.5-3.55-1.5s-2.67.51-3.57,1.52c-.9,1.01-1.36,2.54-1.36,4.58Z"/>
      <path class="cls-1" d="M1044.75,197.94v-17.74h5.36l3.22,12.1,3.18-12.1h5.37v17.74h-3.33v-13.96l-3.52,13.96h-3.45l-3.51-13.96v13.96h-3.33Z"/>
      <path class="cls-1" d="M1064.92,180.2h3.58v9.61c0,1.52.04,2.51.13,2.96.15.73.52,1.31,1.09,1.75.57.44,1.36.66,2.36.66s1.78-.21,2.3-.62c.52-.42.83-.93.93-1.53.11-.6.16-1.61.16-3.01v-9.81h3.58v9.32c0,2.13-.1,3.64-.29,4.51-.19.88-.55,1.62-1.07,2.23-.52.61-1.22,1.09-2.09,1.45-.87.36-2.01.54-3.41.54-1.7,0-2.98-.2-3.85-.59-.88-.39-1.57-.9-2.08-1.53-.51-.62-.84-1.28-1-1.96-.23-1.02-.35-2.52-.35-4.5v-9.46Z"/>
      <path class="cls-1" d="M1082.38,197.94v-17.74h3.48l7.26,11.85v-11.85h3.33v17.74h-3.59l-7.15-11.57v11.57h-3.33Z"/>
      <path class="cls-1" d="M1099.63,197.94v-17.74h3.58v17.74h-3.58Z"/>
      <path class="cls-1" d="M1117.48,191.42l3.47,1.1c-.53,1.94-1.42,3.37-2.66,4.31-1.24.94-2.81,1.41-4.72,1.41-2.36,0-4.29-.8-5.81-2.41-1.52-1.61-2.27-3.81-2.27-6.6,0-2.95.76-5.24,2.29-6.88,1.53-1.64,3.53-2.45,6.02-2.45,2.17,0,3.93.64,5.29,1.92.81.76,1.41,1.85,1.81,3.27l-3.54.85c-.21-.92-.65-1.64-1.31-2.18-.67-.53-1.47-.8-2.43-.8-1.31,0-2.38.47-3.2,1.42-.82.94-1.23,2.47-1.23,4.58,0,2.24.41,3.84,1.21,4.79.81.95,1.85,1.43,3.14,1.43.95,0,1.78-.3,2.46-.91.69-.61,1.18-1.56,1.48-2.86Z"/>
      <path class="cls-1" d="M1139.53,197.94h-3.9l-1.55-4.03h-7.09l-1.47,4.03h-3.8l6.91-17.74h3.78l7.1,17.74ZM1132.93,190.93l-2.45-6.58-2.39,6.58h4.84Z"/>
      <path class="cls-1" d="M1152.28,191.42l3.47,1.1c-.53,1.94-1.42,3.37-2.65,4.31-1.24.94-2.81,1.41-4.71,1.41-2.36,0-4.29-.8-5.81-2.41-1.51-1.61-2.27-3.81-2.27-6.6,0-2.95.76-5.24,2.29-6.88,1.53-1.64,3.53-2.45,6.01-2.45,2.17,0,3.93.64,5.29,1.92.8.76,1.41,1.85,1.81,3.27l-3.55.85c-.21-.92-.64-1.64-1.31-2.18-.67-.53-1.47-.8-2.43-.8-1.31,0-2.38.47-3.2,1.42-.82.94-1.23,2.47-1.23,4.58,0,2.24.41,3.84,1.21,4.79.81.95,1.85,1.43,3.14,1.43.95,0,1.77-.3,2.46-.91.69-.61,1.18-1.56,1.48-2.86Z"/>
      <path class="cls-1" d="M1158.22,197.94v-17.74h3.58v17.74h-3.58Z"/>
      <path class="cls-1" d="M1164,189.18c0-1.81.27-3.32.81-4.55.4-.9.95-1.72,1.65-2.43.7-.72,1.46-1.25,2.29-1.6,1.1-.47,2.38-.7,3.82-.7,2.61,0,4.71.81,6.27,2.43,1.57,1.62,2.36,3.88,2.36,6.76s-.78,5.1-2.34,6.72c-1.56,1.62-3.64,2.43-6.24,2.43s-4.73-.8-6.29-2.41c-1.55-1.61-2.33-3.83-2.33-6.65ZM1167.68,189.06c0,2.01.47,3.53,1.39,4.57.93,1.04,2.11,1.56,3.54,1.56s2.6-.51,3.51-1.55c.91-1.03,1.37-2.57,1.37-4.63s-.44-3.55-1.34-4.55c-.89-1-2.07-1.5-3.55-1.5s-2.67.51-3.57,1.52c-.91,1.01-1.36,2.54-1.36,4.58ZM1170.39,179.19l1.67-3.62h3.81l-3.33,3.62h-2.15Z"/>
      <path class="cls-1" d="M1183.53,197.94v-17.74h3.49l7.26,11.85v-11.85h3.33v17.74h-3.6l-7.15-11.57v11.57h-3.33Z"/>
    </g>
    <g>
      <path class="cls-1" d="M958.42,132.29h-18.83l-5.46-20.04h-27.29l-5.4,20.04h-18.73l27.93-90.07h20.49l27.28,90.07ZM930.17,96.67l-8.24-30.27c-.61-2.26-1.04-4.96-1.29-8.1h-.43c-.17,2.64-.62,5.25-1.33,7.85l-8.35,30.53h19.63Z"/>
      <path class="cls-1" d="M1013.7,132.29h-45.7V42.22h17.28v73.61h28.41v16.46Z"/>
      <path class="cls-1" d="M1041.3,101.26v31.03h-17.29V42.22h27.08c19.34,0,29.01,9.56,29.01,28.7,0,9.04-2.78,16.36-8.32,21.95-5.55,5.59-12.96,8.39-22.24,8.39h-8.23ZM1041.3,57.8v28.07h6.8c9.2,0,13.81-4.73,13.81-14.2s-4.61-13.88-13.81-13.88h-6.8Z"/>
      <path class="cls-1" d="M1137.34,132.29h-46.02V42.22h44.26v16.52h-26.97v20.04h25.09v16.45h-25.09v20.61h28.73v16.46Z"/>
      <path class="cls-1" d="M1146.13,128.84v-20.11c3.1,3.07,6.47,5.36,10.11,6.89,3.64,1.53,7.32,2.29,11.03,2.29,2.18,0,4.07-.23,5.7-.69,1.62-.47,2.98-1.1,4.07-1.92,1.09-.81,1.89-1.78,2.43-2.89.54-1.11.81-2.31.81-3.61,0-1.76-.43-3.33-1.28-4.71-.85-1.38-2.03-2.67-3.51-3.83-1.48-1.18-3.24-2.31-5.27-3.4-2.04-1.09-4.23-2.2-6.59-3.33-5.99-2.93-10.46-6.51-13.4-10.74-2.94-4.23-4.41-9.33-4.41-15.32,0-4.69.8-8.72,2.41-12.09,1.6-3.37,3.79-6.15,6.55-8.32,2.77-2.18,5.97-3.78,9.61-4.81,3.64-1.02,7.5-1.54,11.56-1.54s7.53.29,10.62.85c3.09.56,5.93,1.43,8.54,2.6v18.78c-1.29-1.04-2.69-1.97-4.2-2.76-1.52-.8-3.08-1.45-4.68-1.98-1.61-.52-3.2-.91-4.8-1.16-1.59-.25-3.09-.38-4.52-.38-1.96,0-3.74.22-5.35.66-1.6.44-2.96,1.05-4.07,1.85-1.11.79-1.96,1.74-2.56,2.86-.61,1.11-.91,2.35-.91,3.74,0,1.5.34,2.86,1.01,4.05.68,1.19,1.65,2.32,2.89,3.39,1.25,1.06,2.77,2.11,4.55,3.14,1.78,1.03,3.79,2.08,6.05,3.17,3.07,1.51,5.82,3.11,8.27,4.8,2.45,1.7,4.54,3.61,6.29,5.75,1.75,2.13,3.09,4.57,4.01,7.32.93,2.74,1.39,5.93,1.39,9.58,0,5.03-.81,9.24-2.43,12.66-1.62,3.41-3.82,6.17-6.61,8.29-2.78,2.12-6.02,3.64-9.71,4.55-3.69.93-7.59,1.39-11.69,1.39s-8.22-.42-12.01-1.26c-3.8-.83-7.09-2.1-9.87-3.77Z"/>
    </g>
  </g>
</svg>