<?xml version="1.0" encoding="UTF-8"?>
<svg id="Capa_1" xmlns="http://www.w3.org/2000/svg" version="1.1" viewBox="0 0 1920 208.7">
  <!-- Generator: Adobe Illustrator 30.0.0, SVG Export Plug-In . SVG Version: 2.1.1 Build 123)  -->
  <defs>
    <style>
      .st0 {
        fill: #b81f2a;
      }
    </style>
  </defs>
  <g>
    <g>
      <path class="st0" d="M933.69,147.42l-7.43-26.84h-37.37l-7.43,26.84h-23.42l36.18-113.23h26.58l36.32,113.23h-23.42ZM921.07,100.53c-6.87-24.32-10.74-38.08-11.6-41.27-.87-3.19-1.48-5.71-1.86-7.56-1.54,6.58-5.96,22.86-13.25,48.82h26.72Z"/>
      <path class="st0" d="M964.85,147.42V34.65h21.74v93.02h41.58v19.75h-63.32Z"/>
      <path class="st0" d="M1108.75,69.83c0,12.14-3.45,21.42-10.34,27.85-6.89,6.43-16.7,9.64-29.41,9.64h-9.33v40.11h-21.74V34.65h32.75c12.43,0,21.89,2.94,28.36,8.83,6.47,5.89,9.71,14.67,9.71,26.34ZM1059.67,87.72h7.15c6.68,0,11.69-1.45,15.01-4.36,3.32-2.9,4.98-7.14,4.98-12.69s-1.39-9.74-4.17-12.42c-2.78-2.67-7.14-4.01-13.08-4.01h-9.89v33.48Z"/>
      <path class="st0" d="M1176.23,147.42h-59.04V34.65h59.04v19.59h-37.3v24.76h34.71v19.59h-34.71v29.08h37.3v19.75Z"/>
      <path class="st0" d="M1252.96,116.11c0,10.18-3.33,18.2-9.99,24.07-6.66,5.86-15.93,8.79-27.8,8.79-10.94,0-20.61-2.26-29.03-6.79v-22.21c6.92,3.39,12.77,5.78,17.57,7.17,4.79,1.39,9.17,2.08,13.15,2.08,4.77,0,8.42-1,10.97-3.01,2.55-2.01,3.82-4.99,3.82-8.95,0-2.21-.56-4.18-1.68-5.9-1.12-1.72-2.77-3.38-4.94-4.98-2.17-1.59-6.6-4.14-13.29-7.64-6.27-3.24-10.96-6.35-14.1-9.33-3.13-2.98-5.63-6.45-7.5-10.41-1.87-3.96-2.81-8.59-2.81-13.88,0-9.98,3.07-17.82,9.22-23.53,6.15-5.71,14.64-8.56,25.49-8.56,5.33,0,10.41.69,15.25,2.08,4.84,1.39,9.9,3.34,15.18,5.86l-7.01,18.59c-5.47-2.47-9.99-4.19-13.57-5.17-3.58-.98-7.09-1.47-10.55-1.47-4.11,0-7.27,1.05-9.47,3.16-2.2,2.11-3.3,4.86-3.3,8.25,0,2.11.44,3.95,1.33,5.51.89,1.57,2.3,3.09,4.24,4.55s6.53,4.1,13.78,7.91c9.58,5.04,16.15,10.09,19.7,15.16,3.55,5.07,5.33,11.27,5.33,18.63Z"/>
    </g>
    <g>
      <path class="st0" d="M867.86,177.02h-10.1v-17.53h10.1v3.05h-6.38v3.85h5.94v3.05h-5.94v4.52h6.38v3.07Z"/>
      <path class="st0" d="M879.7,173.04c0,1.38-.48,2.42-1.43,3.14-.96.72-2.38,1.08-4.29,1.08-.98,0-1.81-.07-2.49-.2s-1.33-.33-1.93-.58v-3.02c.68.32,1.45.59,2.3.8.85.22,1.6.32,2.25.32,1.33,0,1.99-.38,1.99-1.15,0-.29-.09-.52-.26-.7s-.48-.38-.91-.61c-.43-.23-1.01-.49-1.73-.8-1.03-.43-1.79-.83-2.27-1.2-.48-.37-.84-.79-1.06-1.26-.22-.48-.33-1.06-.33-1.76,0-1.19.46-2.11,1.39-2.76.92-.65,2.23-.98,3.93-.98s3.19.35,4.71,1.06l-1.1,2.64c-.67-.29-1.3-.52-1.88-.71-.58-.18-1.18-.28-1.79-.28-1.08,0-1.62.29-1.62.87,0,.33.17.61.52.85.35.24,1.11.6,2.28,1.07,1.05.42,1.81.82,2.3,1.19.49.37.85.79,1.08,1.27s.35,1.05.35,1.71Z"/>
      <path class="st0" d="M887.12,177.26c-4.17,0-6.26-2.29-6.26-6.87,0-2.28.57-4.02,1.7-5.22,1.13-1.2,2.76-1.8,4.88-1.8,1.55,0,2.94.3,4.17.91l-1.08,2.83c-.58-.23-1.11-.42-1.61-.57-.5-.15-.99-.22-1.49-.22-1.9,0-2.85,1.35-2.85,4.05s.95,3.93,2.85,3.93c.7,0,1.36-.09,1.95-.28.6-.19,1.2-.48,1.8-.88v3.13c-.59.38-1.19.64-1.79.78-.6.14-1.36.22-2.28.22Z"/>
      <path class="st0" d="M902.91,177.02l-.49-1.72h-.19c-.39.62-.95,1.11-1.67,1.45-.72.34-1.54.51-2.46.51-1.57,0-2.76-.42-3.56-1.26s-1.2-2.06-1.2-3.64v-8.74h3.66v7.83c0,.97.17,1.69.52,2.18s.89.73,1.64.73c1.02,0,1.76-.34,2.22-1.02.46-.68.68-1.82.68-3.4v-6.31h3.66v13.41h-2.81Z"/>
      <path class="st0" d="M914.74,177.26c-2.16,0-3.85-.59-5.06-1.79-1.21-1.19-1.82-2.88-1.82-5.06s.56-3.98,1.68-5.21c1.12-1.23,2.68-1.84,4.66-1.84s3.37.54,4.42,1.62c1.06,1.08,1.58,2.57,1.58,4.47v1.77h-8.65c.04,1.04.35,1.85.92,2.43.58.58,1.38.88,2.42.88.81,0,1.57-.08,2.29-.25.72-.17,1.47-.44,2.25-.8v2.83c-.64.32-1.32.56-2.05.71s-1.62.23-2.66.23ZM914.22,165.97c-.78,0-1.38.25-1.82.74-.44.49-.69,1.19-.76,2.09h5.13c-.02-.9-.25-1.6-.71-2.09-.46-.49-1.07-.74-1.85-.74Z"/>
      <path class="st0" d="M925.96,177.02h-3.66v-18.66h3.66v18.66Z"/>
      <path class="st0" d="M937.42,177.02l-.71-1.82h-.1c-.62.78-1.25,1.31-1.9,1.61-.65.3-1.5.45-2.55.45-1.29,0-2.3-.37-3.04-1.1-.74-.74-1.11-1.78-1.11-3.14s.5-2.47,1.49-3.15c1-.68,2.5-1.05,4.5-1.12l2.33-.07v-.59c0-1.36-.7-2.04-2.09-2.04-1.07,0-2.33.32-3.78.97l-1.21-2.47c1.54-.81,3.25-1.21,5.13-1.21s3.18.39,4.14,1.18,1.44,1.97,1.44,3.57v8.93h-2.55ZM936.34,170.81l-1.41.05c-1.06.03-1.86.22-2.37.58-.52.35-.78.89-.78,1.61,0,1.03.59,1.55,1.78,1.55.85,0,1.52-.24,2.03-.73.51-.49.76-1.13.76-1.94v-1.1Z"/>
      <path class="st0" d="M952.6,177.26c-1.58,0-2.81-.61-3.71-1.83s-1.35-2.92-1.35-5.08.46-3.91,1.37-5.14c.92-1.23,2.18-1.84,3.78-1.84,1.69,0,2.97.66,3.86,1.97h.12c-.18-1-.28-1.89-.28-2.67v-4.29h3.67v18.66h-2.81l-.71-1.74h-.16c-.83,1.32-2.1,1.98-3.8,1.98ZM953.88,174.35c.93,0,1.62-.27,2.06-.81.44-.54.67-1.47.71-2.77v-.4c0-1.44-.22-2.47-.67-3.09s-1.17-.93-2.16-.93c-.82,0-1.45.35-1.9,1.04-.45.69-.68,1.7-.68,3.02s.23,2.31.68,2.97c.46.66,1.11.99,1.96.99Z"/>
      <path class="st0" d="M969.08,177.26c-2.16,0-3.85-.59-5.06-1.79-1.21-1.19-1.82-2.88-1.82-5.06s.56-3.98,1.68-5.21c1.12-1.23,2.68-1.84,4.66-1.84s3.37.54,4.42,1.62c1.06,1.08,1.58,2.57,1.58,4.47v1.77h-8.65c.04,1.04.35,1.85.92,2.43.58.58,1.38.88,2.42.88.81,0,1.57-.08,2.29-.25.72-.17,1.47-.44,2.25-.8v2.83c-.64.32-1.32.56-2.05.71s-1.62.23-2.66.23ZM968.56,165.97c-.78,0-1.38.25-1.82.74-.44.49-.69,1.19-.76,2.09h5.13c-.02-.9-.25-1.6-.71-2.09-.46-.49-1.07-.74-1.85-.74Z"/>
      <path class="st0" d="M982.42,177.02v-17.53h3.72v17.53h-3.72Z"/>
      <path class="st0" d="M1001.38,177.02h-3.66v-7.83c0-.97-.16-1.69-.49-2.18-.32-.48-.83-.73-1.53-.73-.93,0-1.62.34-2.04,1.03-.42.69-.64,1.82-.64,3.39v6.31h-3.66v-13.41h2.79l.49,1.72h.2c.36-.62.88-1.1,1.56-1.45.68-.35,1.46-.52,2.34-.52,2.01,0,3.37.66,4.08,1.97h.32c.36-.62.89-1.11,1.59-1.45.7-.34,1.49-.52,2.37-.52,1.52,0,2.67.39,3.45,1.17.78.78,1.17,2.03,1.17,3.75v8.74h-3.67v-7.83c0-.97-.16-1.69-.49-2.18-.32-.48-.83-.73-1.53-.73-.9,0-1.57.32-2.01.96-.44.64-.67,1.65-.67,3.05v6.73Z"/>
      <path class="st0" d="M1021.12,177.02l-.71-1.82h-.1c-.62.78-1.25,1.31-1.9,1.61-.65.3-1.5.45-2.55.45-1.29,0-2.3-.37-3.04-1.1-.74-.74-1.11-1.78-1.11-3.14s.5-2.47,1.49-3.15c1-.68,2.5-1.05,4.5-1.12l2.33-.07v-.59c0-1.36-.7-2.04-2.09-2.04-1.07,0-2.33.32-3.78.97l-1.21-2.47c1.54-.81,3.25-1.21,5.13-1.21s3.18.39,4.14,1.18,1.44,1.97,1.44,3.57v8.93h-2.55ZM1020.04,170.81l-1.41.05c-1.06.03-1.86.22-2.37.58-.52.35-.78.89-.78,1.61,0,1.03.59,1.55,1.78,1.55.85,0,1.52-.24,2.03-.73.51-.49.76-1.13.76-1.94v-1.1Z"/>
      <path class="st0" d="M1038.23,163.62v1.86l-2.1.54c.38.6.58,1.27.58,2.01,0,1.44-.5,2.56-1.5,3.36-1,.8-2.4,1.2-4.18,1.2l-.66-.04-.54-.06c-.38.29-.56.61-.56.96,0,.53.67.79,2.01.79h2.28c1.47,0,2.59.32,3.36.95.77.63,1.16,1.56,1.16,2.78,0,1.57-.65,2.78-1.96,3.65-1.31.86-3.18,1.29-5.63,1.29-1.87,0-3.3-.33-4.29-.98s-1.48-1.56-1.48-2.74c0-.81.25-1.48.76-2.03.5-.54,1.24-.93,2.22-1.16-.38-.16-.7-.42-.98-.79-.28-.36-.42-.75-.42-1.16,0-.51.15-.94.44-1.28s.72-.67,1.28-1c-.7-.3-1.26-.79-1.67-1.46-.41-.67-.62-1.46-.62-2.37,0-1.46.48-2.59,1.43-3.39.95-.8,2.31-1.2,4.08-1.2.38,0,.82.03,1.34.1.52.07.85.12.99.15h4.68ZM1027.88,178.92c0,.5.24.9.73,1.19.48.29,1.16.43,2.03.43,1.31,0,2.34-.18,3.08-.54s1.12-.85,1.12-1.47c0-.5-.22-.85-.66-1.04-.44-.19-1.12-.29-2.04-.29h-1.89c-.67,0-1.23.16-1.68.47-.45.32-.68.73-.68,1.25ZM1029.21,168.01c0,.73.17,1.3.5,1.73s.84.64,1.52.64,1.19-.21,1.51-.64.48-1,.48-1.73c0-1.62-.66-2.42-1.99-2.42s-2.01.81-2.01,2.42Z"/>
      <path class="st0" d="M1045.62,177.26c-2.16,0-3.85-.59-5.06-1.79-1.21-1.19-1.82-2.88-1.82-5.06s.56-3.98,1.68-5.21c1.12-1.23,2.68-1.84,4.66-1.84s3.37.54,4.42,1.62c1.06,1.08,1.58,2.57,1.58,4.47v1.77h-8.65c.04,1.04.35,1.85.92,2.43.58.58,1.38.88,2.42.88.81,0,1.57-.08,2.29-.25.72-.17,1.47-.44,2.25-.8v2.83c-.64.32-1.32.56-2.05.71s-1.62.23-2.66.23ZM1045.1,165.97c-.78,0-1.38.25-1.82.74-.44.49-.69,1.19-.76,2.09h5.13c-.02-.9-.25-1.6-.71-2.09-.46-.49-1.07-.74-1.85-.74Z"/>
      <path class="st0" d="M1065.55,177.02h-3.66v-7.83c0-.97-.17-1.69-.52-2.18-.34-.48-.89-.73-1.64-.73-1.02,0-1.76.34-2.22,1.03-.46.68-.68,1.82-.68,3.4v6.31h-3.66v-13.41h2.79l.49,1.72h.2c.41-.65.97-1.14,1.68-1.47.72-.33,1.53-.5,2.44-.5,1.56,0,2.74.42,3.55,1.26s1.21,2.06,1.21,3.65v8.74Z"/>
      <path class="st0" d="M1072.01,163.62h4.01l2.53,7.54c.22.66.36,1.43.44,2.33h.07c.09-.82.26-1.6.52-2.33l2.48-7.54h3.92l-5.67,15.12c-.52,1.4-1.26,2.45-2.22,3.14-.96.7-2.09,1.04-3.38,1.04-.63,0-1.25-.07-1.86-.2v-2.9c.44.1.92.16,1.44.16.65,0,1.21-.2,1.7-.59.48-.4.86-.99,1.13-1.79l.22-.66-5.32-13.31Z"/>
      <path class="st0" d="M1100.24,162.33c-1.4,0-2.48.53-3.25,1.58-.77,1.05-1.15,2.52-1.15,4.39,0,3.91,1.47,5.86,4.4,5.86,1.23,0,2.72-.31,4.47-.92v3.12c-1.44.6-3.05.9-4.82.9-2.55,0-4.5-.77-5.85-2.32s-2.03-3.77-2.03-6.66c0-1.82.33-3.42,1-4.79.66-1.37,1.62-2.42,2.86-3.15s2.7-1.1,4.37-1.1,3.41.41,5.13,1.24l-1.2,3.02c-.66-.31-1.31-.58-1.98-.82-.66-.23-1.32-.35-1.96-.35Z"/>
      <path class="st0" d="M1119.46,170.3c0,2.18-.58,3.89-1.73,5.12-1.15,1.23-2.75,1.85-4.81,1.85-1.29,0-2.42-.28-3.41-.85s-1.74-1.37-2.27-2.43c-.53-1.06-.79-2.29-.79-3.69,0-2.19.57-3.89,1.72-5.11,1.14-1.21,2.75-1.82,4.82-1.82,1.29,0,2.42.28,3.41.84.98.56,1.74,1.36,2.27,2.41.53,1.05.79,2.27.79,3.68ZM1110.19,170.3c0,1.33.22,2.33.65,3.01.44.68,1.15,1.02,2.13,1.02s1.68-.34,2.1-1.01c.43-.68.64-1.68.64-3.02s-.22-2.32-.65-2.99c-.43-.66-1.14-1-2.12-1s-1.68.33-2.11.99c-.43.66-.65,1.66-.65,2.99Z"/>
      <path class="st0" d="M1133.6,177.02h-3.66v-7.83c0-.97-.16-1.69-.49-2.18-.32-.48-.83-.73-1.53-.73-.93,0-1.62.34-2.04,1.03-.42.69-.64,1.82-.64,3.39v6.31h-3.66v-13.41h2.79l.49,1.72h.2c.36-.62.88-1.1,1.56-1.45.68-.35,1.46-.52,2.34-.52,2.01,0,3.37.66,4.08,1.97h.32c.36-.62.89-1.11,1.59-1.45.7-.34,1.49-.52,2.37-.52,1.52,0,2.67.39,3.45,1.17.78.78,1.17,2.03,1.17,3.75v8.74h-3.67v-7.83c0-.97-.16-1.69-.49-2.18-.32-.48-.83-.73-1.53-.73-.9,0-1.57.32-2.01.96-.44.64-.67,1.65-.67,3.05v6.73Z"/>
      <path class="st0" d="M1154.33,177.02l-.49-1.72h-.19c-.39.62-.95,1.11-1.67,1.45-.72.34-1.54.51-2.46.51-1.57,0-2.76-.42-3.56-1.26s-1.2-2.06-1.2-3.64v-8.74h3.66v7.83c0,.97.17,1.69.52,2.18s.89.73,1.64.73c1.02,0,1.76-.34,2.22-1.02.46-.68.68-1.82.68-3.4v-6.31h3.66v13.41h-2.81Z"/>
      <path class="st0" d="M1172.46,177.02h-3.66v-7.83c0-.97-.17-1.69-.52-2.18-.34-.48-.89-.73-1.64-.73-1.02,0-1.76.34-2.22,1.03-.46.68-.68,1.82-.68,3.4v6.31h-3.66v-13.41h2.79l.49,1.72h.2c.41-.65.97-1.14,1.68-1.47.72-.33,1.53-.5,2.44-.5,1.56,0,2.74.42,3.55,1.26s1.21,2.06,1.21,3.65v8.74Z"/>
      <path class="st0" d="M1175.18,160.15c0-1.19.66-1.79,1.99-1.79s1.99.6,1.99,1.79c0,.57-.17,1.01-.5,1.32-.33.32-.83.47-1.49.47-1.33,0-1.99-.6-1.99-1.8ZM1179,177.02h-3.66v-13.41h3.66v13.41Z"/>
      <path class="st0" d="M1187.4,177.26c-4.17,0-6.26-2.29-6.26-6.87,0-2.28.57-4.02,1.7-5.22,1.13-1.2,2.76-1.8,4.88-1.8,1.55,0,2.94.3,4.17.91l-1.08,2.83c-.58-.23-1.11-.42-1.61-.57-.5-.15-.99-.22-1.49-.22-1.9,0-2.85,1.35-2.85,4.05s.95,3.93,2.85,3.93c.7,0,1.36-.09,1.95-.28.6-.19,1.2-.48,1.8-.88v3.13c-.59.38-1.19.64-1.79.78-.6.14-1.36.22-2.28.22Z"/>
      <path class="st0" d="M1202.21,177.02l-.71-1.82h-.1c-.62.78-1.25,1.31-1.9,1.61-.65.3-1.5.45-2.55.45-1.29,0-2.3-.37-3.04-1.1-.74-.74-1.11-1.78-1.11-3.14s.5-2.47,1.49-3.15c1-.68,2.5-1.05,4.5-1.12l2.33-.07v-.59c0-1.36-.7-2.04-2.09-2.04-1.07,0-2.33.32-3.78.97l-1.21-2.47c1.54-.81,3.25-1.21,5.13-1.21s3.18.39,4.14,1.18,1.44,1.97,1.44,3.57v8.93h-2.55ZM1201.13,170.81l-1.41.05c-1.06.03-1.86.22-2.37.58-.52.35-.78.89-.78,1.61,0,1.03.59,1.55,1.78,1.55.85,0,1.52-.24,2.03-.73.51-.49.76-1.13.76-1.94v-1.1Z"/>
      <path class="st0" d="M1213.09,177.26c-4.17,0-6.26-2.29-6.26-6.87,0-2.28.57-4.02,1.7-5.22,1.13-1.2,2.76-1.8,4.88-1.8,1.55,0,2.94.3,4.17.91l-1.08,2.83c-.58-.23-1.11-.42-1.61-.57-.5-.15-.99-.22-1.49-.22-1.9,0-2.85,1.35-2.85,4.05s.95,3.93,2.85,3.93c.7,0,1.36-.09,1.95-.28.6-.19,1.2-.48,1.8-.88v3.13c-.59.38-1.19.64-1.79.78-.6.14-1.36.22-2.28.22Z"/>
      <path class="st0" d="M1219.23,160.15c0-1.19.66-1.79,1.99-1.79s1.99.6,1.99,1.79c0,.57-.17,1.01-.5,1.32-.33.32-.83.47-1.49.47-1.33,0-1.99-.6-1.99-1.8ZM1223.04,177.02h-3.66v-13.41h3.66v13.41Z"/>
      <path class="st0" d="M1238.18,170.3c0,2.18-.58,3.89-1.73,5.12-1.15,1.23-2.75,1.85-4.81,1.85-1.29,0-2.42-.28-3.41-.85s-1.74-1.37-2.27-2.43c-.53-1.06-.79-2.29-.79-3.69,0-2.19.57-3.89,1.72-5.11,1.14-1.21,2.75-1.82,4.82-1.82,1.29,0,2.42.28,3.41.84.98.56,1.74,1.36,2.27,2.41.53,1.05.79,2.27.79,3.68ZM1228.91,170.3c0,1.33.22,2.33.65,3.01.44.68,1.15,1.02,2.13,1.02s1.68-.34,2.1-1.01c.43-.68.64-1.68.64-3.02s-.22-2.32-.65-2.99c-.43-.66-1.14-1-2.12-1s-1.68.33-2.11.99c-.43.66-.65,1.66-.65,2.99ZM1229.68,162.14v-.32c1.37-1.6,2.31-2.8,2.82-3.61h4.1v.25c-.42.42-1.13,1.03-2.13,1.85-1,.82-1.79,1.43-2.36,1.83h-2.43Z"/>
      <path class="st0" d="M1252.69,177.02h-3.66v-7.83c0-.97-.17-1.69-.52-2.18-.34-.48-.89-.73-1.64-.73-1.02,0-1.76.34-2.22,1.03-.46.68-.68,1.82-.68,3.4v6.31h-3.66v-13.41h2.79l.49,1.72h.2c.41-.65.97-1.14,1.68-1.47.72-.33,1.53-.5,2.44-.5,1.56,0,2.74.42,3.55,1.26s1.21,2.06,1.21,3.65v8.74Z"/>
    </g>
  </g>
  <path class="st0" d="M760.88,10.5c-51.83,0-93.85,42.01-93.85,93.84s42.02,93.86,93.85,93.86,93.85-42.02,93.85-93.86-42.02-93.84-93.85-93.84ZM830.09,90.02c-.18.24-.03.44-.03.6,0,.26-.03.39-.09.58,0,.03-.21.53-.43.82-.38.5-.97.79-1.53.97-.43.14-.87.22-1.3.33-.38.1-.66.24-.74.28-.27.15-.53.33-.79.52-.58.42-1.15.83-1.8,1.12-.31.14-.65.22-.97.32-.17.06-.35.11-.52.17-.07.03-.2.07-.31.13-.29.14-.52.41-.64.55-.24.27-.47.53-.74.76-.55.46-1.25.59-1.92.45-.13-.03-.26-.07-.38-.11-.05-.02-.11-.04-.16-.07-.07-.03-1.16-.6-1.61-.64-.04,0-.15,0-.19.02-.08.05-.18.25-.22.33-.01.03-.03.06-.04.09,0,0,0,0,0,0-.24.78-.38,1.6-.66,2.36-.37.99-.95,1.82-1.87,2.25-.43.21-.88.35-1.33.52-.04.01-.08.03-.12.05-.01,0-.02.01-.03.02-.09.05-.18.11-.27.17-.05.03-.09.07-.14.1-.06.05-.11.1-.17.15-.32.31-.6.68-.92.99-.39.37-.79.71-1.27.93-1.03.48-2.15.3-3.23.14-.47-.07-.94-.16-1.42-.25-.51-.09-1-.27-1.45-.54-.16-.1-.31-.2-.48-.27-.05-.03-.26-.09-.31-.1-.1-.01-.2,0-.3,0-.59.06-1.13.06-1.7-.17-.3-.13-.6-.27-.89-.42-.03-.01-.11-.06-.14-.07-.1-.03-.2-.07-.31-.1-.03,0-.06-.02-.09-.02-.34-.03-.6.16-.75.3,0,0,0,0,0,0-.03.02-.15.14-.19.18-.09.09-.18.18-.26.28-.17.2-.34.4-.49.61-.35.45-.68.92-1.06,1.33-.39.42-.81.78-1.2,1.2-.37.41-.72.85-1.09,1.26-.81.92-1.79,1.84-2.98,2.07-.57.11-1.14.09-1.72.11-.15,0-.3.01-.45.03,0,0-.1.02-.13.02-.04,0-.08.02-.08.02-.27.06-.52.17-.79.25-.25.08-.51.15-.77.2-.17.03-.67.12-.85.12-.62-.02-1.23-.05-1.83-.16-.15-.03-.31-.05-.46-.08,0,0-.02,0-.03,0-.04,0-.09-.01-.13-.02-.23-.03-.72-.07-1.22.06-.39.1-.58.24-.65.28-1.12.61-2.14,1.4-3.14,2.2-.23.18-.46.37-.69.55-.11.09-.74.59-1.16,1-.19.19-.38.38-.55.59-.1.13-.2.26-.3.4,0,0,0,0,0,0-.04.05-.07.1-.11.16-.18.26-.35.53-.55.77-.36.45-1.75.85-2.2,1.2-.39.31-1.64.56-2.06.83-.42.28-1.2.85-1.26.9-.04.03-.08.07-.11.1-.04.03-.08.07-.11.1-.09.08-.19.17-.28.26-.19.17-.37.35-.55.53-.43.44-.83.91-1.2,1.41v.02c-.16.65-.29,1.3-.39,1.96-.02.11-.03.22-.04.33,0,0-.01.1-.02.14,0,.05-.02.13-.02.15-.03.27-.09.54-.13.82-.04.23-.07.47-.1.7,0,.06-.02.13-.02.19-.01.12-.03.24-.04.37-.19,1.78-.2,3.57-.23,5.35-.01.9,0,1.79.05,2.69.02.44.06.87.1,1.3.01.13.02.25.04.37,0,.03,0,.05,0,.06,0,.01,0,.01,0,.03.03.21.05.41.08.62.25,1.72.66,3.38,1.19,5.02.32.99.67,1.98,1.02,2.96.17.48.37.95.52,1.44.12.4.44.57.65.7.04.03.09.06.13.09.1.07.19.13.29.19.18.11.37.23.55.33.38.21.75.46,1.13.67.47.27.95.53,1.43.78.48.25,1.76.52,2.24.76.13.07.27.13.4.2,0,0,.02,0,.03.01.04.02.07.03.11.05.23.1,1.47.2,1.7.29,1,.39,2.04.68,3.06,1.03,1.02.35,2.04.74,3.06,1.11,1.01.37,2.05.65,3.1.86.29.06.58.11.87.16.05,0,.1.02.15.02,0,0,0,0,0,0,.13.02.26.03.4.05.55.06,1.09.09,1.64.13,1.14.08,2.28,1.15,3.42,1.2,2.25.11,4.5.74,6.75.75,1.02,0,2.24.26,3.1.47.57.14.98.65,1.04,1.27,0,.08-.06.15-.15.15h-86.38c-.09,0-.16-.08-.14-.16.05-.38.27-1.28,1.14-1.4,1.66-.23,4.64-.64,6.19-.69,1.05-.03,2.1-.08,3.15-.16.27-.02.54-.05.81-.08.12-.01.24-.03.36-.04.06,0,.12-.02.18-.02.12,0,.27-.06.38-.09.11-.03.21-.06.31-.1.21-.08.41-.17.61-.26.43-.19.86-.39,1.32-.5.56-.13,1.14-.17,1.71-.17,1.01,0,2-.03,3.01-.16.06,0,.12-.02.18-.02t0,0c.13-.02.26-.04.38-.07.23-.04.45-.09.68-.15.48-.12.96-.26,1.42-.44.13-.05.39-.16.49-.2.17-.07.31-.19.46-.3.05-.04.1-.08.15-.12.04-.03.08-.07.11-.1.13-.12.26-.23.4-.35.37-.32.73-.6,1.17-.8.68-.31,1.35-.33,2.12-.28.37.02.75,0,1.12-.05h0c.06-.01.12-.02.18-.03.14-.02.28-.05.42-.08.34-.07.67-.14,1-.23.1-.03.2-.06.31-.09.1-.03.44-.09.53-.12.07-.02.12-.04.2-.05.02,0,.04,0,.05-.01.16-.08.36-.1.53-.15.07-.03.15-.05.22-.08.04-.01.07-.03.11-.04.01,0,.01,0,.02,0,0,0,0,0,0,0,.18-.08.35-.16.44-.31.28-.43,1.63-.97,1.74-1.47.03-.15.14-.44.15-.44.04-.12.09-.24.13-.36.09-.26.17-.52.23-.79.14-.53.24-1.07.31-1.61,0,0,0-.02,0-.03.01-.06.01-.13.02-.19.02-.14.03-.29.04-.43.03-.3.05-.59.06-.89.07-2.42-.32-4.86.36-7.21.11-.37.24-.74.39-1.1.02-.05.17-.46.21-.58.1-.31.18-.62.25-.93.03-.13.06-.26.08-.4,0-.04.08-.55.09-.61.01-.15.03-.29.04-.44.02-.27.02-.53.02-.8,0-.31-.02-.63-.05-.94-.01-.13-.02-.25-.04-.38-.01-.07-.02-.15-.03-.22-.17-1.12-.44-2.23-.74-3.31-.14-.49-.29-.98-.46-1.47-.1-.28-.19-.56-.29-.84-.02-.06-.04-.11-.06-.17,0,0,0,0,0,0-.1-.26-.21-.51-.32-.76-.24-.51-.53-.98-.79-1.48-.3-.57-.54-1.2-.69-1.84-.15-.64-.96-1.36-1.3-1.93-.18-.3-.73-.49-.94-.62-.08-.05-.22-.19-.29-.25-.37-.3-.75-.6-1.04-.99-.18-.24-.35-.49-.5-.76-.06-.11-.18-.44-.38-.45-.16,0-.27.08-.37.14-.73.4-1.53.67-2.36.51-.22-.04-.42-.12-.62-.21-.14-.06-.42-.19-.42-.19-.05-.02-.37-.16-.49-.2-.05-.01-.1-.02-.14-.04-.08-.03-.23-.01-.29-.01-.11,0-.22,0-.33.01-.51.03-1.02.06-1.52-.1-.5-.16-.92-.46-1.31-.84-.14-.13-.27-.28-.4-.41-.06-.06-.12-.11-.17-.17-.02-.02-.04-.04-.07-.05-.29-.17-.52-.23-.67-.24-.2,0-.41-.01-.61,0-.11,0-.22.01-.32.02-.05,0-.37.02-.67.19-.03.02-.06.05-.1.07-.28.28-.57.57-.89.79-.43.3-.88.2-1.34.3-.07.01-.16.07-.21.12-.19.18-.37.37-.58.52-.35.26-.78.43-1.18.58-1.68.59-3.64.57-5.2-.41-.72-.45-1.34-1.08-1.98-1.64-.04-.04-.08-.07-.12-.11,0,0,0,0-.02-.01-.07-.06-.14-.12-.22-.17-.15-.11-.3-.22-.46-.31-.31-.19-.63-.35-.93-.56-.63-.44-1.05-1.04-1.45-1.71-.1-.17-.2-.39-.34-.54-.02-.02-.04-.05-.06-.06-.05-.06-.26-.25-.26-.25-.07-.05-.14-.09-.22-.13-.03-.02-.06-.03-.1-.05-.01,0-.02,0-.03-.01-.1-.04-.2-.07-.31-.1-.13-.04-.26-.06-.39-.09-.01,0-.04,0-.06-.01-.04,0-.08-.01-.12-.01-.22-.02-.44-.04-.66-.05-.46-.02-.92-.03-1.38-.1-.53-.07-1.01-.19-1.49-.46-.34-.19-.64-.45-.95-.68-.08-.06-.17-.12-.26-.17-.02-.01-.2-.15-.44-.2-.25-.05-.37,0-.51.1-.07.04-.13.09-.19.14-.73.56-1.46,1.16-2.41,1.09-.96-.08-1.72-.67-2.42-1.34-.31-.3-.61-.61-.91-.93-.24-.26-.45-.55-.62-.87-.14-.27-.54-.9-.61-.97-.23-.22-.64-.1-.69-.08-.45.13-.87.34-1.31.47-.48.15-1,.22-1.5.26-.47.04-.93,0-1.39-.12-.2-.05-.4-.11-.58-.21-.33-.18-.71-.47-.83-.57-.27-.24-.63-.73-.74-.8-.08-.04-.29.13-.4.21-.44.3-.98.28-1.49.12-.15-.05-.29-.11-.41-.2-.36-.26-.59-.62-.8-1.02-.09-.17-.17-.35-.27-.52-.05-.09-.1-.17-.15-.25-.01-.02-.01-.02-.02-.03-.03-.03-.05-.07-.08-.1-.28-.36-.59-.67-.89-1.01-.34-.39-.63-.81-.86-1.28-.19-.38-.35-.77-.58-1.13-.02-.04-.09-.13-.12-.17-.07-.09-.15-.17-.22-.25-.12-.13-.24-.26-.36-.39-.3-.34-.64-.72-.84-1.14-.12-.25-.23-.51-.33-.78-.02-.05-.1-.27-.1-.28-.03-.09-.07-.19-.09-.28-.15-.51-.17-1.04-.1-1.57.06-.47.21-1.03.45-1.42.31-.5.72-.74,1.22-.97.04-.02.08-.04.13-.06,0,0,0,0,0,0,.08-.04.16-.08.24-.13.08-.05.27-.2.33-.25.15-.15.29-.31.43-.46.07-.07.14-.14.21-.2.08-.07.43-.31,1.52-.71.1-.04.21-.19.22-.22.15-.3.23-.56.29-.92.06-.33.11-.67.27-.97.22-.4.7-.62.97-.77s.76-.45.99-.64c.08-.07.21-.23.26-.33.04-.08.05-.23.07-.35,0-.05.02-.21.03-.24,0-.05,0-.11.01-.16,0-.14.02-.29.02-.43,0-.21.01-.43.03-.64.05-.6.19-1.11.41-1.66.06-.13.12-.26.18-.39,0,0,.05-.13.05-.14.07-.2.13-.41.19-.62.14-.49.29-.98.5-1.44.46-1.02,1.49-1.79,2.55-1.35.46.19.84.54,1.16.94.04.04.32.43.4.5,0,0,.02.02.03.02.03.01.05.02.08.02.19.02.36.1.55.19.03.01.06.03.08.03.04.01.08.03.12.03.09.01.18,0,.27,0,.04,0,.11-.02.13-.02.13-.03.26-.06.39-.09.36-.07.71-.12,1.07-.14.29-.02.58,0,.87-.06.09-.02.21-.03.28-.04.04,0,.12-.02.16-.04.08-.04.2-.1.24-.12.1-.06.25-.13.26-.14.12-.08.27-.11.39-.18.27-.16.5-.37.8-.46.79-.26,1.44.2,2.02.72.12.11.25.23.37.34.02.02.04.03.06.05,0,0,0,0,.01,0,.06.05.13.1.2.15.23.18.5.15.51.15.07,0,.14-.03.2-.05.04-.01.09-.03.14-.06.07-.04.13-.08.19-.12.15-.11.61-.6.83-.88.56-.72,1.07-1.45,1.81-2.01.44-.34.84-.75,1.17-1.22.18-.26.23-.37.27-.55,0-.02.02-.16.02-.18,0-.08,0-.16,0-.24,0-.44,0-.9.11-1.32.5-1.72,1.73-3.15,3.23-3.88.31-.15.63-.28.93-.45.16-.09.31-.19.46-.31,0,0,0,0,.02-.01.02-.02.06-.05.07-.06.07-.07.14-.14.2-.21.62-.66,1.34-1.14,2.11-1.56.34-.19.68-.4,1.03-.57.21-.1.42-.2.63-.3.08-.03.95-.46,1.24-.66.04-.03.09-.06.11-.09.05-.04.12-.12.18-.18.05-.05.21-.28.24-.33.03-.06.05-.11.06-.15,0,0,.03-.14.05-.22,0-.01,0,0,0-.03,0-.05,0-.11.01-.16,0-.09.01-.19.01-.28.02-.5.06-.98.23-1.45.34-.9.94-1.5,1.71-1.97.3-.19.61-.35.91-.53.15-.09.31-.19.46-.29.06-.04.12-.09.19-.14,0,0,0,0,0,0,.03-.03.17-.17.23-.24.02-.02.15-.24.2-.32.01-.03.04-.11.05-.13,0-.01.07-.39.07-.44,0-.19,0-.38,0-.57-.05-.8-.21-1.59-.21-2.39,0-.82.3-1.6.84-2.16.59-.61,1.43-1.22,2.29-1.15.64.05,1.44.77,1.7.79s1.21-.53,1.84-.45c.89.11,1.58.67,2.08,1.46.23.36.41.78.54,1.2.05.16.09.33.13.5.02.07.03.14.05.2,0,.02.02.06.02.07,0,.01.08.16.13.21.02.02.06.04.08.05.04.02.16.04.17.04.15.01.29.03.44.04.75.05,1.49.16,2.23.3.77.14,1.53.25,2.23.64.4.23.68.57.93.97.05.08.1.29.26.27.29-.04.57-.07.84.03.43.16.76.45,1.11.75.06.06.13.11.19.17.02.01.03.03.05.04.09.07.16.2.27.18.58-.09.72-.94,1.13-1.35.12-.11.27-.15.38-.25.16-.15.19-.4.29-.59.12-.24.24-.48.35-.73.02-.05.04-.13.07-.18,0,0,0-.01,0-.02.04-.12.08-.23.13-.35.23-.64.46-1.28.86-1.82.37-.5.92-.77,1.47-.96.46-.16.93-.24,1.38-.42.02,0,.21-.09.26-.14.15-.13.33-.44.52-.61.64-.61,2.29-.25,2.92-.63.79-.47,1.49-1.16,2.39-1.38,1.15-.27,2.35.28,2.99,1.36.21.35.34.85.5,1.11.14.22.36.41.97.4.07,0,.14,0,.22-.01.02,0,.08-.01.12-.02.25-.05.49-.11.72-.2.04-.02.08-.03.12-.05.01,0,.09-.05.12-.06.11-.06.42-.31.47-.36.08-.09.16-.18.23-.28.02-.03.04-.06.06-.09,0,0,0,0,.01-.02.04-.06.08-.12.12-.19.07-.1.13-.21.2-.31.14-.22.28-.45.43-.66.12-.17.24-.34.37-.5.05-.06.09-.12.14-.18.02-.02.05-.06.06-.08.07-.12.14-.24.21-.37.04-.07.08-.15.12-.22.03-.06.46-.78.69-1.1.19-.27.38-.55.61-.79.38-.39.84-.72,1.36-.83.6-.13,1.17-.06,1.76.05.11.02.21.04.32.06.07.01.43.04.6-.04.02,0,.21-.13.29-.18.17-.11.33-.23.5-.35.58-.38,1.17-.63,1.84-.7.6-.06,1.22.05,1.79.23.14.05,1.45.61,1.75.77.47.24.92.5,1.37.76.41.23.79.45,1.05.88.25.42.47.86.61,1.34.01.05.05.18.06.2.03.05.39.34.48.4.41.26.82.5,1.19.84.5.46.76,1.13.82,1.83.05.64-.16,1.21-.32,1.8-.03.1-.05.21-.05.21-.04.25.13.55.2.67,0,.01.01.02.02.03,0,0,0,0,0,0,.05.06.09.12.14.17.08.1.17.19.25.28.11.11.22.21.33.31.04.03.09.07.13.1.21.16.44.32.67.45.01,0,.03.02.05.03.04.02.09.04.13.05.2.06.54.01.6,0,.2-.06.39-.15.58-.22.55-.21,1.18-.31,1.76-.18.27.06.5.25.72.42.06.04.12.14.24.11.09-.02.18-.03.27-.05.23-.03.44-.04.68.02.29.07.58.21.83.4.27.21.51.47.67.79.05.1.13.31.17.44.03.1.06.2.09.3.05.21.08.42.13.62.02.1.1.35.11.39.01.02.09.17.11.2,0,0,.16.17.24.25,0,0,0,0,0,0,.05.04.11.08.16.12.09.07.18.13.28.2.55.38,1.06.78,1.45,1.36.16.24.3.74.35.8s.65.11.91.4c.17.19.29.44.34.7.01.05,0,.12.02.18.04.09.12.16.17.25.06.08.11.17.17.26.04.07.07.2.13.22.13.03.33-.2.47-.28.16-.1.32-.18.48-.26.33-.16.67-.29,1.02-.4,0,0,.96-.29,1.1-.38.08-.06.19-.13.29-.19.42-.25.84-.34,1.31-.24.14.03.26.07.39.13.13.06.25.12.38.18.04.02.08.04.11.06.03,0,.14.02.17.01.15-.03.43-.38.54-.52.39-.47.9-.79,1.47-.9.6-.12,1.26-.12,1.71.41.24.29.35.65.36,1.04,0,.02,0,.05,0,.07,0,.11-.02.29-.02.37,0,.15-.02.45.12.54.07.05.15.09.23.13.25.15.47.36.66.6.36.46.56.93.69,1.51.03.12.06.24.09.36,0,.01.01.05.02.09,0,.01.01.03.02.06,0,.02.02.04.03.07.05.1.11.24.16.31.15.21.5.55.79.65.14.05.29.09.43.12.09.02.8.1,1.11.13,1.41.11,2.86.11,4.22.57.68.23,1.21.64,1.61,1.29.11.18.17.39.31.55.08.1.3.29.34.31.08.03.25.06.33.06.21,0,.42.03.62.05.68.05,1.35.19,1.91.64.3.24.54.51.79.8.1.11.27.22.4.29.17.08.43.09.7.23.34.18.64.53.82.9.22.46.16,1.29.16,1.3.01.11.07.2.11.26.04.06.06.09.09.13.22.3.44.6.64.92.34.55.64,1.16.74,1.82.11.74.05,1.49-.14,2.21-.12.45-.3.89-.43,1.34-.07.22-.22.62-.17.66.17.14,1.04-.03,1.55.19,1.33.58,2.23,1.91,2.28,3.49.02.7-.32,1.75-.73,2.29-.14.19-.3.36-.45.55Z"/>
</svg>