<?xml version="1.0" encoding="UTF-8"?>
<svg id="Capa_2" xmlns="http://www.w3.org/2000/svg" version="1.1" viewBox="0 0 1101.03 696.54">
  <!-- Generator: Adobe Illustrator 30.1.0, SVG Export Plug-In . SVG Version: 2.1.1 Build 136)  -->
  <rect x="7.24" y="7.24" width="1086.54" height="682.05" rx="94.33" ry="94.33" fill="#2d2d2d" stroke="#505050" stroke-miterlimit="10" stroke-width="14.49"/>
  <path d="M537.48,122.64c-66.09,0-119.67,53.58-119.67,119.67s53.58,119.67,119.67,119.67,119.67-53.58,119.67-119.67-53.58-119.67-119.67-119.67h0Z" fill="#b81f2a" fill-rule="evenodd"/>
  <g>
    <path d="M191.06,524.85l-5.68-18.66h-28.57l-5.68,18.66h-17.91l27.66-78.7h20.32l27.77,78.7h-17.91ZM181.41,492.25c-5.25-16.9-8.21-26.47-8.87-28.68-.66-2.22-1.13-3.97-1.42-5.25-1.18,4.58-4.56,15.89-10.13,33.94h20.43-.01Z" fill="#fff"/>
    <path d="M259.36,507.05c0,6.15-2.14,10.83-6.41,14.05-4.27,3.22-10.66,4.83-19.17,4.83-4.36,0-8.08-.3-11.15-.89-3.07-.59-5.95-1.46-8.63-2.6v-13.51c3.04,1.43,6.46,2.63,10.27,3.59s7.16,1.45,10.05,1.45c5.93,0,8.9-1.72,8.9-5.15,0-1.29-.39-2.33-1.18-3.14-.79-.8-2.14-1.72-4.07-2.73s-4.5-2.21-7.72-3.56c-4.61-1.93-8-3.72-10.16-5.36-2.16-1.64-3.73-3.53-4.72-5.66-.98-2.13-1.47-4.74-1.47-7.85,0-5.32,2.06-9.44,6.19-12.36,4.13-2.91,9.98-4.37,17.56-4.37s14.24,1.57,21.07,4.72l-4.93,11.79c-3-1.29-5.81-2.34-8.42-3.16s-5.27-1.23-7.99-1.23c-4.82,0-7.24,1.31-7.24,3.91,0,1.47.78,2.73,2.33,3.81,1.56,1.07,4.96,2.66,10.21,4.77,4.68,1.89,8.11,3.66,10.29,5.31,2.18,1.64,3.79,3.54,4.82,5.68,1.04,2.14,1.56,4.7,1.56,7.67h.01Z" fill="#fff"/>
    <path d="M299.24,525.92c-9.65,0-17.19-2.66-22.62-7.99-5.43-5.32-8.15-12.87-8.15-22.62s2.51-17.81,7.53-23.29c5.02-5.49,11.96-8.23,20.83-8.23s15.06,2.41,19.78,7.24,7.08,11.49,7.08,20v7.93h-38.65c.18,4.65,1.55,8.27,4.13,10.88,2.57,2.61,6.18,3.91,10.83,3.91,3.61,0,7.02-.38,10.24-1.13s6.58-1.95,10.08-3.59v12.65c-2.86,1.43-5.92,2.49-9.17,3.19s-7.22,1.05-11.9,1.05h0ZM296.94,475.42c-3.47,0-6.18,1.1-8.15,3.3-1.97,2.2-3.09,5.32-3.38,9.35h22.95c-.07-4.04-1.13-7.16-3.16-9.35-2.04-2.2-4.79-3.3-8.26-3.3Z" fill="#fff"/>
    <path d="M389.15,464.91v8.31l-9.38,2.41c1.72,2.68,2.57,5.68,2.57,9.01,0,6.43-2.24,11.45-6.73,15.04-4.49,3.59-10.71,5.39-18.68,5.39l-2.95-.16-2.41-.27c-1.68,1.29-2.52,2.72-2.52,4.29,0,2.36,3,3.54,9.01,3.54h10.19c6.58,0,11.59,1.41,15.04,4.24s5.17,6.97,5.17,12.44c0,7.01-2.92,12.44-8.77,16.3s-14.23,5.79-25.17,5.79c-8.36,0-14.75-1.46-19.17-4.37s-6.62-7-6.62-12.25c0-3.61,1.13-6.63,3.38-9.06s5.56-4.16,9.92-5.2c-1.68-.72-3.15-1.89-4.4-3.51-1.25-1.63-1.88-3.35-1.88-5.17,0-2.29.66-4.19,1.98-5.71s3.23-3.01,5.74-4.48c-3.15-1.36-5.64-3.54-7.48-6.54s-2.76-6.54-2.76-10.61c0-6.54,2.13-11.6,6.38-15.17s10.33-5.36,18.23-5.36c1.68,0,3.67.15,5.98.46,2.31.3,3.78.53,4.42.67h20.91v-.03ZM342.88,533.32c0,2.25,1.08,4.02,3.24,5.31s5.19,1.93,9.09,1.93c5.86,0,10.45-.8,13.78-2.41,3.32-1.61,4.99-3.81,4.99-6.59,0-2.25-.98-3.81-2.95-4.66-1.97-.86-5-1.29-9.11-1.29h-8.47c-3,0-5.51.71-7.53,2.12s-3.03,3.28-3.03,5.6h0ZM348.83,484.53c0,3.25.74,5.83,2.22,7.72s3.74,2.84,6.78,2.84,5.32-.95,6.75-2.84c1.43-1.89,2.14-4.47,2.14-7.72,0-7.22-2.97-10.83-8.9-10.83s-9.01,3.61-9.01,10.83h.02Z" fill="#fff"/>
    <path d="M441.47,524.85l-2.2-7.67h-.86c-1.75,2.79-4.24,4.94-7.45,6.46-3.22,1.52-6.88,2.28-10.99,2.28-7.04,0-12.35-1.89-15.92-5.66-3.57-3.77-5.36-9.19-5.36-16.27v-39.08h16.35v35.01c0,4.32.77,7.57,2.3,9.73s3.99,3.24,7.34,3.24c4.57,0,7.88-1.53,9.92-4.58,2.04-3.06,3.06-8.12,3.06-15.2v-28.2h16.35v59.94h-12.55,0Z" fill="#fff"/>
    <path d="M504.63,463.78c2.22,0,4.06.16,5.52.48l-1.23,15.33c-1.32-.36-2.93-.54-4.83-.54-5.22,0-9.28,1.34-12.2,4.02-2.91,2.68-4.37,6.43-4.37,11.26v30.5h-16.35v-59.94h12.38l2.41,10.08h.8c1.86-3.36,4.37-6.07,7.53-8.12s6.6-3.08,10.32-3.08h.02Z" fill="#fff"/>
    <path d="M559.09,524.85l-3.16-8.15h-.43c-2.75,3.47-5.58,5.87-8.5,7.21-2.91,1.34-6.71,2.01-11.39,2.01-5.76,0-10.29-1.64-13.59-4.93-3.31-3.29-4.96-7.97-4.96-14.05s2.22-11.05,6.67-14.07c4.45-3.02,11.16-4.69,20.13-5.01l10.4-.32v-2.63c0-6.08-3.11-9.11-9.33-9.11-4.79,0-10.42,1.45-16.89,4.34l-5.41-11.04c6.9-3.61,14.55-5.41,22.95-5.41s14.21,1.75,18.5,5.25,6.43,8.83,6.43,15.98v39.94h-11.42ZM554.27,497.07l-6.33.21c-4.75.14-8.29,1-10.61,2.57s-3.48,3.97-3.48,7.18c0,4.61,2.64,6.92,7.93,6.92,3.79,0,6.82-1.09,9.09-3.27,2.27-2.18,3.4-5.07,3.4-8.68v-4.93h0Z" fill="#fff"/>
    <path d="M641.01,524.85h-16.35v-35.01c0-4.32-.72-7.57-2.17-9.73s-3.73-3.24-6.84-3.24c-4.18,0-7.22,1.54-9.11,4.61-1.89,3.07-2.84,8.13-2.84,15.17v28.2h-16.35v-59.94h12.49l2.2,7.67h.91c1.61-2.75,3.93-4.91,6.97-6.46,3.04-1.56,6.52-2.33,10.45-2.33,8.97,0,15.05,2.93,18.23,8.79h1.45c1.61-2.79,3.98-4.95,7.1-6.49,3.13-1.54,6.66-2.31,10.59-2.31,6.79,0,11.93,1.74,15.41,5.23,3.48,3.48,5.23,9.07,5.23,16.75v39.08h-16.4v-35.01c0-4.32-.72-7.57-2.17-9.73s-3.73-3.24-6.84-3.24c-4,0-7,1.43-8.98,4.29s-2.98,7.4-2.98,13.62v30.08h0Z" fill="#fff"/>
    <path d="M694.46,449.41c0-5.32,2.97-7.99,8.9-7.99s8.9,2.66,8.9,7.99c0,2.54-.74,4.51-2.22,5.92s-3.71,2.12-6.67,2.12c-5.93,0-8.9-2.68-8.9-8.04h-.01ZM711.51,524.85h-16.35v-59.94h16.35v59.94Z" fill="#fff"/>
    <path d="M755.79,525.92c-9.65,0-17.19-2.66-22.62-7.99-5.43-5.32-8.15-12.87-8.15-22.62s2.51-17.81,7.53-23.29c5.02-5.49,11.96-8.23,20.83-8.23s15.06,2.41,19.78,7.24c4.72,4.83,7.08,11.49,7.08,20v7.93h-38.65c.18,4.65,1.55,8.27,4.13,10.88,2.57,2.61,6.18,3.91,10.83,3.91,3.61,0,7.02-.38,10.24-1.13s6.58-1.95,10.08-3.59v12.65c-2.86,1.43-5.92,2.49-9.17,3.19s-7.22,1.05-11.9,1.05h-.01ZM753.49,475.42c-3.47,0-6.18,1.1-8.15,3.3-1.97,2.2-3.09,5.32-3.38,9.35h22.95c-.07-4.04-1.13-7.16-3.16-9.35-2.04-2.2-4.79-3.3-8.26-3.3Z" fill="#fff"/>
    <path d="M848.86,524.85h-16.35v-35.01c0-4.32-.77-7.57-2.3-9.73-1.54-2.16-3.99-3.24-7.34-3.24-4.58,0-7.88,1.53-9.92,4.58-2.04,3.06-3.06,8.12-3.06,15.2v28.2h-16.35v-59.94h12.49l2.2,7.67h.91c1.82-2.89,4.33-5.08,7.53-6.57,3.2-1.48,6.83-2.22,10.91-2.22,6.97,0,12.26,1.89,15.87,5.66s5.41,9.21,5.41,16.32v39.08Z" fill="#fff"/>
    <path d="M890.95,512.89c2.86,0,6.29-.62,10.29-1.88v12.17c-4.08,1.82-9.08,2.73-15.01,2.73-6.54,0-11.3-1.65-14.29-4.96-2.98-3.31-4.48-8.26-4.48-14.88v-28.9h-7.83v-6.92l9.01-5.47,4.72-12.65h10.45v12.76h16.78v12.28h-16.78v28.9c0,2.32.65,4.04,1.96,5.15,1.3,1.11,3.03,1.66,5.17,1.66h.01Z" fill="#fff"/>
    <path d="M967.82,494.77c0,9.76-2.57,17.39-7.72,22.89-5.15,5.5-12.31,8.26-21.5,8.26-5.75,0-10.83-1.26-15.23-3.78-4.4-2.52-7.77-6.14-10.13-10.86-2.36-4.72-3.54-10.22-3.54-16.51,0-9.79,2.55-17.41,7.67-22.84,5.11-5.43,12.29-8.15,21.55-8.15,5.75,0,10.83,1.25,15.23,3.75s7.77,6.09,10.13,10.78c2.36,4.68,3.54,10.17,3.54,16.46h0ZM926.38,494.77c0,5.93.97,10.42,2.92,13.46,1.95,3.04,5.12,4.56,9.52,4.56s7.5-1.51,9.41-4.53,2.87-7.51,2.87-13.48-.97-10.38-2.9-13.35-5.09-4.45-9.49-4.45-7.51,1.47-9.44,4.42-2.89,7.41-2.89,13.38h0Z" fill="#fff"/>
    <path d="M237.4,630.83c-7.04,0-12.57-2.73-16.59-8.2-4.02-5.47-6.03-13.04-6.03-22.73s2.05-17.49,6.14-22.97c4.09-5.49,9.73-8.23,16.91-8.23,7.54,0,13.3,2.93,17.26,8.79h.54c-.82-4.47-1.23-8.45-1.23-11.96v-19.19h16.4v83.42h-12.54l-3.16-7.77h-.7c-3.72,5.9-9.38,8.85-16.99,8.85h0ZM243.14,617.8c4.18,0,7.25-1.21,9.19-3.65,1.95-2.43,3.01-6.56,3.19-12.38v-1.77c0-6.43-.99-11.04-2.98-13.83-1.98-2.79-5.21-4.18-9.68-4.18-3.65,0-6.48,1.55-8.5,4.64s-3.03,7.59-3.03,13.48,1.02,10.32,3.06,13.27,4.95,4.42,8.74,4.42h0Z" fill="#fff"/>
    <path d="M315.03,630.83c-9.65,0-17.19-2.66-22.62-7.99-5.43-5.32-8.15-12.87-8.15-22.62s2.51-17.81,7.53-23.29c5.02-5.49,11.96-8.23,20.83-8.23s15.06,2.41,19.78,7.24,7.08,11.49,7.08,20v7.93h-38.65c.18,4.65,1.55,8.27,4.13,10.88,2.57,2.61,6.18,3.91,10.83,3.91,3.61,0,7.02-.38,10.24-1.13s6.58-1.95,10.08-3.59v12.65c-2.86,1.43-5.92,2.49-9.17,3.19s-7.22,1.05-11.9,1.05h0ZM312.73,580.33c-3.47,0-6.18,1.1-8.15,3.3s-3.09,5.32-3.38,9.35h22.95c-.07-4.04-1.13-7.16-3.16-9.35-2.04-2.2-4.79-3.3-8.26-3.3Z" fill="#fff"/>
    <path d="M397.65,629.76h-16.35v-83.42h16.35v83.42Z" fill="#fff"/>
    <path d="M452.86,629.76l-3.16-8.15h-.43c-2.75,3.47-5.58,5.87-8.5,7.21-2.91,1.34-6.71,2.01-11.39,2.01-5.76,0-10.29-1.64-13.59-4.93-3.31-3.29-4.96-7.97-4.96-14.05s2.22-11.05,6.67-14.07,11.16-4.69,20.13-5.01l10.4-.32v-2.63c0-6.08-3.11-9.11-9.33-9.11-4.79,0-10.42,1.45-16.89,4.34l-5.41-11.04c6.9-3.61,14.55-5.41,22.95-5.41s14.21,1.75,18.5,5.25,6.43,8.83,6.43,15.98v39.94h-11.42ZM448.04,601.99l-6.33.21c-4.75.14-8.29,1-10.61,2.57-2.32,1.57-3.48,3.97-3.48,7.18,0,4.61,2.64,6.92,7.93,6.92,3.79,0,6.82-1.09,9.09-3.27s3.4-5.07,3.4-8.68v-4.93Z" fill="#fff"/>
    <path d="M533.98,630.83c-18.66,0-27.98-10.24-27.98-30.72,0-10.19,2.54-17.97,7.61-23.35,5.08-5.38,12.35-8.07,21.82-8.07,6.93,0,13.15,1.36,18.66,4.07l-4.82,12.65c-2.57-1.04-4.97-1.88-7.18-2.55-2.22-.66-4.43-.99-6.65-.99-8.51,0-12.76,6.04-12.76,18.12s4.25,17.58,12.76,17.58c3.14,0,6.06-.42,8.74-1.26s5.36-2.15,8.04-3.94v13.99c-2.65,1.68-5.32,2.84-8.01,3.48-2.7.64-6.1.96-10.21.96l-.02.03Z" fill="#fff"/>
    <path d="M604.15,629.76l-3.16-8.15h-.43c-2.75,3.47-5.58,5.87-8.5,7.21-2.91,1.34-6.71,2.01-11.39,2.01-5.76,0-10.29-1.64-13.59-4.93-3.31-3.29-4.96-7.97-4.96-14.05s2.22-11.05,6.67-14.07,11.16-4.69,20.13-5.01l10.4-.32v-2.63c0-6.08-3.11-9.11-9.33-9.11-4.79,0-10.42,1.45-16.89,4.34l-5.41-11.04c6.9-3.61,14.55-5.41,22.95-5.41s14.21,1.75,18.5,5.25,6.43,8.83,6.43,15.98v39.94h-11.42ZM599.33,601.99l-6.33.21c-4.75.14-8.29,1-10.61,2.57s-3.48,3.97-3.48,7.18c0,4.61,2.64,6.92,7.93,6.92,3.79,0,6.82-1.09,9.09-3.27s3.4-5.07,3.4-8.68v-4.93h0Z" fill="#fff"/>
    <path d="M648.76,629.76h-16.35v-83.42h16.35v83.42Z" fill="#fff"/>
    <path d="M665.22,554.33c0-5.32,2.97-7.99,8.9-7.99s8.9,2.66,8.9,7.99c0,2.54-.74,4.51-2.22,5.92s-3.71,2.12-6.67,2.12c-5.93,0-8.9-2.68-8.9-8.04h-.01ZM682.27,629.76h-16.35v-59.94h16.35v59.94Z" fill="#fff"/>
    <path d="M718.4,630.83c-7.04,0-12.57-2.73-16.59-8.2-4.02-5.47-6.03-13.04-6.03-22.73s2.05-17.49,6.14-22.97c4.09-5.49,9.73-8.23,16.91-8.23,7.54,0,13.3,2.93,17.26,8.79h.54c-.82-4.47-1.23-8.45-1.23-11.96v-19.19h16.4v83.42h-12.54l-3.16-7.77h-.7c-3.72,5.9-9.38,8.85-16.99,8.85h-.01ZM724.14,617.8c4.18,0,7.25-1.21,9.19-3.65,1.95-2.43,3.01-6.56,3.19-12.38v-1.77c0-6.43-.99-11.04-2.98-13.83-1.98-2.79-5.21-4.18-9.68-4.18-3.65,0-6.48,1.55-8.5,4.64s-3.03,7.59-3.03,13.48,1.02,10.32,3.06,13.27,4.95,4.42,8.74,4.42h.01Z" fill="#fff"/>
    <path d="M806.96,629.76l-3.16-8.15h-.43c-2.75,3.47-5.58,5.87-8.5,7.21-2.91,1.34-6.71,2.01-11.39,2.01-5.76,0-10.29-1.64-13.59-4.93-3.31-3.29-4.96-7.97-4.96-14.05s2.22-11.05,6.67-14.07,11.16-4.69,20.13-5.01l10.4-.32v-2.63c0-6.08-3.11-9.11-9.33-9.11-4.79,0-10.42,1.45-16.89,4.34l-5.41-11.04c6.9-3.61,14.55-5.41,22.95-5.41s14.21,1.75,18.5,5.25,6.43,8.83,6.43,15.98v39.94h-11.42ZM802.14,601.99l-6.33.21c-4.75.14-8.29,1-10.61,2.57s-3.48,3.97-3.48,7.18c0,4.61,2.64,6.92,7.93,6.92,3.79,0,6.82-1.09,9.09-3.27s3.4-5.07,3.4-8.68v-4.93h0Z" fill="#fff"/>
    <path d="M854.2,630.83c-7.04,0-12.57-2.73-16.59-8.2-4.02-5.47-6.03-13.04-6.03-22.73s2.05-17.49,6.14-22.97c4.09-5.49,9.73-8.23,16.91-8.23,7.54,0,13.3,2.93,17.26,8.79h.54c-.82-4.47-1.23-8.45-1.23-11.96v-19.19h16.4v83.42h-12.54l-3.16-7.77h-.7c-3.72,5.9-9.38,8.85-16.99,8.85h-.01ZM859.93,617.8c4.18,0,7.25-1.21,9.19-3.65,1.95-2.43,3.01-6.56,3.19-12.38v-1.77c0-6.43-.99-11.04-2.98-13.83-1.98-2.79-5.21-4.18-9.68-4.18-3.65,0-6.48,1.55-8.5,4.64s-3.03,7.59-3.03,13.48,1.02,10.32,3.06,13.27,4.95,4.42,8.74,4.42h.01Z" fill="#fff"/>
  </g>
  <g>
    <g>
      <path d="M536.63,431.55c-47.45,0-93.46-18.13-128.21-50.09-5.83-5.35-5.91-14.54,0-19.97l1.76-1.68c5.19-4.79,13.18-4.95,18.37-.16,29.32,27,68.06,42.26,108.08,42.26s96.74-23.33,126.93-62.87c4.23-5.59,12.14-6.87,18.05-3.04l2.08,1.36c6.63,4.31,8.23,13.34,3.43,19.57-35.71,46.97-90.99,74.69-150.58,74.69l.08-.08h.01Z" fill="#b81f2a"/>
      <path d="M410.18,398.07l2.08-17.49c.88-7.43,7.67-12.78,15.1-11.9l17.49,2.08c11.98,1.44,19.81-12.38,12.3-21.89h0c-2.24-2.8-5.51-4.63-9.03-5.11l-44.49-5.35c-7.43-.88-14.22,4.39-15.1,11.9l-5.35,44.49c-.4,3.59.56,7.19,2.8,9.99h0c7.51,9.51,22.69,5.27,24.12-6.79l.08.08h0Z" fill="#b81f2a"/>
    </g>
    <g>
      <path d="M703.99,293.91l-2.4-.72c-6.71-2.08-10.78-8.95-9.27-15.82,2.56-11.42,3.83-23.17,3.83-34.99,0-81-60.23-148.26-139.24-158.25-7.03-.88-12.06-7.11-11.74-14.14l.16-2.48c.4-7.91,7.43-13.82,15.26-12.86,93.78,11.74,165.28,91.55,165.28,187.72s-1.52,27.88-4.55,41.46c-1.76,7.75-9.67,12.46-17.25,10.15l-.08-.08h0Z" fill="#b81f2a"/>
      <path d="M734.74,274.02l-16.22,6.95c-6.87,2.96-14.86-.24-17.81-7.19l-6.95-16.22c-4.79-11.1-20.61-10.94-25.08.32h0c-1.36,3.36-1.28,7.11.08,10.38l17.57,41.22c2.96,6.87,10.94,10.07,17.81,7.11l41.22-17.57c3.28-1.44,5.91-4.07,7.27-7.43h0c4.47-11.26-6.79-22.29-17.97-17.57h.08,0Z" fill="#b81f2a"/>
    </g>
    <g>
      <path d="M380.86,322.27c-7.03,3.59-15.66.48-18.77-6.87-9.75-23.09-14.7-47.61-14.7-73.01,0-43.14,14.94-85.31,41.94-118.79,23.57-29.16,55.44-50.73,90.83-61.83,7.59-2.4,15.58,2.16,17.33,9.91l.56,2.48c1.6,6.87-2.4,13.82-9.11,15.98-29.88,9.35-56.72,27.56-76.61,52.16-23.17,28.6-35.39,63.27-35.39,100.17s4.07,41.94,12.22,61.27c2.8,6.63.08,14.22-6.23,17.49l-2.24,1.12.16-.08h.01Z" fill="#b81f2a"/>
      <path d="M465.06,54.9l14.14,10.54c5.99,4.47,7.19,13.02,2.72,19.01l-10.54,14.06c-7.27,9.67.8,23.33,12.78,21.57h0c3.59-.48,6.79-2.4,8.95-5.27l26.84-35.79c4.47-5.99,3.28-14.54-2.72-19.01l-35.79-26.84c-2.88-2.16-6.47-3.12-10.07-2.56h0c-11.98,1.68-15.9,17.01-6.23,24.28h-.08Z" fill="#b81f2a"/>
    </g>
  </g>
  <path d="M595.7,246.08c-.62-.09-1.23-.21-1.84-.32-.66-.12-1.3-.35-1.88-.7-.2-.12-.41-.25-.62-.35-.07-.03-.34-.12-.41-.13-.13-.02-.26,0-.39.01-.77.07-1.47.08-2.21-.23-.39-.16-.77-.35-1.15-.55-.04-.02-.14-.07-.18-.09-.13-.04-.26-.1-.4-.13-.04-.01-.08-.03-.12-.03-.44-.04-.78.21-.97.39,0,0,0,0,0,0-.04.03-.2.18-.25.23-.12.12-.23.24-.34.36-.22.25-.44.52-.64.79-.45.59-.88,1.19-1.38,1.73-.5.54-1.06,1.01-1.55,1.56-.48.54-.94,1.1-1.41,1.64-1.06,1.2-2.33,2.39-3.87,2.69-.74.15-1.48.12-2.23.14-.2,0-.39.01-.59.04,0,0-.13.02-.17.03-.05.01-.1.02-.1.02-.35.08-.68.21-1.02.32-.33.1-.66.2-1,.26-.22.04-.88.16-1.11.15-.8-.02-1.59-.07-2.38-.2-.2-.03-.4-.07-.6-.1-.01,0-.03,0-.04,0-.05-.01-.12-.02-.17-.02-.29-.04-.93-.1-1.58.08-.51.14-.75.31-.85.36-1.45.79-2.78,1.82-4.08,2.86-.3.24-.6.48-.9.72-.14.11-.97.76-1.51,1.3-.25.24-.49.5-.72.77-.14.17-.26.34-.39.52,0,0,0,0,0,0-.05.07-.09.13-.14.2-.23.34-.45.69-.71,1.01-.46.58-2.28,1.1-2.85,1.56-.51.41-2.13.72-2.67,1.08-.54.36-1.56,1.1-1.64,1.17-.05.04-.1.09-.15.13-.05.04-.1.09-.15.13-.12.11-.24.22-.36.33-.24.23-.48.46-.71.69-.56.57-1.08,1.18-1.56,1.83,0,0,0,.02-.01.03-.2.84-.37,1.69-.49,2.55-.02.14-.04.28-.06.42,0,0-.02.13-.02.18,0,.07-.02.17-.02.19-.04.36-.11.71-.17,1.06-.05.3-.09.61-.13.91-.01.08-.02.16-.03.25-.02.16-.04.32-.05.48-.25,2.31-.26,4.63-.3,6.95-.02,1.16,0,2.33.07,3.49.03.57.07,1.13.13,1.69.02.16.03.32.05.49,0,.04,0,.06,0,.08,0,.01,0,.02,0,.04.03.27.07.53.11.8.33,2.23.85,4.39,1.54,6.52.42,1.29.86,2.57,1.32,3.84.22.63.48,1.24.68,1.87.16.51.57.75.85.9.06.03.11.08.17.12.13.08.25.17.38.25.24.15.47.29.72.43.49.27.97.59,1.47.87.62.35,1.24.69,1.86,1.02.62.33,2.29.67,2.91.99.17.09.35.17.52.26.01,0,.02.01.04.02.05.02.1.04.14.06.29.13,1.91.26,2.21.37,1.3.51,2.65.88,3.97,1.33,1.33.46,2.64.96,3.97,1.44,1.31.47,2.67.84,4.03,1.12.38.08.75.15,1.13.21.06.01.13.02.19.03,0,0,0,0,0,0,.17.02.34.05.51.07.71.08,1.42.12,2.13.17,1.48.11,2.96,1.49,4.44,1.56,2.92.14,5.85.96,8.77.97,1.33,0,2.91.34,4.02.61.74.18,1.27.85,1.35,1.65.01.11-.08.2-.19.2h-112.24c-.11,0-.2-.1-.19-.21.07-.49.35-1.66,1.49-1.82,2.15-.3,6.03-.84,8.05-.89,1.37-.04,2.73-.1,4.1-.21.35-.03.7-.06,1.06-.1.16-.02.31-.03.47-.05.08,0,.15-.03.23-.03.15,0,.36-.08.5-.12.14-.04.27-.08.41-.13.27-.1.53-.22.79-.34.56-.25,1.12-.51,1.71-.65.73-.17,1.48-.22,2.23-.22,1.31,0,2.61-.04,3.91-.2.08,0,.15-.02.23-.03t0,0c.17-.03.33-.05.5-.08.3-.05.59-.12.88-.19.62-.15,1.24-.34,1.85-.57.17-.06.51-.21.63-.27.22-.1.41-.24.6-.39.07-.05.13-.1.19-.15.05-.04.1-.09.15-.13.17-.15.34-.31.51-.45.48-.42.95-.78,1.52-1.04.88-.41,1.75-.43,2.75-.36.48.03.97.01,1.45-.06h0c.08-.02.16-.03.24-.04.18-.03.36-.07.55-.1.44-.09.87-.19,1.3-.31.13-.04.27-.08.4-.11.13-.03.57-.12.69-.16.09-.03.16-.05.26-.06.02,0,.06-.01.07-.02.21-.1.47-.13.69-.2.1-.03.19-.07.29-.11.05-.02.09-.04.14-.06.02,0,.02,0,.02,0,0,0,0,0,0,0,.23-.11.45-.21.58-.4.36-.55,2.12-1.26,2.27-1.9.04-.19.19-.57.19-.57.06-.16.11-.31.16-.47.11-.34.21-.68.3-1.02.18-.69.31-1.39.41-2.09,0,0,0-.02,0-.04.02-.08.02-.16.03-.24.02-.19.04-.37.05-.56.03-.38.07-.77.08-1.16.09-3.14-.41-6.31.47-9.37.14-.49.32-.96.5-1.43.03-.07.22-.59.27-.75.13-.4.24-.8.33-1.21.04-.17.07-.34.1-.52,0-.05.1-.72.11-.8.02-.19.03-.38.05-.57.02-.35.03-.69.03-1.04,0-.41-.02-.82-.06-1.22-.01-.17-.03-.33-.05-.5-.01-.1-.03-.19-.04-.29-.22-1.46-.57-2.9-.97-4.31-.18-.64-.38-1.28-.59-1.91-.13-.36-.24-.73-.37-1.09-.03-.07-.05-.14-.08-.22,0,0,0,0,0,0-.14-.33-.27-.67-.42-.99-.31-.67-.69-1.28-1.03-1.92-.39-.75-.7-1.56-.89-2.39-.19-.83-1.25-1.77-1.68-2.51-.23-.39-.95-.64-1.23-.81-.11-.07-.29-.25-.38-.33-.48-.39-.97-.78-1.35-1.28-.24-.31-.45-.64-.64-.99-.08-.15-.24-.57-.49-.58-.21-.01-.35.1-.48.18-.95.52-1.99.87-3.06.66-.28-.06-.55-.16-.81-.27-.18-.08-.54-.25-.55-.25-.06-.03-.49-.21-.64-.25-.06-.02-.12-.03-.18-.05-.11-.04-.3-.02-.37-.02-.14,0-.28,0-.42.02-.66.04-1.33.08-1.98-.13-.65-.21-1.2-.6-1.7-1.09-.18-.17-.35-.36-.53-.54-.07-.07-.15-.14-.22-.22-.03-.02-.05-.05-.08-.07-.37-.22-.68-.3-.87-.31-.26,0-.53-.02-.79-.01-.14,0-.28.01-.42.02-.06,0-.49.03-.87.25-.04.02-.08.06-.13.09-.37.36-.74.73-1.16,1.02-.56.39-1.14.26-1.74.39-.09.02-.21.09-.28.15-.24.24-.49.48-.76.68-.46.34-1.01.56-1.53.75-2.19.77-4.73.74-6.75-.53-.94-.59-1.74-1.4-2.58-2.13-.05-.05-.11-.09-.16-.14,0,0-.01,0-.02-.02-.09-.08-.19-.15-.28-.22-.19-.15-.39-.28-.59-.41-.4-.25-.82-.46-1.21-.73-.81-.57-1.36-1.35-1.88-2.22-.13-.22-.26-.51-.44-.7-.03-.03-.05-.06-.07-.08-.07-.08-.34-.33-.34-.33-.09-.06-.19-.12-.29-.17-.04-.02-.08-.04-.12-.06-.02,0-.02,0-.04-.02-.13-.05-.26-.1-.4-.14-.17-.05-.34-.08-.51-.12-.01,0-.05,0-.08-.01-.05,0-.1-.01-.15-.02-.28-.03-.57-.05-.85-.07-.6-.03-1.2-.05-1.8-.13-.69-.09-1.31-.25-1.94-.6-.44-.25-.83-.58-1.24-.88-.11-.08-.22-.15-.33-.22-.03-.02-.26-.2-.57-.26-.33-.06-.48,0-.66.12-.09.06-.17.12-.25.18-.94.73-1.9,1.51-3.13,1.41-1.24-.1-2.24-.87-3.14-1.74-.4-.39-.8-.8-1.18-1.21-.31-.34-.59-.71-.8-1.13-.18-.35-.7-1.17-.8-1.27-.3-.29-.84-.12-.9-.11-.58.16-1.13.44-1.71.61-.63.19-1.3.29-1.95.34-.61.05-1.21,0-1.8-.15-.26-.06-.52-.14-.76-.27-.43-.23-.92-.61-1.07-.75-.35-.31-.82-.95-.96-1.04-.1-.06-.37.17-.52.27-.57.38-1.27.36-1.93.15-.19-.06-.37-.14-.53-.26-.46-.34-.77-.81-1.03-1.33-.11-.23-.22-.45-.35-.67-.06-.11-.13-.22-.2-.33-.01-.02-.02-.02-.02-.04-.03-.04-.07-.09-.1-.13-.36-.46-.77-.87-1.15-1.31-.44-.5-.82-1.06-1.12-1.66-.25-.49-.46-1-.75-1.47-.03-.05-.12-.17-.16-.22-.09-.11-.19-.22-.29-.33-.16-.17-.32-.33-.47-.51-.39-.44-.83-.93-1.1-1.48-.16-.33-.3-.66-.43-1.01-.02-.06-.12-.35-.13-.37-.04-.12-.09-.24-.12-.37-.19-.67-.23-1.36-.13-2.04.08-.61.27-1.33.59-1.85.4-.65.94-.96,1.58-1.25.05-.02.11-.05.16-.07,0,0,0,0,0,0,.1-.05.21-.11.31-.17.11-.07.36-.26.42-.33.19-.19.37-.41.56-.6.09-.09.18-.18.27-.26.1-.09.56-.4,1.98-.92.13-.05.27-.24.29-.28.19-.39.3-.73.38-1.19.07-.43.14-.87.36-1.26.29-.52.91-.8,1.27-1,.33-.19.99-.58,1.28-.83.1-.09.28-.3.34-.43.05-.1.07-.3.1-.45,0-.06.03-.28.03-.31,0-.07.01-.14.01-.21.01-.19.02-.37.02-.56,0-.28.01-.56.04-.84.06-.77.24-1.44.54-2.15.07-.17.15-.34.23-.51,0,0,.06-.16.07-.18.09-.27.17-.54.24-.8.18-.63.37-1.27.64-1.87.6-1.33,1.93-2.32,3.31-1.75.6.25,1.09.7,1.51,1.23.05.06.42.55.52.65,0,0,.03.02.04.03.03.02.07.02.11.03.25.02.47.12.71.25.04.02.08.03.11.04.05.02.1.04.16.05.12.02.23,0,.35,0,.05,0,.15-.02.17-.03.17-.04.34-.08.51-.11.46-.09.93-.15,1.4-.18.38-.02.76,0,1.12-.08.12-.02.27-.04.36-.05.05,0,.15-.02.21-.05.11-.05.27-.13.31-.16.13-.08.32-.17.33-.18.15-.11.34-.14.5-.24.35-.21.65-.47,1.03-.6,1.02-.34,1.87.26,2.63.94.16.15.32.29.48.44.02.02.05.05.08.07,0,0,.01.01.02.01.08.06.17.13.25.19.3.23.65.19.67.19.09-.01.18-.04.26-.07.05-.02.11-.04.18-.07.09-.05.17-.1.25-.16.2-.14.79-.78,1.08-1.14.73-.93,1.39-1.88,2.35-2.62.57-.44,1.09-.97,1.52-1.58.24-.34.3-.48.34-.72,0-.03.02-.2.02-.23,0-.1,0-.21,0-.31,0-.57-.01-1.17.15-1.72.65-2.24,2.25-4.09,4.19-5.04.4-.2.81-.37,1.2-.59.21-.12.4-.25.6-.4,0,0,.01-.01.02-.02.03-.03.08-.07.09-.08.09-.09.18-.18.27-.27.8-.86,1.75-1.48,2.74-2.03.45-.25.89-.51,1.34-.74.27-.14.54-.26.82-.39.1-.04,1.24-.59,1.61-.86.05-.04.11-.08.15-.11.06-.05.16-.15.23-.23.06-.07.27-.36.31-.43.04-.07.06-.15.08-.2,0,0,.04-.18.06-.29,0-.01,0-.01,0-.03,0-.07.01-.14.02-.21,0-.12.01-.25.02-.37.03-.65.07-1.28.3-1.89.44-1.17,1.23-1.95,2.22-2.56.39-.24.79-.46,1.18-.69.2-.12.4-.25.59-.38.08-.06.16-.12.24-.18,0,0,0,0,0,0,.03-.03.22-.22.3-.31.03-.03.2-.31.25-.41.02-.04.05-.14.06-.17,0-.02.09-.5.09-.57.01-.25,0-.5,0-.74-.06-1.04-.27-2.06-.28-3.1-.01-1.07.39-2.07,1.1-2.81.77-.8,1.86-1.58,2.97-1.5.83.06,1.87,1,2.2,1.02.33.02,1.57-.68,2.39-.58,1.16.15,2.05.87,2.7,1.9.3.47.53,1.02.7,1.56.07.21.12.43.17.65.02.09.04.18.07.27,0,.03.02.08.03.09,0,.02.11.21.16.27.02.02.07.06.1.07.05.02.21.05.22.05.19.02.38.03.57.05.97.07,1.94.21,2.9.39,1,.19,1.99.32,2.9.84.52.29.88.75,1.2,1.26.07.11.13.38.34.35.37-.05.73-.1,1.09.04.55.2.99.59,1.45.98.08.07.17.15.25.22.02.02.04.04.07.05.11.09.21.26.35.24.75-.11.93-1.23,1.47-1.75.15-.15.35-.2.49-.33.21-.2.25-.52.37-.77.15-.31.32-.62.45-.95.03-.06.05-.17.09-.23,0,0,0-.01,0-.02.06-.15.11-.3.17-.45.3-.84.59-1.66,1.12-2.36.48-.65,1.2-1.01,1.91-1.25.59-.2,1.21-.32,1.8-.54.03-.01.27-.12.34-.18.2-.17.43-.57.67-.79.83-.79,2.98-.32,3.8-.82,1.02-.61,1.94-1.51,3.1-1.79,1.49-.35,3.06.36,3.89,1.76.27.45.44,1.1.65,1.44.18.29.47.53,1.26.51.09,0,.19,0,.28-.02.02,0,.11-.02.16-.02.32-.06.63-.14.94-.26.05-.02.1-.04.15-.06.02,0,.12-.06.15-.07.14-.08.55-.4.61-.47.11-.11.21-.24.3-.36.03-.04.06-.07.08-.11,0-.01,0,0,.01-.02.05-.08.11-.16.16-.24.09-.14.17-.27.26-.41.18-.29.36-.58.56-.86.16-.22.31-.44.49-.65.06-.08.12-.16.19-.23.02-.03.07-.08.08-.11.09-.16.18-.32.27-.47.05-.09.1-.19.15-.28.04-.08.6-1.01.9-1.43.25-.35.49-.71.79-1.02.49-.51,1.09-.93,1.76-1.08.77-.17,1.52-.08,2.29.07.14.03.27.05.41.08.09.02.56.05.78-.05.02,0,.27-.16.37-.23.22-.15.43-.3.66-.45.75-.49,1.52-.82,2.4-.91.77-.08,1.58.06,2.32.3.18.06,1.89.8,2.27,1,.6.31,1.19.66,1.79.99.53.3,1.02.58,1.36,1.15.33.55.61,1.11.79,1.74.02.06.07.24.08.26.04.07.5.44.62.51.54.34,1.06.65,1.54,1.09.65.6.99,1.46,1.07,2.37.07.83-.21,1.57-.42,2.34-.03.13-.07.27-.07.28-.05.33.17.72.26.86.01.02.01.02.02.04,0,0,0,0,0,0,.06.07.12.15.18.22.11.13.22.25.33.36.14.14.28.27.43.41.06.04.11.09.17.13.28.21.57.41.87.58.01,0,.04.02.06.04.05.02.11.05.17.06.26.07.7.02.78,0,.26-.08.51-.19.76-.29.72-.27,1.54-.4,2.28-.23.35.08.65.33.94.54.08.06.15.18.31.14.12-.03.23-.04.35-.06.3-.04.57-.05.88.03.37.09.76.28,1.07.52.36.27.67.61.88,1.03.06.13.17.4.23.58.05.13.08.26.12.39.06.27.11.54.17.81.03.13.12.46.14.5.01.03.12.21.15.26,0,0,.21.23.31.33,0,0,0,0,0,0,.07.05.14.11.21.16.12.09.24.17.36.25.71.5,1.38,1.02,1.88,1.76.21.31.39.97.46,1.04.06.07.85.15,1.18.52.23.25.38.57.44.91.01.07,0,.16.03.23.05.12.15.21.23.32.07.11.14.22.21.34.06.09.09.26.18.28.17.04.42-.26.61-.37.21-.12.41-.24.63-.34.42-.21.87-.37,1.32-.51,0,0,1.25-.37,1.43-.5.11-.07.25-.17.37-.25.54-.32,1.1-.44,1.71-.32.18.03.34.1.51.17.17.07.33.15.49.23.05.02.1.05.15.07.04.01.18.02.22.02.2-.03.56-.5.7-.67.5-.61,1.17-1.02,1.91-1.17.78-.15,1.63-.15,2.22.53.31.37.45.85.47,1.35,0,.03,0,.06,0,.1,0,.14-.02.38-.03.48-.01.19-.02.59.15.71.1.06.2.11.3.17.33.2.61.46.86.77.47.6.73,1.2.9,1.96.03.16.07.31.12.46,0,.02.02.07.03.12,0,.01.02.04.03.07.01.03.02.06.04.09.06.14.14.31.2.4.19.27.64.72,1.03.84.19.06.37.12.56.16.12.03,1.03.14,1.44.17,1.83.14,3.72.15,5.49.74.89.3,1.58.83,2.09,1.68.14.23.22.51.4.72.11.13.39.38.45.4.1.04.32.08.43.08.27,0,.54.04.81.06.88.07,1.75.24,2.48.83.39.31.7.67,1.03,1.04.12.14.35.29.52.37.22.11.55.11.91.3.45.24.83.69,1.07,1.17.29.6.21,1.68.21,1.69.02.14.1.26.15.34.05.08.08.12.11.17.29.39.57.78.83,1.19.44.71.83,1.51.96,2.37.14.96.07,1.93-.18,2.87-.15.59-.38,1.16-.56,1.74-.09.28-.29.8-.22.86.22.19,1.35-.04,2.01.24,1.73.75,2.9,2.48,2.97,4.54.03.91-.41,2.27-.95,2.98-.18.25-.39.47-.58.71-.24.31-.04.58-.03.79.01.34-.04.5-.11.75,0,.04-.27.69-.56,1.07-.5.65-1.26,1.03-1.99,1.27-.55.18-1.13.28-1.69.43-.5.14-.86.31-.96.37-.35.2-.69.43-1.02.67-.76.55-1.49,1.08-2.34,1.45-.41.18-.84.28-1.26.42-.22.07-.45.14-.67.22-.09.03-.26.1-.41.17-.37.19-.67.53-.83.71-.31.35-.61.69-.97.98-.72.59-1.62.77-2.5.59-.17-.03-.33-.09-.49-.15-.07-.03-.14-.06-.21-.09-.09-.04-1.5-.78-2.09-.84-.05,0-.19,0-.24.02-.11.07-.24.32-.28.43-.02.04-.03.08-.05.12,0,0,0,0,0,0-.31,1.01-.5,2.08-.86,3.06-.48,1.29-1.24,2.36-2.42,2.93-.56.27-1.14.46-1.73.67-.05.02-.11.04-.16.06-.01,0-.03.01-.04.02-.12.07-.24.14-.35.22-.06.04-.12.09-.18.13-.07.07-.15.13-.22.2-.42.41-.77.89-1.2,1.29-.51.48-1.03.92-1.65,1.21-1.34.62-2.8.4-4.2.18Z" fill="#fff"/>
</svg>