<?xml version="1.0" encoding="UTF-8"?>
<svg xmlns="http://www.w3.org/2000/svg" viewBox="0 0 1101.03 696.54">
  <defs>
    <style>
      .cls-1 {
        fill: #5093a8;
      }

      .cls-2 {
        fill: #fff;
      }

      .cls-3 {
        fill: #2d2d2d;
        stroke: #505050;
        stroke-miterlimit: 10;
        stroke-width: 14.49px;
      }
    </style>
  </defs>
  <g id="Capa_2" data-name="Capa 2">
    <rect class="cls-3" x="7.24" y="7.24" width="1086.54" height="682.05" rx="94.33" ry="94.33"/>
    <g>
      <g>
        <path class="cls-2" d="M88.92,482.42h28.94v37.82c-4.69,1.53-9.1,2.6-13.25,3.22s-8.37.92-12.7.92c-11.01,0-19.41-3.23-25.22-9.7-5.8-6.47-8.71-15.76-8.71-27.86s3.37-20.95,10.1-27.54c6.74-6.58,16.07-9.88,28.01-9.88,7.48,0,14.7,1.5,21.65,4.49l-5.14,12.37c-5.32-2.66-10.86-3.99-16.61-3.99-6.69,0-12.04,2.25-16.06,6.74-4.02,4.49-6.04,10.53-6.04,18.11s1.62,13.96,4.86,18.13c3.24,4.17,7.96,6.26,14.14,6.26,3.23,0,6.5-.33,9.83-1v-15.22h-13.82v-12.87Z"/>
        <path class="cls-2" d="M173.53,523.38l-2.04-7.13h-.8c-1.63,2.59-3.94,4.6-6.93,6.01-2.99,1.41-6.4,2.12-10.23,2.12-6.55,0-11.49-1.75-14.82-5.26-3.33-3.51-4.99-8.56-4.99-15.14v-36.37h15.22v32.58c0,4.02.72,7.04,2.15,9.05,1.43,2.01,3.71,3.02,6.83,3.02,4.26,0,7.33-1.42,9.23-4.27,1.9-2.84,2.84-7.56,2.84-14.14v-26.24h15.22v55.78h-11.67Z"/>
        <path class="cls-2" d="M200.42,461.47v-1.35c5.72-6.65,9.63-11.66,11.72-15.02h17.06v1.05c-1.73,1.73-4.68,4.3-8.85,7.71-4.17,3.41-7.44,5.95-9.8,7.61h-10.13ZM216.39,523.38h-15.22v-55.78h15.22v55.78Z"/>
        <path class="cls-2" d="M267.77,523.38l-2.94-7.58h-.4c-2.56,3.23-5.2,5.46-7.91,6.71-2.71,1.25-6.24,1.87-10.6,1.87-5.35,0-9.57-1.53-12.65-4.59-3.08-3.06-4.62-7.42-4.62-13.07s2.07-10.29,6.21-13.1c4.14-2.81,10.39-4.37,18.73-4.66l9.68-.3v-2.44c0-5.65-2.89-8.48-8.68-8.48-4.46,0-9.7,1.35-15.72,4.04l-5.04-10.28c6.42-3.36,13.54-5.04,21.35-5.04s13.22,1.63,17.21,4.89c3.99,3.26,5.99,8.22,5.99,14.87v37.17h-10.63ZM263.28,497.54l-5.89.2c-4.42.13-7.72.93-9.88,2.39-2.16,1.46-3.24,3.69-3.24,6.69,0,4.29,2.46,6.44,7.38,6.44,3.52,0,6.34-1.01,8.46-3.04,2.11-2.03,3.17-4.72,3.17-8.08v-4.59Z"/>
        <path class="cls-2" d="M338.26,524.38c-6.55,0-11.7-2.54-15.44-7.63s-5.61-12.14-5.61-21.15,1.9-16.27,5.71-21.38c3.81-5.11,9.05-7.66,15.74-7.66,7.02,0,12.37,2.73,16.06,8.18h.5c-.77-4.16-1.15-7.87-1.15-11.13v-17.86h15.27v77.63h-11.67l-2.94-7.23h-.65c-3.46,5.49-8.73,8.23-15.81,8.23ZM343.6,512.26c3.89,0,6.74-1.13,8.56-3.39,1.81-2.26,2.8-6.1,2.97-11.52v-1.65c0-5.99-.92-10.28-2.77-12.87-1.85-2.59-4.85-3.89-9.01-3.89-3.39,0-6.03,1.44-7.91,4.31-1.88,2.88-2.82,7.06-2.82,12.55s.95,9.6,2.84,12.35c1.9,2.74,4.61,4.12,8.13,4.12Z"/>
        <path class="cls-2" d="M410.5,524.38c-8.98,0-16-2.48-21.05-7.43-5.06-4.96-7.58-11.97-7.58-21.05s2.34-16.57,7.01-21.68c4.67-5.11,11.13-7.66,19.38-7.66s14.02,2.25,18.41,6.74c4.39,4.49,6.59,10.69,6.59,18.61v7.38h-35.97c.17,4.32,1.45,7.7,3.84,10.13,2.39,2.43,5.75,3.64,10.08,3.64,3.36,0,6.54-.35,9.53-1.05s6.12-1.81,9.38-3.34v11.77c-2.66,1.33-5.51,2.32-8.53,2.97-3.03.65-6.72.97-11.08.97ZM408.36,477.38c-3.23,0-5.75,1.02-7.58,3.07-1.83,2.05-2.88,4.95-3.14,8.71h21.35c-.07-3.76-1.05-6.66-2.94-8.71-1.9-2.05-4.46-3.07-7.68-3.07Z"/>
        <path class="cls-2" d="M460.84,523.38h-15.22v-77.63h15.22v77.63Z"/>
        <path class="cls-2" d="M528.59,524.38c-8.98,0-16-2.48-21.05-7.43-5.06-4.96-7.58-11.97-7.58-21.05s2.34-16.57,7.01-21.68c4.67-5.11,11.13-7.66,19.38-7.66s14.02,2.25,18.41,6.74c4.39,4.49,6.59,10.69,6.59,18.61v7.38h-35.97c.17,4.32,1.45,7.7,3.84,10.13,2.39,2.43,5.75,3.64,10.08,3.64,3.36,0,6.54-.35,9.53-1.05s6.12-1.81,9.38-3.34v11.77c-2.66,1.33-5.51,2.32-8.53,2.97-3.03.65-6.72.97-11.08.97ZM526.45,477.38c-3.23,0-5.75,1.02-7.58,3.07-1.83,2.05-2.88,4.95-3.14,8.71h21.35c-.07-3.76-1.05-6.66-2.94-8.71-1.9-2.05-4.46-3.07-7.68-3.07Z"/>
        <path class="cls-2" d="M602.63,506.82c0,5.72-1.99,10.08-5.96,13.07-3.97,2.99-9.92,4.49-17.83,4.49-4.06,0-7.52-.27-10.38-.82-2.86-.55-5.54-1.35-8.03-2.42v-12.57c2.83,1.33,6.01,2.44,9.55,3.34,3.54.9,6.66,1.35,9.35,1.35,5.52,0,8.28-1.6,8.28-4.79,0-1.2-.37-2.17-1.1-2.92-.73-.75-2-1.6-3.79-2.54s-4.19-2.05-7.18-3.32c-4.29-1.8-7.44-3.46-9.45-4.99-2.01-1.53-3.48-3.28-4.39-5.26-.92-1.98-1.37-4.42-1.37-7.31,0-4.96,1.92-8.79,5.76-11.5,3.84-2.71,9.29-4.07,16.34-4.07s13.25,1.46,19.61,4.39l-4.59,10.98c-2.79-1.2-5.41-2.18-7.83-2.94-2.43-.77-4.91-1.15-7.43-1.15-4.49,0-6.74,1.21-6.74,3.64,0,1.36.72,2.54,2.17,3.54,1.45,1,4.62,2.48,9.5,4.44,4.36,1.76,7.55,3.41,9.58,4.94,2.03,1.53,3.53,3.29,4.49,5.29.96,2,1.45,4.37,1.45,7.13Z"/>
        <path class="cls-2" d="M638,512.26c2.66,0,5.85-.58,9.58-1.75v11.32c-3.79,1.7-8.45,2.54-13.97,2.54-6.09,0-10.52-1.54-13.3-4.61-2.78-3.08-4.17-7.69-4.17-13.84v-26.89h-7.28v-6.44l8.38-5.09,4.39-11.77h9.73v11.87h15.62v11.42h-15.62v26.89c0,2.16.61,3.76,1.82,4.79,1.21,1.03,2.82,1.55,4.81,1.55Z"/>
        <path class="cls-2" d="M698.36,523.38l-2.04-7.13h-.8c-1.63,2.59-3.94,4.6-6.93,6.01-2.99,1.41-6.4,2.12-10.23,2.12-6.55,0-11.49-1.75-14.82-5.26-3.33-3.51-4.99-8.56-4.99-15.14v-36.37h15.22v32.58c0,4.02.72,7.04,2.15,9.05,1.43,2.01,3.71,3.02,6.83,3.02,4.26,0,7.33-1.42,9.23-4.27,1.9-2.84,2.84-7.56,2.84-14.14v-26.24h15.22v55.78h-11.67Z"/>
        <path class="cls-2" d="M743.66,524.38c-6.55,0-11.7-2.54-15.44-7.63-3.74-5.09-5.61-12.14-5.61-21.15s1.9-16.27,5.71-21.38c3.81-5.11,9.05-7.66,15.74-7.66,7.02,0,12.37,2.73,16.06,8.18h.5c-.77-4.16-1.15-7.87-1.15-11.13v-17.86h15.27v77.63h-11.67l-2.94-7.23h-.65c-3.46,5.49-8.73,8.23-15.81,8.23ZM749,512.26c3.89,0,6.74-1.13,8.56-3.39,1.81-2.26,2.8-6.1,2.97-11.52v-1.65c0-5.99-.92-10.28-2.77-12.87-1.85-2.59-4.85-3.89-9.01-3.89-3.39,0-6.03,1.44-7.91,4.31-1.88,2.88-2.82,7.06-2.82,12.55s.95,9.6,2.84,12.35c1.9,2.74,4.61,4.12,8.13,4.12Z"/>
        <path class="cls-2" d="M790.01,453.19c0-4.96,2.76-7.43,8.28-7.43s8.28,2.48,8.28,7.43c0,2.36-.69,4.2-2.07,5.51-1.38,1.31-3.45,1.97-6.21,1.97-5.52,0-8.28-2.49-8.28-7.48ZM805.87,523.38h-15.22v-55.78h15.22v55.78Z"/>
        <path class="cls-2" d="M857.26,523.38l-2.94-7.58h-.4c-2.56,3.23-5.2,5.46-7.91,6.71-2.71,1.25-6.24,1.87-10.6,1.87-5.35,0-9.57-1.53-12.65-4.59-3.08-3.06-4.62-7.42-4.62-13.07s2.07-10.29,6.21-13.1c4.14-2.81,10.39-4.37,18.73-4.66l9.68-.3v-2.44c0-5.65-2.89-8.48-8.68-8.48-4.46,0-9.7,1.35-15.72,4.04l-5.04-10.28c6.42-3.36,13.54-5.04,21.35-5.04s13.22,1.63,17.21,4.89c3.99,3.26,5.99,8.22,5.99,14.87v37.17h-10.63ZM852.77,497.54l-5.89.2c-4.42.13-7.72.93-9.88,2.39-2.16,1.46-3.24,3.69-3.24,6.69,0,4.29,2.46,6.44,7.38,6.44,3.52,0,6.34-1.01,8.46-3.04,2.11-2.03,3.17-4.72,3.17-8.08v-4.59Z"/>
        <path class="cls-2" d="M935.04,523.38h-15.22v-32.58c0-4.02-.72-7.04-2.15-9.05-1.43-2.01-3.71-3.02-6.83-3.02-4.26,0-7.33,1.42-9.23,4.27-1.9,2.84-2.84,7.56-2.84,14.14v26.24h-15.22v-55.78h11.62l2.05,7.13h.85c1.7-2.69,4.03-4.73,7.01-6.11,2.98-1.38,6.36-2.07,10.15-2.07,6.49,0,11.41,1.76,14.77,5.26,3.36,3.51,5.04,8.57,5.04,15.19v36.37Z"/>
        <path class="cls-2" d="M974.2,512.26c2.66,0,5.85-.58,9.58-1.75v11.32c-3.79,1.7-8.45,2.54-13.97,2.54-6.09,0-10.52-1.54-13.3-4.61-2.78-3.08-4.17-7.69-4.17-13.84v-26.89h-7.28v-6.44l8.38-5.09,4.39-11.77h9.73v11.87h15.62v11.42h-15.62v26.89c0,2.16.61,3.76,1.82,4.79,1.21,1.03,2.82,1.55,4.81,1.55Z"/>
        <path class="cls-2" d="M1020.3,524.38c-8.98,0-16-2.48-21.05-7.43-5.06-4.96-7.58-11.97-7.58-21.05s2.34-16.57,7.01-21.68c4.67-5.11,11.13-7.66,19.38-7.66s14.02,2.25,18.41,6.74c4.39,4.49,6.59,10.69,6.59,18.61v7.38h-35.97c.17,4.32,1.45,7.7,3.84,10.13,2.39,2.43,5.75,3.64,10.08,3.64,3.36,0,6.54-.35,9.53-1.05s6.12-1.81,9.38-3.34v11.77c-2.66,1.33-5.51,2.32-8.53,2.97-3.03.65-6.72.97-11.08.97ZM1018.15,477.38c-3.23,0-5.75,1.02-7.58,3.07-1.83,2.05-2.88,4.95-3.14,8.71h21.35c-.07-3.76-1.05-6.66-2.94-8.71-1.9-2.05-4.46-3.07-7.68-3.07Z"/>
      </g>
      <g>
        <path class="cls-2" d="M317.74,627.15c-6.55,0-11.7-2.54-15.44-7.63-3.74-5.09-5.61-12.14-5.61-21.15s1.9-16.27,5.71-21.38c3.81-5.11,9.05-7.66,15.74-7.66,7.02,0,12.37,2.73,16.06,8.18h.5c-.77-4.16-1.15-7.87-1.15-11.13v-17.86h15.27v77.63h-11.67l-2.94-7.23h-.65c-3.46,5.49-8.73,8.23-15.81,8.23ZM323.07,615.03c3.89,0,6.74-1.13,8.56-3.39,1.81-2.26,2.8-6.1,2.97-11.52v-1.65c0-5.99-.92-10.28-2.77-12.87-1.85-2.59-4.85-3.89-9.01-3.89-3.39,0-6.03,1.44-7.91,4.31-1.88,2.88-2.82,7.06-2.82,12.55s.95,9.6,2.84,12.35c1.9,2.74,4.61,4.12,8.13,4.12Z"/>
        <path class="cls-2" d="M389.97,627.15c-8.98,0-16-2.48-21.05-7.43-5.06-4.96-7.58-11.97-7.58-21.05s2.34-16.57,7.01-21.68c4.67-5.11,11.13-7.66,19.38-7.66s14.02,2.25,18.41,6.74c4.39,4.49,6.59,10.69,6.59,18.61v7.38h-35.97c.17,4.32,1.45,7.7,3.84,10.13,2.39,2.43,5.75,3.64,10.08,3.64,3.36,0,6.54-.35,9.53-1.05,2.99-.7,6.12-1.81,9.38-3.34v11.77c-2.66,1.33-5.51,2.32-8.53,2.97-3.03.65-6.72.97-11.08.97ZM387.83,580.16c-3.23,0-5.75,1.02-7.58,3.07-1.83,2.05-2.88,4.95-3.14,8.71h21.35c-.07-3.76-1.05-6.66-2.94-8.71-1.9-2.05-4.46-3.07-7.68-3.07Z"/>
        <path class="cls-2" d="M483.82,565.04c-5.82,0-10.33,2.19-13.52,6.56-3.19,4.37-4.79,10.47-4.79,18.28,0,16.26,6.1,24.4,18.31,24.4,5.12,0,11.32-1.28,18.61-3.84v12.97c-5.99,2.49-12.67,3.74-20.06,3.74-10.61,0-18.73-3.22-24.35-9.65-5.62-6.44-8.43-15.67-8.43-27.71,0-7.58,1.38-14.23,4.14-19.93,2.76-5.7,6.73-10.08,11.9-13.12,5.17-3.04,11.23-4.56,18.18-4.56s14.2,1.71,21.35,5.14l-4.99,12.57c-2.73-1.3-5.47-2.43-8.23-3.39-2.76-.96-5.47-1.45-8.13-1.45Z"/>
        <path class="cls-2" d="M552.16,626.16l-2.94-7.58h-.4c-2.56,3.23-5.2,5.46-7.91,6.71-2.71,1.25-6.24,1.87-10.6,1.87-5.35,0-9.57-1.53-12.65-4.59-3.08-3.06-4.62-7.42-4.62-13.07s2.07-10.29,6.21-13.1c4.14-2.81,10.39-4.37,18.73-4.66l9.68-.3v-2.44c0-5.65-2.89-8.48-8.68-8.48-4.46,0-9.7,1.35-15.72,4.04l-5.04-10.28c6.42-3.36,13.54-5.04,21.35-5.04s13.22,1.63,17.21,4.89c3.99,3.26,5.99,8.22,5.99,14.87v37.17h-10.63ZM547.67,600.31l-5.89.2c-4.42.13-7.72.93-9.88,2.39-2.16,1.46-3.24,3.69-3.24,6.69,0,4.29,2.46,6.44,7.38,6.44,3.52,0,6.34-1.01,8.46-3.04,2.11-2.03,3.17-4.72,3.17-8.08v-4.59Z"/>
        <path class="cls-2" d="M629.94,626.16h-15.22v-32.58c0-4.02-.72-7.04-2.15-9.05-1.43-2.01-3.71-3.02-6.83-3.02-4.26,0-7.33,1.42-9.23,4.27-1.9,2.84-2.84,7.56-2.84,14.14v26.24h-15.22v-55.78h11.62l2.05,7.13h.85c1.7-2.69,4.03-4.73,7.01-6.11,2.98-1.38,6.36-2.07,10.15-2.07,6.49,0,11.41,1.76,14.77,5.26,3.36,3.51,5.04,8.57,5.04,15.19v36.37Z"/>
        <path class="cls-2" d="M658.88,626.16l-21.25-55.78h15.91l10.78,31.78c1.2,4.02,1.95,7.83,2.25,11.42h.3c.17-3.19.91-7,2.25-11.42l10.73-31.78h15.91l-21.25,55.78h-15.62Z"/>
        <path class="cls-2" d="M739.15,626.16l-2.94-7.58h-.4c-2.56,3.23-5.2,5.46-7.91,6.71-2.71,1.25-6.24,1.87-10.6,1.87-5.35,0-9.57-1.53-12.65-4.59-3.08-3.06-4.62-7.42-4.62-13.07s2.07-10.29,6.21-13.1c4.14-2.81,10.39-4.37,18.73-4.66l9.68-.3v-2.44c0-5.65-2.89-8.48-8.68-8.48-4.46,0-9.7,1.35-15.72,4.04l-5.04-10.28c6.42-3.36,13.54-5.04,21.35-5.04s13.22,1.63,17.21,4.89c3.99,3.26,5.99,8.22,5.99,14.87v37.17h-10.63ZM734.66,600.31l-5.89.2c-4.42.13-7.72.93-9.88,2.39-2.16,1.46-3.24,3.69-3.24,6.69,0,4.29,2.46,6.44,7.38,6.44,3.52,0,6.34-1.01,8.46-3.04,2.11-2.03,3.17-4.72,3.17-8.08v-4.59Z"/>
        <path class="cls-2" d="M804.35,609.59c0,5.72-1.99,10.08-5.96,13.07s-9.92,4.49-17.83,4.49c-4.06,0-7.52-.27-10.38-.82-2.86-.55-5.54-1.35-8.03-2.42v-12.57c2.83,1.33,6.01,2.44,9.55,3.34,3.54.9,6.66,1.35,9.35,1.35,5.52,0,8.28-1.6,8.28-4.79,0-1.2-.37-2.17-1.1-2.92-.73-.75-2-1.6-3.79-2.54s-4.19-2.05-7.18-3.32c-4.29-1.8-7.44-3.46-9.45-4.99-2.01-1.53-3.48-3.28-4.39-5.26-.92-1.98-1.37-4.42-1.37-7.31,0-4.96,1.92-8.79,5.76-11.5,3.84-2.71,9.29-4.07,16.34-4.07s13.25,1.46,19.61,4.39l-4.59,10.98c-2.79-1.2-5.41-2.18-7.83-2.94-2.43-.77-4.91-1.15-7.43-1.15-4.49,0-6.74,1.21-6.74,3.64,0,1.36.72,2.54,2.17,3.54,1.45,1,4.62,2.48,9.5,4.44,4.36,1.76,7.55,3.41,9.58,4.94,2.03,1.53,3.53,3.29,4.49,5.29.96,2,1.45,4.37,1.45,7.13Z"/>
      </g>
    </g>
  </g>
  <g id="Capa_4" data-name="Capa 4">
    <g>
      <path class="cls-1" d="M687.01,101.65l-148.85-27.46-148.85,27.46c-18.17,3.35-19.28,28-3.34,33.96v46.46l-12.49,63.96c-1.47,7.51,4.28,14.49,11.94,14.49h22.48c7.65,0,13.4-6.98,11.94-14.49l-12.49-63.96v-42.21l130.8,24.13,148.85-27.46c19.36-3.57,19.36-31.31,0-34.88Z"/>
      <path class="cls-1" d="M597.77,178.74c.54,3.24.83,6.57.83,9.97,0,33.32-27.11,60.43-60.43,60.43s-60.43-27.11-60.43-60.43c0-3.4.29-6.72.83-9.97l-35.43-6.54c-.93,5.4-1.4,10.92-1.4,16.51,0,25.76,10.03,49.97,28.24,68.19,18.21,18.21,42.43,28.24,68.19,28.24s49.97-10.03,68.19-28.24c18.21-18.21,28.24-42.43,28.24-68.19,0-5.59-.47-11.11-1.4-16.51l-35.43,6.54Z"/>
      <path class="cls-1" d="M688.98,417.85h-301.63c-9.94,0-18-8.06-18-18h0c0-24.99,7.65-49.08,22.12-69.66,13.55-19.28,33.14-35.57,56.65-47.12h0c7.02-3.45,15.47-1.97,20.9,3.66l64.72,67.1c2.47,2.38,6.4,2.38,8.86,0l64.72-67.1c5.43-5.63,13.88-7.11,20.9-3.66h0c23.51,11.55,43.09,27.85,56.65,47.12,14.47,20.58,22.12,44.67,22.12,69.66h0c0,9.94-8.06,18-18,18ZM554.76,387.92h124.8c-6.29-29.02-25.29-54.32-54.56-72.38l-66.62,69.07-.14.14c-1.12,1.12-2.28,2.18-3.48,3.18ZM396.89,387.86h124.59c-1.19-.99-2.36-2.05-3.47-3.17l-.27-.28-66.37-68.81c-29.22,18.03-48.19,43.29-54.47,72.26Z"/>
    </g>
  </g>
</svg>