<?xml version="1.0" encoding="UTF-8"?>
<svg id="Capa_2" data-name="Capa 2" xmlns="http://www.w3.org/2000/svg" viewBox="0 0 1101.03 696.54">
  <defs>
    <style>
      .cls-1 {
        fill: #0073ff;
      }

      .cls-2 {
        fill: #fff;
      }

      .cls-3 {
        fill: #2d2d2d;
        stroke: #505050;
        stroke-miterlimit: 10;
        stroke-width: 14.49px;
      }
    </style>
  </defs>
  <rect class="cls-3" x="7.24" y="7.24" width="1086.54" height="682.05" rx="94.33" ry="94.33"/>
  <g>
    <path class="cls-2" d="M280.68,527.16v53.13c0,6.07-1.36,11.38-4.07,15.95s-6.64,8.07-11.77,10.5c-5.13,2.43-11.19,3.65-18.2,3.65-10.56,0-18.76-2.71-24.6-8.12-5.84-5.41-8.76-12.81-8.76-22.21v-52.9h17.35v50.26c0,6.33,1.27,10.97,3.82,13.93s6.76,4.44,12.64,4.44,9.82-1.49,12.38-4.46,3.85-7.65,3.85-14.01v-50.15h17.35Z"/>
    <path class="cls-2" d="M317.13,574.89h-21.73v-12.3h21.73v-21.9h12.3v21.9h21.73v12.3h-21.73v21.62h-12.3v-21.62Z"/>
    <path class="cls-2" d="M446.58,609.26l-5.95-19.54h-29.93l-5.95,19.54h-18.76l28.98-82.44h21.28l29.09,82.44h-18.76ZM436.47,575.12c-5.5-17.71-8.6-27.72-9.29-30.05s-1.19-4.16-1.49-5.5c-1.24,4.79-4.77,16.64-10.61,35.55h21.4Z"/>
    <path class="cls-2" d="M491.45,609.26h-17.13v-87.38h17.13v87.38Z"/>
    <path class="cls-2" d="M553.9,609.26l-2.3-8.03h-.9c-1.83,2.92-4.44,5.18-7.81,6.77-3.37,1.59-7.21,2.39-11.51,2.39-7.38,0-12.94-1.97-16.68-5.92s-5.62-9.63-5.62-17.04v-40.94h17.13v36.67c0,4.53.8,7.93,2.41,10.19s4.17,3.4,7.69,3.4c4.79,0,8.26-1.6,10.39-4.8,2.13-3.2,3.2-8.51,3.2-15.92v-29.54h17.13v62.79h-13.14Z"/>
    <path class="cls-2" d="M641.23,609.26h-17.13v-36.67c0-4.53-.76-7.93-2.27-10.19s-3.9-3.4-7.16-3.4c-4.38,0-7.56,1.61-9.55,4.83s-2.98,8.52-2.98,15.89v29.54h-17.13v-62.79h13.09l2.3,8.03h.95c1.68-2.88,4.12-5.14,7.3-6.77,3.18-1.63,6.83-2.44,10.95-2.44,9.4,0,15.76,3.07,19.09,9.21h1.52c1.68-2.92,4.17-5.19,7.44-6.8s6.97-2.41,11.09-2.41c7.11,0,12.5,1.83,16.15,5.48,3.65,3.65,5.48,9.5,5.48,17.55v40.94h-17.18v-36.67c0-4.53-.76-7.93-2.27-10.19s-3.9-3.4-7.16-3.4c-4.19,0-7.33,1.5-9.41,4.49-2.08,3-3.12,7.75-3.12,14.26v31.51Z"/>
    <path class="cls-2" d="M755.9,609.26h-17.13v-36.67c0-4.53-.8-7.93-2.41-10.19s-4.17-3.4-7.69-3.4c-4.79,0-8.26,1.6-10.39,4.8s-3.2,8.51-3.2,15.92v29.54h-17.13v-62.79h13.09l2.3,8.03h.95c1.91-3.03,4.54-5.33,7.89-6.88s7.16-2.33,11.43-2.33c7.3,0,12.84,1.97,16.62,5.92s5.67,9.65,5.67,17.1v40.94Z"/>
    <path class="cls-2" d="M830.6,577.75c0,10.22-2.7,18.21-8.09,23.98s-12.9,8.65-22.52,8.65c-6.03,0-11.34-1.32-15.95-3.96-4.61-2.64-8.14-6.43-10.61-11.37-2.47-4.94-3.71-10.71-3.71-17.3,0-10.26,2.68-18.23,8.03-23.92,5.35-5.69,12.88-8.54,22.58-8.54,6.03,0,11.34,1.31,15.95,3.93,4.61,2.62,8.14,6.38,10.61,11.29s3.71,10.65,3.71,17.24ZM787.18,577.75c0,6.21,1.02,10.91,3.06,14.1,2.04,3.18,5.36,4.77,9.97,4.77s7.85-1.58,9.86-4.75,3-7.87,3-14.12-1.01-10.88-3.03-13.98c-2.02-3.11-5.34-4.66-9.94-4.66s-7.86,1.54-9.88,4.63c-2.02,3.09-3.03,7.76-3.03,14.01Z"/>
    <path class="cls-2" d="M888.55,590.62c0,6.44-2.24,11.34-6.71,14.71-4.47,3.37-11.17,5.05-20.08,5.05-4.57,0-8.46-.31-11.68-.93s-6.23-1.53-9.04-2.72v-14.15c3.18,1.5,6.77,2.75,10.75,3.76,3.99,1.01,7.5,1.52,10.53,1.52,6.21,0,9.32-1.8,9.32-5.39,0-1.35-.41-2.44-1.24-3.29s-2.25-1.8-4.27-2.86-4.72-2.31-8.09-3.73c-4.83-2.02-8.38-3.89-10.64-5.62s-3.91-3.7-4.94-5.92-1.54-4.97-1.54-8.23c0-5.58,2.16-9.89,6.49-12.94,4.32-3.05,10.45-4.58,18.39-4.58s14.92,1.65,22.07,4.94l-5.17,12.36c-3.14-1.35-6.08-2.45-8.82-3.31s-5.52-1.29-8.37-1.29c-5.05,0-7.58,1.37-7.58,4.1,0,1.54.81,2.86,2.44,3.99,1.63,1.12,5.19,2.79,10.7,5,4.9,1.98,8.5,3.84,10.78,5.56s3.97,3.71,5.05,5.95,1.63,4.92,1.63,8.03Z"/>
  </g>
  <path class="cls-1" d="M367.2,231v-108.66c0-21.55,17.47-39.02,39.02-39.02s39.02,17.47,39.02,39.02v108.66c0,23.59,17.76,42.79,39.59,42.79s39.6-19.19,39.6-42.79v-108.66c0-21.55,17.47-39.02,39.02-39.02s39.02,17.47,39.02,39.02v108.66c0,66.63-52.78,112.29-117.64,112.29s-117.64-45.66-117.64-112.29ZM675.52,266.65h20.15v26.26c0,7.65,6.2,13.85,13.85,13.85s13.85-6.2,13.85-13.85v-26.26h20.16c7.65,0,13.85-6.2,13.85-13.85s-6.2-13.85-13.85-13.85h-20.16v-26.26c0-7.65-6.2-13.85-13.85-13.85s-13.85,6.2-13.85,13.85v26.26h-20.15c-7.65,0-13.85,6.2-13.85,13.85s6.2,13.85,13.85,13.85ZM777.03,196.63c8.32,14.66,13.15,32.03,13.15,50.67,0,52.32-37.93,94.74-84.73,94.74-33.87,0-63.08-22.22-76.64-54.33,4.13,16.07,12.02,30.42,22.54,41.86-35.33,56.23-93.73,92.99-159.82,92.99-93.89,0-172.29-74.16-191.02-172.99,7.18,113.76,96.07,203.67,204.67,203.67,73.53,0,138-41.24,174.22-103.17,10.35,4.72,21.7,7.34,33.62,7.34,48.32,0,87.49-42.81,87.49-95.61,0-25.18-8.92-48.08-23.49-65.15Z"/>
</svg>