<?xml version="1.0" encoding="UTF-8"?>
<svg id="Capa_2" data-name="Capa 2" xmlns="http://www.w3.org/2000/svg" viewBox="0 0 1101.03 696.54">
  <defs>
    <style>
      .cls-1 {
        fill: #fff;
      }

      .cls-2 {
        fill: #2d2d2d;
        stroke: #505050;
        stroke-miterlimit: 10;
        stroke-width: 14.49px;
      }

      .cls-3 {
        fill: #5050bb;
      }
    </style>
  </defs>
  <rect class="cls-2" x="7.24" y="7.24" width="1086.54" height="682.05" rx="94.33" ry="94.33"/>
  <g>
    <path class="cls-1" d="M380.21,571.3c0,7.62-2.74,13.62-8.22,18.01-5.48,4.39-13.11,6.58-22.89,6.58-9,0-16.97-1.69-23.9-5.08v-16.62c5.7,2.54,10.51,4.33,14.46,5.37,3.94,1.04,7.55,1.56,10.82,1.56,3.93,0,6.94-.75,9.03-2.25,2.1-1.5,3.15-3.73,3.15-6.7,0-1.65-.46-3.13-1.39-4.42-.92-1.29-2.28-2.53-4.07-3.72-1.79-1.19-5.44-3.1-10.94-5.71-5.16-2.42-9.02-4.75-11.6-6.98-2.58-2.23-4.64-4.83-6.18-7.79-1.54-2.96-2.31-6.43-2.31-10.39,0-7.46,2.53-13.33,7.59-17.61,5.06-4.27,12.05-6.41,20.98-6.41,4.39,0,8.57.52,12.55,1.56,3.98,1.04,8.15,2.5,12.5,4.39l-5.77,13.91c-4.5-1.85-8.23-3.14-11.17-3.87-2.94-.73-5.84-1.1-8.69-1.1-3.39,0-5.98.79-7.79,2.37-1.81,1.58-2.71,3.64-2.71,6.18,0,1.58.36,2.95,1.1,4.13.73,1.17,1.89,2.31,3.49,3.41,1.6,1.1,5.38,3.07,11.34,5.92,7.89,3.77,13.29,7.55,16.22,11.34,2.92,3.79,4.39,8.44,4.39,13.94Z"/>
    <path class="cls-1" d="M452.77,562.35c0,10.51-2.77,18.72-8.31,24.65-5.54,5.93-13.26,8.89-23.15,8.89-6.2,0-11.66-1.36-16.39-4.07-4.73-2.71-8.37-6.61-10.91-11.69-2.54-5.08-3.81-11-3.81-17.78,0-10.54,2.75-18.74,8.25-24.59,5.5-5.85,13.24-8.77,23.2-8.77,6.19,0,11.66,1.35,16.39,4.04s8.37,6.56,10.91,11.6c2.54,5.04,3.81,10.95,3.81,17.72ZM408.15,562.35c0,6.39,1.05,11.22,3.15,14.49,2.1,3.27,5.51,4.91,10.25,4.91s8.07-1.63,10.13-4.88c2.06-3.25,3.09-8.09,3.09-14.52s-1.04-11.18-3.12-14.37c-2.08-3.19-5.48-4.79-10.22-4.79s-8.08,1.59-10.16,4.76-3.12,7.97-3.12,14.4Z"/>
    <path class="cls-1" d="M502.75,595.89c-7.58,0-13.53-2.75-17.84-8.25h-.92c.62,5.39.92,8.5.92,9.35v26.15h-17.6v-92.93h14.31l2.48,8.37h.81c4.12-6.39,10.22-9.58,18.3-9.58,7.62,0,13.58,2.94,17.89,8.83,4.31,5.89,6.47,14.07,6.47,24.53,0,6.89-1.01,12.87-3.03,17.95-2.02,5.08-4.9,8.95-8.63,11.6-3.73,2.66-8.12,3.98-13.16,3.98ZM497.56,543.07c-4.35,0-7.52,1.34-9.52,4.01-2,2.68-3.04,7.09-3.12,13.25v1.91c0,6.93,1.03,11.89,3.09,14.89,2.06,3,5.32,4.5,9.78,4.5,7.89,0,11.83-6.5,11.83-19.51,0-6.35-.97-11.11-2.92-14.29s-4.99-4.76-9.15-4.76Z"/>
    <path class="cls-1" d="M600.76,562.35c0,10.51-2.77,18.72-8.31,24.65-5.54,5.93-13.26,8.89-23.15,8.89-6.2,0-11.66-1.36-16.39-4.07-4.73-2.71-8.37-6.61-10.91-11.69-2.54-5.08-3.81-11-3.81-17.78,0-10.54,2.75-18.74,8.25-24.59,5.5-5.85,13.24-8.77,23.2-8.77,6.19,0,11.66,1.35,16.39,4.04s8.37,6.56,10.91,11.6c2.54,5.04,3.81,10.95,3.81,17.72ZM556.14,562.35c0,6.39,1.05,11.22,3.15,14.49,2.1,3.27,5.51,4.91,10.25,4.91s8.07-1.63,10.13-4.88c2.06-3.25,3.09-8.09,3.09-14.52s-1.04-11.18-3.12-14.37-5.48-4.79-10.22-4.79-8.08,1.59-10.16,4.76c-2.08,3.17-3.12,7.97-3.12,14.4Z"/>
    <path class="cls-1" d="M651.33,528.99c2.39,0,4.37.17,5.95.52l-1.33,16.51c-1.42-.38-3.16-.58-5.2-.58-5.62,0-9.99,1.44-13.13,4.33-3.14,2.89-4.71,6.93-4.71,12.12v32.84h-17.6v-64.53h13.33l2.6,10.85h.87c2-3.62,4.7-6.53,8.11-8.75,3.41-2.21,7.11-3.32,11.11-3.32Z"/>
    <path class="cls-1" d="M696.18,581.86c3.08,0,6.77-.67,11.08-2.02v13.1c-4.39,1.96-9.78,2.94-16.16,2.94-7.04,0-12.17-1.78-15.38-5.34-3.21-3.56-4.82-8.9-4.82-16.02v-31.11h-8.43v-7.45l9.7-5.89,5.08-13.62h11.26v13.74h18.07v13.22h-18.07v31.11c0,2.5.7,4.35,2.11,5.54,1.4,1.19,3.26,1.79,5.57,1.79Z"/>
    <path class="cls-1" d="M749.51,595.89c-10.39,0-18.51-2.87-24.36-8.6-5.85-5.73-8.77-13.85-8.77-24.36s2.7-19.17,8.11-25.08c5.41-5.91,12.88-8.86,22.42-8.86s16.22,2.6,21.3,7.79c5.08,5.2,7.62,12.37,7.62,21.53v8.54h-41.62c.19,5,1.67,8.91,4.44,11.72,2.77,2.81,6.66,4.21,11.66,4.21,3.89,0,7.56-.4,11.02-1.21s7.08-2.1,10.85-3.87v13.62c-3.08,1.54-6.37,2.68-9.87,3.43s-7.77,1.13-12.81,1.13ZM747.03,541.51c-3.73,0-6.66,1.18-8.77,3.55-2.12,2.37-3.33,5.72-3.64,10.07h24.71c-.08-4.35-1.21-7.71-3.41-10.07-2.19-2.37-5.16-3.55-8.89-3.55Z"/>
  </g>
  <path class="cls-3" d="M727.36,212.24c13.92,1.69,24.39,11.84,26.46,25.7-.66,26.03,1.6,53.25.23,79.15-.34,6.47-1.99,12.05-6.06,17.18-7.5,9.44-18.61,12.05-30.22,12.03-4,13.25-9.4,25.61-17.34,36.97-19.22,27.51-52.37,48.61-86.52,50.47-.73.04-1.43-.52-2.1-.75-2,7.92-8.82,13.55-16.36,15.99-16.05-.48-34.73,1.96-50.5.4-28.8-2.85-27.12-48.32-.86-50.9,15.74-1.55,33.95,1.14,49.96.07,3.39.44,9.78,3.94,12.29,6.24.9.82,1.31,2.85,2.84,3.62,2.29,1.14,11.61-.98,14.68-1.71,30.67-7.23,57.49-31.19,67.24-61.22.01-.82-5.97-.33-7.27-.51-9.99-1.35-19.3-8.17-21.22-18.43l.09-94.81c3.37-14.58,15.63-21.41,30.12-19.45-.27-57.34-38.06-104.74-92.45-120.93-75.49-22.48-167.59,8.21-187.51,90.55-2.25,9.28-2.91,18.89-4.53,28.28l.38,1.27c1.13,1.58,8.58.6,11.18.9,11.79,1.34,18.71,12.55,19.51,23.6,2,27.89-1.61,58.14,0,86.29-1.21,13.9-10.82,22.72-24.57,23.71-10.39.75-26.72.72-37.13-.02-16.73-1.19-28.95-11.92-30.63-28.86,1.43-24.78-1.77-51.39,0-75.94.82-11.48,7.84-22.78,18.77-26.92,2.06-.78,8.26-1.57,8.76-3.31.72-2.5-.09-6.8.17-9.28,1.78-16.98,5.89-34.93,12.2-50.77,54.77-137.34,275.48-135.51,328.92,1.72,7.35,18.89,10.64,39.47,11.46,59.66Z"/>
</svg>