<?xml version="1.0" encoding="UTF-8"?>
<svg id="Capa_2" data-name="Capa 2" xmlns="http://www.w3.org/2000/svg" viewBox="0 0 1101.03 696.54">
  <defs>
    <style>
      .cls-1, .cls-2 {
        stroke-width: 17.01px;
      }

      .cls-1, .cls-2, .cls-3 {
        stroke-miterlimit: 10;
      }

      .cls-1, .cls-4 {
        fill: #fff;
      }

      .cls-1, .cls-3 {
        stroke: #505050;
      }

      .cls-5 {
        fill: #cc1719;
      }

      .cls-2 {
        fill: none;
        stroke: #5050bb;
      }

      .cls-3 {
        fill: #2d2d2d;
        stroke-width: 14.49px;
      }
    </style>
  </defs>
  <rect class="cls-3" x="7.24" y="7.24" width="1086.54" height="682.05" rx="94.33" ry="94.33"/>
  <g>
    <path class="cls-4" d="M71.1,609.26h-17.13v-82.11h47.06v14.26h-29.93v21.17h27.85v14.21h-27.85v32.46Z"/>
    <path class="cls-4" d="M172.8,577.76c0,10.22-2.7,18.21-8.09,23.98-5.39,5.77-12.9,8.65-22.52,8.65-6.03,0-11.34-1.32-15.95-3.96-4.6-2.64-8.14-6.43-10.61-11.37s-3.71-10.71-3.71-17.3c0-10.26,2.68-18.23,8.03-23.92,5.35-5.69,12.88-8.54,22.58-8.54,6.03,0,11.34,1.31,15.95,3.93,4.6,2.62,8.14,6.38,10.61,11.29,2.47,4.91,3.71,10.65,3.71,17.24ZM129.39,577.76c0,6.21,1.02,10.91,3.06,14.1,2.04,3.18,5.36,4.77,9.97,4.77s7.85-1.58,9.86-4.75c2-3.16,3-7.87,3-14.12s-1.01-10.88-3.03-13.98c-2.02-3.11-5.33-4.66-9.94-4.66s-7.86,1.54-9.88,4.63c-2.02,3.09-3.03,7.76-3.03,14.01Z"/>
    <path class="cls-4" d="M222,545.29c2.32,0,4.25.17,5.78.51l-1.29,16.06c-1.39-.37-3.07-.56-5.05-.56-5.47,0-9.73,1.4-12.78,4.21-3.05,2.81-4.58,6.74-4.58,11.79v31.95h-17.13v-62.79h12.97l2.53,10.56h.84c1.95-3.52,4.58-6.35,7.89-8.51,3.31-2.15,6.92-3.23,10.81-3.23Z"/>
    <path class="cls-4" d="M296.24,577.76c0,10.22-2.7,18.21-8.09,23.98-5.39,5.77-12.9,8.65-22.52,8.65-6.03,0-11.34-1.32-15.95-3.96-4.61-2.64-8.14-6.43-10.61-11.37s-3.71-10.71-3.71-17.3c0-10.26,2.68-18.23,8.03-23.92,5.35-5.69,12.88-8.54,22.58-8.54,6.03,0,11.34,1.31,15.95,3.93,4.6,2.62,8.14,6.38,10.61,11.29,2.47,4.91,3.71,10.65,3.71,17.24ZM252.83,577.76c0,6.21,1.02,10.91,3.06,14.1,2.04,3.18,5.36,4.77,9.97,4.77s7.85-1.58,9.86-4.75c2-3.16,3-7.87,3-14.12s-1.01-10.88-3.03-13.98c-2.02-3.11-5.34-4.66-9.94-4.66s-7.86,1.54-9.88,4.63c-2.02,3.09-3.03,7.76-3.03,14.01Z"/>
    <path class="cls-4" d="M360.15,610.38c-7.38,0-13.17-2.86-17.38-8.59s-6.32-13.66-6.32-23.81,2.14-18.32,6.43-24.06c4.29-5.75,10.19-8.62,17.72-8.62,7.9,0,13.93,3.07,18.08,9.21h.56c-.86-4.68-1.29-8.85-1.29-12.52v-20.1h17.18v87.38h-13.14l-3.31-8.14h-.73c-3.89,6.18-9.83,9.27-17.8,9.27ZM366.16,596.74c4.38,0,7.59-1.27,9.63-3.82,2.04-2.55,3.15-6.87,3.34-12.97v-1.85c0-6.74-1.04-11.57-3.12-14.49-2.08-2.92-5.46-4.38-10.14-4.38-3.82,0-6.79,1.62-8.9,4.86-2.12,3.24-3.17,7.95-3.17,14.12s1.07,10.81,3.2,13.9c2.13,3.09,5.19,4.63,9.15,4.63Z"/>
    <path class="cls-4" d="M441.47,610.38c-10.11,0-18.01-2.79-23.7-8.37-5.69-5.58-8.54-13.48-8.54-23.7s2.63-18.65,7.89-24.4c5.26-5.75,12.53-8.62,21.82-8.62s15.78,2.53,20.72,7.58c4.94,5.05,7.41,12.04,7.41,20.95v8.31h-40.49c.19,4.87,1.63,8.67,4.32,11.4,2.7,2.73,6.48,4.1,11.34,4.1,3.78,0,7.36-.39,10.73-1.18,3.37-.79,6.89-2.04,10.56-3.76v13.25c-3,1.5-6.2,2.61-9.6,3.34-3.41.73-7.56,1.09-12.47,1.09ZM439.05,557.48c-3.63,0-6.48,1.15-8.54,3.45-2.06,2.3-3.24,5.57-3.54,9.8h24.04c-.08-4.23-1.18-7.5-3.31-9.8-2.13-2.3-5.02-3.45-8.65-3.45Z"/>
    <path class="cls-4" d="M536.38,610.38c-19.54,0-29.32-10.73-29.32-32.18,0-10.67,2.66-18.82,7.97-24.46,5.32-5.63,12.93-8.45,22.86-8.45,7.26,0,13.78,1.42,19.54,4.27l-5.05,13.25c-2.7-1.09-5.2-1.97-7.53-2.67-2.32-.69-4.64-1.04-6.96-1.04-8.91,0-13.37,6.33-13.37,18.98s4.46,18.42,13.37,18.42c3.29,0,6.35-.44,9.15-1.32,2.81-.88,5.62-2.26,8.42-4.13v14.66c-2.77,1.76-5.57,2.98-8.4,3.65-2.83.67-6.39,1.01-10.7,1.01Z"/>
    <path class="cls-4" d="M627.07,577.76c0,10.22-2.7,18.21-8.09,23.98-5.39,5.77-12.9,8.65-22.52,8.65-6.03,0-11.34-1.32-15.95-3.96-4.61-2.64-8.14-6.43-10.61-11.37-2.47-4.94-3.71-10.71-3.71-17.3,0-10.26,2.68-18.23,8.03-23.92,5.35-5.69,12.88-8.54,22.58-8.54,6.03,0,11.34,1.31,15.95,3.93,4.6,2.62,8.14,6.38,10.61,11.29,2.47,4.91,3.71,10.65,3.71,17.24ZM583.66,577.76c0,6.21,1.02,10.91,3.06,14.1,2.04,3.18,5.36,4.77,9.97,4.77s7.85-1.58,9.86-4.75c2-3.16,3-7.87,3-14.12s-1.01-10.88-3.03-13.98c-2.02-3.11-5.34-4.66-9.94-4.66s-7.86,1.54-9.88,4.63c-2.02,3.09-3.03,7.76-3.03,14.01Z"/>
    <path class="cls-4" d="M699.18,609.26h-17.13v-36.67c0-4.53-.81-7.93-2.41-10.19-1.61-2.26-4.18-3.4-7.69-3.4-4.79,0-8.26,1.6-10.39,4.8-2.13,3.2-3.2,8.51-3.2,15.92v29.54h-17.13v-62.79h13.08l2.3,8.03h.95c1.91-3.03,4.54-5.33,7.89-6.88,3.35-1.55,7.16-2.33,11.43-2.33,7.3,0,12.84,1.98,16.62,5.92,3.78,3.95,5.67,9.65,5.67,17.1v40.94Z"/>
    <path class="cls-4" d="M760.62,590.62c0,6.44-2.24,11.34-6.71,14.71s-11.17,5.05-20.08,5.05c-4.57,0-8.46-.31-11.68-.93-3.22-.62-6.23-1.53-9.04-2.72v-14.15c3.18,1.5,6.77,2.75,10.75,3.76,3.99,1.01,7.5,1.52,10.53,1.52,6.21,0,9.32-1.8,9.32-5.39,0-1.35-.41-2.44-1.24-3.29-.82-.84-2.25-1.8-4.27-2.86s-4.72-2.31-8.09-3.73c-4.83-2.02-8.38-3.89-10.64-5.62-2.27-1.72-3.91-3.7-4.94-5.92-1.03-2.23-1.54-4.97-1.54-8.23,0-5.58,2.16-9.89,6.49-12.94,4.32-3.05,10.45-4.58,18.39-4.58s14.92,1.65,22.07,4.94l-5.17,12.36c-3.15-1.35-6.08-2.45-8.82-3.31-2.73-.86-5.52-1.29-8.37-1.29-5.05,0-7.58,1.37-7.58,4.1,0,1.54.81,2.86,2.44,3.99,1.63,1.12,5.2,2.79,10.7,5,4.9,1.98,8.5,3.84,10.78,5.56,2.28,1.72,3.97,3.71,5.05,5.95,1.08,2.25,1.63,4.92,1.63,8.03Z"/>
    <path class="cls-4" d="M818.47,609.26l-2.3-8.03h-.9c-1.84,2.92-4.44,5.18-7.81,6.77-3.37,1.59-7.21,2.39-11.51,2.39-7.38,0-12.94-1.97-16.68-5.92-3.74-3.95-5.62-9.63-5.62-17.04v-40.94h17.13v36.67c0,4.53.81,7.93,2.41,10.19,1.61,2.27,4.17,3.4,7.69,3.4,4.79,0,8.26-1.6,10.39-4.8,2.13-3.2,3.2-8.51,3.2-15.92v-29.54h17.13v62.79h-13.14Z"/>
    <path class="cls-4" d="M866.71,609.26h-17.13v-87.38h17.13v87.38Z"/>
    <path class="cls-4" d="M911.13,596.74c2.99,0,6.59-.65,10.78-1.97v12.75c-4.27,1.91-9.51,2.86-15.72,2.86-6.85,0-11.84-1.73-14.97-5.19-3.13-3.46-4.69-8.66-4.69-15.58v-30.27h-8.2v-7.24l9.43-5.73,4.94-13.25h10.95v13.37h17.58v12.86h-17.58v30.27c0,2.43.68,4.23,2.05,5.39,1.37,1.16,3.17,1.74,5.42,1.74Z"/>
    <path class="cls-4" d="M974.48,609.26l-3.31-8.54h-.45c-2.88,3.63-5.85,6.15-8.9,7.55-3.05,1.4-7.03,2.11-11.93,2.11-6.03,0-10.77-1.72-14.24-5.17-3.46-3.44-5.2-8.35-5.2-14.71s2.33-11.58,6.99-14.74c4.66-3.16,11.69-4.91,21.09-5.25l10.89-.34v-2.75c0-6.36-3.26-9.55-9.77-9.55-5.02,0-10.91,1.52-17.69,4.55l-5.67-11.57c7.23-3.78,15.24-5.67,24.04-5.67s14.88,1.83,19.38,5.5c4.49,3.67,6.74,9.25,6.74,16.74v41.84h-11.96ZM969.42,580.17l-6.63.22c-4.98.15-8.69,1.05-11.12,2.7-2.43,1.65-3.65,4.16-3.65,7.53,0,4.83,2.77,7.24,8.31,7.24,3.97,0,7.14-1.14,9.52-3.43,2.38-2.28,3.57-5.32,3.57-9.1v-5.17Z"/>
    <path class="cls-4" d="M1047.88,590.62c0,6.44-2.24,11.34-6.71,14.71s-11.17,5.05-20.08,5.05c-4.57,0-8.46-.31-11.68-.93-3.22-.62-6.23-1.53-9.04-2.72v-14.15c3.18,1.5,6.77,2.75,10.75,3.76,3.99,1.01,7.5,1.52,10.53,1.52,6.21,0,9.32-1.8,9.32-5.39,0-1.35-.41-2.44-1.24-3.29-.82-.84-2.25-1.8-4.27-2.86s-4.72-2.31-8.09-3.73c-4.83-2.02-8.38-3.89-10.64-5.62-2.27-1.72-3.91-3.7-4.94-5.92-1.03-2.23-1.54-4.97-1.54-8.23,0-5.58,2.16-9.89,6.49-12.94,4.32-3.05,10.45-4.58,18.39-4.58s14.92,1.65,22.07,4.94l-5.17,12.36c-3.15-1.35-6.08-2.45-8.82-3.31-2.73-.86-5.52-1.29-8.37-1.29-5.05,0-7.58,1.37-7.58,4.1,0,1.54.81,2.86,2.44,3.99,1.63,1.12,5.2,2.79,10.7,5,4.9,1.98,8.5,3.84,10.78,5.56,2.28,1.72,3.97,3.71,5.05,5.95,1.08,2.25,1.63,4.92,1.63,8.03Z"/>
  </g>
  <g>
    <polygon class="cls-1" points="606.52 174.56 335.23 174.56 335.23 391.89 417.53 391.89 417.53 465.36 490.99 391.89 606.52 391.89 606.52 174.56"/>
    <polyline class="cls-2" points="499.31 139.38 499.31 64.19 765.8 64.19 765.8 281.52 706.9 281.52 706.9 354.98 633.44 281.52 606.52 281.52"/>
    <g>
      <path class="cls-5" d="M446.17,275.09v6.77c0,5.98-1.36,11.13-4.07,15.46-2.71,4.33-7.37,8.85-13.95,13.54-6.65,4.76-10.84,8.48-12.58,11.16-1.74,2.68-2.61,5.95-2.61,9.79,0,3.48,1.33,6.34,3.98,8.6,2.65,2.26,6.69,3.39,12.12,3.39,4.82,0,9.97-.88,15.46-2.65,5.49-1.77,11.16-3.93,17.02-6.5l9.33,20.22c-5.98,3.42-12.73,6.18-20.27,8.28-7.53,2.1-14.53,3.16-21,3.16-13.42,0-23.96-2.94-31.61-8.83-7.66-5.89-11.48-13.99-11.48-24.29,0-6.59,1.48-12.29,4.44-17.11,2.96-4.82,8.8-10.43,17.52-16.84,5.79-4.27,9.5-7.53,11.12-9.79,1.62-2.26,2.43-5.25,2.43-8.97v-5.4h24.16ZM449.1,243.8c0,5.12-1.37,9-4.12,11.62-2.75,2.62-6.74,3.93-11.99,3.93s-8.98-1.34-11.76-4.03c-2.78-2.68-4.16-6.53-4.16-11.53s1.42-8.77,4.25-11.48c2.84-2.71,6.73-4.07,11.67-4.07s9.09,1.34,11.9,4.03c2.8,2.68,4.21,6.53,4.21,11.53Z"/>
      <path class="cls-5" d="M495.58,286.17v-6.77c0-5.86,1.25-10.95,3.75-15.28,2.5-4.33,7.08-8.94,13.73-13.82,6.4-4.57,10.63-8.3,12.67-11.16,2.04-2.87,3.06-6.07,3.06-9.61,0-3.96-1.46-6.98-4.39-9.06-2.93-2.07-7.02-3.11-12.26-3.11-9.15,0-19.58,2.99-31.29,8.97l-9.97-20.04c13.6-7.63,28.03-11.44,43.28-11.44,12.56,0,22.55,3.02,29.97,9.06,7.41,6.04,11.12,14.09,11.12,24.16,0,6.71-1.53,12.51-4.58,17.38-3.05,4.88-8.85,10.37-17.39,16.47-5.86,4.33-9.56,7.63-11.12,9.88-1.56,2.26-2.33,5.22-2.33,8.88v5.49h-24.25ZM492.65,317.46c0-5.12,1.37-9,4.12-11.62,2.75-2.62,6.74-3.93,11.99-3.93s8.98,1.34,11.76,4.03c2.77,2.68,4.16,6.53,4.16,11.53s-1.4,8.62-4.21,11.39c-2.81,2.78-6.71,4.16-11.71,4.16s-9.09-1.36-11.9-4.07c-2.81-2.71-4.21-6.54-4.21-11.48Z"/>
    </g>
  </g>
</svg>