<?xml version="1.0" encoding="UTF-8"?>
<svg id="Capa_2" data-name="Capa 2" xmlns="http://www.w3.org/2000/svg" viewBox="0 0 1101.03 696.54">
  <defs>
    <style>
      .cls-1 {
        fill: #b81f2a;
      }

      .cls-2 {
        fill: #fff;
      }

      .cls-3 {
        fill: #2d2d2d;
        stroke: #505050;
        stroke-miterlimit: 10;
        stroke-width: 14.49px;
      }
    </style>
  </defs>
  <rect class="cls-3" x="7.24" y="7.24" width="1086.54" height="682.05" rx="94.33" ry="94.33"/>
  <g>
    <path class="cls-2" d="M195.13,396.18c-6.46,0-11.46,2.43-15,7.28-3.54,4.85-5.32,11.62-5.32,20.29,0,18.05,6.77,27.07,20.32,27.07,5.68,0,12.57-1.42,20.65-4.26v14.39c-6.64,2.77-14.06,4.15-22.26,4.15-11.77,0-20.78-3.57-27.02-10.71-6.24-7.14-9.36-17.39-9.36-30.75,0-8.42,1.53-15.79,4.6-22.12,3.06-6.33,7.46-11.18,13.2-14.56,5.74-3.38,12.47-5.07,20.18-5.07s15.76,1.9,23.7,5.7l-5.54,13.95c-3.03-1.44-6.07-2.69-9.13-3.76-3.06-1.07-6.07-1.61-9.02-1.61Z"/>
    <path class="cls-2" d="M287.92,432.94c0,10.08-2.66,17.96-7.97,23.64-5.32,5.68-12.72,8.53-22.2,8.53-5.94,0-11.18-1.3-15.72-3.9-4.54-2.6-8.03-6.34-10.46-11.21-2.44-4.87-3.65-10.56-3.65-17.05,0-10.11,2.64-17.97,7.92-23.58,5.28-5.61,12.7-8.42,22.26-8.42,5.94,0,11.18,1.29,15.72,3.88,4.54,2.58,8.03,6.29,10.46,11.13s3.65,10.5,3.65,17ZM245.12,432.94c0,6.13,1,10.76,3.02,13.9,2.01,3.14,5.29,4.71,9.83,4.71s7.74-1.56,9.72-4.68c1.97-3.12,2.96-7.76,2.96-13.92s-1-10.72-2.99-13.79c-1.99-3.06-5.26-4.6-9.8-4.6s-7.75,1.52-9.74,4.57c-1.99,3.04-2.99,7.65-2.99,13.81Z"/>
    <path class="cls-2" d="M357.29,464h-16.89v-36.15c0-4.47-.75-7.82-2.24-10.05-1.5-2.23-3.85-3.35-7.06-3.35-4.32,0-7.46,1.59-9.41,4.76-1.96,3.17-2.94,8.4-2.94,15.67v29.12h-16.88v-61.9h12.9l2.27,7.92h.94c1.66-2.84,4.06-5.07,7.2-6.67,3.14-1.61,6.74-2.41,10.8-2.41,9.26,0,15.54,3.03,18.82,9.08h1.49c1.66-2.88,4.11-5.11,7.34-6.7,3.23-1.59,6.87-2.38,10.93-2.38,7.01,0,12.32,1.8,15.92,5.4,3.6,3.6,5.4,9.37,5.4,17.3v40.36h-16.94v-36.15c0-4.47-.75-7.82-2.24-10.05-1.5-2.23-3.85-3.35-7.06-3.35-4.13,0-7.23,1.48-9.27,4.43-2.05,2.95-3.07,7.64-3.07,14.06v31.06Z"/>
    <path class="cls-2" d="M457.05,464l-2.27-7.92h-.89c-1.81,2.88-4.37,5.1-7.7,6.67-3.32,1.57-7.11,2.35-11.35,2.35-7.27,0-12.75-1.95-16.44-5.84-3.69-3.89-5.54-9.5-5.54-16.8v-40.36h16.89v36.15c0,4.47.79,7.82,2.38,10.05,1.59,2.23,4.12,3.35,7.58,3.35,4.72,0,8.14-1.58,10.24-4.73,2.1-3.16,3.16-8.39,3.16-15.7v-29.12h16.89v61.9h-12.96Z"/>
    <path class="cls-2" d="M544.86,464h-16.89v-36.15c0-4.47-.79-7.82-2.38-10.05-1.59-2.23-4.12-3.35-7.58-3.35-4.72,0-8.14,1.58-10.24,4.73-2.1,3.16-3.16,8.39-3.16,15.7v29.12h-16.89v-61.9h12.9l2.27,7.92h.94c1.88-2.99,4.47-5.25,7.78-6.78,3.3-1.53,7.06-2.3,11.27-2.3,7.2,0,12.66,1.95,16.39,5.84,3.73,3.89,5.59,9.51,5.59,16.86v40.36Z"/>
    <path class="cls-2" d="M561.53,386.11c0-5.5,3.06-8.25,9.19-8.25s9.19,2.75,9.19,8.25c0,2.62-.77,4.66-2.3,6.12-1.53,1.46-3.83,2.19-6.89,2.19-6.13,0-9.19-2.77-9.19-8.3ZM579.13,464h-16.89v-61.9h16.89v61.9Z"/>
    <path class="cls-2" d="M621.98,465.11c-19.27,0-28.9-10.57-28.9-31.72,0-10.52,2.62-18.56,7.86-24.11,5.24-5.55,12.75-8.33,22.53-8.33,7.16,0,13.58,1.4,19.27,4.21l-4.98,13.07c-2.66-1.07-5.13-1.95-7.42-2.63-2.29-.68-4.58-1.02-6.87-1.02-8.78,0-13.18,6.24-13.18,18.71s4.39,18.16,13.18,18.16c3.25,0,6.26-.43,9.02-1.3,2.77-.87,5.54-2.22,8.3-4.07v14.45c-2.73,1.74-5.49,2.93-8.28,3.6-2.79.67-6.3,1-10.55,1Z"/>
    <path class="cls-2" d="M694.46,464l-3.27-8.42h-.44c-2.84,3.58-5.77,6.06-8.77,7.45-3.01,1.38-6.93,2.08-11.77,2.08-5.94,0-10.62-1.7-14.03-5.09-3.42-3.4-5.12-8.23-5.12-14.5s2.3-11.41,6.89-14.53c4.59-3.12,11.52-4.84,20.79-5.18l10.74-.33v-2.71c0-6.27-3.21-9.41-9.63-9.41-4.95,0-10.76,1.5-17.44,4.48l-5.59-11.41c7.12-3.73,15.02-5.59,23.7-5.59s14.67,1.81,19.1,5.43c4.43,3.62,6.64,9.12,6.64,16.5v41.25h-11.79ZM689.47,435.32l-6.53.22c-4.91.15-8.56,1.03-10.96,2.66-2.4,1.62-3.6,4.1-3.6,7.42,0,4.76,2.73,7.14,8.19,7.14,3.91,0,7.04-1.12,9.38-3.38,2.34-2.25,3.52-5.24,3.52-8.97v-5.09Z"/>
    <path class="cls-2" d="M748.77,465.11c-19.27,0-28.9-10.57-28.9-31.72,0-10.52,2.62-18.56,7.86-24.11,5.24-5.55,12.75-8.33,22.53-8.33,7.16,0,13.58,1.4,19.27,4.21l-4.98,13.07c-2.66-1.07-5.13-1.95-7.42-2.63-2.29-.68-4.58-1.02-6.87-1.02-8.78,0-13.18,6.24-13.18,18.71s4.39,18.16,13.18,18.16c3.25,0,6.26-.43,9.02-1.3,2.77-.87,5.54-2.22,8.3-4.07v14.45c-2.73,1.74-5.49,2.93-8.28,3.6-2.79.67-6.3,1-10.55,1Z"/>
    <path class="cls-2" d="M781.21,386.11c0-5.5,3.06-8.25,9.19-8.25s9.19,2.75,9.19,8.25c0,2.62-.77,4.66-2.3,6.12-1.53,1.46-3.83,2.19-6.89,2.19-6.13,0-9.19-2.77-9.19-8.3ZM798.82,464h-16.89v-61.9h16.89v61.9Z"/>
    <path class="cls-2" d="M872.79,432.94c0,10.08-2.66,17.96-7.97,23.64-5.31,5.68-12.72,8.53-22.2,8.53-5.94,0-11.18-1.3-15.72-3.9-4.54-2.6-8.03-6.34-10.46-11.21-2.44-4.87-3.65-10.56-3.65-17.05,0-10.11,2.64-17.97,7.92-23.58,5.28-5.61,12.7-8.42,22.26-8.42,5.94,0,11.18,1.29,15.72,3.88,4.54,2.58,8.03,6.29,10.46,11.13,2.44,4.83,3.65,10.5,3.65,17ZM829.99,432.94c0,6.13,1.01,10.76,3.02,13.9,2.01,3.14,5.29,4.71,9.83,4.71s7.74-1.56,9.72-4.68c1.97-3.12,2.96-7.76,2.96-13.92s-1-10.72-2.99-13.79-5.26-4.6-9.8-4.6-7.75,1.52-9.74,4.57-2.99,7.65-2.99,13.81ZM833.53,395.3v-1.5c6.35-7.38,10.68-12.94,13.01-16.66h18.93v1.16c-1.92,1.92-5.2,4.77-9.83,8.55-4.63,3.78-8.26,6.6-10.88,8.44h-11.24Z"/>
    <path class="cls-2" d="M943.87,464h-16.89v-36.15c0-4.47-.79-7.82-2.38-10.05-1.59-2.23-4.12-3.35-7.58-3.35-4.72,0-8.14,1.58-10.24,4.73-2.1,3.16-3.16,8.39-3.16,15.7v29.12h-16.89v-61.9h12.9l2.27,7.92h.94c1.88-2.99,4.47-5.25,7.78-6.78,3.3-1.53,7.06-2.3,11.27-2.3,7.2,0,12.66,1.95,16.39,5.84,3.73,3.89,5.59,9.51,5.59,16.86v40.36Z"/>
    <path class="cls-2" d="M274.35,601.17c-9.97,0-17.75-2.75-23.36-8.25s-8.42-13.29-8.42-23.36,2.59-18.39,7.78-24.06c5.19-5.67,12.36-8.5,21.51-8.5s15.56,2.49,20.43,7.47c4.87,4.98,7.31,11.87,7.31,20.65v8.19h-39.92c.18,4.8,1.61,8.55,4.26,11.24,2.66,2.69,6.39,4.04,11.18,4.04,3.73,0,7.25-.39,10.58-1.16s6.79-2.01,10.41-3.71v13.07c-2.95,1.48-6.11,2.57-9.47,3.29-3.36.72-7.46,1.08-12.29,1.08ZM271.97,549.02c-3.58,0-6.39,1.13-8.42,3.41-2.03,2.27-3.19,5.49-3.49,9.66h23.7c-.08-4.17-1.16-7.39-3.27-9.66-2.1-2.27-4.95-3.41-8.53-3.41Z"/>
    <path class="cls-2" d="M370.47,600.07h-16.89v-36.15c0-4.47-.79-7.82-2.38-10.05s-4.12-3.35-7.58-3.35c-4.72,0-8.14,1.58-10.24,4.73-2.1,3.16-3.16,8.39-3.16,15.7v29.12h-16.89v-61.9h12.9l2.27,7.92h.94c1.88-2.99,4.48-5.25,7.78-6.78,3.3-1.53,7.06-2.3,11.27-2.3,7.2,0,12.66,1.95,16.39,5.84,3.73,3.89,5.59,9.51,5.59,16.86v40.36Z"/>
    <path class="cls-2" d="M453.01,532.24c-6.46,0-11.46,2.43-15,7.28-3.54,4.85-5.32,11.62-5.32,20.29,0,18.05,6.77,27.07,20.32,27.07,5.68,0,12.57-1.42,20.65-4.26v14.39c-6.64,2.77-14.06,4.15-22.26,4.15-11.77,0-20.78-3.57-27.02-10.71-6.24-7.14-9.36-17.39-9.36-30.75,0-8.42,1.53-15.79,4.6-22.12,3.06-6.33,7.46-11.18,13.2-14.56s12.47-5.07,20.18-5.07,15.76,1.9,23.7,5.7l-5.54,13.95c-3.03-1.44-6.07-2.69-9.13-3.76-3.06-1.07-6.07-1.61-9.02-1.61Z"/>
    <path class="cls-2" d="M540.43,600.07l-5.87-19.27h-29.51l-5.87,19.27h-18.49l28.57-81.27h20.98l28.68,81.27h-18.49ZM530.47,566.4c-5.43-17.46-8.48-27.33-9.16-29.62-.68-2.29-1.17-4.1-1.47-5.43-1.22,4.72-4.71,16.41-10.46,35.05h21.09Z"/>
    <path class="cls-2" d="M640.92,600.07h-21.81l-35.21-61.23h-.5c.7,10.81,1.05,18.53,1.05,23.14v38.09h-15.34v-80.94h21.65l35.16,60.62h.39c-.55-10.52-.83-17.96-.83-22.31v-38.31h15.45v80.94Z"/>
    <path class="cls-2" d="M707.47,519.12h17.33l-27.52,80.94h-18.71l-27.46-80.94h17.33l15.22,48.17c.85,2.84,1.73,6.15,2.63,9.94.9,3.78,1.47,6.41,1.69,7.89.41-3.4,1.79-9.34,4.15-17.83l15.34-48.17Z"/>
    <path class="cls-2" d="M784.53,600.07l-5.87-19.27h-29.51l-5.87,19.27h-18.49l28.57-81.27h20.98l28.68,81.27h-18.49ZM774.57,566.4c-5.43-17.46-8.48-27.33-9.16-29.62-.68-2.29-1.17-4.1-1.47-5.43-1.22,4.72-4.71,16.41-10.46,35.05h21.09Z"/>
    <path class="cls-2" d="M860.99,577.59c0,7.31-2.63,13.07-7.89,17.27s-12.58,6.31-21.95,6.31c-8.64,0-16.28-1.62-22.92-4.87v-15.95c5.46,2.44,10.08,4.15,13.87,5.15,3.78,1,7.24,1.49,10.38,1.49,3.76,0,6.65-.72,8.66-2.16s3.02-3.58,3.02-6.42c0-1.59-.44-3-1.33-4.24-.89-1.24-2.19-2.43-3.9-3.57-1.72-1.14-5.21-2.97-10.49-5.48-4.95-2.33-8.66-4.56-11.13-6.7-2.47-2.14-4.45-4.63-5.92-7.47-1.48-2.84-2.21-6.16-2.21-9.96,0-7.16,2.43-12.79,7.28-16.89,4.85-4.1,11.56-6.15,20.12-6.15,4.21,0,8.22.5,12.04,1.5,3.82,1,7.81,2.4,11.99,4.21l-5.54,13.34c-4.32-1.77-7.89-3.01-10.71-3.71-2.82-.7-5.6-1.05-8.33-1.05-3.25,0-5.74.76-7.47,2.27s-2.6,3.49-2.6,5.92c0,1.51.35,2.83,1.05,3.96.7,1.13,1.82,2.21,3.35,3.27,1.53,1.05,5.16,2.94,10.88,5.67,7.57,3.62,12.75,7.24,15.56,10.88,2.8,3.64,4.21,8.09,4.21,13.37Z"/>
  </g>
  <g>
    <path class="cls-1" d="M307.06,148.11v72.01c0,8.22-1.84,15.43-5.52,21.62-3.68,6.19-9,10.94-15.95,14.24-6.95,3.3-15.17,4.95-24.67,4.95-14.31,0-25.43-3.67-33.34-11-7.92-7.33-11.88-17.37-11.88-30.11v-71.71h23.52v68.13c0,8.58,1.72,14.87,5.18,18.88,3.45,4.01,9.16,6.01,17.13,6.01s13.31-2.02,16.79-6.05c3.48-4.03,5.21-10.37,5.21-18.99v-67.98h23.52Z"/>
    <path class="cls-1" d="M411.05,259.41h-23.22v-49.71c0-6.14-1.09-10.75-3.27-13.82-2.18-3.07-5.66-4.61-10.43-4.61-6.5,0-11.19,2.17-14.08,6.51-2.89,4.34-4.34,11.53-4.34,21.58v40.04h-23.22v-85.11h17.74l3.12,10.89h1.29c2.59-4.11,6.15-7.22,10.7-9.33,4.54-2.11,9.71-3.16,15.49-3.16,9.9,0,17.41,2.68,22.53,8.03,5.12,5.35,7.69,13.08,7.69,23.18v55.5Z"/>
    <path class="cls-1" d="M433.96,152.3c0-7.56,4.21-11.34,12.64-11.34s12.64,3.78,12.64,11.34c0,3.6-1.05,6.41-3.16,8.41-2.11,2.01-5.27,3.01-9.48,3.01-8.42,0-12.64-3.81-12.64-11.42ZM458.17,259.41h-23.22v-85.11h23.22v85.11Z"/>
    <path class="cls-1" d="M509.48,260.93c-10,0-17.85-3.88-23.56-11.65s-8.56-18.52-8.56-32.28,2.9-24.83,8.72-32.62c5.81-7.79,13.82-11.69,24.02-11.69,10.71,0,18.88,4.16,24.51,12.48h.76c-1.17-6.34-1.75-12-1.75-16.98v-27.25h23.29v118.45h-17.81l-4.49-11.04h-.99c-5.28,8.37-13.32,12.56-24.13,12.56ZM517.62,242.43c5.94,0,10.29-1.73,13.06-5.18,2.77-3.45,4.28-9.31,4.53-17.58v-2.51c0-9.13-1.41-15.68-4.22-19.64-2.82-3.96-7.4-5.94-13.74-5.94-5.18,0-9.2,2.2-12.07,6.58-2.87,4.39-4.3,10.77-4.3,19.15s1.45,14.65,4.34,18.84c2.89,4.19,7.03,6.28,12.41,6.28Z"/>
    <path class="cls-1" d="M635.24,259.41l-4.49-11.57h-.61c-3.91,4.92-7.93,8.34-12.07,10.24s-9.53,2.85-16.18,2.85c-8.17,0-14.61-2.33-19.3-7-4.7-4.67-7.04-11.32-7.04-19.94s3.16-15.69,9.48-19.98c6.32-4.29,15.85-6.66,28.59-7.12l14.77-.46v-3.73c0-8.63-4.41-12.94-13.25-12.94-6.8,0-14.79,2.06-23.98,6.17l-7.69-15.68c9.79-5.12,20.66-7.69,32.58-7.69s20.17,2.49,26.26,7.46c6.09,4.97,9.13,12.54,9.13,22.69v56.71h-16.21ZM628.39,219.97l-8.98.3c-6.75.2-11.77,1.42-15.07,3.65-3.3,2.23-4.95,5.63-4.95,10.2,0,6.55,3.76,9.82,11.27,9.82,5.38,0,9.68-1.55,12.9-4.64,3.22-3.09,4.83-7.21,4.83-12.33v-7Z"/>
    <path class="cls-1" d="M702.31,260.93c-10,0-17.85-3.88-23.56-11.65-5.71-7.76-8.56-18.52-8.56-32.28s2.9-24.83,8.71-32.62c5.81-7.79,13.82-11.69,24.02-11.69,10.71,0,18.88,4.16,24.51,12.48h.76c-1.17-6.34-1.75-12-1.75-16.98v-27.25h23.29v118.45h-17.81l-4.49-11.04h-.99c-5.28,8.37-13.32,12.56-24.13,12.56ZM710.45,242.43c5.94,0,10.29-1.73,13.06-5.18,2.76-3.45,4.27-9.31,4.53-17.58v-2.51c0-9.13-1.41-15.68-4.23-19.64-2.82-3.96-7.4-5.94-13.74-5.94-5.18,0-9.2,2.2-12.07,6.58-2.87,4.39-4.3,10.77-4.3,19.15s1.45,14.65,4.34,18.84c2.89,4.19,7.03,6.28,12.41,6.28Z"/>
    <path class="cls-1" d="M882.04,173c0,6.95-2.11,12.87-6.32,17.74-4.21,4.87-10.12,8.22-17.74,10.05v.46c8.98,1.12,15.78,3.84,20.4,8.18,4.62,4.34,6.93,10.19,6.93,17.55,0,10.71-3.88,19.04-11.65,25.01-7.77,5.96-18.86,8.94-33.27,8.94-12.08,0-22.79-2-32.12-6.01v-20.02c4.31,2.18,9.06,3.96,14.23,5.33,5.18,1.37,10.3,2.06,15.38,2.06,7.76,0,13.5-1.32,17.2-3.96,3.71-2.64,5.56-6.88,5.56-12.71,0-5.23-2.13-8.93-6.39-11.11-4.26-2.18-11.06-3.27-20.4-3.27h-8.45v-18.04h8.6c8.63,0,14.93-1.13,18.92-3.39,3.98-2.26,5.97-6.13,5.97-11.61,0-8.42-5.28-12.64-15.83-12.64-3.65,0-7.37.61-11.15,1.83-3.78,1.22-7.98,3.32-12.6,6.32l-10.88-16.21c10.15-7.31,22.25-10.96,36.31-10.96,11.52,0,20.62,2.33,27.29,7,6.67,4.67,10.01,11.17,10.01,19.49Z"/>
  </g>
</svg>