<?xml version="1.0" encoding="UTF-8"?>
<svg id="Capa_2" data-name="Capa 2" xmlns="http://www.w3.org/2000/svg" xmlns:xlink="http://www.w3.org/1999/xlink" viewBox="0 0 1101.03 696.54">
  <defs>
    <style>
      .cls-1 {
        fill: #7b83eb;
      }

      .cls-2 {
        opacity: .1;
      }

      .cls-2, .cls-3 {
        isolation: isolate;
      }

      .cls-3 {
        opacity: .2;
      }

      .cls-4 {
        fill: #fff;
      }

      .cls-5 {
        fill: url(#Degradado_sin_nombre_2);
      }

      .cls-6 {
        fill: #5059c9;
      }

      .cls-7 {
        fill: #2d2d2d;
        stroke: #505050;
        stroke-miterlimit: 10;
        stroke-width: 14.49px;
      }
    </style>
    <linearGradient id="Degradado_sin_nombre_2" data-name="Degradado sin nombre 2" x1="376.32" y1="2447.55" x2="517.78" y2="2202.53" gradientTransform="translate(0 2593.3) scale(1 -1)" gradientUnits="userSpaceOnUse">
      <stop offset="0" stop-color="#5a62c3"/>
      <stop offset=".5" stop-color="#4d55bd"/>
      <stop offset="1" stop-color="#3940ab"/>
    </linearGradient>
  </defs>
  <rect class="cls-7" x="7.24" y="7.24" width="1086.54" height="682.05" rx="94.33" ry="94.33"/>
  <g>
    <path class="cls-6" d="M634.2,218.99h109.45c10.34,0,18.73,8.38,18.73,18.73h0v99.69c0,38-30.82,68.82-68.82,68.82h-.32c-38,0-68.82-30.8-68.82-68.8h0v-108.65c0-5.4,4.37-9.79,9.79-9.79h0Z"/>
    <circle class="cls-6" cx="708.19" cy="154.95" r="44.33"/>
    <circle class="cls-1" cx="570.23" cy="135.23" r="64.05"/>
    <path class="cls-1" d="M655.63,218.99h-180.66c-10.21.25-18.31,8.73-18.06,18.95v113.7c-1.43,61.31,47.09,112.2,108.4,113.7,61.31-1.5,109.83-52.37,108.4-113.7v-113.7c.23-10.21-7.85-18.69-18.06-18.95h-.02Z"/>
    <path class="cls-2" d="M575.16,218.99v159.33c-.06,7.3-4.47,13.88-11.24,16.65-2.15.91-4.47,1.39-6.81,1.39h-91.54c-1.27-3.25-2.47-6.5-3.44-9.85-3.44-11.31-5.21-23.06-5.23-34.88v-113.72c-.23-10.21,7.83-18.67,18.04-18.92h100.21Z"/>
    <path class="cls-3" d="M565.31,218.99v169.2c0,2.34-.48,4.64-1.39,6.81-2.78,6.75-9.35,11.18-16.65,11.24h-77.05c-1.67-3.25-3.25-6.5-4.64-9.85s-2.47-6.5-3.44-9.85c-3.44-11.31-5.21-23.06-5.23-34.88v-113.72c-.23-10.21,7.83-18.67,18.04-18.92h90.36v-.02Z"/>
    <path class="cls-3" d="M565.31,218.99v149.48c-.08,9.92-8.1,17.97-18.04,18.04h-85.13c-3.44-11.31-5.21-23.06-5.23-34.88v-113.72c-.23-10.21,7.83-18.67,18.04-18.92h90.36Z"/>
    <path class="cls-3" d="M555.44,218.99v149.48c-.08,9.92-8.1,17.97-18.04,18.04h-75.28c-3.44-11.31-5.21-23.06-5.23-34.88v-113.72c-.23-10.21,7.83-18.67,18.04-18.92h80.51Z"/>
    <path class="cls-2" d="M575.16,168.05v31.04c-1.67.1-3.25.19-4.92.19s-3.25-.1-4.92-.19c-3.33-.23-6.62-.74-9.85-1.58-19.96-4.73-36.44-18.73-44.33-37.64-1.37-3.17-2.41-6.48-3.16-9.85h49.16c9.94.04,18,8.08,18.04,18.04l-.02-.02Z"/>
    <path class="cls-3" d="M565.31,177.91v21.18c-3.33-.23-6.62-.74-9.85-1.58-19.96-4.73-36.44-18.73-44.33-37.64h36.16c9.94.04,18,8.1,18.04,18.04h-.02Z"/>
    <path class="cls-3" d="M565.31,177.91v21.18c-3.33-.23-6.62-.74-9.85-1.58-19.96-4.73-36.44-18.73-44.33-37.64h36.16c9.94.04,18,8.1,18.04,18.04h-.02Z"/>
    <path class="cls-3" d="M555.44,177.91v19.6c-19.96-4.73-36.44-18.73-44.33-37.64h26.31c9.94.04,18,8.1,18.04,18.04h-.02Z"/>
    <path class="cls-5" d="M356.72,159.87h180.66c9.98,0,18.06,8.08,18.06,18.06v180.66c0,9.98-8.08,18.06-18.06,18.06h-180.66c-9.98,0-18.06-8.08-18.06-18.06v-180.66c0-9.98,8.08-18.06,18.06-18.06h0Z"/>
    <path class="cls-4" d="M494.59,228.63h-36.12v98.34h-23v-98.34h-35.95v-19.07h95.07v19.07Z"/>
  </g>
  <g>
    <path class="cls-4" d="M119.56,609.27l-19.63-63.97h-.5c.71,13.01,1.06,21.69,1.06,26.05v37.92h-15.45v-81.54h23.53l19.3,62.35h.33l20.47-62.35h23.53v81.54h-16.12v-38.59c0-1.82.03-3.92.08-6.3.06-2.38.31-8.7.75-18.96h-.5l-21.03,63.86h-15.84Z"/>
    <path class="cls-4" d="M190.67,530.8c0-5.54,3.09-8.31,9.26-8.31s9.26,2.77,9.26,8.31c0,2.64-.77,4.69-2.32,6.16-1.54,1.47-3.86,2.2-6.94,2.2-6.17,0-9.26-2.79-9.26-8.37ZM208.41,609.27h-17.01v-62.35h17.01v62.35Z"/>
    <path class="cls-4" d="M251.57,610.38c-19.41,0-29.11-10.65-29.11-31.96,0-10.6,2.64-18.69,7.92-24.29,5.28-5.6,12.84-8.39,22.7-8.39,7.21,0,13.68,1.41,19.41,4.24l-5.02,13.16c-2.68-1.08-5.17-1.96-7.47-2.65-2.31-.69-4.61-1.03-6.92-1.03-8.85,0-13.27,6.28-13.27,18.85s4.42,18.29,13.27,18.29c3.27,0,6.3-.44,9.09-1.31,2.79-.87,5.58-2.24,8.37-4.1v14.56c-2.75,1.75-5.53,2.96-8.34,3.63-2.81.67-6.35,1-10.62,1Z"/>
    <path class="cls-4" d="M319.78,545.75c2.31,0,4.22.17,5.74.5l-1.28,15.95c-1.38-.37-3.05-.56-5.02-.56-5.43,0-9.66,1.39-12.69,4.18-3.03,2.79-4.54,6.69-4.54,11.71v31.73h-17.01v-62.35h12.88l2.51,10.49h.84c1.93-3.49,4.55-6.31,7.84-8.45,3.29-2.14,6.87-3.21,10.74-3.21Z"/>
    <path class="cls-4" d="M393.51,577.98c0,10.15-2.68,18.09-8.03,23.81-5.35,5.73-12.81,8.59-22.36,8.59-5.99,0-11.27-1.31-15.84-3.93-4.57-2.62-8.09-6.39-10.54-11.29-2.45-4.91-3.68-10.63-3.68-17.18,0-10.19,2.66-18.11,7.97-23.76,5.32-5.65,12.79-8.48,22.42-8.48,5.99,0,11.27,1.3,15.84,3.9,4.57,2.6,8.09,6.34,10.54,11.21,2.45,4.87,3.68,10.58,3.68,17.12ZM350.4,577.98c0,6.17,1.01,10.84,3.04,14,2.03,3.16,5.33,4.74,9.9,4.74s7.8-1.57,9.79-4.71c1.99-3.14,2.98-7.82,2.98-14.03s-1-10.8-3.01-13.89c-2.01-3.08-5.3-4.63-9.87-4.63s-7.81,1.53-9.82,4.6c-2.01,3.07-3.01,7.71-3.01,13.91Z"/>
    <path class="cls-4" d="M451.06,590.75c0,6.4-2.22,11.27-6.67,14.61-4.44,3.35-11.09,5.02-19.94,5.02-4.54,0-8.4-.31-11.6-.92-3.2-.61-6.19-1.51-8.98-2.7v-14.05c3.16,1.49,6.72,2.73,10.68,3.74,3.96,1,7.45,1.51,10.46,1.51,6.17,0,9.26-1.79,9.26-5.35,0-1.34-.41-2.43-1.23-3.26-.82-.84-2.23-1.78-4.24-2.84s-4.69-2.3-8.03-3.71c-4.8-2.01-8.32-3.87-10.57-5.58-2.25-1.71-3.89-3.67-4.91-5.88-1.02-2.21-1.53-4.94-1.53-8.17,0-5.54,2.15-9.82,6.44-12.86,4.29-3.03,10.38-4.54,18.26-4.54s14.82,1.64,21.92,4.91l-5.13,12.27c-3.12-1.34-6.04-2.43-8.76-3.29-2.72-.85-5.49-1.28-8.31-1.28-5.02,0-7.53,1.36-7.53,4.07,0,1.53.81,2.84,2.43,3.96,1.62,1.12,5.16,2.77,10.62,4.96,4.87,1.97,8.44,3.81,10.71,5.52,2.27,1.71,3.94,3.68,5.02,5.91,1.08,2.23,1.62,4.89,1.62,7.97Z"/>
    <path class="cls-4" d="M521,577.98c0,10.15-2.68,18.09-8.03,23.81-5.35,5.73-12.81,8.59-22.36,8.59-5.99,0-11.27-1.31-15.84-3.93-4.57-2.62-8.09-6.39-10.54-11.29-2.45-4.91-3.68-10.63-3.68-17.18,0-10.19,2.66-18.11,7.97-23.76,5.32-5.65,12.79-8.48,22.42-8.48,5.99,0,11.27,1.3,15.84,3.9,4.57,2.6,8.09,6.34,10.54,11.21,2.45,4.87,3.68,10.58,3.68,17.12ZM477.89,577.98c0,6.17,1.01,10.84,3.04,14,2.03,3.16,5.33,4.74,9.9,4.74s7.8-1.57,9.79-4.71c1.99-3.14,2.98-7.82,2.98-14.03s-1-10.8-3.01-13.89c-2.01-3.08-5.3-4.63-9.87-4.63s-7.81,1.53-9.82,4.6c-2.01,3.07-3.01,7.71-3.01,13.91Z"/>
    <path class="cls-4" d="M569.52,559.69h-14.72v49.58h-17.01v-49.58h-9.37v-8.2l9.37-4.57v-4.57c0-7.1,1.75-12.29,5.24-15.56,3.5-3.27,9.09-4.91,16.79-4.91,5.87,0,11.1.87,15.67,2.62l-4.35,12.49c-3.42-1.08-6.58-1.62-9.48-1.62-2.42,0-4.16.72-5.24,2.15-1.08,1.43-1.62,3.26-1.62,5.49v3.9h14.72v12.77Z"/>
    <path class="cls-4" d="M605.55,596.83c2.97,0,6.54-.65,10.71-1.95v12.66c-4.24,1.9-9.45,2.84-15.62,2.84-6.8,0-11.76-1.72-14.86-5.16-3.1-3.44-4.66-8.6-4.66-15.48v-30.06h-8.14v-7.19l9.37-5.69,4.91-13.16h10.88v13.27h17.46v12.77h-17.46v30.06c0,2.42.68,4.2,2.04,5.35,1.36,1.15,3.15,1.73,5.38,1.73Z"/>
    <path class="cls-4" d="M691.32,609.27h-17.29v-67.15h-22.14v-14.39h61.57v14.39h-22.14v67.15Z"/>
    <path class="cls-4" d="M752.89,610.38c-10.04,0-17.88-2.77-23.53-8.31-5.65-5.54-8.48-13.39-8.48-23.53s2.61-18.53,7.84-24.23c5.22-5.71,12.44-8.56,21.67-8.56s15.67,2.51,20.58,7.53c4.91,5.02,7.36,11.95,7.36,20.8v8.25h-40.21c.19,4.83,1.62,8.61,4.29,11.32,2.68,2.72,6.43,4.07,11.27,4.07,3.76,0,7.31-.39,10.65-1.17,3.35-.78,6.84-2.03,10.48-3.74v13.16c-2.97,1.49-6.15,2.59-9.54,3.32-3.38.73-7.51,1.09-12.38,1.09ZM750.5,557.85c-3.61,0-6.43,1.14-8.48,3.43-2.05,2.29-3.22,5.53-3.51,9.73h23.87c-.07-4.2-1.17-7.44-3.29-9.73s-4.98-3.43-8.59-3.43Z"/>
    <path class="cls-4" d="M831.75,609.27l-3.29-8.48h-.45c-2.86,3.61-5.81,6.11-8.84,7.5-3.03,1.39-6.98,2.09-11.85,2.09-5.99,0-10.7-1.71-14.14-5.13-3.44-3.42-5.16-8.29-5.16-14.61s2.31-11.5,6.94-14.64c4.63-3.14,11.61-4.88,20.94-5.22l10.82-.33v-2.73c0-6.32-3.23-9.48-9.7-9.48-4.98,0-10.84,1.51-17.57,4.52l-5.63-11.49c7.17-3.76,15.13-5.63,23.87-5.63s14.78,1.82,19.24,5.47c4.46,3.64,6.69,9.18,6.69,16.62v41.55h-11.88ZM826.73,580.38l-6.58.22c-4.94.15-8.63,1.04-11.04,2.68-2.42,1.64-3.63,4.13-3.63,7.47,0,4.8,2.75,7.2,8.25,7.2,3.94,0,7.09-1.13,9.45-3.4s3.54-5.28,3.54-9.03v-5.13Z"/>
    <path class="cls-4" d="M916.97,609.27h-17.01v-36.42c0-4.5-.75-7.87-2.26-10.12-1.51-2.25-3.88-3.37-7.11-3.37-4.35,0-7.51,1.6-9.48,4.8-1.97,3.2-2.96,8.46-2.96,15.78v29.33h-17.01v-62.35h12.99l2.29,7.97h.95c1.67-2.86,4.09-5.1,7.25-6.72,3.16-1.62,6.79-2.43,10.87-2.43,9.33,0,15.65,3.05,18.96,9.15h1.51c1.67-2.9,4.14-5.15,7.39-6.75,3.25-1.6,6.92-2.4,11.01-2.4,7.06,0,12.41,1.81,16.03,5.44,3.63,3.63,5.44,9.43,5.44,17.43v40.66h-17.07v-36.42c0-4.5-.75-7.87-2.26-10.12-1.51-2.25-3.88-3.37-7.11-3.37-4.16,0-7.28,1.49-9.34,4.46-2.06,2.98-3.1,7.7-3.1,14.17v31.29Z"/>
    <path class="cls-4" d="M1016.8,590.75c0,6.4-2.22,11.27-6.67,14.61-4.44,3.35-11.09,5.02-19.94,5.02-4.54,0-8.4-.31-11.6-.92-3.2-.61-6.19-1.51-8.98-2.7v-14.05c3.16,1.49,6.72,2.73,10.68,3.74,3.96,1,7.45,1.51,10.46,1.51,6.17,0,9.26-1.79,9.26-5.35,0-1.34-.41-2.43-1.23-3.26-.82-.84-2.23-1.78-4.24-2.84s-4.69-2.3-8.03-3.71c-4.8-2.01-8.32-3.87-10.57-5.58-2.25-1.71-3.89-3.67-4.91-5.88-1.02-2.21-1.53-4.94-1.53-8.17,0-5.54,2.15-9.82,6.44-12.86,4.29-3.03,10.38-4.54,18.26-4.54s14.82,1.64,21.92,4.91l-5.13,12.27c-3.12-1.34-6.04-2.43-8.76-3.29-2.72-.85-5.49-1.28-8.31-1.28-5.02,0-7.53,1.36-7.53,4.07,0,1.53.81,2.84,2.43,3.96,1.62,1.12,5.16,2.77,10.62,4.96,4.87,1.97,8.44,3.81,10.71,5.52,2.27,1.71,3.94,3.68,5.02,5.91s1.62,4.89,1.62,7.97Z"/>
  </g>
</svg>