<?xml version="1.0" encoding="UTF-8"?>
<svg id="Capa_2" data-name="Capa 2" xmlns="http://www.w3.org/2000/svg" viewBox="0 0 1101.03 696.54">
  <defs>
    <style>
      .cls-1 {
        fill: #cc1719;
      }

      .cls-2 {
        fill: #f7c139;
      }

      .cls-3 {
        fill: #505050;
      }

      .cls-4 {
        fill: #fff;
      }

      .cls-5 {
        fill: #5050bb;
      }

      .cls-6 {
        stroke: #505050;
        stroke-miterlimit: 10;
        stroke-width: 14.49px;
      }

      .cls-6, .cls-7 {
        fill: #2d2d2d;
      }
    </style>
  </defs>
  <rect class="cls-6" x="7.24" y="7.24" width="1086.54" height="682.05" rx="94.33" ry="94.33"/>
  <g>
    <path class="cls-4" d="M83.62,528.47h24.69c11.25,0,19.42,1.6,24.5,4.8,5.08,3.2,7.62,8.29,7.62,15.28,0,4.74-1.11,8.63-3.34,11.67s-5.18,4.86-8.87,5.48v.54c5.03,1.12,8.66,3.22,10.88,6.3,2.22,3.08,3.34,7.16,3.34,12.26,0,7.23-2.61,12.88-7.84,16.93-5.23,4.05-12.33,6.08-21.3,6.08h-29.68v-79.33ZM100.44,559.89h9.77c4.56,0,7.86-.71,9.9-2.12s3.07-3.74,3.07-7c0-3.04-1.11-5.22-3.34-6.54-2.22-1.32-5.74-1.98-10.55-1.98h-8.85v17.64ZM100.44,573.24v20.67h10.96c4.63,0,8.05-.89,10.25-2.66s3.31-4.48,3.31-8.14c0-6.58-4.7-9.87-14.11-9.87h-10.42Z"/>
    <path class="cls-4" d="M156.27,531.45c0-5.39,3-8.08,9.01-8.08s9.01,2.69,9.01,8.08c0,2.57-.75,4.57-2.25,6-1.5,1.43-3.75,2.14-6.76,2.14-6.01,0-9.01-2.71-9.01-8.14ZM173.53,607.8h-16.55v-60.67h16.55v60.67Z"/>
    <path class="cls-4" d="M224.64,546c7.16,0,12.77,2.79,16.82,8.38,4.05,5.59,6.08,13.25,6.08,22.98s-2.09,17.78-6.27,23.28c-4.18,5.5-9.87,8.25-17.07,8.25s-12.72-2.59-16.77-7.76h-1.14l-2.77,6.68h-12.64v-84.43h16.55v19.64c0,2.5-.22,6.49-.65,11.99h.65c3.87-6.01,9.6-9.01,17.2-9.01ZM219.33,559.24c-4.09,0-7.07,1.26-8.95,3.77-1.88,2.51-2.86,6.66-2.93,12.45v1.79c0,6.51.97,11.18,2.9,14,1.93,2.82,5,4.23,9.2,4.23,3.4,0,6.11-1.56,8.11-4.69,2.01-3.13,3.01-7.68,3.01-13.65s-1.01-10.45-3.04-13.43c-2.03-2.99-4.79-4.48-8.3-4.48Z"/>
    <path class="cls-4" d="M277.77,607.8h-16.55v-84.43h16.55v84.43Z"/>
    <path class="cls-4" d="M294.43,531.45c0-5.39,3-8.08,9.01-8.08s9.01,2.69,9.01,8.08c0,2.57-.75,4.57-2.25,6-1.5,1.43-3.75,2.14-6.76,2.14-6.01,0-9.01-2.71-9.01-8.14ZM311.68,607.8h-16.55v-60.67h16.55v60.67Z"/>
    <path class="cls-4" d="M384.18,577.36c0,9.87-2.6,17.6-7.81,23.17-5.21,5.57-12.46,8.36-21.76,8.36-5.82,0-10.96-1.28-15.41-3.83-4.45-2.55-7.87-6.21-10.26-10.99-2.39-4.78-3.58-10.35-3.58-16.71,0-9.91,2.59-17.62,7.76-23.12,5.17-5.5,12.44-8.25,21.81-8.25,5.82,0,10.96,1.27,15.41,3.8s7.87,6.17,10.25,10.91c2.39,4.74,3.58,10.29,3.58,16.66ZM342.23,577.36c0,6.01.99,10.54,2.96,13.62,1.97,3.07,5.18,4.61,9.63,4.61s7.59-1.53,9.52-4.59c1.93-3.05,2.9-7.61,2.9-13.65s-.98-10.51-2.93-13.51-5.15-4.5-9.6-4.5-7.6,1.49-9.55,4.48c-1.95,2.99-2.93,7.5-2.93,13.54Z"/>
    <path class="cls-4" d="M423.41,595.7c2.89,0,6.37-.63,10.42-1.9v12.32c-4.12,1.84-9.19,2.77-15.19,2.77-6.62,0-11.44-1.67-14.46-5.02-3.02-3.34-4.53-8.37-4.53-15.06v-29.25h-7.92v-7l9.12-5.53,4.78-12.81h10.58v12.92h16.98v12.43h-16.98v29.25c0,2.35.66,4.09,1.98,5.21,1.32,1.12,3.07,1.68,5.24,1.68Z"/>
    <path class="cls-4" d="M473.55,608.89c-9.77,0-17.4-2.7-22.9-8.09-5.5-5.39-8.25-13.02-8.25-22.9s2.54-18.02,7.62-23.58c5.08-5.55,12.11-8.33,21.08-8.33s15.25,2.44,20.02,7.33c4.77,4.88,7.16,11.63,7.16,20.24v8.03h-39.12c.18,4.7,1.57,8.37,4.18,11.02,2.6,2.64,6.26,3.96,10.96,3.96,3.65,0,7.11-.38,10.36-1.14,3.26-.76,6.65-1.97,10.2-3.64v12.81c-2.89,1.45-5.99,2.52-9.28,3.23s-7.31,1.06-12.05,1.06ZM471.21,557.77c-3.51,0-6.26,1.11-8.25,3.34-1.99,2.23-3.13,5.38-3.42,9.47h23.23c-.07-4.09-1.14-7.24-3.2-9.47-2.06-2.22-4.85-3.34-8.36-3.34Z"/>
    <path class="cls-4" d="M536.38,608.89c-18.88,0-28.33-10.36-28.33-31.09,0-10.31,2.57-18.19,7.7-23.63,5.14-5.44,12.5-8.17,22.09-8.17,7.02,0,13.31,1.38,18.88,4.12l-4.88,12.81c-2.6-1.05-5.03-1.91-7.27-2.58-2.24-.67-4.49-1-6.73-1-8.61,0-12.91,6.11-12.91,18.34s4.3,17.8,12.91,17.8c3.18,0,6.13-.42,8.85-1.27,2.71-.85,5.43-2.18,8.14-3.99v14.16c-2.68,1.7-5.38,2.87-8.11,3.52-2.73.65-6.18.98-10.34.98Z"/>
    <path class="cls-4" d="M607.41,607.8l-3.2-8.25h-.43c-2.79,3.51-5.65,5.94-8.6,7.3-2.95,1.36-6.79,2.03-11.53,2.03-5.82,0-10.41-1.67-13.76-4.99-3.35-3.33-5.02-8.07-5.02-14.22s2.25-11.18,6.76-14.24c4.5-3.06,11.29-4.75,20.37-5.08l10.53-.33v-2.66c0-6.15-3.15-9.22-9.44-9.22-4.85,0-10.54,1.47-17.09,4.39l-5.48-11.18c6.98-3.65,14.72-5.48,23.22-5.48s14.38,1.77,18.72,5.32c4.34,3.55,6.51,8.94,6.51,16.17v40.43h-11.56ZM602.53,579.69l-6.4.22c-4.81.14-8.39,1.01-10.74,2.6-2.35,1.59-3.53,4.01-3.53,7.27,0,4.67,2.68,7,8.03,7,3.83,0,6.9-1.1,9.2-3.31,2.3-2.2,3.45-5.14,3.45-8.79v-4.99Z"/>
    <path class="cls-4" d="M679.31,607.8l-23.12-60.67h17.31l11.72,34.56c1.3,4.38,2.12,8.52,2.44,12.43h.33c.18-3.47,1-7.61,2.44-12.43l11.67-34.56h17.31l-23.12,60.67h-16.98Z"/>
    <path class="cls-4" d="M727.39,531.45c0-5.39,3-8.08,9.01-8.08s9.01,2.69,9.01,8.08c0,2.57-.75,4.57-2.25,6-1.5,1.43-3.75,2.14-6.76,2.14-6.01,0-9.01-2.71-9.01-8.14ZM744.64,607.8h-16.55v-60.67h16.55v60.67Z"/>
    <path class="cls-4" d="M795.86,546c2.24,0,4.1.16,5.59.49l-1.25,15.52c-1.34-.36-2.97-.54-4.88-.54-5.28,0-9.4,1.36-12.34,4.07-2.95,2.72-4.42,6.51-4.42,11.4v30.88h-16.55v-60.67h12.53l2.44,10.2h.81c1.88-3.4,4.42-6.14,7.62-8.22,3.2-2.08,6.68-3.12,10.45-3.12Z"/>
    <path class="cls-4" d="M838.03,595.7c2.89,0,6.37-.63,10.42-1.9v12.32c-4.12,1.84-9.19,2.77-15.19,2.77-6.62,0-11.44-1.67-14.46-5.02-3.02-3.34-4.53-8.37-4.53-15.06v-29.25h-7.92v-7l9.12-5.53,4.78-12.81h10.58v12.92h16.98v12.43h-16.98v29.25c0,2.35.66,4.09,1.98,5.21,1.32,1.12,3.07,1.68,5.24,1.68Z"/>
    <path class="cls-4" d="M903.68,607.8l-2.22-7.76h-.87c-1.77,2.82-4.29,5-7.54,6.54s-6.96,2.31-11.12,2.31c-7.13,0-12.5-1.91-16.12-5.73-3.62-3.81-5.43-9.31-5.43-16.47v-39.56h16.55v35.43c0,4.38.78,7.66,2.33,9.85,1.55,2.19,4.03,3.28,7.43,3.28,4.63,0,7.98-1.55,10.04-4.64,2.06-3.09,3.09-8.22,3.09-15.38v-28.54h16.55v60.67h-12.7Z"/>
    <path class="cls-4" d="M972.27,607.8l-3.2-8.25h-.43c-2.79,3.51-5.65,5.94-8.6,7.3-2.95,1.36-6.79,2.03-11.53,2.03-5.82,0-10.41-1.67-13.76-4.99-3.35-3.33-5.02-8.07-5.02-14.22s2.25-11.18,6.76-14.24c4.5-3.06,11.29-4.75,20.37-5.08l10.53-.33v-2.66c0-6.15-3.15-9.22-9.44-9.22-4.85,0-10.54,1.47-17.09,4.39l-5.48-11.18c6.98-3.65,14.72-5.48,23.22-5.48s14.38,1.77,18.72,5.32c4.34,3.55,6.51,8.94,6.51,16.17v40.43h-11.56ZM967.39,579.69l-6.4.22c-4.81.14-8.39,1.01-10.74,2.6-2.35,1.59-3.53,4.01-3.53,7.27,0,4.67,2.68,7,8.03,7,3.83,0,6.9-1.1,9.2-3.31,2.3-2.2,3.45-5.14,3.45-8.79v-4.99Z"/>
    <path class="cls-4" d="M1017.42,607.8h-16.55v-84.43h16.55v84.43Z"/>
  </g>
  <g>
    <path class="cls-3" d="M390.8,58.77c.75,0,1.51.05,2.28.17l76.25,11.09c8.59,1.25,14.53,9.22,13.28,17.81l-52.17,358.65c-1.14,7.82-7.85,13.45-15.53,13.45-.75,0-1.51-.05-2.28-.17l-76.25-11.09c-8.59-1.25-14.53-9.22-13.28-17.81l52.17-358.65c1.14-7.82,7.85-13.45,15.53-13.45M670.06,74.71c6.53,0,12.52,4.33,14.36,10.93l93.13,335.8c2.2,7.93-2.45,16.15-10.38,18.35l-69.3,19.22c-1.33.37-2.67.55-3.99.55-6.53,0-12.52-4.33-14.36-10.93l-93.13-335.8c-2.2-7.93,2.45-16.15,10.38-18.35l69.3-19.22c1.33-.37,2.67-.55,3.99-.55M567.95,83.91c7.13,0,13.4,5.2,14.53,12.47l52.07,335.49c1.25,8.03-4.26,15.56-12.29,16.81l-71.43,11.09c-.76.12-1.53.18-2.28.18-7.13,0-13.4-5.2-14.53-12.47l-52.07-335.49c-1.25-8.03,4.26-15.56,12.29-16.81l71.43-11.09c.76-.12,1.53-.18,2.28-.18M390.8,47.43c-13.33,0-24.83,9.96-26.75,23.16l-52.17,358.65c-2.15,14.76,8.11,28.51,22.87,30.66l76.25,11.09c1.29.19,2.61.28,3.91.28,13.33,0,24.83-9.96,26.75-23.16l39.18-269.35,41.97,270.44c1.98,12.79,12.81,22.07,25.73,22.07,1.34,0,2.69-.1,4.02-.31l71.43-11.09c6.88-1.07,12.93-4.75,17.04-10.37,4.11-5.62,5.78-12.5,4.72-19.38l-21.44-138.13,44.28,159.66c3.14,11.32,13.54,19.23,25.28,19.23,2.37,0,4.73-.32,7.02-.96l69.3-19.22c13.94-3.87,22.14-18.36,18.28-32.3l-93.13-335.8c-3.14-11.32-13.54-19.23-25.28-19.23-2.37,0-4.73.32-7.02.96l-69.3,19.22c-1.27.35-2.48.79-3.65,1.31-4.61-7.47-12.83-12.28-22.14-12.28h0c-1.34,0-2.69.1-4.01.31l-69.88,10.85c-.85-12.43-10.27-23.06-23.1-24.92l-76.25-11.09c-1.29-.19-2.61-.28-3.91-.28h0Z"/>
    <g>
      <g>
        <rect class="cls-1" x="507.38" y="87.45" width="101.73" height="368.95" rx="14.72" ry="14.72" transform="translate(-35.1 88.84) rotate(-8.82)"/>
        <rect class="cls-7" x="496.79" y="130.78" width="81.38" height="14.64" transform="translate(-14.82 84.07) rotate(-8.82)"/>
      </g>
      <g>
        <rect class="cls-5" x="631.1" y="77.99" width="101.73" height="378.28" rx="14.91" ry="14.91" transform="translate(1410.52 342.28) rotate(164.5)"/>
        <rect class="cls-7" x="677.83" y="391.12" width="81.38" height="15.63" transform="translate(1517.53 591.34) rotate(164.5)"/>
      </g>
      <g>
        <rect class="cls-2" x="348.62" y="62.43" width="108.47" height="393.85" rx="15.71" ry="15.71" transform="translate(41.52 -55.28) rotate(8.28)"/>
        <rect class="cls-7" x="380.28" y="108.48" width="86.77" height="15.63" transform="translate(21.15 -59.77) rotate(8.28)"/>
        <rect class="cls-7" x="376.69" y="133.15" width="86.77" height="15.63" transform="translate(24.66 -59) rotate(8.28)"/>
      </g>
    </g>
  </g>
</svg>