<?xml version="1.0" encoding="UTF-8"?>
<svg id="Capa_2" data-name="Capa 2" xmlns="http://www.w3.org/2000/svg" viewBox="0 0 1101.03 696.54">
  <defs>
    <style>
      .cls-1 {
        fill: #b81f2a;
      }

      .cls-2 {
        fill: #fff;
      }

      .cls-3 {
        fill: #2d2d2d;
        stroke: #505050;
        stroke-miterlimit: 10;
        stroke-width: 14.49px;
      }
    </style>
  </defs>
  <rect class="cls-3" x="7.24" y="7.24" width="1086.54" height="682.05" rx="94.33" ry="94.33"/>
  <g>
    <path class="cls-2" d="M148.84,532.04h-46.62v-80.94h46.62v14.06h-29.45v17.77h27.41v14.06h-27.41v20.87h29.45v14.17Z"/>
    <path class="cls-2" d="M179.13,532.04l-23.58-61.9h17.66l11.96,35.27c1.33,4.47,2.16,8.69,2.49,12.68h.33c.18-3.54,1.01-7.77,2.49-12.68l11.9-35.27h17.66l-23.58,61.9h-17.33Z"/>
    <path class="cls-2" d="M268.21,532.04l-3.27-8.42h-.44c-2.84,3.58-5.77,6.06-8.78,7.45-3.01,1.38-6.93,2.08-11.76,2.08-5.94,0-10.62-1.7-14.04-5.09-3.41-3.4-5.12-8.23-5.12-14.51s2.3-11.41,6.89-14.53c4.6-3.12,11.52-4.84,20.79-5.18l10.74-.33v-2.71c0-6.28-3.21-9.41-9.63-9.41-4.95,0-10.76,1.49-17.44,4.48l-5.59-11.41c7.12-3.73,15.02-5.59,23.7-5.59s14.67,1.81,19.1,5.43c4.43,3.62,6.64,9.12,6.64,16.5v41.25h-11.79ZM263.23,503.36l-6.53.22c-4.91.15-8.56,1.03-10.96,2.66-2.4,1.62-3.6,4.1-3.6,7.42,0,4.76,2.73,7.14,8.19,7.14,3.91,0,7.04-1.12,9.38-3.38,2.34-2.25,3.52-5.24,3.52-8.97v-5.09Z"/>
    <path class="cls-2" d="M314.27,532.04h-16.89v-86.15h16.89v86.15Z"/>
    <path class="cls-2" d="M375.84,532.04l-2.27-7.92h-.89c-1.81,2.88-4.37,5.1-7.7,6.67-3.32,1.57-7.11,2.35-11.35,2.35-7.27,0-12.75-1.95-16.44-5.84-3.69-3.89-5.54-9.49-5.54-16.8v-40.36h16.89v36.15c0,4.46.79,7.81,2.38,10.05,1.59,2.23,4.12,3.35,7.58,3.35,4.72,0,8.14-1.58,10.24-4.73,2.1-3.16,3.16-8.39,3.16-15.7v-29.12h16.89v61.9h-12.96Z"/>
    <path class="cls-2" d="M445.82,532.04l-3.27-8.42h-.44c-2.84,3.58-5.77,6.06-8.78,7.45-3.01,1.38-6.93,2.08-11.76,2.08-5.94,0-10.62-1.7-14.04-5.09s-5.12-8.23-5.12-14.51,2.3-11.41,6.89-14.53c4.59-3.12,11.52-4.84,20.79-5.18l10.74-.33v-2.71c0-6.28-3.21-9.41-9.63-9.41-4.95,0-10.76,1.49-17.44,4.48l-5.59-11.41c7.12-3.73,15.02-5.59,23.7-5.59s14.67,1.81,19.1,5.43c4.43,3.62,6.64,9.12,6.64,16.5v41.25h-11.79ZM440.83,503.36l-6.53.22c-4.91.15-8.56,1.03-10.96,2.66-2.4,1.62-3.6,4.1-3.6,7.42,0,4.76,2.73,7.14,8.19,7.14,3.91,0,7.04-1.12,9.38-3.38,2.34-2.25,3.52-5.24,3.52-8.97v-5.09Z"/>
    <path class="cls-2" d="M500.13,533.14c-19.27,0-28.9-10.57-28.9-31.72,0-10.52,2.62-18.55,7.86-24.11,5.24-5.55,12.75-8.33,22.53-8.33,7.16,0,13.58,1.4,19.27,4.21l-4.98,13.07c-2.66-1.07-5.13-1.95-7.42-2.63-2.29-.68-4.58-1.03-6.87-1.03-8.79,0-13.18,6.24-13.18,18.71s4.39,18.16,13.18,18.16c3.25,0,6.26-.43,9.02-1.3s5.54-2.22,8.3-4.07v14.45c-2.73,1.73-5.49,2.93-8.28,3.6-2.79.67-6.3,1-10.55,1Z"/>
    <path class="cls-2" d="M532.57,454.14c0-5.5,3.06-8.25,9.19-8.25s9.19,2.75,9.19,8.25c0,2.62-.77,4.66-2.3,6.12-1.53,1.46-3.83,2.19-6.89,2.19-6.13,0-9.19-2.77-9.19-8.3ZM550.18,532.04h-16.89v-61.9h16.89v61.9Z"/>
    <path class="cls-2" d="M624.14,500.97c0,10.08-2.66,17.96-7.97,23.64-5.31,5.69-12.72,8.53-22.2,8.53-5.94,0-11.18-1.3-15.72-3.9-4.54-2.6-8.03-6.34-10.46-11.21s-3.65-10.55-3.65-17.05c0-10.11,2.64-17.97,7.92-23.58,5.28-5.61,12.7-8.42,22.26-8.42,5.94,0,11.18,1.29,15.72,3.88,4.54,2.58,8.03,6.29,10.46,11.13,2.44,4.84,3.65,10.5,3.65,17ZM581.35,500.97c0,6.13,1.01,10.76,3.02,13.9,2.01,3.14,5.29,4.71,9.83,4.71s7.74-1.56,9.72-4.68c1.97-3.12,2.96-7.76,2.96-13.93s-1-10.72-2.99-13.79c-1.99-3.06-5.26-4.6-9.8-4.6s-7.75,1.52-9.74,4.57-2.99,7.65-2.99,13.81ZM584.89,463.33v-1.5c6.35-7.38,10.68-12.94,13.01-16.66h18.93v1.16c-1.92,1.92-5.2,4.77-9.83,8.55s-8.26,6.6-10.88,8.44h-11.24Z"/>
    <path class="cls-2" d="M695.23,532.04h-16.89v-36.15c0-4.47-.79-7.82-2.38-10.05-1.59-2.23-4.12-3.35-7.58-3.35-4.72,0-8.14,1.58-10.24,4.73-2.1,3.16-3.16,8.39-3.16,15.7v29.12h-16.89v-61.9h12.9l2.27,7.92h.94c1.88-2.99,4.47-5.25,7.78-6.78,3.3-1.53,7.06-2.3,11.27-2.3,7.2,0,12.66,1.95,16.39,5.84,3.73,3.89,5.59,9.51,5.59,16.86v40.36Z"/>
    <path class="cls-2" d="M760.29,532.04h-16.89v-80.94h46.4v14.06h-29.51v20.87h27.46v14.01h-27.46v32Z"/>
    <path class="cls-2" d="M803.58,454.14c0-5.5,3.06-8.25,9.19-8.25s9.19,2.75,9.19,8.25c0,2.62-.77,4.66-2.3,6.12-1.53,1.46-3.83,2.19-6.89,2.19-6.13,0-9.19-2.77-9.19-8.3ZM821.19,532.04h-16.89v-61.9h16.89v61.9Z"/>
    <path class="cls-2" d="M896.04,532.04h-16.89v-36.15c0-4.47-.79-7.82-2.38-10.05-1.59-2.23-4.12-3.35-7.58-3.35-4.72,0-8.14,1.58-10.24,4.73-2.1,3.16-3.16,8.39-3.16,15.7v29.12h-16.89v-61.9h12.9l2.27,7.92h.94c1.88-2.99,4.47-5.25,7.78-6.78,3.3-1.53,7.06-2.3,11.27-2.3,7.2,0,12.66,1.95,16.39,5.84,3.73,3.89,5.59,9.51,5.59,16.86v40.36Z"/>
    <path class="cls-2" d="M952.73,532.04l-3.27-8.42h-.44c-2.84,3.58-5.77,6.06-8.77,7.45-3.01,1.38-6.93,2.08-11.77,2.08-5.94,0-10.62-1.7-14.03-5.09-3.42-3.4-5.12-8.23-5.12-14.51s2.3-11.41,6.89-14.53c4.59-3.12,11.52-4.84,20.79-5.18l10.74-.33v-2.71c0-6.28-3.21-9.41-9.63-9.41-4.95,0-10.76,1.49-17.44,4.48l-5.59-11.41c7.12-3.73,15.02-5.59,23.7-5.59s14.67,1.81,19.1,5.43c4.43,3.62,6.64,9.12,6.64,16.5v41.25h-11.79ZM947.75,503.36l-6.53.22c-4.91.15-8.56,1.03-10.96,2.66-2.4,1.62-3.6,4.1-3.6,7.42,0,4.76,2.73,7.14,8.19,7.14,3.91,0,7.04-1.12,9.38-3.38,2.34-2.25,3.52-5.24,3.52-8.97v-5.09Z"/>
    <path class="cls-2" d="M998.79,532.04h-16.89v-86.15h16.89v86.15Z"/>
  </g>
  <g>
    <path class="cls-1" d="M374.24,166.15c-8.88,0-15.76,3.34-20.63,10.01-4.87,6.67-7.31,15.97-7.31,27.9,0,24.82,9.31,37.23,27.94,37.23,7.82,0,17.28-1.95,28.4-5.86v19.79c-9.14,3.81-19.34,5.71-30.6,5.71-16.19,0-28.57-4.91-37.15-14.73-8.58-9.82-12.87-23.92-12.87-42.29,0-11.57,2.11-21.71,6.32-30.41,4.21-8.7,10.26-15.38,18.16-20.02s17.14-6.97,27.75-6.97,21.67,2.61,32.58,7.84l-7.61,19.18c-4.16-1.98-8.35-3.7-12.56-5.18-4.21-1.47-8.35-2.21-12.41-2.21Z"/>
    <path class="cls-1" d="M423.49,152.3c0-7.56,4.21-11.34,12.64-11.34s12.64,3.78,12.64,11.34c0,3.6-1.05,6.41-3.16,8.41-2.11,2.01-5.27,3.01-9.48,3.01-8.42,0-12.64-3.81-12.64-11.42ZM447.7,259.41h-23.22v-85.11h23.22v85.11Z"/>
    <path class="cls-1" d="M510.58,260.93c-13.7,0-24.41-3.78-32.12-11.34-7.71-7.56-11.57-18.27-11.57-32.12s3.56-25.29,10.7-33.08c7.13-7.79,16.99-11.69,29.58-11.69s21.39,3.43,28.09,10.28c6.7,6.85,10.05,16.32,10.05,28.4v11.27h-54.89c.25,6.6,2.21,11.75,5.86,15.45,3.65,3.71,8.78,5.56,15.38,5.56,5.13,0,9.97-.53,14.54-1.6,4.57-1.07,9.34-2.77,14.31-5.1v17.97c-4.06,2.03-8.4,3.54-13.02,4.53s-10.25,1.48-16.9,1.48ZM507.31,189.22c-4.92,0-8.78,1.56-11.57,4.68-2.79,3.12-4.39,7.55-4.8,13.28h32.58c-.1-5.73-1.6-10.16-4.49-13.28-2.89-3.12-6.8-4.68-11.72-4.68Z"/>
    <path class="cls-1" d="M611.68,172.7c3.15,0,5.76.23,7.84.68l-1.75,21.77c-1.88-.51-4.16-.76-6.85-.76-7.41,0-13.18,1.9-17.32,5.71-4.14,3.81-6.2,9.13-6.2,15.99v43.32h-23.22v-85.11h17.59l3.42,14.31h1.14c2.64-4.77,6.2-8.61,10.7-11.53,4.49-2.92,9.38-4.38,14.65-4.38Z"/>
    <path class="cls-1" d="M682.47,172.7c3.15,0,5.76.23,7.84.68l-1.75,21.77c-1.88-.51-4.16-.76-6.85-.76-7.41,0-13.18,1.9-17.32,5.71-4.14,3.81-6.2,9.13-6.2,15.99v43.32h-23.22v-85.11h17.59l3.42,14.31h1.14c2.64-4.77,6.2-8.61,10.7-11.53,4.49-2.92,9.38-4.38,14.65-4.38Z"/>
    <path class="cls-1" d="M744.29,260.93c-13.7,0-24.41-3.78-32.13-11.34-7.71-7.56-11.57-18.27-11.57-32.12s3.56-25.29,10.7-33.08c7.13-7.79,16.99-11.69,29.58-11.69s21.39,3.43,28.09,10.28c6.7,6.85,10.05,16.32,10.05,28.4v11.27h-54.89c.25,6.6,2.21,11.75,5.86,15.45,3.65,3.71,8.78,5.56,15.38,5.56,5.12,0,9.97-.53,14.54-1.6,4.57-1.07,9.34-2.77,14.31-5.1v17.97c-4.06,2.03-8.4,3.54-13.02,4.53-4.62.99-10.25,1.48-16.9,1.48ZM741.01,189.22c-4.92,0-8.78,1.56-11.57,4.68-2.79,3.12-4.39,7.55-4.8,13.28h32.58c-.1-5.73-1.6-10.16-4.49-13.28-2.89-3.12-6.8-4.68-11.72-4.68Z"/>
  </g>
</svg>