<?xml version="1.0" encoding="UTF-8"?>
<svg id="Capa_2" data-name="Capa 2" xmlns="http://www.w3.org/2000/svg" viewBox="0 0 1101.03 696.54">
  <defs>
    <style>
      .cls-1 {
        fill: #e09b2d;
      }

      .cls-2 {
        fill: #cc1719;
      }

      .cls-3 {
        fill: #f7c139;
      }

      .cls-4 {
        fill: #505050;
      }

      .cls-5 {
        fill: #fff;
      }

      .cls-6 {
        fill: #2b73f7;
      }

      .cls-7 {
        fill: #2d2d2d;
        stroke: #505050;
        stroke-miterlimit: 10;
        stroke-width: 14.49px;
      }
    </style>
  </defs>
  <rect class="cls-7" x="7.24" y="7.24" width="1086.54" height="682.05" rx="94.33" ry="94.33"/>
  <g>
    <path class="cls-1" d="M736.04,286.92v142.84c0,15.46-12.53,27.99-27.99,27.99h-.01c-15.06,0-27.35-11.9-27.96-26.82-.02-.38-.03-.78-.03-1.18v-142.84"/>
    <polyline class="cls-2" points="481.78 171.98 481.78 71.79 688.93 71.79 688.93 209.72"/>
    <polyline class="cls-5" points="610.92 135.61 713.24 135.61 713.24 264.54 713.24 430.94 546.08 430.94"/>
    <polyline class="cls-6" points="423.49 248.57 423.49 101.16 571.69 101.16 630.64 160.11 630.64 291.39"/>
    <path class="cls-3" d="M708.04,457.75h0s-285.42.01-285.42.01c-15.46,0-27.99-12.53-27.99-27.99v-187.67c0-11.25,9.12-20.37,20.36-20.37h73.04c8.39,0,15.92,5.15,18.98,12.96l11.68,29.86h138.99c12.36,0,22.38,10.02,22.38,22.38v142.84c0,.39.01.79.03,1.18.61,14.91,12.9,26.82,27.96,26.82Z"/>
    <g>
      <path class="cls-4" d="M736.04,279.32c-4.2,0-7.6,3.4-7.6,7.6v142.84c0,11.25-9.15,20.39-20.4,20.39-8.12,0-15.12-4.7-18.4-11.62h23.61c4.2,0,7.6-3.4,7.6-7.6V135.61c0-4.2-3.4-7.6-7.6-7.6h-79.02c-4.2,0-7.6,3.4-7.6,7.6s3.4,7.6,7.6,7.6h71.42v280.13h-18v-136.42c0-16.53-13.44-29.98-29.97-29.98h-133.81l-9.79-25.03c-4.22-10.8-14.45-17.78-26.05-17.78h-73.04c-15.42,0-27.97,12.55-27.97,27.97v187.67c0,19.63,15.97,35.59,35.59,35.59h285.43s0,0,0,0c19.63,0,35.59-15.97,35.59-35.59v-142.84c0-4.2-3.4-7.6-7.6-7.6ZM402.21,429.76v-187.67c0-7.04,5.73-12.77,12.77-12.77h73.04c5.3,0,9.96,3.19,11.89,8.12l11.68,29.86c1.14,2.91,3.95,4.83,7.08,4.83h139c8.15,0,14.78,6.63,14.78,14.78v142.84c0,.53.01,1.07.03,1.48.29,7.05,2.6,13.53,6.35,18.91h-256.22c-11.25,0-20.4-9.15-20.4-20.39Z"/>
      <path class="cls-4" d="M423.49,206.02c4.2,0,7.6-3.4,7.6-7.6v-89.66h133v51.34c0,4.2,3.4,7.6,7.6,7.6h51.35v73.53c0,4.2,3.4,7.6,7.6,7.6s7.6-3.4,7.6-7.6v-81.13c0-2.02-.8-3.95-2.23-5.37l-58.95-58.94c-1.42-1.42-3.36-2.22-5.37-2.22h-148.2c-4.2,0-7.6,3.4-7.6,7.6v97.26c0,4.2,3.4,7.6,7.6,7.6ZM579.29,119.51l33.01,33h-33.01v-33Z"/>
      <path class="cls-4" d="M481.78,84.96c3.49,0,6.44-2.36,7.32-5.57h192.23v35.72c0,4.2,3.4,7.6,7.6,7.6s7.6-3.4,7.6-7.6v-43.32c0-4.2-3.4-7.6-7.6-7.6h-207.15c-4.2,0-7.6,3.4-7.6,7.6v5.57c0,4.2,3.4,7.6,7.6,7.6Z"/>
      <path class="cls-4" d="M459.96,175.38h79.02c4.2,0,7.6-3.4,7.6-7.6s-3.4-7.6-7.6-7.6h-79.02c-4.2,0-7.6,3.4-7.6,7.6s3.4,7.6,7.6,7.6Z"/>
      <path class="cls-4" d="M459.96,202.36h135.76c4.2,0,7.6-3.4,7.6-7.6s-3.4-7.6-7.6-7.6h-135.76c-4.2,0-7.6,3.4-7.6,7.6s3.4,7.6,7.6,7.6Z"/>
    </g>
  </g>
  <g>
    <path class="cls-5" d="M348.95,609.27l-19.61-63.89h-.5c.7,13,1.06,21.67,1.06,26.01v37.88h-15.43v-81.43h23.51l19.27,62.27h.33l20.44-62.27h23.51v81.43h-16.1v-38.55c0-1.82.03-3.92.08-6.29.06-2.38.31-8.69.75-18.94h-.5l-21,63.78h-15.82Z"/>
    <path class="cls-5" d="M477.29,578.02c0,10.14-2.67,18.07-8.02,23.78-5.35,5.72-12.79,8.58-22.34,8.58-5.98,0-11.25-1.31-15.82-3.93-4.57-2.62-8.08-6.38-10.53-11.28-2.45-4.9-3.68-10.62-3.68-17.16,0-10.17,2.65-18.08,7.96-23.73,5.31-5.64,12.77-8.47,22.39-8.47,5.98,0,11.25,1.3,15.82,3.9,4.57,2.6,8.08,6.33,10.53,11.2,2.45,4.87,3.68,10.57,3.68,17.1ZM434.23,578.02c0,6.16,1.01,10.83,3.04,13.98,2.02,3.16,5.32,4.73,9.89,4.73s7.79-1.57,9.78-4.71c1.99-3.14,2.98-7.81,2.98-14.01s-1-10.79-3.01-13.87c-2.01-3.08-5.29-4.62-9.86-4.62s-7.8,1.53-9.8,4.6c-2,3.06-3.01,7.7-3.01,13.9ZM437.79,540.15v-1.5c6.39-7.43,10.75-13.01,13.09-16.77h19.05v1.17c-1.93,1.93-5.23,4.8-9.89,8.61-4.66,3.81-8.31,6.64-10.94,8.49h-11.31Z"/>
    <path class="cls-5" d="M511.04,610.38c-7.32,0-13.06-2.84-17.24-8.52s-6.27-13.55-6.27-23.62,2.12-18.17,6.38-23.87c4.25-5.7,10.11-8.55,17.57-8.55,7.84,0,13.81,3.05,17.94,9.13h.56c-.86-4.64-1.28-8.78-1.28-12.42v-19.94h17.04v86.67h-13.03l-3.29-8.08h-.72c-3.86,6.13-9.75,9.19-17.66,9.19ZM517,596.85c4.34,0,7.53-1.26,9.55-3.79s3.13-6.81,3.31-12.87v-1.84c0-6.68-1.03-11.47-3.09-14.37-2.06-2.9-5.41-4.34-10.05-4.34-3.79,0-6.73,1.61-8.83,4.82-2.1,3.21-3.15,7.88-3.15,14.01s1.06,10.72,3.18,13.79c2.12,3.06,5.14,4.6,9.08,4.6Z"/>
    <path class="cls-5" d="M607.62,609.27l-2.28-7.96h-.89c-1.82,2.9-4.4,5.13-7.74,6.71-3.34,1.58-7.15,2.37-11.42,2.37-7.31,0-12.83-1.96-16.54-5.88-3.71-3.92-5.57-9.55-5.57-16.91v-40.61h16.99v36.37c0,4.49.8,7.86,2.39,10.11,1.6,2.25,4.14,3.37,7.63,3.37,4.75,0,8.19-1.59,10.3-4.76,2.12-3.18,3.18-8.44,3.18-15.79v-29.3h16.99v62.27h-13.03Z"/>
    <path class="cls-5" d="M655.47,609.27h-16.99v-86.67h16.99v86.67Z"/>
    <path class="cls-5" d="M729.89,578.02c0,10.14-2.67,18.07-8.02,23.78-5.35,5.72-12.79,8.58-22.34,8.58-5.98,0-11.25-1.31-15.82-3.93-4.57-2.62-8.08-6.38-10.53-11.28-2.45-4.9-3.68-10.62-3.68-17.16,0-10.17,2.65-18.08,7.96-23.73,5.31-5.64,12.77-8.47,22.39-8.47,5.98,0,11.25,1.3,15.82,3.9,4.57,2.6,8.08,6.33,10.53,11.2,2.45,4.87,3.68,10.57,3.68,17.1ZM686.83,578.02c0,6.16,1.01,10.83,3.04,13.98,2.02,3.16,5.32,4.73,9.89,4.73s7.79-1.57,9.78-4.71c1.99-3.14,2.98-7.81,2.98-14.01s-1-10.79-3.01-13.87c-2.01-3.08-5.29-4.62-9.86-4.62s-7.8,1.53-9.8,4.6c-2,3.06-3.01,7.7-3.01,13.9Z"/>
    <path class="cls-5" d="M787.37,590.78c0,6.39-2.22,11.25-6.66,14.59-4.44,3.34-11.07,5.01-19.91,5.01-4.53,0-8.39-.31-11.59-.92-3.2-.61-6.18-1.51-8.97-2.7v-14.04c3.16,1.49,6.71,2.73,10.67,3.73,3.95,1,7.44,1.51,10.44,1.51,6.16,0,9.25-1.78,9.25-5.35,0-1.34-.41-2.42-1.22-3.26-.82-.84-2.23-1.78-4.23-2.84s-4.68-2.29-8.02-3.7c-4.79-2.01-8.31-3.86-10.55-5.57-2.25-1.71-3.88-3.67-4.9-5.88-1.02-2.21-1.53-4.93-1.53-8.16,0-5.53,2.14-9.81,6.43-12.84,4.29-3.03,10.37-4.54,18.24-4.54s14.8,1.63,21.89,4.9l-5.12,12.25c-3.12-1.34-6.03-2.43-8.74-3.29-2.71-.85-5.48-1.28-8.3-1.28-5.01,0-7.52,1.36-7.52,4.06,0,1.52.81,2.84,2.42,3.95,1.62,1.11,5.15,2.77,10.61,4.96,4.86,1.97,8.43,3.81,10.69,5.51,2.26,1.71,3.94,3.68,5.01,5.9,1.08,2.23,1.62,4.88,1.62,7.96Z"/>
  </g>
</svg>