<?xml version="1.0" encoding="UTF-8"?>
<svg id="Capa_2" data-name="Capa 2" xmlns="http://www.w3.org/2000/svg" viewBox="0 0 1101.03 696.54">
  <defs>
    <style>
      .cls-1 {
        fill: #b81f2a;
      }

      .cls-2 {
        fill: #fff;
      }

      .cls-3 {
        fill: #2d2d2d;
        stroke: #505050;
        stroke-miterlimit: 10;
        stroke-width: 14.49px;
      }
    </style>
  </defs>
  <rect class="cls-3" x="7.24" y="7.24" width="1086.54" height="682.05" rx="94.33" ry="94.33"/>
  <g>
    <path class="cls-2" d="M201.63,463.64l-5.87-19.27h-29.51l-5.87,19.27h-18.49l28.57-81.27h20.98l28.68,81.27h-18.49ZM191.67,429.98c-5.43-17.46-8.48-27.33-9.16-29.62-.68-2.29-1.17-4.1-1.47-5.43-1.22,4.72-4.71,16.41-10.46,35.05h21.09Z"/>
    <path class="cls-2" d="M254.12,464.75c-19.27,0-28.9-10.57-28.9-31.72,0-10.52,2.62-18.56,7.86-24.11,5.24-5.55,12.75-8.33,22.53-8.33,7.16,0,13.58,1.4,19.27,4.21l-4.98,13.07c-2.66-1.07-5.13-1.95-7.42-2.63-2.29-.68-4.58-1.02-6.87-1.02-8.79,0-13.18,6.24-13.18,18.71s4.39,18.16,13.18,18.16c3.25,0,6.26-.43,9.02-1.3,2.77-.87,5.54-2.22,8.3-4.07v14.45c-2.73,1.74-5.49,2.93-8.28,3.6-2.79.67-6.3,1-10.55,1Z"/>
    <path class="cls-2" d="M313.36,451.3c2.95,0,6.5-.64,10.63-1.94v12.57c-4.21,1.88-9.38,2.82-15.5,2.82-6.76,0-11.67-1.71-14.76-5.12s-4.62-8.54-4.62-15.36v-29.84h-8.08v-7.14l9.3-5.65,4.87-13.07h10.8v13.18h17.33v12.68h-17.33v29.84c0,2.4.67,4.17,2.02,5.32,1.35,1.14,3.13,1.72,5.34,1.72Z"/>
    <path class="cls-2" d="M335.78,385.75c0-5.5,3.06-8.25,9.19-8.25s9.19,2.75,9.19,8.25c0,2.62-.77,4.66-2.3,6.12s-3.83,2.19-6.89,2.19c-6.13,0-9.19-2.77-9.19-8.3ZM353.39,463.64h-16.89v-61.9h16.89v61.9Z"/>
    <path class="cls-2" d="M385.83,463.64l-23.58-61.9h17.66l11.96,35.27c1.33,4.47,2.16,8.69,2.49,12.68h.33c.18-3.54,1.01-7.77,2.49-12.68l11.9-35.27h17.66l-23.58,61.9h-17.33Z"/>
    <path class="cls-2" d="M434.88,385.75c0-5.5,3.06-8.25,9.19-8.25s9.19,2.75,9.19,8.25c0,2.62-.77,4.66-2.3,6.12s-3.83,2.19-6.89,2.19c-6.13,0-9.19-2.77-9.19-8.3ZM452.49,463.64h-16.89v-61.9h16.89v61.9Z"/>
    <path class="cls-2" d="M489.8,464.75c-7.27,0-12.98-2.82-17.13-8.47s-6.23-13.47-6.23-23.47,2.11-18.06,6.34-23.72c4.22-5.67,10.05-8.5,17.47-8.5,7.79,0,13.73,3.03,17.83,9.08h.55c-.85-4.61-1.27-8.73-1.27-12.35v-19.82h16.94v86.15h-12.96l-3.27-8.03h-.72c-3.84,6.09-9.69,9.13-17.55,9.13ZM495.73,451.3c4.32,0,7.48-1.25,9.5-3.76,2.01-2.51,3.11-6.77,3.29-12.79v-1.83c0-6.64-1.02-11.4-3.07-14.28s-5.38-4.32-9.99-4.32c-3.77,0-6.69,1.6-8.78,4.79-2.09,3.19-3.13,7.83-3.13,13.92s1.05,10.66,3.16,13.7,5.11,4.57,9.02,4.57Z"/>
    <path class="cls-2" d="M581.27,463.64l-3.27-8.42h-.44c-2.84,3.58-5.77,6.06-8.77,7.45-3.01,1.38-6.93,2.08-11.77,2.08-5.94,0-10.62-1.7-14.04-5.09-3.41-3.4-5.12-8.23-5.12-14.5s2.3-11.41,6.89-14.53,11.53-4.84,20.79-5.18l10.74-.33v-2.71c0-6.27-3.21-9.41-9.63-9.41-4.95,0-10.76,1.5-17.44,4.48l-5.59-11.41c7.12-3.73,15.02-5.59,23.7-5.59s14.67,1.81,19.1,5.43c4.43,3.62,6.64,9.12,6.64,16.5v41.25h-11.79ZM576.28,434.96l-6.53.22c-4.91.15-8.56,1.03-10.96,2.66-2.4,1.62-3.6,4.1-3.6,7.42,0,4.76,2.73,7.14,8.2,7.14,3.91,0,7.04-1.12,9.38-3.38,2.34-2.25,3.52-5.24,3.52-8.97v-5.09Z"/>
    <path class="cls-2" d="M630.04,464.75c-7.27,0-12.98-2.82-17.13-8.47s-6.23-13.47-6.23-23.47,2.11-18.06,6.34-23.72c4.23-5.67,10.05-8.5,17.47-8.5,7.79,0,13.73,3.03,17.83,9.08h.55c-.85-4.61-1.27-8.73-1.27-12.35v-19.82h16.94v86.15h-12.96l-3.27-8.03h-.72c-3.84,6.09-9.69,9.13-17.55,9.13ZM635.97,451.3c4.32,0,7.48-1.25,9.49-3.76,2.01-2.51,3.11-6.77,3.29-12.79v-1.83c0-6.64-1.02-11.4-3.07-14.28s-5.38-4.32-9.99-4.32c-3.76,0-6.69,1.6-8.78,4.79s-3.13,7.83-3.13,13.92,1.05,10.66,3.15,13.7c2.11,3.04,5.11,4.57,9.03,4.57Z"/>
    <path class="cls-2" d="M710.21,464.75c-9.96,0-17.75-2.75-23.36-8.25-5.61-5.5-8.41-13.29-8.41-23.36s2.59-18.39,7.78-24.06c5.19-5.67,12.36-8.5,21.51-8.5s15.56,2.49,20.43,7.47c4.87,4.98,7.31,11.87,7.31,20.65v8.19h-39.92c.18,4.8,1.61,8.55,4.26,11.24,2.66,2.69,6.39,4.04,11.18,4.04,3.73,0,7.25-.39,10.58-1.16,3.32-.78,6.79-2.01,10.41-3.71v13.07c-2.95,1.48-6.11,2.57-9.47,3.29-3.36.72-7.46,1.08-12.29,1.08ZM707.83,412.6c-3.58,0-6.39,1.13-8.42,3.41-2.03,2.27-3.19,5.49-3.49,9.66h23.7c-.07-4.17-1.16-7.39-3.27-9.66-2.1-2.27-4.95-3.41-8.53-3.41Z"/>
    <path class="cls-2" d="M792.37,445.26c0,6.35-2.21,11.18-6.62,14.5-4.41,3.32-11.01,4.98-19.79,4.98-4.5,0-8.34-.3-11.52-.91-3.17-.61-6.14-1.5-8.91-2.68v-13.95c3.14,1.48,6.67,2.71,10.6,3.71,3.93,1,7.39,1.49,10.38,1.49,6.12,0,9.19-1.77,9.19-5.31,0-1.33-.41-2.41-1.22-3.24-.81-.83-2.21-1.77-4.21-2.82-1.99-1.05-4.65-2.28-7.97-3.68-4.76-1.99-8.26-3.84-10.49-5.54-2.23-1.7-3.86-3.64-4.87-5.84-1.02-2.2-1.52-4.9-1.52-8.11,0-5.5,2.13-9.75,6.39-12.76,4.26-3.01,10.31-4.51,18.13-4.51s14.71,1.62,21.76,4.87l-5.09,12.18c-3.1-1.33-6-2.42-8.69-3.27-2.7-.85-5.45-1.27-8.25-1.27-4.98,0-7.47,1.35-7.47,4.04,0,1.51.8,2.82,2.41,3.93s5.12,2.75,10.55,4.93c4.83,1.96,8.38,3.78,10.63,5.48,2.25,1.7,3.91,3.65,4.98,5.87s1.61,4.85,1.61,7.92Z"/>
    <path class="cls-2" d="M863.01,464.75c-9.96,0-17.75-2.75-23.36-8.25-5.61-5.5-8.41-13.29-8.41-23.36s2.59-18.39,7.78-24.06c5.19-5.67,12.36-8.5,21.51-8.5s15.56,2.49,20.43,7.47c4.87,4.98,7.31,11.87,7.31,20.65v8.19h-39.92c.18,4.8,1.61,8.55,4.26,11.24,2.66,2.69,6.39,4.04,11.18,4.04,3.73,0,7.25-.39,10.58-1.16,3.32-.78,6.79-2.01,10.41-3.71v13.07c-2.95,1.48-6.11,2.57-9.47,3.29-3.36.72-7.46,1.08-12.29,1.08ZM860.63,412.6c-3.58,0-6.39,1.13-8.42,3.41-2.03,2.27-3.19,5.49-3.49,9.66h23.7c-.07-4.17-1.16-7.39-3.27-9.66-2.1-2.27-4.95-3.41-8.53-3.41Z"/>
    <path class="cls-2" d="M959.13,463.64h-16.89v-36.15c0-4.47-.79-7.82-2.38-10.05-1.59-2.23-4.12-3.35-7.58-3.35-4.72,0-8.14,1.58-10.24,4.73-2.11,3.16-3.16,8.39-3.16,15.7v29.12h-16.89v-61.9h12.9l2.27,7.92h.94c1.88-2.99,4.47-5.25,7.78-6.78,3.3-1.53,7.06-2.3,11.27-2.3,7.2,0,12.66,1.95,16.39,5.84,3.73,3.89,5.59,9.51,5.59,16.86v40.36Z"/>
    <path class="cls-2" d="M370.83,531.88c-6.46,0-11.46,2.43-15,7.28-3.54,4.85-5.32,11.62-5.32,20.29,0,18.05,6.77,27.07,20.32,27.07,5.68,0,12.57-1.42,20.65-4.26v14.39c-6.64,2.77-14.06,4.15-22.26,4.15-11.77,0-20.78-3.57-27.02-10.71-6.24-7.14-9.36-17.39-9.36-30.75,0-8.42,1.53-15.79,4.6-22.12,3.06-6.33,7.46-11.18,13.2-14.56,5.74-3.38,12.47-5.07,20.18-5.07s15.76,1.9,23.7,5.7l-5.54,13.95c-3.03-1.44-6.07-2.69-9.13-3.76-3.06-1.07-6.07-1.61-9.02-1.61Z"/>
    <path class="cls-2" d="M458.25,599.71l-5.87-19.27h-29.51l-5.87,19.27h-18.49l28.57-81.27h20.98l28.68,81.27h-18.49ZM448.28,566.04c-5.43-17.46-8.48-27.33-9.16-29.62-.68-2.29-1.17-4.1-1.47-5.43-1.22,4.72-4.71,16.41-10.46,35.05h21.09Z"/>
    <path class="cls-2" d="M558.73,599.71h-21.81l-35.21-61.23h-.5c.7,10.81,1.05,18.53,1.05,23.14v38.09h-15.34v-80.94h21.65l35.16,60.62h.39c-.55-10.52-.83-17.96-.83-22.31v-38.31h15.45v80.94Z"/>
    <path class="cls-2" d="M625.28,518.76h17.33l-27.52,80.94h-18.71l-27.46-80.94h17.33l15.22,48.17c.85,2.84,1.72,6.15,2.63,9.94.9,3.78,1.47,6.41,1.69,7.89.41-3.4,1.79-9.34,4.15-17.83l15.34-48.17Z"/>
    <path class="cls-2" d="M702.35,599.71l-5.87-19.27h-29.51l-5.87,19.27h-18.49l28.57-81.27h20.98l28.68,81.27h-18.49ZM692.38,566.04c-5.43-17.46-8.48-27.33-9.16-29.62-.68-2.29-1.17-4.1-1.47-5.43-1.22,4.72-4.71,16.41-10.46,35.05h21.09Z"/>
    <path class="cls-2" d="M778.8,577.23c0,7.31-2.63,13.07-7.89,17.27s-12.58,6.31-21.95,6.31c-8.64,0-16.28-1.62-22.92-4.87v-15.95c5.46,2.44,10.09,4.15,13.87,5.15,3.78,1,7.24,1.49,10.38,1.49,3.77,0,6.65-.72,8.66-2.16s3.02-3.58,3.02-6.42c0-1.59-.44-3-1.33-4.24-.89-1.24-2.19-2.43-3.9-3.57-1.71-1.14-5.21-2.97-10.49-5.48-4.95-2.33-8.66-4.56-11.13-6.7s-4.45-4.63-5.92-7.47c-1.48-2.84-2.21-6.16-2.21-9.96,0-7.16,2.43-12.79,7.28-16.89,4.85-4.1,11.56-6.15,20.12-6.15,4.21,0,8.22.5,12.04,1.5,3.82,1,7.81,2.4,11.99,4.21l-5.54,13.34c-4.32-1.77-7.89-3.01-10.71-3.71-2.82-.7-5.6-1.05-8.33-1.05-3.25,0-5.74.76-7.47,2.27-1.73,1.51-2.6,3.49-2.6,5.92,0,1.51.35,2.83,1.05,3.96.7,1.13,1.82,2.21,3.35,3.27,1.53,1.05,5.16,2.94,10.88,5.67,7.57,3.62,12.75,7.24,15.56,10.88,2.8,3.64,4.21,8.09,4.21,13.37Z"/>
  </g>
  <g>
    <path class="cls-1" d="M306.53,148.11v72.01c0,8.22-1.84,15.43-5.52,21.62-3.68,6.19-9,10.94-15.95,14.24-6.95,3.3-15.17,4.95-24.67,4.95-14.31,0-25.43-3.67-33.34-11-7.92-7.33-11.88-17.37-11.88-30.11v-71.71h23.52v68.13c0,8.58,1.72,14.87,5.18,18.88,3.45,4.01,9.16,6.01,17.13,6.01s13.31-2.02,16.79-6.05c3.48-4.03,5.21-10.37,5.21-18.99v-67.98h23.52Z"/>
    <path class="cls-1" d="M410.51,259.41h-23.22v-49.71c0-6.14-1.09-10.75-3.27-13.82-2.18-3.07-5.66-4.61-10.43-4.61-6.5,0-11.19,2.17-14.08,6.51-2.89,4.34-4.34,11.53-4.34,21.58v40.04h-23.22v-85.11h17.74l3.12,10.89h1.29c2.59-4.11,6.15-7.22,10.7-9.33,4.54-2.11,9.71-3.16,15.49-3.16,9.9,0,17.41,2.68,22.53,8.03,5.12,5.35,7.69,13.08,7.69,23.18v55.5Z"/>
    <path class="cls-1" d="M433.43,152.3c0-7.56,4.21-11.34,12.64-11.34s12.64,3.78,12.64,11.34c0,3.6-1.05,6.41-3.16,8.41-2.11,2.01-5.27,3.01-9.48,3.01-8.42,0-12.64-3.81-12.64-11.42ZM457.64,259.41h-23.22v-85.11h23.22v85.11Z"/>
    <path class="cls-1" d="M508.94,260.93c-10,0-17.85-3.88-23.56-11.65s-8.56-18.52-8.56-32.28,2.9-24.83,8.72-32.62c5.81-7.79,13.82-11.69,24.02-11.69,10.71,0,18.88,4.16,24.51,12.48h.76c-1.17-6.34-1.75-12-1.75-16.98v-27.25h23.29v118.45h-17.81l-4.49-11.04h-.99c-5.28,8.37-13.32,12.56-24.13,12.56ZM517.09,242.43c5.94,0,10.29-1.73,13.06-5.18,2.77-3.45,4.28-9.31,4.53-17.58v-2.51c0-9.13-1.41-15.68-4.22-19.64-2.82-3.96-7.4-5.94-13.74-5.94-5.18,0-9.2,2.2-12.07,6.58-2.87,4.39-4.3,10.77-4.3,19.15s1.45,14.65,4.34,18.84c2.89,4.19,7.03,6.28,12.41,6.28Z"/>
    <path class="cls-1" d="M634.7,259.41l-4.49-11.57h-.61c-3.91,4.92-7.93,8.34-12.07,10.24s-9.53,2.85-16.18,2.85c-8.17,0-14.61-2.33-19.3-7-4.7-4.67-7.04-11.32-7.04-19.94s3.16-15.69,9.48-19.98c6.32-4.29,15.85-6.66,28.59-7.12l14.77-.46v-3.73c0-8.63-4.41-12.94-13.25-12.94-6.8,0-14.79,2.06-23.98,6.17l-7.69-15.68c9.79-5.12,20.66-7.69,32.58-7.69s20.17,2.49,26.26,7.46c6.09,4.97,9.13,12.54,9.13,22.69v56.71h-16.21ZM627.85,219.97l-8.98.3c-6.75.2-11.77,1.42-15.07,3.65-3.3,2.23-4.95,5.63-4.95,10.2,0,6.55,3.76,9.82,11.27,9.82,5.38,0,9.68-1.55,12.9-4.64,3.22-3.09,4.83-7.21,4.83-12.33v-7Z"/>
    <path class="cls-1" d="M701.77,260.93c-10,0-17.85-3.88-23.56-11.65-5.71-7.76-8.56-18.52-8.56-32.28s2.9-24.83,8.71-32.62c5.81-7.79,13.82-11.69,24.02-11.69,10.71,0,18.88,4.16,24.51,12.48h.76c-1.17-6.34-1.75-12-1.75-16.98v-27.25h23.29v118.45h-17.81l-4.49-11.04h-.99c-5.28,8.37-13.32,12.56-24.13,12.56ZM709.92,242.43c5.94,0,10.29-1.73,13.06-5.18,2.76-3.45,4.27-9.31,4.53-17.58v-2.51c0-9.13-1.41-15.68-4.23-19.64-2.82-3.96-7.4-5.94-13.74-5.94-5.18,0-9.2,2.2-12.07,6.58-2.87,4.39-4.3,10.77-4.3,19.15s1.45,14.65,4.34,18.84c2.89,4.19,7.03,6.28,12.41,6.28Z"/>
    <path class="cls-1" d="M885.84,259.41h-77.8v-16.37l27.94-28.24c8.27-8.48,13.68-14.35,16.21-17.62,2.54-3.27,4.37-6.31,5.48-9.1,1.12-2.79,1.68-5.68,1.68-8.68,0-4.47-1.23-7.79-3.69-9.97-2.46-2.18-5.75-3.27-9.86-3.27-4.31,0-8.5.99-12.56,2.97s-8.3,4.8-12.71,8.45l-12.79-15.15c5.48-4.67,10.02-7.97,13.63-9.9,3.6-1.93,7.54-3.41,11.8-4.45,4.26-1.04,9.03-1.56,14.31-1.56,6.95,0,13.09,1.27,18.42,3.81,5.33,2.54,9.46,6.09,12.41,10.66s4.42,9.79,4.42,15.68c0,5.13-.9,9.93-2.7,14.43-1.8,4.49-4.59,9.1-8.37,13.82-3.78,4.72-10.44,11.45-19.98,20.17l-14.31,13.47v1.07h48.49v19.79Z"/>
  </g>
</svg>