<?xml version="1.0" encoding="UTF-8"?>
<svg id="Capa_2" data-name="Capa 2" xmlns="http://www.w3.org/2000/svg" xmlns:xlink="http://www.w3.org/1999/xlink" viewBox="0 0 1101.03 696.54">
  <defs>
    <style>
      .cls-1 {
        fill: #7b83eb;
      }

      .cls-2 {
        opacity: .1;
      }

      .cls-2, .cls-3 {
        isolation: isolate;
      }

      .cls-3 {
        opacity: .2;
      }

      .cls-4 {
        fill: #d2d2d2;
      }

      .cls-5 {
        fill: #fff;
      }

      .cls-6 {
        fill: #232323;
        stroke-width: 11.34px;
      }

      .cls-6, .cls-7 {
        stroke: #505050;
        stroke-miterlimit: 10;
      }

      .cls-8 {
        fill: url(#Degradado_sin_nombre_2-2);
      }

      .cls-9 {
        fill: url(#Degradado_sin_nombre_2);
      }

      .cls-10 {
        fill: #5059c9;
      }

      .cls-7 {
        fill: #2d2d2d;
        stroke-width: 14.49px;
      }
    </style>
    <linearGradient id="Degradado_sin_nombre_2" data-name="Degradado sin nombre 2" x1="440.94" y1="2425.59" x2="529.93" y2="2271.47" gradientTransform="translate(0 2593.3) scale(1 -1)" gradientUnits="userSpaceOnUse">
      <stop offset="0" stop-color="#5a62c3"/>
      <stop offset=".5" stop-color="#4d55bd"/>
      <stop offset="1" stop-color="#3940ab"/>
    </linearGradient>
    <linearGradient id="Degradado_sin_nombre_2-2" data-name="Degradado sin nombre 2" x1="311.74" y1="359.04" x2="450.73" y2="476.65" gradientTransform="matrix(1,0,0,1,0,0)" xlink:href="#Degradado_sin_nombre_2"/>
  </defs>
  <rect class="cls-7" x="7.24" y="7.24" width="1086.54" height="682.05" rx="94.33" ry="94.33"/>
  <g>
    <path class="cls-5" d="M234.58,563.15h32.57v42.57c-5.28,1.72-10.25,2.93-14.91,3.62-4.66.69-9.43,1.04-14.29,1.04-12.39,0-21.86-3.64-28.39-10.92-6.53-7.28-9.8-17.74-9.8-31.37s3.79-23.59,11.37-31c7.58-7.41,18.09-11.12,31.53-11.12,8.42,0,16.55,1.68,24.37,5.05l-5.78,13.93c-5.99-2.99-12.22-4.49-18.7-4.49-7.53,0-13.55,2.53-18.08,7.58-4.53,5.05-6.8,11.85-6.8,20.39s1.83,15.72,5.48,20.41c3.65,4.7,8.96,7.05,15.92,7.05,3.63,0,7.32-.37,11.06-1.12v-17.13h-15.56v-14.49Z"/>
    <path class="cls-5" d="M320.39,545.29c2.32,0,4.25.17,5.78.51l-1.29,16.06c-1.39-.37-3.07-.56-5.05-.56-5.47,0-9.73,1.4-12.78,4.21-3.05,2.81-4.58,6.74-4.58,11.79v31.95h-17.13v-62.79h12.97l2.53,10.56h.84c1.95-3.52,4.58-6.35,7.89-8.51,3.31-2.15,6.92-3.23,10.81-3.23Z"/>
    <path class="cls-5" d="M377.45,609.26l-3.31-8.54h-.45c-2.88,3.63-5.85,6.15-8.9,7.55-3.05,1.4-7.03,2.11-11.93,2.11-6.03,0-10.77-1.72-14.24-5.17-3.46-3.44-5.19-8.35-5.19-14.71s2.33-11.58,6.99-14.74c4.66-3.16,11.69-4.91,21.09-5.25l10.89-.34v-2.75c0-6.36-3.26-9.55-9.77-9.55-5.02,0-10.91,1.52-17.69,4.55l-5.67-11.57c7.23-3.78,15.24-5.67,24.04-5.67s14.88,1.83,19.37,5.5c4.49,3.67,6.74,9.25,6.74,16.74v41.84h-11.96ZM372.39,580.17l-6.63.22c-4.98.15-8.69,1.05-11.12,2.7-2.43,1.65-3.65,4.16-3.65,7.53,0,4.83,2.77,7.24,8.31,7.24,3.97,0,7.14-1.14,9.52-3.43,2.38-2.28,3.57-5.32,3.57-9.1v-5.17Z"/>
    <path class="cls-5" d="M441.97,545.29c7.41,0,13.22,2.89,17.41,8.68,4.19,5.78,6.29,13.71,6.29,23.78s-2.16,18.4-6.49,24.09c-4.32,5.69-10.21,8.54-17.66,8.54s-13.16-2.68-17.35-8.03h-1.18l-2.86,6.91h-13.08v-87.38h17.13v20.33c0,2.58-.23,6.72-.67,12.41h.67c4.01-6.21,9.94-9.32,17.8-9.32ZM436.47,559c-4.23,0-7.32,1.3-9.27,3.9-1.95,2.6-2.96,6.9-3.03,12.89v1.85c0,6.74,1,11.57,3,14.49,2,2.92,5.17,4.38,9.52,4.38,3.52,0,6.32-1.62,8.4-4.86,2.08-3.24,3.12-7.95,3.12-14.12s-1.05-10.81-3.14-13.9c-2.1-3.09-4.96-4.63-8.59-4.63Z"/>
    <path class="cls-5" d="M519.7,609.26l-3.31-8.54h-.45c-2.88,3.63-5.85,6.15-8.9,7.55-3.05,1.4-7.03,2.11-11.93,2.11-6.03,0-10.77-1.72-14.24-5.17-3.46-3.44-5.2-8.35-5.2-14.71s2.33-11.58,6.99-14.74c4.66-3.16,11.69-4.91,21.09-5.25l10.89-.34v-2.75c0-6.36-3.26-9.55-9.77-9.55-5.02,0-10.91,1.52-17.69,4.55l-5.67-11.57c7.23-3.78,15.24-5.67,24.04-5.67s14.88,1.83,19.38,5.5c4.49,3.67,6.74,9.25,6.74,16.74v41.84h-11.96ZM514.64,580.17l-6.63.22c-4.98.15-8.69,1.05-11.12,2.7-2.43,1.65-3.65,4.16-3.65,7.53,0,4.83,2.77,7.24,8.31,7.24,3.97,0,7.14-1.14,9.52-3.43,2.38-2.28,3.57-5.32,3.57-9.1v-5.17Z"/>
    <path class="cls-5" d="M574.79,610.38c-19.54,0-29.32-10.73-29.32-32.18,0-10.67,2.66-18.82,7.97-24.46,5.32-5.63,12.93-8.45,22.86-8.45,7.26,0,13.78,1.42,19.54,4.27l-5.05,13.25c-2.7-1.09-5.2-1.97-7.53-2.67-2.32-.69-4.64-1.04-6.96-1.04-8.91,0-13.37,6.33-13.37,18.98s4.46,18.42,13.37,18.42c3.29,0,6.35-.44,9.15-1.32,2.81-.88,5.62-2.26,8.42-4.13v14.66c-2.77,1.76-5.57,2.98-8.4,3.65-2.83.67-6.39,1.01-10.7,1.01Z"/>
    <path class="cls-5" d="M607.7,530.24c0-5.58,3.11-8.37,9.32-8.37s9.32,2.79,9.32,8.37c0,2.66-.78,4.73-2.33,6.21-1.55,1.48-3.88,2.22-6.99,2.22-6.21,0-9.32-2.81-9.32-8.42ZM625.56,609.26h-17.13v-62.79h17.13v62.79Z"/>
    <path class="cls-5" d="M700.59,577.76c0,10.22-2.7,18.21-8.09,23.98-5.39,5.77-12.9,8.65-22.52,8.65-6.03,0-11.34-1.32-15.95-3.96-4.61-2.64-8.14-6.43-10.61-11.37-2.47-4.94-3.71-10.71-3.71-17.3,0-10.26,2.68-18.23,8.03-23.92,5.35-5.69,12.88-8.54,22.58-8.54,6.03,0,11.34,1.31,15.95,3.93,4.6,2.62,8.14,6.38,10.61,11.29,2.47,4.91,3.71,10.65,3.71,17.24ZM657.18,577.76c0,6.21,1.02,10.91,3.06,14.1,2.04,3.18,5.36,4.77,9.97,4.77s7.85-1.58,9.86-4.75c2-3.16,3-7.87,3-14.12s-1.01-10.88-3.03-13.98c-2.02-3.11-5.34-4.66-9.94-4.66s-7.86,1.54-9.88,4.63c-2.02,3.09-3.03,7.76-3.03,14.01Z"/>
    <path class="cls-5" d="M772.7,609.26h-17.13v-36.67c0-4.53-.81-7.93-2.41-10.19-1.61-2.26-4.18-3.4-7.69-3.4-4.79,0-8.26,1.6-10.39,4.8-2.13,3.2-3.2,8.51-3.2,15.92v29.54h-17.13v-62.79h13.08l2.3,8.03h.95c1.91-3.03,4.54-5.33,7.89-6.88,3.35-1.55,7.16-2.33,11.43-2.33,7.3,0,12.84,1.98,16.62,5.92,3.78,3.95,5.67,9.65,5.67,17.1v40.94Z"/>
    <path class="cls-5" d="M818.75,610.38c-10.11,0-18.01-2.79-23.7-8.37-5.69-5.58-8.54-13.48-8.54-23.7s2.63-18.65,7.89-24.4c5.26-5.75,12.53-8.62,21.82-8.62s15.78,2.53,20.72,7.58c4.94,5.05,7.41,12.04,7.41,20.95v8.31h-40.49c.19,4.87,1.63,8.67,4.32,11.4,2.7,2.73,6.48,4.1,11.34,4.1,3.78,0,7.36-.39,10.73-1.18,3.37-.79,6.89-2.04,10.56-3.76v13.25c-3,1.5-6.2,2.61-9.6,3.34-3.41.73-7.56,1.09-12.47,1.09ZM816.33,557.48c-3.63,0-6.48,1.15-8.54,3.45-2.06,2.3-3.24,5.57-3.54,9.8h24.04c-.08-4.23-1.18-7.5-3.31-9.8-2.13-2.3-5.02-3.45-8.65-3.45Z"/>
    <path class="cls-5" d="M902.09,590.62c0,6.44-2.24,11.34-6.71,14.71s-11.17,5.05-20.08,5.05c-4.57,0-8.46-.31-11.68-.93-3.22-.62-6.23-1.53-9.04-2.72v-14.15c3.18,1.5,6.77,2.75,10.75,3.76,3.99,1.01,7.5,1.52,10.53,1.52,6.21,0,9.32-1.8,9.32-5.39,0-1.35-.41-2.44-1.24-3.29-.82-.84-2.25-1.8-4.27-2.86s-4.72-2.31-8.09-3.73c-4.83-2.02-8.38-3.89-10.64-5.62-2.27-1.72-3.91-3.7-4.94-5.92-1.03-2.23-1.54-4.97-1.54-8.23,0-5.58,2.16-9.89,6.49-12.94,4.32-3.05,10.45-4.58,18.39-4.58s14.92,1.65,22.07,4.94l-5.17,12.36c-3.15-1.35-6.08-2.45-8.82-3.31-2.73-.86-5.52-1.29-8.37-1.29-5.05,0-7.58,1.37-7.58,4.1,0,1.54.81,2.86,2.44,3.99,1.63,1.12,5.2,2.79,10.7,5,4.9,1.98,8.5,3.84,10.78,5.56,2.28,1.72,3.97,3.71,5.05,5.95,1.08,2.25,1.63,4.92,1.63,8.03Z"/>
  </g>
  <rect class="cls-6" x="193.92" y="64.19" width="713.19" height="401.17" rx="50.79" ry="50.79"/>
  <g>
    <path class="cls-10" d="M603.16,213.78h68.84c6.51,0,11.78,5.27,11.78,11.78h0v62.71c0,23.9-19.38,43.29-43.29,43.29h-.2c-23.9,0-43.29-19.37-43.29-43.28h0v-68.34c0-3.4,2.75-6.16,6.16-6.16h0Z"/>
    <circle class="cls-10" cx="649.7" cy="173.49" r="27.89"/>
    <circle class="cls-1" cx="562.92" cy="161.09" r="40.29"/>
    <path class="cls-1" d="M616.63,213.78h-113.64c-6.42.16-11.52,5.49-11.36,11.92v71.52c-.9,38.56,29.62,70.58,68.19,71.52,38.56-.94,69.08-32.94,68.19-71.52v-71.52c.14-6.42-4.94-11.75-11.36-11.92h-.01Z"/>
    <path class="cls-2" d="M566.01,213.78v100.22c-.04,4.59-2.81,8.73-7.07,10.48-1.35.57-2.81.87-4.28.87h-57.58c-.8-2.04-1.55-4.09-2.16-6.19-2.16-7.12-3.28-14.51-3.29-21.94v-71.53c-.14-6.42,4.93-11.74,11.35-11.9h63.03Z"/>
    <path class="cls-3" d="M559.82,213.78v106.43c0,1.47-.3,2.92-.87,4.28-1.75,4.25-5.88,7.03-10.48,7.07h-48.47c-1.05-2.04-2.04-4.09-2.92-6.19-.87-2.1-1.55-4.09-2.16-6.19-2.16-7.12-3.28-14.51-3.29-21.94v-71.53c-.14-6.42,4.93-11.74,11.35-11.9h56.84Z"/>
    <path class="cls-3" d="M559.82,213.78v94.03c-.05,6.24-5.09,11.3-11.35,11.35h-53.55c-2.16-7.12-3.28-14.51-3.29-21.94v-71.53c-.14-6.42,4.93-11.74,11.35-11.9h56.84Z"/>
    <path class="cls-3" d="M553.61,213.78v94.03c-.05,6.24-5.09,11.3-11.35,11.35h-47.35c-2.16-7.12-3.28-14.51-3.29-21.94v-71.53c-.14-6.42,4.93-11.74,11.35-11.9h50.64Z"/>
    <path class="cls-2" d="M566.01,181.73v19.53c-1.05.06-2.04.12-3.1.12s-2.04-.06-3.1-.12c-2.09-.14-4.16-.47-6.19-.99-12.56-2.98-22.92-11.78-27.89-23.68-.86-2-1.52-4.08-1.99-6.19h30.92c6.25.02,11.32,5.08,11.35,11.35h-.01Z"/>
    <path class="cls-3" d="M559.82,187.94v13.32c-2.09-.14-4.16-.47-6.19-.99-12.56-2.98-22.92-11.78-27.89-23.68h22.74c6.25.02,11.32,5.09,11.35,11.35h-.01Z"/>
    <path class="cls-3" d="M559.82,187.94v13.32c-2.09-.14-4.16-.47-6.19-.99-12.56-2.98-22.92-11.78-27.89-23.68h22.74c6.25.02,11.32,5.09,11.35,11.35h-.01Z"/>
    <path class="cls-3" d="M553.61,187.94v12.33c-12.56-2.98-22.92-11.78-27.89-23.68h16.55c6.25.02,11.32,5.09,11.35,11.35h-.01Z"/>
    <path class="cls-9" d="M428.62,176.59h113.64c6.28,0,11.36,5.08,11.36,11.36v113.64c0,6.28-5.08,11.36-11.36,11.36h-113.64c-6.28,0-11.36-5.08-11.36-11.36v-113.64c0-6.28,5.08-11.36,11.36-11.36h0Z"/>
    <path class="cls-5" d="M515.34,219.84h-22.72v61.86h-14.47v-61.86h-22.61v-11.99h59.8v11.99Z"/>
  </g>
  <rect class="cls-4" x="314.74" y="416.07" width="521.16" height="17.36" rx="7.71" ry="7.71"/>
  <path class="cls-8" d="M266.16,433v-16.51c0-4.5,4.73-7.42,8.75-5.41l16.51,8.26c4.46,2.23,4.46,8.59,0,10.82l-16.51,8.26c-4.02,2.01-8.75-.91-8.75-5.41ZM520.33,425.72v-1.94c0-4.26-3.45-7.71-7.71-7.71h-190.17c-4.26,0-7.71,3.45-7.71,7.71v1.94c0,4.26,3.45,7.71,7.71,7.71h190.17c4.26,0,7.71-3.45,7.71-7.71Z"/>
</svg>