<?xml version="1.0" encoding="UTF-8"?>
<svg id="Capa_2" data-name="Capa 2" xmlns="http://www.w3.org/2000/svg" viewBox="0 0 1101.03 696.54">
  <defs>
    <style>
      .cls-1 {
        fill: #b81f2a;
      }

      .cls-2 {
        fill: #fff;
      }

      .cls-3 {
        fill: #2d2d2d;
        stroke: #505050;
        stroke-miterlimit: 10;
        stroke-width: 14.49px;
      }
    </style>
  </defs>
  <rect class="cls-3" x="7.24" y="7.24" width="1086.54" height="682.05" rx="94.33" ry="94.33"/>
  <g>
    <path class="cls-2" d="M143.11,433.31c0,8.71-2.72,15.37-8.17,19.99-5.44,4.61-13.19,6.92-23.23,6.92h-7.36v28.79h-17.16v-80.94h25.85c9.82,0,17.28,2.11,22.4,6.34,5.11,4.23,7.67,10.53,7.67,18.91ZM104.36,446.15h5.65c5.28,0,9.23-1.04,11.85-3.13,2.62-2.08,3.93-5.12,3.93-9.11s-1.1-6.99-3.29-8.91c-2.2-1.92-5.64-2.88-10.33-2.88h-7.81v24.03Z"/>
    <path class="cls-2" d="M191.61,425.94c2.29,0,4.19.17,5.7.5l-1.27,15.83c-1.37-.37-3.03-.55-4.98-.55-5.39,0-9.59,1.38-12.6,4.15-3.01,2.77-4.51,6.64-4.51,11.63v31.5h-16.89v-61.9h12.79l2.49,10.41h.83c1.92-3.47,4.51-6.27,7.78-8.39,3.27-2.12,6.82-3.18,10.66-3.18Z"/>
    <path class="cls-2" d="M236.57,490.11c-9.96,0-17.75-2.75-23.36-8.25-5.61-5.5-8.42-13.29-8.42-23.36s2.59-18.39,7.78-24.06c5.18-5.67,12.35-8.5,21.51-8.5s15.56,2.49,20.43,7.47c4.87,4.98,7.31,11.87,7.31,20.65v8.19h-39.92c.18,4.8,1.61,8.55,4.26,11.24,2.66,2.69,6.38,4.04,11.18,4.04,3.73,0,7.25-.39,10.57-1.16,3.32-.78,6.79-2.01,10.41-3.71v13.07c-2.95,1.48-6.11,2.57-9.47,3.29-3.36.72-7.46,1.08-12.29,1.08ZM234.19,437.96c-3.58,0-6.39,1.13-8.42,3.41-2.03,2.27-3.19,5.49-3.49,9.66h23.7c-.07-4.17-1.16-7.39-3.27-9.66-2.1-2.27-4.95-3.41-8.53-3.41Z"/>
    <path class="cls-2" d="M318.73,470.62c0,6.35-2.21,11.18-6.62,14.5-4.41,3.32-11.01,4.98-19.79,4.98-4.5,0-8.34-.3-11.52-.91-3.17-.61-6.15-1.5-8.91-2.68v-13.95c3.14,1.48,6.67,2.71,10.6,3.71,3.93,1,7.39,1.49,10.38,1.49,6.13,0,9.19-1.77,9.19-5.31,0-1.33-.41-2.41-1.22-3.24-.81-.83-2.21-1.77-4.21-2.82s-4.65-2.28-7.97-3.68c-4.76-1.99-8.26-3.84-10.49-5.54-2.23-1.7-3.86-3.64-4.87-5.84-1.02-2.2-1.52-4.9-1.52-8.11,0-5.5,2.13-9.75,6.39-12.76,4.26-3.01,10.31-4.51,18.13-4.51s14.71,1.62,21.76,4.87l-5.09,12.18c-3.1-1.33-6-2.42-8.69-3.27-2.7-.85-5.45-1.27-8.25-1.27-4.98,0-7.47,1.35-7.47,4.04,0,1.51.8,2.82,2.41,3.93s5.12,2.75,10.55,4.93c4.83,1.96,8.38,3.78,10.63,5.48,2.25,1.7,3.91,3.65,4.98,5.87s1.61,4.85,1.61,7.92Z"/>
    <path class="cls-2" d="M359.92,490.11c-9.96,0-17.75-2.75-23.36-8.25-5.61-5.5-8.42-13.29-8.42-23.36s2.59-18.39,7.78-24.06c5.18-5.67,12.35-8.5,21.51-8.5s15.56,2.49,20.43,7.47c4.87,4.98,7.31,11.87,7.31,20.65v8.19h-39.92c.18,4.8,1.61,8.55,4.26,11.24,2.66,2.69,6.38,4.04,11.18,4.04,3.73,0,7.25-.39,10.57-1.16,3.32-.78,6.79-2.01,10.41-3.71v13.07c-2.95,1.48-6.11,2.57-9.47,3.29-3.36.72-7.46,1.08-12.29,1.08ZM357.54,437.96c-3.58,0-6.39,1.13-8.42,3.41-2.03,2.27-3.19,5.49-3.49,9.66h23.7c-.07-4.17-1.16-7.39-3.27-9.66-2.1-2.27-4.95-3.41-8.53-3.41Z"/>
    <path class="cls-2" d="M456.03,489h-16.89v-36.15c0-4.47-.79-7.82-2.38-10.05s-4.12-3.35-7.58-3.35c-4.72,0-8.14,1.58-10.24,4.73-2.1,3.16-3.16,8.39-3.16,15.7v29.12h-16.89v-61.9h12.9l2.27,7.92h.94c1.88-2.99,4.47-5.25,7.78-6.78,3.3-1.53,7.06-2.3,11.27-2.3,7.2,0,12.66,1.95,16.39,5.84,3.73,3.89,5.59,9.51,5.59,16.86v40.36Z"/>
    <path class="cls-2" d="M499.49,476.66c2.95,0,6.5-.64,10.63-1.94v12.57c-4.21,1.88-9.38,2.82-15.5,2.82-6.75,0-11.67-1.71-14.75-5.12s-4.62-8.54-4.62-15.36v-29.84h-8.08v-7.14l9.3-5.65,4.87-13.07h10.8v13.18h17.33v12.68h-17.33v29.84c0,2.4.67,4.17,2.02,5.32,1.35,1.14,3.13,1.72,5.34,1.72Z"/>
    <path class="cls-2" d="M561.94,489l-3.27-8.42h-.44c-2.84,3.58-5.77,6.06-8.78,7.45s-6.93,2.08-11.76,2.08c-5.94,0-10.62-1.7-14.04-5.09-3.41-3.4-5.12-8.23-5.12-14.5s2.3-11.41,6.89-14.53c4.59-3.12,11.52-4.84,20.79-5.18l10.74-.33v-2.71c0-6.27-3.21-9.41-9.63-9.41-4.95,0-10.76,1.5-17.44,4.48l-5.59-11.41c7.12-3.73,15.02-5.59,23.7-5.59s14.67,1.81,19.1,5.43c4.43,3.62,6.64,9.12,6.64,16.5v41.25h-11.79ZM556.96,460.32l-6.53.22c-4.91.15-8.56,1.03-10.96,2.66-2.4,1.62-3.6,4.1-3.6,7.42,0,4.76,2.73,7.14,8.19,7.14,3.91,0,7.04-1.12,9.38-3.38,2.34-2.25,3.52-5.24,3.52-8.97v-5.09Z"/>
    <path class="cls-2" d="M616.25,490.11c-19.27,0-28.9-10.57-28.9-31.72,0-10.52,2.62-18.56,7.86-24.11,5.24-5.55,12.75-8.33,22.53-8.33,7.16,0,13.58,1.4,19.27,4.21l-4.98,13.07c-2.66-1.07-5.13-1.95-7.42-2.63-2.29-.68-4.58-1.02-6.87-1.02-8.78,0-13.18,6.24-13.18,18.71s4.39,18.16,13.18,18.16c3.25,0,6.26-.43,9.02-1.3,2.77-.87,5.54-2.22,8.3-4.07v14.45c-2.73,1.74-5.49,2.93-8.28,3.6-2.79.67-6.3,1-10.55,1Z"/>
    <path class="cls-2" d="M648.7,411.11c0-5.5,3.06-8.25,9.19-8.25s9.19,2.75,9.19,8.25c0,2.62-.77,4.66-2.3,6.12-1.53,1.46-3.83,2.19-6.89,2.19-6.13,0-9.19-2.77-9.19-8.3ZM666.3,489h-16.89v-61.9h16.89v61.9Z"/>
    <path class="cls-2" d="M740.27,457.94c0,10.08-2.66,17.96-7.97,23.64-5.31,5.68-12.72,8.53-22.2,8.53-5.94,0-11.18-1.3-15.72-3.9-4.54-2.6-8.03-6.34-10.46-11.21-2.44-4.87-3.65-10.56-3.65-17.05,0-10.11,2.64-17.97,7.92-23.58,5.28-5.61,12.7-8.42,22.26-8.42,5.94,0,11.18,1.29,15.72,3.88,4.54,2.58,8.03,6.29,10.46,11.13,2.44,4.83,3.65,10.5,3.65,17ZM697.47,457.94c0,6.13,1.01,10.76,3.02,13.9,2.01,3.14,5.29,4.71,9.83,4.71s7.74-1.56,9.72-4.68c1.97-3.12,2.96-7.76,2.96-13.92s-1-10.72-2.99-13.79-5.26-4.6-9.8-4.6-7.75,1.52-9.74,4.57c-1.99,3.05-2.99,7.65-2.99,13.81ZM701.02,420.3v-1.5c6.35-7.38,10.68-12.94,13.01-16.66h18.93v1.16c-1.92,1.92-5.2,4.77-9.83,8.55-4.63,3.78-8.26,6.6-10.88,8.44h-11.24Z"/>
    <path class="cls-2" d="M811.36,489h-16.89v-36.15c0-4.47-.79-7.82-2.38-10.05-1.59-2.23-4.12-3.35-7.58-3.35-4.72,0-8.14,1.58-10.24,4.73-2.1,3.16-3.16,8.39-3.16,15.7v29.12h-16.89v-61.9h12.9l2.27,7.92h.94c1.88-2.99,4.47-5.25,7.78-6.78,3.3-1.53,7.06-2.3,11.27-2.3,7.2,0,12.66,1.95,16.39,5.84,3.73,3.89,5.59,9.51,5.59,16.86v40.36Z"/>
    <path class="cls-2" d="M877.8,490.11c-7.27,0-12.98-2.82-17.13-8.47s-6.23-13.47-6.23-23.47,2.11-18.06,6.34-23.72c4.23-5.67,10.05-8.5,17.47-8.5,7.79,0,13.73,3.03,17.83,9.08h.55c-.85-4.61-1.27-8.73-1.27-12.35v-19.82h16.94v86.15h-12.96l-3.27-8.03h-.72c-3.84,6.09-9.69,9.13-17.55,9.13ZM883.72,476.66c4.32,0,7.48-1.25,9.5-3.76,2.01-2.51,3.11-6.77,3.29-12.79v-1.83c0-6.64-1.02-11.4-3.07-14.28s-5.38-4.32-9.99-4.32c-3.76,0-6.69,1.6-8.78,4.79-2.09,3.19-3.13,7.83-3.13,13.92s1.05,10.66,3.16,13.7c2.1,3.04,5.11,4.57,9.02,4.57Z"/>
    <path class="cls-2" d="M957.96,490.11c-9.96,0-17.75-2.75-23.36-8.25s-8.42-13.29-8.42-23.36,2.59-18.39,7.78-24.06c5.19-5.67,12.35-8.5,21.51-8.5s15.56,2.49,20.43,7.47c4.87,4.98,7.31,11.87,7.31,20.65v8.19h-39.92c.18,4.8,1.61,8.55,4.26,11.24,2.66,2.69,6.39,4.04,11.18,4.04,3.73,0,7.25-.39,10.58-1.16,3.32-.78,6.79-2.01,10.41-3.71v13.07c-2.95,1.48-6.11,2.57-9.47,3.29s-7.46,1.08-12.29,1.08ZM955.58,437.96c-3.58,0-6.39,1.13-8.42,3.41-2.03,2.27-3.19,5.49-3.49,9.66h23.7c-.07-4.17-1.16-7.39-3.27-9.66-2.1-2.27-4.95-3.41-8.53-3.41Z"/>
    <path class="cls-2" d="M1013.83,489h-16.89v-86.15h16.89v86.15Z"/>
    <path class="cls-2" d="M428.4,576.17c-19.27,0-28.9-10.57-28.9-31.72,0-10.52,2.62-18.56,7.86-24.11,5.24-5.55,12.75-8.33,22.53-8.33,7.16,0,13.58,1.4,19.27,4.21l-4.98,13.07c-2.66-1.07-5.13-1.95-7.42-2.63-2.29-.68-4.58-1.02-6.87-1.02-8.79,0-13.18,6.24-13.18,18.71s4.39,18.16,13.18,18.16c3.25,0,6.26-.43,9.02-1.3,2.77-.87,5.54-2.22,8.3-4.07v14.45c-2.73,1.74-5.49,2.93-8.28,3.6-2.79.67-6.3,1-10.55,1Z"/>
    <path class="cls-2" d="M505.42,575.07l-2.27-7.92h-.89c-1.81,2.88-4.37,5.1-7.7,6.67-3.32,1.57-7.11,2.35-11.35,2.35-7.27,0-12.75-1.95-16.44-5.84-3.69-3.89-5.54-9.5-5.54-16.8v-40.36h16.89v36.15c0,4.47.79,7.82,2.38,10.05s4.12,3.35,7.58,3.35c4.72,0,8.14-1.58,10.24-4.73,2.1-3.16,3.16-8.39,3.16-15.7v-29.12h16.89v61.9h-12.96Z"/>
    <path class="cls-2" d="M570.63,512.01c2.29,0,4.19.17,5.7.5l-1.27,15.83c-1.37-.37-3.03-.55-4.98-.55-5.39,0-9.59,1.38-12.59,4.15-3.01,2.77-4.51,6.64-4.51,11.63v31.5h-16.89v-61.9h12.79l2.49,10.41h.83c1.92-3.47,4.51-6.27,7.78-8.39s6.82-3.18,10.66-3.18Z"/>
    <path class="cls-2" d="M630.76,556.69c0,6.35-2.21,11.18-6.62,14.5-4.41,3.32-11.01,4.98-19.79,4.98-4.5,0-8.34-.3-11.52-.91-3.17-.61-6.15-1.5-8.91-2.68v-13.95c3.14,1.48,6.67,2.71,10.6,3.71,3.93,1,7.39,1.49,10.38,1.49,6.13,0,9.19-1.77,9.19-5.31,0-1.33-.41-2.41-1.22-3.24-.81-.83-2.21-1.77-4.21-2.82s-4.65-2.28-7.97-3.68c-4.76-1.99-8.26-3.84-10.49-5.54-2.23-1.7-3.86-3.64-4.87-5.84-1.02-2.2-1.52-4.9-1.52-8.11,0-5.5,2.13-9.75,6.39-12.76,4.26-3.01,10.31-4.51,18.13-4.51s14.71,1.62,21.76,4.87l-5.09,12.18c-3.1-1.33-6-2.42-8.69-3.27-2.69-.85-5.44-1.27-8.25-1.27-4.98,0-7.47,1.35-7.47,4.04,0,1.51.8,2.82,2.41,3.93s5.12,2.75,10.55,4.93c4.83,1.96,8.38,3.78,10.63,5.48,2.25,1.7,3.91,3.65,4.98,5.87s1.61,4.85,1.61,7.92Z"/>
    <path class="cls-2" d="M700.19,544.01c0,10.08-2.66,17.96-7.97,23.64-5.31,5.68-12.72,8.53-22.2,8.53-5.94,0-11.18-1.3-15.72-3.9-4.54-2.6-8.03-6.34-10.46-11.21-2.44-4.87-3.65-10.56-3.65-17.05,0-10.11,2.64-17.97,7.92-23.58,5.28-5.61,12.7-8.42,22.26-8.42,5.94,0,11.18,1.29,15.72,3.88,4.54,2.58,8.03,6.29,10.46,11.13,2.44,4.83,3.65,10.5,3.65,17ZM657.39,544.01c0,6.13,1.01,10.76,3.02,13.9,2.01,3.14,5.29,4.71,9.83,4.71s7.74-1.56,9.72-4.68c1.97-3.12,2.96-7.76,2.96-13.92s-1-10.72-2.99-13.79-5.26-4.6-9.8-4.6-7.75,1.52-9.74,4.57c-1.99,3.05-2.99,7.65-2.99,13.81Z"/>
  </g>
  <g>
    <path class="cls-1" d="M64.83,259.9v-111.3h23.6v111.3h-23.6Z"/>
    <path class="cls-1" d="M193.18,259.9h-23.22v-49.71c0-6.14-1.09-10.75-3.27-13.82-2.18-3.07-5.66-4.61-10.43-4.61-6.5,0-11.19,2.17-14.08,6.51-2.89,4.34-4.34,11.53-4.34,21.58v40.04h-23.22v-85.11h17.74l3.12,10.89h1.29c2.59-4.11,6.15-7.22,10.7-9.33,4.54-2.11,9.71-3.16,15.49-3.16,9.9,0,17.41,2.68,22.53,8.03,5.12,5.35,7.69,13.08,7.69,23.18v55.5Z"/>
    <path class="cls-1" d="M252.93,242.93c4.06,0,8.93-.89,14.62-2.67v17.28c-5.79,2.59-12.89,3.88-21.32,3.88-9.29,0-16.05-2.35-20.29-7.04-4.24-4.69-6.36-11.73-6.36-21.12v-41.03h-11.11v-9.82l12.79-7.76,6.7-17.97h14.84v18.12h23.83v17.43h-23.83v41.03c0,3.3.93,5.74,2.78,7.31,1.85,1.57,4.3,2.36,7.35,2.36Z"/>
    <path class="cls-1" d="M332.26,173.19c3.15,0,5.76.23,7.84.68l-1.75,21.77c-1.88-.51-4.16-.76-6.85-.76-7.41,0-13.18,1.9-17.32,5.71-4.14,3.81-6.2,9.13-6.2,15.99v43.32h-23.22v-85.11h17.58l3.43,14.31h1.14c2.64-4.77,6.21-8.61,10.7-11.53,4.49-2.92,9.38-4.38,14.65-4.38Z"/>
    <path class="cls-1" d="M432.9,217.2c0,13.85-3.65,24.69-10.96,32.5-7.31,7.82-17.48,11.72-30.53,11.72-8.17,0-15.38-1.79-21.62-5.37-6.24-3.58-11.04-8.72-14.39-15.42s-5.02-14.51-5.02-23.45c0-13.91,3.63-24.71,10.89-32.43,7.26-7.71,17.46-11.57,30.6-11.57,8.17,0,15.38,1.78,21.62,5.33,6.24,3.55,11.04,8.65,14.39,15.3,3.35,6.65,5.02,14.44,5.02,23.37ZM374.05,217.2c0,8.42,1.38,14.79,4.15,19.11,2.77,4.31,7.27,6.47,13.51,6.47s10.64-2.14,13.36-6.43c2.71-4.29,4.07-10.67,4.07-19.15s-1.37-14.74-4.11-18.96c-2.74-4.21-7.23-6.32-13.47-6.32s-10.66,2.09-13.4,6.28c-2.74,4.19-4.11,10.52-4.11,18.99Z"/>
    <path class="cls-1" d="M479.03,261.42c-10,0-17.85-3.88-23.56-11.65-5.71-7.76-8.56-18.52-8.56-32.28s2.91-24.83,8.72-32.62c5.81-7.79,13.82-11.69,24.02-11.69,10.71,0,18.88,4.16,24.51,12.48h.76c-1.17-6.34-1.75-12-1.75-16.98v-27.25h23.29v118.45h-17.81l-4.49-11.04h-.99c-5.28,8.37-13.32,12.56-24.13,12.56ZM487.17,242.93c5.94,0,10.29-1.73,13.06-5.18,2.77-3.45,4.28-9.31,4.53-17.58v-2.51c0-9.13-1.41-15.68-4.23-19.64-2.82-3.96-7.4-5.94-13.74-5.94-5.18,0-9.2,2.2-12.07,6.58-2.87,4.39-4.3,10.77-4.3,19.15s1.45,14.65,4.34,18.84c2.89,4.19,7.03,6.28,12.41,6.28Z"/>
    <path class="cls-1" d="M611.03,259.9l-3.12-10.89h-1.22c-2.49,3.96-6.01,7.02-10.58,9.17s-9.77,3.24-15.61,3.24c-10,0-17.54-2.68-22.61-8.03-5.08-5.35-7.61-13.06-7.61-23.1v-55.5h23.22v49.71c0,6.14,1.09,10.75,3.27,13.82,2.18,3.07,5.66,4.61,10.43,4.61,6.5,0,11.19-2.17,14.08-6.51,2.89-4.34,4.34-11.53,4.34-21.58v-40.04h23.22v85.11h-17.81Z"/>
    <path class="cls-1" d="M687.76,261.42c-26.49,0-39.74-14.54-39.74-43.62,0-14.46,3.6-25.51,10.81-33.15,7.21-7.64,17.53-11.46,30.98-11.46,9.84,0,18.68,1.93,26.49,5.79l-6.85,17.97c-3.65-1.47-7.05-2.68-10.2-3.62-3.15-.94-6.29-1.41-9.44-1.41-12.08,0-18.12,8.58-18.12,25.73s6.04,24.97,18.12,24.97c4.46,0,8.6-.6,12.41-1.79s7.61-3.06,11.42-5.6v19.87c-3.76,2.39-7.55,4.03-11.38,4.95-3.83.91-8.67,1.37-14.5,1.37Z"/>
    <path class="cls-1" d="M767.93,261.42c-26.49,0-39.74-14.54-39.74-43.62,0-14.46,3.6-25.51,10.81-33.15,7.21-7.64,17.53-11.46,30.98-11.46,9.84,0,18.68,1.93,26.49,5.79l-6.85,17.97c-3.65-1.47-7.05-2.68-10.2-3.62-3.15-.94-6.29-1.41-9.44-1.41-12.08,0-18.12,8.58-18.12,25.73s6.04,24.97,18.12,24.97c4.46,0,8.6-.6,12.41-1.79s7.61-3.06,11.42-5.6v19.87c-3.76,2.39-7.55,4.03-11.38,4.95-3.83.91-8.67,1.37-14.5,1.37Z"/>
    <path class="cls-1" d="M812.53,152.79c0-7.56,4.21-11.34,12.64-11.34s12.64,3.78,12.64,11.34c0,3.6-1.05,6.41-3.16,8.41-2.11,2.01-5.27,3.01-9.48,3.01-8.42,0-12.64-3.81-12.64-11.42ZM836.74,259.9h-23.22v-85.11h23.22v85.11Z"/>
    <path class="cls-1" d="M938.45,217.2c0,13.85-3.65,24.69-10.96,32.5-7.31,7.82-17.48,11.72-30.53,11.72-8.17,0-15.38-1.79-21.62-5.37-6.24-3.58-11.04-8.72-14.39-15.42-3.35-6.7-5.02-14.51-5.02-23.45,0-13.91,3.63-24.71,10.89-32.43,7.26-7.71,17.46-11.57,30.6-11.57,8.17,0,15.38,1.78,21.62,5.33,6.24,3.55,11.04,8.65,14.39,15.3,3.35,6.65,5.02,14.44,5.02,23.37ZM879.6,217.2c0,8.42,1.38,14.79,4.15,19.11,2.77,4.31,7.27,6.47,13.51,6.47s10.64-2.14,13.36-6.43c2.71-4.29,4.07-10.67,4.07-19.15s-1.37-14.74-4.11-18.96c-2.74-4.21-7.23-6.32-13.47-6.32s-10.66,2.09-13.4,6.28c-2.74,4.19-4.11,10.52-4.11,18.99ZM884.47,165.43v-2.06c8.73-10.15,14.69-17.79,17.89-22.91h26.04v1.6c-2.64,2.64-7.14,6.56-13.51,11.76-6.37,5.2-11.36,9.07-14.96,11.61h-15.45Z"/>
    <path class="cls-1" d="M1036.19,259.9h-23.22v-49.71c0-6.14-1.09-10.75-3.27-13.82-2.18-3.07-5.66-4.61-10.43-4.61-6.5,0-11.19,2.17-14.08,6.51-2.89,4.34-4.34,11.53-4.34,21.58v40.04h-23.22v-85.11h17.74l3.12,10.89h1.29c2.59-4.11,6.15-7.22,10.7-9.33,4.54-2.11,9.71-3.16,15.49-3.16,9.9,0,17.41,2.68,22.53,8.03,5.13,5.35,7.69,13.08,7.69,23.18v55.5Z"/>
  </g>
</svg>