<?xml version="1.0" encoding="UTF-8"?>
<svg id="Capa_2" data-name="Capa 2" xmlns="http://www.w3.org/2000/svg" viewBox="0 0 1101.03 696.54">
  <defs>
    <style>
      .cls-1 {
        fill: #b81f2a;
      }

      .cls-2 {
        fill: #fff;
      }

      .cls-3 {
        fill: #2d2d2d;
        stroke: #505050;
        stroke-miterlimit: 10;
        stroke-width: 14.49px;
      }
    </style>
  </defs>
  <rect class="cls-3" x="7.24" y="7.24" width="1086.54" height="682.05" rx="94.33" ry="94.33"/>
  <g>
    <path class="cls-2" d="M100.04,488.21v4.1c0,3.62-.82,6.74-2.46,9.36-1.64,2.62-4.46,5.35-8.44,8.19-4.02,2.88-6.56,5.13-7.61,6.75s-1.58,3.6-1.58,5.92c0,2.1.8,3.84,2.41,5.2,1.61,1.37,4.05,2.05,7.34,2.05,2.92,0,6.03-.54,9.36-1.61s6.75-2.38,10.3-3.93l5.65,12.24c-3.62,2.07-7.71,3.74-12.26,5.01s-8.79,1.91-12.71,1.91c-8.12,0-14.5-1.78-19.13-5.34-4.63-3.56-6.95-8.46-6.95-14.7,0-3.99.89-7.44,2.68-10.35,1.79-2.92,5.32-6.31,10.6-10.19,3.51-2.58,5.75-4.56,6.73-5.92.98-1.37,1.47-3.17,1.47-5.43v-3.27h14.62ZM101.81,469.28c0,3.1-.83,5.45-2.49,7.03-1.66,1.59-4.08,2.38-7.25,2.38s-5.44-.81-7.11-2.44c-1.68-1.62-2.52-3.95-2.52-6.98s.86-5.31,2.57-6.95c1.72-1.64,4.07-2.46,7.06-2.46s5.5.81,7.2,2.44c1.7,1.62,2.55,3.95,2.55,6.98Z"/>
    <path class="cls-2" d="M198.31,481.18c0,9.52-1.69,17.5-5.07,23.95-3.38,6.44-8.33,11.16-14.87,14.15l19.49,21.76h-21.98l-14.84-18.16h-1.27c-12.4,0-21.92-3.6-28.57-10.8-6.64-7.2-9.96-17.53-9.96-31s3.33-23.76,9.99-30.87c6.66-7.1,16.21-10.66,28.65-10.66s21.95,3.58,28.54,10.74c6.59,7.16,9.88,17.46,9.88,30.89ZM139.24,481.18c0,9.04,1.72,15.85,5.15,20.43,3.43,4.58,8.56,6.87,15.39,6.87,13.69,0,20.54-9.1,20.54-27.29s-6.81-27.35-20.43-27.35c-6.83,0-11.98,2.3-15.45,6.89-3.47,4.6-5.2,11.42-5.2,20.46Z"/>
    <path class="cls-2" d="M257.61,521.76l-2.27-7.92h-.89c-1.81,2.88-4.37,5.1-7.7,6.67s-7.11,2.35-11.35,2.35c-7.27,0-12.75-1.95-16.44-5.84-3.69-3.89-5.54-9.5-5.54-16.8v-40.36h16.89v36.15c0,4.47.79,7.82,2.38,10.05s4.11,3.35,7.58,3.35c4.72,0,8.14-1.58,10.24-4.73,2.1-3.16,3.16-8.39,3.16-15.7v-29.12h16.89v61.9h-12.96Z"/>
    <path class="cls-2" d="M316.29,522.87c-9.97,0-17.75-2.75-23.36-8.25s-8.42-13.29-8.42-23.36,2.59-18.39,7.78-24.06c5.19-5.67,12.36-8.5,21.51-8.5s15.56,2.49,20.43,7.47c4.87,4.98,7.31,11.87,7.31,20.65v8.19h-39.92c.18,4.8,1.61,8.55,4.26,11.24,2.66,2.69,6.39,4.04,11.18,4.04,3.73,0,7.25-.39,10.58-1.16s6.79-2.01,10.41-3.71v13.07c-2.95,1.48-6.11,2.57-9.47,3.29-3.36.72-7.46,1.08-12.29,1.08ZM313.91,470.72c-3.58,0-6.39,1.13-8.42,3.41-2.03,2.27-3.19,5.49-3.49,9.66h23.7c-.08-4.17-1.16-7.39-3.27-9.66-2.1-2.27-4.95-3.41-8.53-3.41ZM304.17,453.06v-1.5c6.35-7.38,10.69-12.94,13.01-16.66h18.93v1.16c-1.92,1.92-5.2,4.77-9.83,8.55-4.63,3.78-8.26,6.6-10.88,8.44h-11.24Z"/>
    <path class="cls-2" d="M412.74,522.87c-9.96,0-17.75-2.75-23.36-8.25-5.61-5.5-8.42-13.29-8.42-23.36s2.59-18.39,7.78-24.06c5.19-5.67,12.35-8.5,21.51-8.5s15.56,2.49,20.43,7.47c4.87,4.98,7.31,11.87,7.31,20.65v8.19h-39.92c.18,4.8,1.61,8.55,4.26,11.24,2.66,2.69,6.38,4.04,11.18,4.04,3.73,0,7.25-.39,10.57-1.16s6.79-2.01,10.41-3.71v13.07c-2.95,1.48-6.11,2.57-9.47,3.29-3.36.72-7.46,1.08-12.29,1.08ZM410.36,470.72c-3.58,0-6.39,1.13-8.42,3.41-2.03,2.27-3.19,5.49-3.49,9.66h23.7c-.07-4.17-1.16-7.39-3.27-9.66-2.1-2.27-4.95-3.41-8.53-3.41Z"/>
    <path class="cls-2" d="M494.9,503.38c0,6.35-2.21,11.18-6.62,14.5-4.41,3.32-11.01,4.98-19.79,4.98-4.5,0-8.34-.3-11.52-.91-3.18-.61-6.15-1.5-8.91-2.68v-13.95c3.14,1.48,6.67,2.71,10.6,3.71,3.93,1,7.39,1.49,10.38,1.49,6.13,0,9.19-1.77,9.19-5.31,0-1.33-.41-2.41-1.22-3.24-.81-.83-2.21-1.77-4.21-2.82s-4.65-2.28-7.97-3.68c-4.76-1.99-8.26-3.84-10.49-5.54-2.23-1.7-3.86-3.64-4.87-5.84-1.02-2.2-1.52-4.9-1.52-8.11,0-5.5,2.13-9.75,6.4-12.76,4.26-3.01,10.31-4.51,18.13-4.51s14.71,1.62,21.76,4.87l-5.09,12.18c-3.1-1.33-6-2.42-8.69-3.27-2.7-.85-5.45-1.27-8.25-1.27-4.98,0-7.47,1.35-7.47,4.04,0,1.51.8,2.82,2.41,3.93s5.12,2.75,10.55,4.93c4.83,1.96,8.38,3.78,10.63,5.48,2.25,1.7,3.91,3.65,4.98,5.87s1.61,4.85,1.61,7.92Z"/>
    <path class="cls-2" d="M573.24,453.94c-6.46,0-11.46,2.43-15,7.28-3.54,4.85-5.32,11.62-5.32,20.29,0,18.05,6.77,27.07,20.32,27.07,5.68,0,12.57-1.42,20.65-4.26v14.39c-6.64,2.77-14.06,4.15-22.26,4.15-11.77,0-20.78-3.57-27.02-10.71-6.24-7.14-9.36-17.39-9.36-30.75,0-8.42,1.53-15.79,4.59-22.12,3.06-6.33,7.46-11.18,13.2-14.56s12.47-5.07,20.18-5.07,15.76,1.9,23.7,5.7l-5.54,13.95c-3.03-1.44-6.07-2.69-9.13-3.76-3.06-1.07-6.07-1.61-9.02-1.61Z"/>
    <path class="cls-2" d="M660.66,521.76l-5.87-19.27h-29.51l-5.87,19.27h-18.49l28.57-81.27h20.98l28.68,81.27h-18.49ZM650.69,488.1c-5.43-17.46-8.48-27.33-9.16-29.62-.68-2.29-1.17-4.1-1.47-5.43-1.22,4.72-4.71,16.41-10.46,35.05h21.09Z"/>
    <path class="cls-2" d="M761.14,521.76h-21.81l-35.21-61.23h-.5c.7,10.81,1.05,18.53,1.05,23.14v38.09h-15.34v-80.94h21.65l35.16,60.62h.39c-.55-10.52-.83-17.96-.83-22.31v-38.31h15.45v80.94Z"/>
    <path class="cls-2" d="M827.69,440.82h17.33l-27.52,80.94h-18.71l-27.46-80.94h17.33l15.22,48.17c.85,2.84,1.73,6.15,2.63,9.94.9,3.78,1.47,6.41,1.69,7.89.41-3.4,1.79-9.34,4.15-17.83l15.34-48.17Z"/>
    <path class="cls-2" d="M904.76,521.76l-5.87-19.27h-29.51l-5.87,19.27h-18.49l28.57-81.27h20.98l28.68,81.27h-18.49ZM894.79,488.1c-5.43-17.46-8.48-27.33-9.16-29.62-.68-2.29-1.17-4.1-1.47-5.43-1.22,4.72-4.71,16.41-10.46,35.05h21.09Z"/>
    <path class="cls-2" d="M981.21,499.29c0,7.31-2.63,13.07-7.89,17.27s-12.58,6.31-21.95,6.31c-8.64,0-16.28-1.62-22.92-4.87v-15.95c5.46,2.44,10.08,4.15,13.87,5.15,3.78,1,7.24,1.49,10.38,1.49,3.76,0,6.65-.72,8.66-2.16s3.02-3.58,3.02-6.42c0-1.59-.44-3-1.33-4.24-.89-1.24-2.19-2.43-3.9-3.57-1.72-1.14-5.21-2.97-10.49-5.48-4.95-2.33-8.66-4.56-11.13-6.7-2.47-2.14-4.45-4.63-5.92-7.47-1.48-2.84-2.21-6.16-2.21-9.96,0-7.16,2.43-12.79,7.28-16.89,4.85-4.1,11.56-6.15,20.12-6.15,4.21,0,8.22.5,12.04,1.5,3.82,1,7.81,2.4,11.99,4.21l-5.54,13.34c-4.32-1.77-7.89-3.01-10.71-3.71-2.82-.7-5.6-1.05-8.33-1.05-3.25,0-5.74.76-7.47,2.27s-2.6,3.49-2.6,5.92c0,1.51.35,2.83,1.05,3.96.7,1.13,1.82,2.21,3.35,3.27,1.53,1.05,5.16,2.94,10.88,5.67,7.57,3.62,12.75,7.24,15.56,10.88,2.8,3.64,4.21,8.09,4.21,13.37Z"/>
    <path class="cls-2" d="M1000.98,494.91v-4.1c0-3.54.76-6.62,2.27-9.25,1.51-2.62,4.28-5.41,8.3-8.36,3.88-2.77,6.43-5.02,7.67-6.75,1.24-1.73,1.85-3.67,1.85-5.81,0-2.4-.89-4.23-2.66-5.48-1.77-1.25-4.25-1.88-7.42-1.88-5.54,0-11.85,1.81-18.93,5.43l-6.04-12.12c8.23-4.61,16.96-6.92,26.19-6.92,7.6,0,13.65,1.83,18.13,5.48s6.73,8.53,6.73,14.62c0,4.06-.92,7.57-2.77,10.52s-5.35,6.27-10.52,9.96c-3.54,2.62-5.79,4.61-6.73,5.98-.94,1.37-1.41,3.16-1.41,5.37v3.32h-14.67ZM999.21,513.85c0-3.1.83-5.44,2.49-7.03s4.08-2.38,7.25-2.38,5.43.81,7.11,2.44c1.68,1.62,2.52,3.95,2.52,6.98s-.85,5.21-2.55,6.89c-1.7,1.68-4.06,2.52-7.09,2.52s-5.5-.82-7.2-2.46c-1.7-1.64-2.55-3.96-2.55-6.95Z"/>
  </g>
  <g>
    <path class="cls-1" d="M316.35,148.11v72.01c0,8.22-1.84,15.43-5.52,21.62-3.68,6.19-9,10.94-15.95,14.24-6.95,3.3-15.18,4.95-24.67,4.95-14.31,0-25.43-3.67-33.34-11-7.92-7.33-11.88-17.37-11.88-30.11v-71.71h23.52v68.13c0,8.58,1.72,14.87,5.18,18.88,3.45,4.01,9.16,6.01,17.13,6.01s13.31-2.02,16.79-6.05c3.48-4.03,5.21-10.37,5.21-18.99v-67.98h23.52Z"/>
    <path class="cls-1" d="M420.33,259.41h-23.22v-49.71c0-6.14-1.09-10.75-3.27-13.82-2.18-3.07-5.66-4.61-10.43-4.61-6.5,0-11.19,2.17-14.08,6.51-2.89,4.34-4.34,11.53-4.34,21.58v40.04h-23.22v-85.11h17.74l3.12,10.89h1.29c2.59-4.11,6.15-7.22,10.7-9.33,4.54-2.11,9.71-3.16,15.49-3.16,9.9,0,17.41,2.68,22.53,8.03,5.13,5.35,7.69,13.08,7.69,23.18v55.5Z"/>
    <path class="cls-1" d="M443.25,152.3c0-7.56,4.21-11.34,12.64-11.34s12.64,3.78,12.64,11.34c0,3.6-1.05,6.41-3.16,8.41-2.11,2.01-5.27,3.01-9.48,3.01-8.43,0-12.64-3.81-12.64-11.42ZM467.46,259.41h-23.22v-85.11h23.22v85.11Z"/>
    <path class="cls-1" d="M518.76,260.93c-10,0-17.85-3.88-23.56-11.65-5.71-7.76-8.56-18.52-8.56-32.28s2.91-24.83,8.72-32.62c5.81-7.79,13.82-11.69,24.02-11.69,10.71,0,18.88,4.16,24.51,12.48h.76c-1.17-6.34-1.75-12-1.75-16.98v-27.25h23.29v118.45h-17.81l-4.49-11.04h-.99c-5.28,8.37-13.32,12.56-24.13,12.56ZM526.91,242.43c5.94,0,10.29-1.73,13.05-5.18s4.28-9.31,4.53-17.58v-2.51c0-9.13-1.41-15.68-4.23-19.64-2.82-3.96-7.4-5.94-13.74-5.94-5.18,0-9.2,2.2-12.07,6.58-2.87,4.39-4.3,10.77-4.3,19.15s1.45,14.65,4.34,18.84c2.89,4.19,7.03,6.28,12.41,6.28Z"/>
    <path class="cls-1" d="M644.53,259.41l-4.49-11.57h-.61c-3.91,4.92-7.93,8.34-12.07,10.24-4.14,1.9-9.53,2.85-16.18,2.85-8.17,0-14.6-2.33-19.3-7-4.7-4.67-7.04-11.32-7.04-19.94s3.16-15.69,9.48-19.98c6.32-4.29,15.85-6.66,28.58-7.12l14.77-.46v-3.73c0-8.63-4.42-12.94-13.25-12.94-6.8,0-14.79,2.06-23.98,6.17l-7.69-15.68c9.79-5.12,20.66-7.69,32.58-7.69s20.17,2.49,26.26,7.46c6.09,4.97,9.13,12.54,9.13,22.69v56.71h-16.21ZM637.67,219.97l-8.98.3c-6.75.2-11.77,1.42-15.07,3.65-3.3,2.23-4.95,5.63-4.95,10.2,0,6.55,3.75,9.82,11.27,9.82,5.38,0,9.68-1.55,12.9-4.64,3.22-3.09,4.83-7.21,4.83-12.33v-7Z"/>
    <path class="cls-1" d="M711.59,260.93c-10,0-17.85-3.88-23.56-11.65-5.71-7.76-8.56-18.52-8.56-32.28s2.9-24.83,8.72-32.62c5.81-7.79,13.82-11.69,24.02-11.69,10.71,0,18.88,4.16,24.51,12.48h.76c-1.17-6.34-1.75-12-1.75-16.98v-27.25h23.29v118.45h-17.81l-4.49-11.04h-.99c-5.28,8.37-13.32,12.56-24.13,12.56ZM719.74,242.43c5.94,0,10.29-1.73,13.06-5.18,2.76-3.45,4.27-9.31,4.53-17.58v-2.51c0-9.13-1.41-15.68-4.23-19.64-2.82-3.96-7.4-5.94-13.74-5.94-5.18,0-9.2,2.2-12.07,6.58-2.87,4.39-4.3,10.77-4.3,19.15s1.45,14.65,4.34,18.84c2.89,4.19,7.03,6.28,12.41,6.28Z"/>
    <path class="cls-1" d="M876.02,259.41h-23.52v-64.4l.23-10.58.38-11.57c-3.91,3.91-6.62,6.47-8.15,7.69l-12.79,10.28-11.34-14.16,35.86-28.55h19.34v111.3Z"/>
  </g>
</svg>