<?xml version="1.0" encoding="UTF-8"?>
<svg id="Capa_2" xmlns="http://www.w3.org/2000/svg" xmlns:xlink="http://www.w3.org/1999/xlink" version="1.1" viewBox="0 0 1101.03 696.54">
  <!-- Generator: Adobe Illustrator 30.1.0, SVG Export Plug-In . SVG Version: 2.1.1 Build 136)  -->
  <defs>
    <radialGradient id="Degradado_sin_nombre_7" data-name="Degradado sin nombre 7" cx="-412.16" cy="592.25" fx="-412.16" fy="592.25" r="1.32" gradientTransform="translate(19949.23 -80850.12) rotate(-130.29) scale(119.75 -113.31)" gradientUnits="userSpaceOnUse">
      <stop offset=".1" stop-color="#00aeff"/>
      <stop offset=".77" stop-color="#2253ce"/>
      <stop offset="1" stop-color="#0736c4"/>
    </radialGradient>
    <radialGradient id="Degradado_sin_nombre_2" data-name="Degradado sin nombre 2" cx="-403.62" cy="603.56" fx="-403.62" fy="603.56" r="1.32" gradientTransform="translate(-20981.78 74979.61) rotate(50.26) scale(108.36 -106.36)" gradientUnits="userSpaceOnUse">
      <stop offset="0" stop-color="#ffb657"/>
      <stop offset=".63" stop-color="#ff5f3d"/>
      <stop offset=".92" stop-color="#c02b3c"/>
    </radialGradient>
    <linearGradient id="Degradado_sin_nombre_6" data-name="Degradado sin nombre 6" x1="-209.1" y1="603.92" x2="-204.39" y2="547.98" gradientTransform="translate(1359.41 2688.47) scale(4.33 -4.33)" gradientUnits="userSpaceOnUse">
      <stop offset=".16" stop-color="#0d91e1"/>
      <stop offset=".49" stop-color="#52b471"/>
      <stop offset=".65" stop-color="#98bd42"/>
      <stop offset=".94" stop-color="#ffc800"/>
    </linearGradient>
    <linearGradient id="Degradado_sin_nombre_4" data-name="Degradado sin nombre 4" x1="-208.63" y1="610.92" x2="-206.06" y2="549.9" gradientTransform="translate(1359.41 2688.47) scale(4.33 -4.33)" gradientUnits="userSpaceOnUse">
      <stop offset="0" stop-color="#3dcbff"/>
      <stop offset=".25" stop-color="#0588f7" stop-opacity="0"/>
    </linearGradient>
    <radialGradient id="Degradado_sin_nombre_5" data-name="Degradado sin nombre 5" cx="-409.26" cy="600.33" fx="-409.26" fy="600.33" r="1.32" gradientTransform="translate(-219798.85 36804.15) rotate(109.72) scale(266.2 -325.13)" gradientUnits="userSpaceOnUse">
      <stop offset=".07" stop-color="#8c48ff"/>
      <stop offset=".5" stop-color="#f2598a"/>
      <stop offset=".9" stop-color="#ffb152"/>
    </radialGradient>
    <linearGradient id="Degradado_sin_nombre_10" data-name="Degradado sin nombre 10" x1="-171.8" y1="592.29" x2="-171.84" y2="575.68" gradientTransform="translate(1359.41 2688.47) scale(4.33 -4.33)" gradientUnits="userSpaceOnUse">
      <stop offset=".06" stop-color="#f8adfa"/>
      <stop offset=".71" stop-color="#a86edd" stop-opacity="0"/>
    </linearGradient>
  </defs>
  <rect x="7.24" y="7.24" width="1086.54" height="682.05" rx="94.33" ry="94.33" fill="#2d2d2d" stroke="#505050" stroke-miterlimit="10" stroke-width="14.49"/>
  <g>
    <path d="M632.93,72.36c-5.65-17.86-22.23-30-40.97-30h-14.16c-20.7,0-38.45,14.75-42.24,35.1l-21.04,112.95,6.31-20.85c5.49-18.12,22.19-30.52,41.13-30.52h65.78l37.71,13.2,20.06-13.13c-18.74,0-35.31-12.21-40.97-30.07l-11.61-36.67Z" fill="url(#Degradado_sin_nombre_7)"/>
    <path d="M446.48,373.11c5.59,17.96,22.22,30.19,41.03,30.19h27.88c23.49,0,42.63-18.87,42.97-42.36l1.48-103.76-5.65,18.83c-5.46,18.17-22.18,30.61-41.15,30.61h-65.76l-34.01-15.5-19.1,15.5c18.81,0,35.43,12.23,41.03,30.19l11.31,36.3Z" fill="url(#Degradado_sin_nombre_2)"/>
    <path d="M589.06,42.35h-150.4c-42.97,0-68.75,55.41-85.94,110.83-20.36,65.65-47.01,153.45,30.08,153.45h65.49c19.11,0,35.9-12.57,41.27-30.9,11.3-38.57,31.05-105.68,46.57-156.79,7.9-26.01,14.48-48.35,24.57-62.26,5.66-7.8,15.1-14.33,28.35-14.33Z" fill="url(#Degradado_sin_nombre_6)"/>
    <path d="M589.06,42.35h-150.4c-42.97,0-68.75,55.41-85.94,110.83-20.36,65.65-47.01,153.45,30.08,153.45h65.49c19.11,0,35.9-12.57,41.27-30.9,11.3-38.57,31.05-105.68,46.57-156.79,7.9-26.01,14.48-48.35,24.57-62.26,5.66-7.8,15.1-14.33,28.35-14.33Z" fill="url(#Degradado_sin_nombre_4)"/>
    <path d="M485.9,403.3h150.4c42.97,0,68.75-55.41,85.94-110.81,20.36-65.64,47.01-153.43-30.08-153.43h-65.49c-19.1,0-35.9,12.57-41.27,30.9-11.3,38.57-31.05,105.66-46.57,156.76-7.9,26.01-14.48,48.34-24.57,62.25-5.66,7.8-15.1,14.33-28.35,14.33Z" fill="url(#Degradado_sin_nombre_5)"/>
    <path d="M485.9,403.3h150.4c42.97,0,68.75-55.41,85.94-110.81,20.36-65.64,47.01-153.43-30.08-153.43h-65.49c-19.1,0-35.9,12.57-41.27,30.9-11.3,38.57-31.05,105.66-46.57,156.76-7.9,26.01-14.48,48.34-24.57,62.25-5.66,7.8-15.1,14.33-28.35,14.33Z" fill="url(#Degradado_sin_nombre_10)"/>
    <rect x="466.59" y="306.62" width="277.16" height="122.46" rx="20.84" ry="20.84"/>
    <path d="M483.46,330.02v74.66h13.81v-53.79l15.14,29.83h9.21l14.81-29.85v53.81h14.26v-74.66h-15.92l-17.3,34.64-17.2-34.64h-16.81ZM586.66,405.63c-8.21,0-14.61-1.96-19.19-5.88-4.55-3.92-6.82-9.82-6.82-17.7h13.65c0,3.73,1.07,6.66,3.22,8.76,2.18,2.11,5.21,3.16,9.1,3.16,3.48,0,6.14-.89,7.99-2.66,1.89-1.77,2.83-4.59,2.83-8.43s-1.15-6.38-3.44-8.04c-2.26-1.7-5.2-2.55-8.82-2.55h-4.49v-11.2h4.88c3.25,0,5.84-.89,7.77-2.66,1.92-1.77,2.88-4.12,2.88-7.04s-.87-5.14-2.61-6.55c-1.7-1.41-4.05-2.11-7.04-2.11-3.29,0-5.84.92-7.65,2.77-1.81,1.81-2.72,4.31-2.72,7.49h-13.59c0-4.99,1.04-9.1,3.11-12.31,2.11-3.22,4.97-5.62,8.6-7.21,3.62-1.63,7.69-2.44,12.2-2.44,4.18,0,8.04.68,11.59,2.05,3.55,1.37,6.4,3.46,8.54,6.27,2.18,2.81,3.27,6.42,3.27,10.82s-1.07,8.02-3.22,10.65c-2.11,2.63-4.96,4.47-8.54,5.55,3.96.81,7.23,2.66,9.82,5.55,2.63,2.85,3.94,6.86,3.94,12.04,0,7.03-2.27,12.41-6.82,16.14-4.51,3.7-10.65,5.55-18.42,5.55ZM631.31,401.97c4.1,2.48,8.76,3.72,13.98,3.72s9.69-1.04,13.31-3.11c3.66-2.07,6.43-4.92,8.32-8.54,1.89-3.66,2.83-7.86,2.83-12.59s-.92-9.04-2.77-12.37c-1.85-3.37-4.36-5.9-7.54-7.6-3.14-1.74-6.69-2.61-10.65-2.61-3.33,0-6.25.54-8.76,1.61-2.48,1.07-4.68,2.5-6.6,4.27-.24.23-.48.46-.72.69.25-7.16,1.32-12.59,3.21-16.28,2.22-4.29,5.36-6.43,9.43-6.43,2.51,0,4.55.7,6.1,2.11,1.59,1.37,2.66,3.46,3.22,6.27h13.65c-.96-6.43-3.4-11.37-7.32-14.81-3.92-3.48-9.13-5.21-15.64-5.21-5.29,0-9.98,1.35-14.09,4.05-4.11,2.66-7.32,6.79-9.65,12.37-2.33,5.55-3.49,12.67-3.49,21.36s1.18,15.81,3.55,21.24c2.37,5.4,5.58,9.36,9.65,11.87ZM632.75,376.1c.98-.96,2.08-1.84,3.28-2.64,3-2.03,6.38-3.05,10.15-3.05,2.85,0,5.07,1,6.66,3,1.59,1.96,2.39,4.7,2.39,8.21s-.83,6.56-2.5,8.93c-1.63,2.37-4.1,3.55-7.43,3.55-2.15,0-4.2-.68-6.16-2.05-1.92-1.41-3.49-3.68-4.72-6.82-.9-2.42-1.46-5.46-1.67-9.12ZM688.78,403.24c3.88,1.63,8.21,2.44,12.98,2.44s8.99-.94,12.76-2.83c3.81-1.89,6.82-4.7,9.04-8.43,2.22-3.77,3.33-8.49,3.33-14.15s-1.05-10.22-3.16-13.7c-2.07-3.48-4.79-6.01-8.15-7.6-3.37-1.63-6.97-2.44-10.82-2.44-2.96,0-5.53.48-7.71,1.44-2.15.92-3.77,2.02-4.88,3.27l1.33-17.08h27.79v-12.15h-39.27l-3.16,40.22h12.7c1.04-1.29,2.35-2.37,3.94-3.22,1.59-.85,3.53-1.28,5.82-1.28,3.25,0,5.9,1,7.93,3,2.07,1.96,3.11,5.14,3.11,9.54,0,4.77-.98,8.27-2.94,10.48-1.92,2.22-4.47,3.33-7.65,3.33-3.36,0-6.12-.94-8.26-2.83-2.15-1.92-3.22-4.55-3.22-7.88h-14.14c0,4.99,1.13,9.15,3.38,12.48,2.29,3.29,5.38,5.75,9.26,7.38Z" fill="#fff" fill-rule="evenodd"/>
  </g>
  <g>
    <path d="M317.88,530.17l-19.98-65.09h-.51c.72,13.24,1.08,22.07,1.08,26.5v38.59h-15.72v-82.97h23.95l19.63,63.44h.34l20.83-63.44h23.95v82.97h-16.4v-39.27c0-1.85.03-3.99.08-6.41.06-2.42.31-8.85.77-19.29h-.51l-21.39,64.98h-16.12Z" fill="#fff"/>
    <path d="M390.23,450.32c0-5.64,3.14-8.46,9.42-8.46s9.42,2.82,9.42,8.46c0,2.69-.79,4.78-2.36,6.27-1.57,1.5-3.92,2.24-7.06,2.24-6.28,0-9.42-2.84-9.42-8.51ZM408.28,530.17h-17.31v-63.44h17.31v63.44Z" fill="#fff"/>
    <path d="M452.2,531.3c-19.75,0-29.62-10.84-29.62-32.52,0-10.78,2.69-19.02,8.06-24.71,5.37-5.69,13.07-8.54,23.1-8.54,7.34,0,13.92,1.44,19.75,4.31l-5.11,13.39c-2.72-1.1-5.26-2-7.6-2.7s-4.69-1.05-7.04-1.05c-9,0-13.51,6.39-13.51,19.18s4.5,18.61,13.51,18.61c3.33,0,6.41-.44,9.25-1.33,2.84-.89,5.67-2.28,8.51-4.17v14.81c-2.8,1.78-5.63,3.01-8.48,3.69-2.86.68-6.46,1.02-10.81,1.02Z" fill="#fff"/>
    <path d="M521.61,465.53c2.35,0,4.29.17,5.85.51l-1.31,16.23c-1.4-.38-3.1-.57-5.11-.57-5.52,0-9.83,1.42-12.91,4.26-3.08,2.84-4.62,6.81-4.62,11.92v32.29h-17.31v-63.44h13.11l2.55,10.67h.85c1.97-3.55,4.62-6.42,7.97-8.6,3.35-2.17,6.99-3.26,10.92-3.26Z" fill="#fff"/>
    <path d="M596.63,498.33c0,10.33-2.72,18.41-8.17,24.23-5.45,5.83-13.03,8.74-22.76,8.74-6.09,0-11.46-1.33-16.12-4-4.65-2.67-8.23-6.5-10.73-11.49-2.5-4.99-3.75-10.82-3.75-17.48,0-10.37,2.7-18.42,8.12-24.17,5.41-5.75,13.01-8.63,22.81-8.63,6.09,0,11.46,1.33,16.12,3.97,4.65,2.65,8.23,6.45,10.72,11.41,2.5,4.96,3.75,10.76,3.75,17.42ZM552.76,498.33c0,6.28,1.03,11.03,3.09,14.24,2.06,3.22,5.42,4.82,10.07,4.82s7.93-1.6,9.96-4.79c2.02-3.2,3.04-7.95,3.04-14.27s-1.02-10.99-3.06-14.13c-2.04-3.14-5.39-4.71-10.04-4.71s-7.95,1.56-9.99,4.68-3.06,7.84-3.06,14.16Z" fill="#fff"/>
    <path d="M655.19,511.33c0,6.51-2.26,11.46-6.78,14.87-4.52,3.41-11.28,5.11-20.29,5.11-4.62,0-8.55-.31-11.8-.94-3.25-.62-6.3-1.54-9.14-2.75v-14.3c3.22,1.51,6.84,2.78,10.87,3.8,4.03,1.02,7.58,1.53,10.64,1.53,6.28,0,9.42-1.82,9.42-5.45,0-1.36-.42-2.47-1.25-3.32-.83-.85-2.27-1.82-4.31-2.89s-4.77-2.34-8.17-3.77c-4.88-2.04-8.47-3.93-10.75-5.67-2.29-1.74-3.95-3.74-4.99-5.99-1.04-2.25-1.56-5.02-1.56-8.31,0-5.64,2.18-10,6.55-13.08,4.37-3.08,10.56-4.62,18.58-4.62s15.08,1.67,22.3,4.99l-5.22,12.48c-3.18-1.36-6.15-2.48-8.91-3.35-2.76-.87-5.58-1.31-8.46-1.31-5.11,0-7.66,1.38-7.66,4.14,0,1.55.82,2.89,2.47,4.03,1.65,1.13,5.25,2.82,10.81,5.05,4.96,2.01,8.59,3.88,10.9,5.62,2.31,1.74,4.01,3.75,5.11,6.02,1.1,2.27,1.65,4.97,1.65,8.11Z" fill="#fff"/>
    <path d="M726.36,498.33c0,10.33-2.72,18.41-8.17,24.23-5.45,5.83-13.03,8.74-22.76,8.74-6.09,0-11.46-1.33-16.12-4-4.65-2.67-8.23-6.5-10.73-11.49-2.5-4.99-3.75-10.82-3.75-17.48,0-10.37,2.7-18.42,8.12-24.17,5.41-5.75,13.01-8.63,22.81-8.63,6.09,0,11.46,1.33,16.12,3.97,4.65,2.65,8.23,6.45,10.72,11.41,2.5,4.96,3.75,10.76,3.75,17.42ZM682.49,498.33c0,6.28,1.03,11.03,3.09,14.24,2.06,3.22,5.42,4.82,10.07,4.82s7.93-1.6,9.96-4.79c2.02-3.2,3.04-7.95,3.04-14.27s-1.02-10.99-3.06-14.13c-2.04-3.14-5.39-4.71-10.04-4.71s-7.95,1.56-9.99,4.68-3.06,7.84-3.06,14.16Z" fill="#fff"/>
    <path d="M775.73,479.72h-14.98v50.45h-17.31v-50.45h-9.53v-8.34l9.53-4.65v-4.65c0-7.23,1.78-12.5,5.33-15.83s9.25-4.99,17.08-4.99c5.98,0,11.29.89,15.95,2.67l-4.43,12.71c-3.48-1.1-6.7-1.65-9.65-1.65-2.46,0-4.24.73-5.33,2.18-1.1,1.46-1.65,3.32-1.65,5.59v3.97h14.98v13Z" fill="#fff"/>
    <path d="M812.39,517.51c3.03,0,6.66-.66,10.9-1.99v12.88c-4.31,1.93-9.61,2.89-15.89,2.89-6.92,0-11.96-1.75-15.12-5.25-3.16-3.5-4.74-8.75-4.74-15.75v-30.59h-8.29v-7.32l9.53-5.79,4.99-13.39h11.07v13.51h17.76v13h-17.76v30.59c0,2.46.69,4.28,2.07,5.45,1.38,1.17,3.21,1.76,5.48,1.76Z" fill="#fff"/>
    <path d="M318.28,637.88h-47.78v-82.97h47.78v14.41h-30.19v18.22h28.09v14.41h-28.09v21.39h30.19v14.53Z" fill="#fff"/>
    <path d="M354.31,639.02c-7.45,0-13.31-2.89-17.56-8.68-4.26-5.79-6.38-13.81-6.38-24.06s2.17-18.51,6.5-24.32c4.33-5.81,10.3-8.71,17.9-8.71,7.98,0,14.07,3.1,18.27,9.31h.57c-.87-4.73-1.3-8.95-1.3-12.66v-20.32h17.36v88.3h-13.28l-3.35-8.23h-.74c-3.94,6.24-9.93,9.36-17.99,9.36ZM360.38,625.23c4.43,0,7.67-1.29,9.73-3.86,2.06-2.57,3.19-6.94,3.38-13.11v-1.87c0-6.81-1.05-11.69-3.15-14.64-2.1-2.95-5.51-4.43-10.24-4.43-3.86,0-6.86,1.64-9,4.91-2.14,3.27-3.21,8.03-3.21,14.27s1.08,10.92,3.23,14.04c2.16,3.12,5.24,4.68,9.25,4.68Z" fill="#fff"/>
    <path d="M452.71,637.88l-2.33-8.12h-.91c-1.85,2.95-4.48,5.23-7.89,6.84-3.4,1.61-7.28,2.41-11.63,2.41-7.45,0-13.07-2-16.85-5.99-3.78-3.99-5.67-9.73-5.67-17.22v-41.37h17.31v37.06c0,4.58.81,8.01,2.44,10.3s4.22,3.43,7.77,3.43c4.84,0,8.34-1.62,10.5-4.85s3.23-8.6,3.23-16.09v-29.85h17.31v63.44h-13.28Z" fill="#fff"/>
    <path d="M509.92,639.02c-19.75,0-29.62-10.84-29.62-32.52,0-10.78,2.69-19.02,8.06-24.71,5.37-5.69,13.07-8.54,23.1-8.54,7.34,0,13.92,1.44,19.75,4.31l-5.11,13.39c-2.72-1.1-5.26-2-7.6-2.7s-4.69-1.05-7.04-1.05c-9,0-13.51,6.39-13.51,19.18s4.5,18.61,13.51,18.61c3.33,0,6.41-.44,9.25-1.33,2.84-.89,5.67-2.28,8.51-4.17v14.81c-2.8,1.78-5.63,3.01-8.48,3.69-2.86.68-6.46,1.02-10.81,1.02Z" fill="#fff"/>
    <path d="M584.2,637.88l-3.35-8.63h-.45c-2.91,3.67-5.91,6.21-9,7.63-3.08,1.42-7.1,2.13-12.06,2.13-6.09,0-10.89-1.74-14.39-5.22-3.5-3.48-5.25-8.44-5.25-14.87s2.36-11.7,7.07-14.9c4.71-3.2,11.81-4.96,21.31-5.31l11.01-.34v-2.78c0-6.43-3.29-9.65-9.87-9.65-5.07,0-11.03,1.53-17.88,4.6l-5.73-11.69c7.3-3.82,15.4-5.73,24.29-5.73s15.04,1.85,19.58,5.56c4.54,3.71,6.81,9.34,6.81,16.91v42.28h-12.09ZM579.09,608.49l-6.7.23c-5.03.15-8.78,1.06-11.24,2.72-2.46,1.67-3.69,4.2-3.69,7.6,0,4.88,2.8,7.32,8.4,7.32,4.01,0,7.22-1.15,9.62-3.46,2.4-2.31,3.6-5.37,3.6-9.19v-5.22Z" fill="#fff"/>
    <path d="M640.83,625.23c3.03,0,6.66-.66,10.9-1.99v12.88c-4.31,1.93-9.61,2.89-15.89,2.89-6.92,0-11.96-1.75-15.12-5.25-3.16-3.5-4.74-8.75-4.74-15.75v-30.59h-8.29v-7.32l9.53-5.79,4.99-13.39h11.07v13.51h17.76v13h-17.76v30.59c0,2.46.69,4.28,2.07,5.45,1.38,1.17,3.21,1.76,5.48,1.76Z" fill="#fff"/>
    <path d="M663.82,558.04c0-5.64,3.14-8.46,9.42-8.46s9.42,2.82,9.42,8.46c0,2.69-.79,4.78-2.36,6.27-1.57,1.5-3.92,2.24-7.06,2.24-6.28,0-9.42-2.84-9.42-8.51ZM681.86,637.88h-17.31v-63.44h17.31v63.44Z" fill="#fff"/>
    <path d="M757.68,606.05c0,10.33-2.72,18.41-8.17,24.23-5.45,5.83-13.03,8.74-22.76,8.74-6.09,0-11.46-1.33-16.12-4-4.65-2.67-8.23-6.5-10.73-11.49-2.5-4.99-3.75-10.82-3.75-17.48,0-10.37,2.7-18.42,8.12-24.17,5.41-5.75,13.01-8.63,22.81-8.63,6.09,0,11.46,1.33,16.12,3.97,4.65,2.65,8.23,6.45,10.72,11.41,2.5,4.96,3.75,10.76,3.75,17.42ZM713.81,606.05c0,6.28,1.03,11.03,3.09,14.24,2.06,3.22,5.42,4.82,10.07,4.82s7.93-1.6,9.96-4.79c2.02-3.2,3.04-7.95,3.04-14.27s-1.02-10.99-3.06-14.13c-2.04-3.14-5.39-4.71-10.04-4.71s-7.95,1.56-9.99,4.68-3.06,7.84-3.06,14.16Z" fill="#fff"/>
    <path d="M830.54,637.88h-17.31v-37.06c0-4.58-.81-8.01-2.44-10.3-1.63-2.29-4.22-3.43-7.77-3.43-4.84,0-8.34,1.62-10.5,4.85-2.16,3.23-3.24,8.6-3.24,16.09v29.85h-17.31v-63.44h13.22l2.33,8.12h.96c1.93-3.06,4.59-5.38,7.97-6.95,3.39-1.57,7.24-2.36,11.55-2.36,7.38,0,12.98,2,16.8,5.99,3.82,3.99,5.73,9.75,5.73,17.28v41.37Z" fill="#fff"/>
  </g>
</svg>