<?xml version="1.0" encoding="UTF-8"?>
<svg id="Capa_2" data-name="Capa 2" xmlns="http://www.w3.org/2000/svg" viewBox="0 0 1101.03 696.54">
  <defs>
    <style>
      .cls-1 {
        fill: #fff;
      }

      .cls-2 {
        fill: #2d2d2d;
        stroke: #505050;
        stroke-miterlimit: 10;
        stroke-width: 14.49px;
      }

      .cls-3, .cls-4 {
        fill: #cc1719;
      }

      .cls-4 {
        fill-rule: evenodd;
      }
    </style>
  </defs>
  <rect class="cls-2" x="7.24" y="7.24" width="1086.54" height="682.05" rx="94.33" ry="94.33"/>
  <g>
    <path class="cls-1" d="M191.06,524.85l-5.68-18.66h-28.57l-5.68,18.66h-17.91l27.66-78.7h20.32l27.77,78.7h-17.91ZM181.41,492.25c-5.25-16.9-8.21-26.47-8.87-28.68-.66-2.22-1.13-3.97-1.42-5.25-1.18,4.58-4.56,15.89-10.13,33.94h20.43Z"/>
    <path class="cls-1" d="M259.36,507.05c0,6.15-2.14,10.83-6.41,14.05-4.27,3.22-10.66,4.83-19.17,4.83-4.36,0-8.08-.3-11.15-.89-3.07-.59-5.95-1.46-8.63-2.6v-13.51c3.04,1.43,6.46,2.63,10.27,3.59s7.16,1.45,10.05,1.45c5.93,0,8.9-1.72,8.9-5.15,0-1.29-.39-2.33-1.18-3.14-.79-.8-2.14-1.72-4.07-2.73s-4.5-2.21-7.72-3.56c-4.61-1.93-8-3.72-10.16-5.36-2.16-1.64-3.73-3.53-4.72-5.66-.98-2.13-1.47-4.74-1.47-7.85,0-5.32,2.06-9.44,6.19-12.36,4.13-2.91,9.98-4.37,17.56-4.37s14.24,1.57,21.07,4.72l-4.93,11.79c-3-1.29-5.81-2.34-8.42-3.16-2.61-.82-5.27-1.23-7.99-1.23-4.82,0-7.24,1.31-7.24,3.91,0,1.47.78,2.73,2.33,3.81,1.56,1.07,4.96,2.66,10.21,4.77,4.68,1.89,8.11,3.66,10.29,5.31,2.18,1.64,3.79,3.54,4.82,5.68,1.04,2.14,1.56,4.7,1.56,7.67Z"/>
    <path class="cls-1" d="M299.24,525.92c-9.65,0-17.19-2.66-22.62-7.99-5.43-5.32-8.15-12.87-8.15-22.62s2.51-17.81,7.53-23.29c5.02-5.49,11.96-8.23,20.83-8.23s15.06,2.41,19.78,7.24c4.72,4.83,7.08,11.49,7.08,20v7.93h-38.65c.18,4.65,1.55,8.27,4.13,10.88,2.57,2.61,6.18,3.91,10.83,3.91,3.61,0,7.02-.38,10.24-1.13s6.58-1.95,10.08-3.59v12.65c-2.86,1.43-5.92,2.49-9.17,3.19s-7.22,1.05-11.9,1.05ZM296.94,475.42c-3.47,0-6.18,1.1-8.15,3.3-1.97,2.2-3.09,5.32-3.38,9.35h22.95c-.07-4.04-1.13-7.16-3.16-9.35-2.04-2.2-4.79-3.3-8.26-3.3Z"/>
    <path class="cls-1" d="M389.15,464.91v8.31l-9.38,2.41c1.72,2.68,2.57,5.68,2.57,9.01,0,6.43-2.24,11.45-6.73,15.04-4.49,3.59-10.71,5.39-18.68,5.39l-2.95-.16-2.41-.27c-1.68,1.29-2.52,2.72-2.52,4.29,0,2.36,3,3.54,9.01,3.54h10.19c6.58,0,11.59,1.41,15.04,4.24s5.17,6.97,5.17,12.44c0,7.01-2.92,12.44-8.77,16.3s-14.23,5.79-25.17,5.79c-8.36,0-14.75-1.46-19.17-4.37s-6.62-7-6.62-12.25c0-3.61,1.13-6.63,3.38-9.06s5.56-4.16,9.92-5.2c-1.68-.72-3.15-1.89-4.4-3.51-1.25-1.63-1.88-3.35-1.88-5.17,0-2.29.66-4.19,1.98-5.71,1.32-1.52,3.23-3.01,5.74-4.48-3.15-1.36-5.64-3.54-7.48-6.54-1.84-3-2.76-6.54-2.76-10.61,0-6.54,2.13-11.6,6.38-15.17,4.25-3.57,10.33-5.36,18.23-5.36,1.68,0,3.67.15,5.98.46,2.31.3,3.78.53,4.42.67h20.91ZM342.88,533.32c0,2.25,1.08,4.02,3.24,5.31,2.16,1.29,5.19,1.93,9.09,1.93,5.86,0,10.45-.8,13.78-2.41,3.32-1.61,4.99-3.81,4.99-6.59,0-2.25-.98-3.81-2.95-4.66-1.97-.86-5-1.29-9.11-1.29h-8.47c-3,0-5.51.71-7.53,2.12-2.02,1.41-3.03,3.28-3.03,5.6ZM348.83,484.53c0,3.25.74,5.83,2.22,7.72,1.48,1.89,3.74,2.84,6.78,2.84s5.32-.95,6.75-2.84c1.43-1.89,2.14-4.47,2.14-7.72,0-7.22-2.97-10.83-8.9-10.83s-9.01,3.61-9.01,10.83Z"/>
    <path class="cls-1" d="M441.47,524.85l-2.2-7.67h-.86c-1.75,2.79-4.24,4.94-7.45,6.46-3.22,1.52-6.88,2.28-10.99,2.28-7.04,0-12.35-1.89-15.92-5.66-3.57-3.77-5.36-9.19-5.36-16.27v-39.08h16.35v35.01c0,4.32.77,7.57,2.3,9.73s3.99,3.24,7.34,3.24c4.57,0,7.88-1.53,9.92-4.58,2.04-3.06,3.06-8.12,3.06-15.2v-28.2h16.35v59.94h-12.55Z"/>
    <path class="cls-1" d="M504.63,463.78c2.22,0,4.06.16,5.52.48l-1.23,15.33c-1.32-.36-2.93-.54-4.83-.54-5.22,0-9.28,1.34-12.2,4.02-2.91,2.68-4.37,6.43-4.37,11.26v30.5h-16.35v-59.94h12.38l2.41,10.08h.8c1.86-3.36,4.37-6.07,7.53-8.12,3.16-2.05,6.6-3.08,10.32-3.08Z"/>
    <path class="cls-1" d="M559.09,524.85l-3.16-8.15h-.43c-2.75,3.47-5.58,5.87-8.5,7.21-2.91,1.34-6.71,2.01-11.39,2.01-5.76,0-10.29-1.64-13.59-4.93-3.31-3.29-4.96-7.97-4.96-14.05s2.22-11.05,6.67-14.07c4.45-3.02,11.16-4.69,20.13-5.01l10.4-.32v-2.63c0-6.08-3.11-9.11-9.33-9.11-4.79,0-10.42,1.45-16.89,4.34l-5.41-11.04c6.9-3.61,14.55-5.41,22.95-5.41s14.21,1.75,18.5,5.25c4.29,3.5,6.43,8.83,6.43,15.98v39.94h-11.42ZM554.27,497.07l-6.33.21c-4.75.14-8.29,1-10.61,2.57-2.32,1.57-3.48,3.97-3.48,7.18,0,4.61,2.64,6.92,7.93,6.92,3.79,0,6.82-1.09,9.09-3.27,2.27-2.18,3.4-5.07,3.4-8.68v-4.93Z"/>
    <path class="cls-1" d="M641.01,524.85h-16.35v-35.01c0-4.32-.72-7.57-2.17-9.73-1.45-2.16-3.73-3.24-6.84-3.24-4.18,0-7.22,1.54-9.11,4.61-1.89,3.07-2.84,8.13-2.84,15.17v28.2h-16.35v-59.94h12.49l2.2,7.67h.91c1.61-2.75,3.93-4.91,6.97-6.46,3.04-1.56,6.52-2.33,10.45-2.33,8.97,0,15.05,2.93,18.23,8.79h1.45c1.61-2.79,3.98-4.95,7.1-6.49,3.13-1.54,6.66-2.31,10.59-2.31,6.79,0,11.93,1.74,15.41,5.23,3.48,3.48,5.23,9.07,5.23,16.75v39.08h-16.4v-35.01c0-4.32-.72-7.57-2.17-9.73-1.45-2.16-3.73-3.24-6.84-3.24-4,0-7,1.43-8.98,4.29s-2.98,7.4-2.98,13.62v30.08Z"/>
    <path class="cls-1" d="M694.46,449.41c0-5.32,2.97-7.99,8.9-7.99s8.9,2.66,8.9,7.99c0,2.54-.74,4.51-2.22,5.92-1.48,1.41-3.71,2.12-6.67,2.12-5.93,0-8.9-2.68-8.9-8.04ZM711.51,524.85h-16.35v-59.94h16.35v59.94Z"/>
    <path class="cls-1" d="M755.79,525.92c-9.65,0-17.19-2.66-22.62-7.99-5.43-5.32-8.15-12.87-8.15-22.62s2.51-17.81,7.53-23.29c5.02-5.49,11.96-8.23,20.83-8.23s15.06,2.41,19.78,7.24c4.72,4.83,7.08,11.49,7.08,20v7.93h-38.65c.18,4.65,1.55,8.27,4.13,10.88,2.57,2.61,6.18,3.91,10.83,3.91,3.61,0,7.02-.38,10.24-1.13s6.58-1.95,10.08-3.59v12.65c-2.86,1.43-5.92,2.49-9.17,3.19s-7.22,1.05-11.9,1.05ZM753.49,475.42c-3.47,0-6.18,1.1-8.15,3.3-1.97,2.2-3.09,5.32-3.38,9.35h22.95c-.07-4.04-1.13-7.16-3.16-9.35-2.04-2.2-4.79-3.3-8.26-3.3Z"/>
    <path class="cls-1" d="M848.86,524.85h-16.35v-35.01c0-4.32-.77-7.57-2.3-9.73-1.54-2.16-3.99-3.24-7.34-3.24-4.58,0-7.88,1.53-9.92,4.58-2.04,3.06-3.06,8.12-3.06,15.2v28.2h-16.35v-59.94h12.49l2.2,7.67h.91c1.82-2.89,4.33-5.08,7.53-6.57,3.2-1.48,6.83-2.22,10.91-2.22,6.97,0,12.26,1.89,15.87,5.66s5.41,9.21,5.41,16.32v39.08Z"/>
    <path class="cls-1" d="M890.95,512.89c2.86,0,6.29-.62,10.29-1.88v12.17c-4.08,1.82-9.08,2.73-15.01,2.73-6.54,0-11.3-1.65-14.29-4.96-2.98-3.31-4.48-8.26-4.48-14.88v-28.9h-7.83v-6.92l9.01-5.47,4.72-12.65h10.45v12.76h16.78v12.28h-16.78v28.9c0,2.32.65,4.04,1.96,5.15,1.3,1.11,3.03,1.66,5.17,1.66Z"/>
    <path class="cls-1" d="M967.82,494.77c0,9.76-2.57,17.39-7.72,22.89-5.15,5.5-12.31,8.26-21.5,8.26-5.75,0-10.83-1.26-15.23-3.78-4.4-2.52-7.77-6.14-10.13-10.86-2.36-4.72-3.54-10.22-3.54-16.51,0-9.79,2.55-17.41,7.67-22.84,5.11-5.43,12.29-8.15,21.55-8.15,5.75,0,10.83,1.25,15.23,3.75s7.77,6.09,10.13,10.78c2.36,4.68,3.54,10.17,3.54,16.46ZM926.38,494.77c0,5.93.97,10.42,2.92,13.46,1.95,3.04,5.12,4.56,9.52,4.56s7.5-1.51,9.41-4.53c1.91-3.02,2.87-7.51,2.87-13.48s-.97-10.38-2.9-13.35-5.09-4.45-9.49-4.45-7.51,1.47-9.44,4.42-2.89,7.41-2.89,13.38Z"/>
    <path class="cls-1" d="M237.4,630.83c-7.04,0-12.57-2.73-16.59-8.2-4.02-5.47-6.03-13.04-6.03-22.73s2.05-17.49,6.14-22.97c4.09-5.49,9.73-8.23,16.91-8.23,7.54,0,13.3,2.93,17.26,8.79h.54c-.82-4.47-1.23-8.45-1.23-11.96v-19.19h16.4v83.42h-12.54l-3.16-7.77h-.7c-3.72,5.9-9.38,8.85-16.99,8.85ZM243.14,617.8c4.18,0,7.25-1.21,9.19-3.65,1.95-2.43,3.01-6.56,3.19-12.38v-1.77c0-6.43-.99-11.04-2.98-13.83-1.98-2.79-5.21-4.18-9.68-4.18-3.65,0-6.48,1.55-8.5,4.64-2.02,3.09-3.03,7.59-3.03,13.48s1.02,10.32,3.06,13.27,4.95,4.42,8.74,4.42Z"/>
    <path class="cls-1" d="M315.03,630.83c-9.65,0-17.19-2.66-22.62-7.99-5.43-5.32-8.15-12.87-8.15-22.62s2.51-17.81,7.53-23.29c5.02-5.49,11.96-8.23,20.83-8.23s15.06,2.41,19.78,7.24c4.72,4.83,7.08,11.49,7.08,20v7.93h-38.65c.18,4.65,1.55,8.27,4.13,10.88,2.57,2.61,6.18,3.91,10.83,3.91,3.61,0,7.02-.38,10.24-1.13s6.58-1.95,10.08-3.59v12.65c-2.86,1.43-5.92,2.49-9.17,3.19s-7.22,1.05-11.9,1.05ZM312.73,580.33c-3.47,0-6.18,1.1-8.15,3.3-1.97,2.2-3.09,5.32-3.38,9.35h22.95c-.07-4.04-1.13-7.16-3.16-9.35-2.04-2.2-4.79-3.3-8.26-3.3Z"/>
    <path class="cls-1" d="M397.65,629.76h-16.35v-83.42h16.35v83.42Z"/>
    <path class="cls-1" d="M452.86,629.76l-3.16-8.15h-.43c-2.75,3.47-5.58,5.87-8.5,7.21-2.91,1.34-6.71,2.01-11.39,2.01-5.76,0-10.29-1.64-13.59-4.93-3.31-3.29-4.96-7.97-4.96-14.05s2.22-11.05,6.67-14.07c4.45-3.02,11.16-4.69,20.13-5.01l10.4-.32v-2.63c0-6.08-3.11-9.11-9.33-9.11-4.79,0-10.42,1.45-16.89,4.34l-5.41-11.04c6.9-3.61,14.55-5.41,22.95-5.41s14.21,1.75,18.5,5.25c4.29,3.5,6.43,8.83,6.43,15.98v39.94h-11.42ZM448.04,601.99l-6.33.21c-4.75.14-8.29,1-10.61,2.57-2.32,1.57-3.48,3.97-3.48,7.18,0,4.61,2.64,6.92,7.93,6.92,3.79,0,6.82-1.09,9.09-3.27,2.27-2.18,3.4-5.07,3.4-8.68v-4.93Z"/>
    <path class="cls-1" d="M533.98,630.83c-18.66,0-27.98-10.24-27.98-30.72,0-10.19,2.54-17.97,7.61-23.35,5.08-5.38,12.35-8.07,21.82-8.07,6.93,0,13.15,1.36,18.66,4.07l-4.82,12.65c-2.57-1.04-4.97-1.88-7.18-2.55-2.22-.66-4.43-.99-6.65-.99-8.51,0-12.76,6.04-12.76,18.12s4.25,17.58,12.76,17.58c3.14,0,6.06-.42,8.74-1.26,2.68-.84,5.36-2.15,8.04-3.94v13.99c-2.65,1.68-5.32,2.84-8.01,3.48-2.7.64-6.1.96-10.21.96Z"/>
    <path class="cls-1" d="M604.15,629.76l-3.16-8.15h-.43c-2.75,3.47-5.58,5.87-8.5,7.21-2.91,1.34-6.71,2.01-11.39,2.01-5.76,0-10.29-1.64-13.59-4.93-3.31-3.29-4.96-7.97-4.96-14.05s2.22-11.05,6.67-14.07c4.45-3.02,11.16-4.69,20.13-5.01l10.4-.32v-2.63c0-6.08-3.11-9.11-9.33-9.11-4.79,0-10.42,1.45-16.89,4.34l-5.41-11.04c6.9-3.61,14.55-5.41,22.95-5.41s14.21,1.75,18.5,5.25c4.29,3.5,6.43,8.83,6.43,15.98v39.94h-11.42ZM599.33,601.99l-6.33.21c-4.75.14-8.29,1-10.61,2.57-2.32,1.57-3.48,3.97-3.48,7.18,0,4.61,2.64,6.92,7.93,6.92,3.79,0,6.82-1.09,9.09-3.27,2.27-2.18,3.4-5.07,3.4-8.68v-4.93Z"/>
    <path class="cls-1" d="M648.76,629.76h-16.35v-83.42h16.35v83.42Z"/>
    <path class="cls-1" d="M665.22,554.33c0-5.32,2.97-7.99,8.9-7.99s8.9,2.66,8.9,7.99c0,2.54-.74,4.51-2.22,5.92-1.48,1.41-3.71,2.12-6.67,2.12-5.93,0-8.9-2.68-8.9-8.04ZM682.27,629.76h-16.35v-59.94h16.35v59.94Z"/>
    <path class="cls-1" d="M718.4,630.83c-7.04,0-12.57-2.73-16.59-8.2-4.02-5.47-6.03-13.04-6.03-22.73s2.05-17.49,6.14-22.97c4.09-5.49,9.73-8.23,16.91-8.23,7.54,0,13.3,2.93,17.26,8.79h.54c-.82-4.47-1.23-8.45-1.23-11.96v-19.19h16.4v83.42h-12.54l-3.16-7.77h-.7c-3.72,5.9-9.38,8.85-16.99,8.85ZM724.14,617.8c4.18,0,7.25-1.21,9.19-3.65,1.95-2.43,3.01-6.56,3.19-12.38v-1.77c0-6.43-.99-11.04-2.98-13.83-1.98-2.79-5.21-4.18-9.68-4.18-3.65,0-6.48,1.55-8.5,4.64-2.02,3.09-3.03,7.59-3.03,13.48s1.02,10.32,3.06,13.27,4.95,4.42,8.74,4.42Z"/>
    <path class="cls-1" d="M806.96,629.76l-3.16-8.15h-.43c-2.75,3.47-5.58,5.87-8.5,7.21-2.91,1.34-6.71,2.01-11.39,2.01-5.76,0-10.29-1.64-13.59-4.93-3.31-3.29-4.96-7.97-4.96-14.05s2.22-11.05,6.67-14.07c4.45-3.02,11.16-4.69,20.13-5.01l10.4-.32v-2.63c0-6.08-3.11-9.11-9.33-9.11-4.79,0-10.42,1.45-16.89,4.34l-5.41-11.04c6.9-3.61,14.55-5.41,22.95-5.41s14.21,1.75,18.5,5.25c4.29,3.5,6.43,8.83,6.43,15.98v39.94h-11.42ZM802.14,601.99l-6.33.21c-4.75.14-8.29,1-10.61,2.57-2.32,1.57-3.48,3.97-3.48,7.18,0,4.61,2.64,6.92,7.93,6.92,3.79,0,6.82-1.09,9.09-3.27,2.27-2.18,3.4-5.07,3.4-8.68v-4.93Z"/>
    <path class="cls-1" d="M854.2,630.83c-7.04,0-12.57-2.73-16.59-8.2-4.02-5.47-6.03-13.04-6.03-22.73s2.05-17.49,6.14-22.97c4.09-5.49,9.73-8.23,16.91-8.23,7.54,0,13.3,2.93,17.26,8.79h.54c-.82-4.47-1.23-8.45-1.23-11.96v-19.19h16.4v83.42h-12.54l-3.16-7.77h-.7c-3.72,5.9-9.38,8.85-16.99,8.85ZM859.93,617.8c4.18,0,7.25-1.21,9.19-3.65,1.95-2.43,3.01-6.56,3.19-12.38v-1.77c0-6.43-.99-11.04-2.98-13.83-1.98-2.79-5.21-4.18-9.68-4.18-3.65,0-6.48,1.55-8.5,4.64-2.02,3.09-3.03,7.59-3.03,13.48s1.02,10.32,3.06,13.27,4.95,4.42,8.74,4.42Z"/>
  </g>
  <circle class="cls-1" cx="537.48" cy="243.59" r="115.18"/>
  <g>
    <path class="cls-4" d="M537.48,122.64c-66.09,0-119.67,53.58-119.67,119.67s53.58,119.67,119.67,119.67,119.67-53.58,119.67-119.67-53.58-119.67-119.67-119.67ZM624.17,218.68s-13.22,3.45-13.99,7.31c-1.2,6.33-20.32,10.62-20.32,10.62l-12.94,6.82c-4.29,1.41-8.51,1.41-12.3,2.25-1.9.49-3.73,1.13-5.41,2.25-1.69,1.05-3.23,2.6-4.57,4.78-1.34,1.27-2.74,2.46-4.29,3.37-1.55.98-2.39,2.67-2.74,4.43-2.04,9.21-2.25,18.35.28,27.56,2.39,8.44,8.93,15.26,16.52,16.73,8.58,1.69,17.23,4.29,26.01,3.09,8.65-1.2,16.52.98,24.61,3.23,2.81.77,3.09-.56,3.87,1.9h-4.43c-29.95,0-59.97.35-89.93-.07-23.13-.35-46.33-.21-69.47-.42h-1.48c-.98,0-1.69-.21-1.76-1.41,0-1.41.98-1.2,1.83-1.2,5.13-.21,10.34-.21,15.47-.7,8.02-.7,16.1-.49,24.12-.91,4.64-.21,9.21-1.97,13.99-1.76,1.05,0,2.25-.98,3.23-1.76,3.09-2.39,6.12-4.36,10.27-4.85,3.23-.35,4.92-3.3,5.2-6.61.28-3.37.28-6.82.49-10.19.07-1.62,0-3.37.42-4.85,2.32-7.24.7-13.57-4.01-19.34-1.27-1.55-1.69-3.37-2.11-5.2-.77-2.88-2.25-5.06-5.13-2.67-3.45,2.88-6.33-.84-7.87-1.2,0,0-20.74-2.95-29.11-5.98-6.05-2.18-28.55-14.55-28.55-14.55-1.12-1.05-2.04-2.25-1.83-4.71.21-3.37-.49-5.91,4.01-6.68.84-.14,3.45-3.16,3.37-5.41-.07-2.95,2.39-4.92,2.11-7.87-.14-1.13,1.2-1.55,2.25-.84.63.42,1.2.91,1.69,1.48,4.29,4.85,9.84-1.55,14.34,1.69,2.88-2.39,4.64-5.55,5.98-9,1.2-3.16,6.82-8.37,10.12-9.21.49-.14,1.2-.14,1.41-.49,2.18-3.52,4.29-7.03,6.33-10.62.35-.56.14-1.48.28-2.18.49-1.9.49-4.92,2.81-4.57s5.55.35,6.68,3.59c.35,1.05.91,2.67,1.9,2.6,4.22-.07,7.24,2.25,10.69,4.22,1.76.98,3.16-.77,3.37-2.53.98-6.61,5.98-7.17,11.11-7.73,2.32-.28,4.78-1.55,5.91,1.97.35,1.05,1.55.63,2.18-.07,1.48-1.55,2.95-3.09,4.36-4.71.84-.98.98-3.66,3.23-1.41.14.14.77-.07.91-.28,3.23-4.5,6.96-1.97,10.69-.91,1.48.42,2.46.7,1.41,2.39,3.59,1.83,2.46,5.77,3.8,8.58.63,1.41,2.67,1.9,3.3,1.05,1.62-2.04,3.73-.56,5.41-1.41,1.48-.77,1.76.84,1.69,2.04,0,2.11,0,4.15,2.88,4.22.21,0,.49.21.56.42,3.37,6.96,8.09,2.81,12.44,1.55,1.48-.42,2.88-.56,3.09,1.41.21,1.76,1.83,2.81,2.18,4.01.84,2.88,2.32,2.32,4.36,2.11,2.53-.28,4.99.28,6.82,2.39.42.49.98,1.2,1.48,1.13,2.88-.21,4.78.91,5.91,2.53,1.12,1.62,1.48,3.66,1.2,5.41.21,5.91,7.8,10.97,3.59,15.19h.07Z"/>
    <g>
      <g>
        <path class="cls-3" d="M536.63,431.55c-47.45,0-93.46-18.13-128.21-50.09-5.83-5.35-5.91-14.54,0-19.97l1.76-1.68c5.19-4.79,13.18-4.95,18.37-.16,29.32,27,68.06,42.26,108.08,42.26s96.74-23.33,126.93-62.87c4.23-5.59,12.14-6.87,18.05-3.04l2.08,1.36c6.63,4.31,8.23,13.34,3.43,19.57-35.71,46.97-90.99,74.69-150.58,74.69l.08-.08Z"/>
        <path class="cls-3" d="M410.18,398.07l2.08-17.49c.88-7.43,7.67-12.78,15.1-11.9l17.49,2.08c11.98,1.44,19.81-12.38,12.3-21.89h0c-2.24-2.8-5.51-4.63-9.03-5.11l-44.49-5.35c-7.43-.88-14.22,4.39-15.1,11.9l-5.35,44.49c-.4,3.59.56,7.19,2.8,9.99h0c7.51,9.51,22.69,5.27,24.12-6.79l.08.08Z"/>
      </g>
      <g>
        <path class="cls-3" d="M703.99,293.91l-2.4-.72c-6.71-2.08-10.78-8.95-9.27-15.82,2.56-11.42,3.83-23.17,3.83-34.99,0-81-60.23-148.26-139.24-158.25-7.03-.88-12.06-7.11-11.74-14.14l.16-2.48c.4-7.91,7.43-13.82,15.26-12.86,93.78,11.74,165.28,91.55,165.28,187.72s-1.52,27.88-4.55,41.46c-1.76,7.75-9.67,12.46-17.25,10.15l-.08-.08Z"/>
        <path class="cls-3" d="M734.74,274.02l-16.22,6.95c-6.87,2.96-14.86-.24-17.81-7.19l-6.95-16.22c-4.79-11.1-20.61-10.94-25.08.32h0c-1.36,3.36-1.28,7.11.08,10.38l17.57,41.22c2.96,6.87,10.94,10.07,17.81,7.11l41.22-17.57c3.28-1.44,5.91-4.07,7.27-7.43h0c4.47-11.26-6.79-22.29-17.97-17.57h.08Z"/>
      </g>
      <g>
        <path class="cls-3" d="M380.86,322.27c-7.03,3.59-15.66.48-18.77-6.87-9.75-23.09-14.7-47.61-14.7-73.01,0-43.14,14.94-85.31,41.94-118.79,23.57-29.16,55.44-50.73,90.83-61.83,7.59-2.4,15.58,2.16,17.33,9.91l.56,2.48c1.6,6.87-2.4,13.82-9.11,15.98-29.88,9.35-56.72,27.56-76.61,52.16-23.17,28.6-35.39,63.27-35.39,100.17s4.07,41.94,12.22,61.27c2.8,6.63.08,14.22-6.23,17.49l-2.24,1.12.16-.08Z"/>
        <path class="cls-3" d="M465.06,54.9l14.14,10.54c5.99,4.47,7.19,13.02,2.72,19.01l-10.54,14.06c-7.27,9.67.8,23.33,12.78,21.57h0c3.59-.48,6.79-2.4,8.95-5.27l26.84-35.79c4.47-5.99,3.28-14.54-2.72-19.01l-35.79-26.84c-2.88-2.16-6.47-3.12-10.07-2.56h0c-11.98,1.68-15.9,17.01-6.23,24.28h-.08Z"/>
      </g>
    </g>
  </g>
</svg>