<?xml version="1.0" encoding="UTF-8"?>
<svg id="Capa_1" data-name="Capa 1" xmlns="http://www.w3.org/2000/svg" viewBox="0 0 2704.28 3083.66">
  <defs>
    <style>
      .cls-1 {
        fill: #b81f2a;
      }
    </style>
  </defs>
  <path class="cls-1" d="M1869.72,1984.23h-2.71l-421.26,451.16c-50.63,54.22-136.59,54.22-187.21,0l-421.26-451.16h-2.71C373.64,1984.23,0,2357.88,0,2818.79h0c0,146.29,118.59,264.87,264.87,264.87h2174.53c146.29,0,264.87-118.59,264.87-264.87h0c0-460.91-373.64-834.56-834.55-834.56Z"/>
  <path class="cls-1" d="M2544.88,473.97L1396.42,8.16c-27.01-10.96-57.25-10.87-84.2.24L159.12,483.71c-44.22,18.23-44.04,80.92.28,98.89l101.76,41.27v281c-51.45,23.22-87.33,74.86-87.33,134.97,0,40.47,16.27,77.12,42.58,103.85l-54.96,333.18c-8.72,52.85,32.06,100.91,85.62,100.91h149.76c53.57,0,94.34-48.05,85.62-100.91l-54.96-333.18c26.31-26.73,42.58-63.38,42.58-103.85,0-60.12-35.88-111.76-87.33-134.97v-231.69l322.93,130.98v453.23c0,357.04,289.44,646.48,646.48,646.48h0c357.04,0,646.48-289.44,646.48-646.48v-459.24l546.54-225.29c44.22-18.23,44.04-80.92-.28-98.89Z"/>
</svg>