<?xml version="1.0" encoding="UTF-8"?>
<svg id="Capa_1" data-name="Capa 1" xmlns="http://www.w3.org/2000/svg" viewBox="0 0 4342.15 857.82">
  <defs>
    <style>
      .cls-1 {
        fill: #b81f2a;
      }

      .cls-2 {
        fill: #fff;
      }
    </style>
  </defs>
  <rect class="cls-2" x="0" y="0" width="4342.15" height="857.82" rx="428.91" ry="428.91"/>
  <g>
    <g>
      <path class="cls-1" d="M1043.9,429.67c0,28.6-7.94,50.47-23.82,65.6-15.88,15.13-38.76,22.7-68.62,22.7h-48.48v-173.28h53.57c27.57,0,49.03,7.43,64.36,22.28,15.33,14.86,22.99,35.76,22.99,62.7ZM1014.03,430.61c0-41.48-19.4-62.22-58.19-62.22h-24.53v125.75h20.15c41.72,0,62.58-21.17,62.58-63.53Z"/>
      <path class="cls-1" d="M1135.4,520.33c-20.38,0-36.33-5.95-47.82-17.84-11.5-11.89-17.25-28.27-17.25-49.13s5.33-38.24,16-50.49,25.32-18.37,43.97-18.37c17.3,0,30.97,5.26,41.01,15.76,10.03,10.51,15.05,24.97,15.05,43.38v15.05h-87.35c.39,12.72,3.83,22.5,10.31,29.33,6.48,6.83,15.6,10.25,27.38,10.25,7.74,0,14.95-.73,21.63-2.19,6.68-1.46,13.85-3.89,21.51-7.29v22.64c-6.8,3.24-13.67,5.53-20.62,6.87-6.95,1.34-14.89,2.02-23.82,2.02ZM1130.3,405.61c-8.85,0-15.94,2.8-21.27,8.41-5.33,5.61-8.52,13.79-9.54,24.53h59.5c-.16-10.82-2.77-19.02-7.82-24.59-5.06-5.57-12.01-8.36-20.86-8.36Z"/>
      <path class="cls-1" d="M1306.07,480.63c0,12.8-4.66,22.62-13.98,29.45-9.32,6.83-22.68,10.25-40.06,10.25s-31.49-2.65-42.08-7.94v-24.06c15.41,7.11,29.75,10.67,43.02,10.67,17.15,0,25.72-5.18,25.72-15.53,0-3.32-.95-6.08-2.84-8.3-1.9-2.21-5.02-4.5-9.36-6.87s-10.39-5.05-18.13-8.06c-15.09-5.85-25.3-11.69-30.64-17.54-5.33-5.85-8-13.43-8-22.76,0-11.22,4.52-19.93,13.57-26.13,9.05-6.2,21.35-9.3,36.92-9.3s29.99,3.12,43.74,9.36l-9.01,20.98c-14.15-5.85-26.04-8.77-35.68-8.77-14.7,0-22.05,4.19-22.05,12.56,0,4.11,1.92,7.59,5.75,10.43,3.83,2.84,12.19,6.76,25.07,11.73,10.82,4.19,18.69,8.02,23.59,11.5,4.9,3.48,8.53,7.49,10.9,12.03,2.37,4.54,3.56,9.98,3.56,16.3Z"/>
      <path class="cls-1" d="M1389.03,520.33c-19.83,0-34.9-5.79-45.22-17.36-10.31-11.57-15.47-28.19-15.47-49.84s5.39-38.99,16.18-50.85c10.78-11.85,26.37-17.78,46.76-17.78,13.83,0,26.27,2.57,37.33,7.7l-8.41,22.4c-11.77-4.58-21.49-6.87-29.16-6.87-22.68,0-34.02,15.05-34.02,45.16,0,14.7,2.82,25.74,8.47,33.13,5.65,7.39,13.93,11.08,24.83,11.08,12.4,0,24.14-3.08,35.2-9.25v24.3c-4.98,2.92-10.29,5.02-15.94,6.28-5.65,1.26-12.5,1.9-20.56,1.9Z"/>
      <path class="cls-1" d="M1538.37,517.96l-5.57-18.25h-.95c-6.32,7.98-12.68,13.41-19.08,16.3-6.4,2.88-14.62,4.33-24.65,4.33-12.88,0-22.94-3.48-30.16-10.43-7.23-6.95-10.85-16.79-10.85-29.51,0-13.51,5.02-23.7,15.05-30.58,10.03-6.87,25.32-10.63,45.87-11.26l22.64-.71v-6.99c0-8.38-1.96-14.64-5.87-18.79-3.91-4.15-9.98-6.22-18.19-6.22-6.72,0-13.16.99-19.32,2.96-6.16,1.97-12.09,4.31-17.78,6.99l-9.01-19.91c7.11-3.71,14.89-6.54,23.35-8.47,8.45-1.94,16.43-2.9,23.94-2.9,16.67,0,29.25,3.63,37.75,10.9,8.49,7.27,12.74,18.69,12.74,34.25v88.3h-19.91ZM1496.89,499c10.11,0,18.23-2.82,24.36-8.47,6.12-5.65,9.19-13.57,9.19-23.76v-11.38l-16.83.71c-13.12.47-22.66,2.67-28.62,6.58-5.97,3.91-8.95,9.9-8.95,17.95,0,5.85,1.74,10.37,5.22,13.57,3.48,3.2,8.69,4.8,15.64,4.8Z"/>
      <path class="cls-1" d="M1663.65,384.51c5.61,0,10.23.4,13.87,1.19l-2.73,25.96c-3.95-.95-8.06-1.42-12.33-1.42-11.14,0-20.17,3.64-27.08,10.9-6.92,7.27-10.37,16.71-10.37,28.33v68.51h-27.85v-131.08h21.81l3.67,23.11h1.42c4.34-7.82,10.02-14.02,17.01-18.61,6.99-4.58,14.52-6.87,22.58-6.87Z"/>
      <path class="cls-1" d="M1812.51,386.88v15.29l-22.4,4.15c2.05,2.77,3.75,6.16,5.1,10.19,1.34,4.03,2.02,8.3,2.02,12.8,0,13.51-4.66,24.14-13.99,31.88-9.32,7.74-22.16,11.62-38.52,11.62-4.19,0-7.98-.32-11.38-.95-6,3.71-9.01,8.06-9.01,13.04,0,3,1.4,5.26,4.21,6.76,2.8,1.5,7.96,2.25,15.47,2.25h22.87c14.46,0,25.44,3.08,32.95,9.24,7.51,6.16,11.26,15.05,11.26,26.67,0,14.85-6.12,26.31-18.37,34.37-12.25,8.06-29.95,12.09-53.1,12.09-17.86,0-31.49-3.16-40.89-9.48-9.4-6.32-14.11-15.33-14.11-27.02,0-8.06,2.55-14.84,7.65-20.33,5.1-5.49,12.23-9.3,21.39-11.44-3.71-1.58-6.78-4.13-9.19-7.65-2.41-3.51-3.62-7.21-3.62-11.08,0-4.9,1.38-9.05,4.15-12.44,2.76-3.4,6.87-6.76,12.33-10.08-6.8-2.92-12.31-7.68-16.53-14.28-4.23-6.6-6.34-14.32-6.34-23.17,0-14.22,4.48-25.24,13.45-33.07,8.97-7.82,21.75-11.73,38.34-11.73,3.71,0,7.6.26,11.67.77,4.07.51,7.13,1.05,9.19,1.6h45.39ZM1709.52,538.35c0,6,2.71,10.63,8.12,13.87,5.41,3.24,13.02,4.86,22.81,4.86,15.17,0,26.47-2.17,33.9-6.52,7.42-4.35,11.14-10.12,11.14-17.31,0-5.69-2.03-9.74-6.1-12.15-4.07-2.41-11.63-3.62-22.7-3.62h-21.1c-7.98,0-14.32,1.88-19.02,5.63-4.7,3.75-7.05,8.83-7.05,15.23ZM1721.49,429.31c0,8.22,2.11,14.54,6.34,18.96,4.23,4.43,10.29,6.64,18.19,6.64,16.12,0,24.18-8.61,24.18-25.84,0-8.53-2-15.11-5.99-19.73-3.99-4.62-10.06-6.93-18.19-6.93s-14.16,2.29-18.31,6.87c-4.15,4.58-6.22,11.26-6.22,20.03Z"/>
      <path class="cls-1" d="M1918.83,517.96l-5.57-18.25h-.95c-6.32,7.98-12.68,13.41-19.08,16.3-6.4,2.88-14.62,4.33-24.65,4.33-12.88,0-22.94-3.48-30.16-10.43-7.23-6.95-10.85-16.79-10.85-29.51,0-13.51,5.02-23.7,15.05-30.58,10.03-6.87,25.32-10.63,45.87-11.26l22.64-.71v-6.99c0-8.38-1.96-14.64-5.87-18.79-3.91-4.15-9.98-6.22-18.19-6.22-6.72,0-13.16.99-19.32,2.96-6.16,1.97-12.09,4.31-17.78,6.99l-9.01-19.91c7.11-3.71,14.89-6.54,23.35-8.47,8.45-1.94,16.43-2.9,23.94-2.9,16.67,0,29.25,3.63,37.75,10.9,8.49,7.27,12.74,18.69,12.74,34.25v88.3h-19.91ZM1877.34,499c10.11,0,18.23-2.82,24.36-8.47,6.12-5.65,9.19-13.57,9.19-23.76v-11.38l-16.83.71c-13.12.47-22.66,2.67-28.62,6.58-5.97,3.91-8.95,9.9-8.95,17.95,0,5.85,1.74,10.37,5.22,13.57,3.48,3.2,8.69,4.8,15.64,4.8Z"/>
      <path class="cls-1" d="M2044.11,384.51c5.61,0,10.23.4,13.87,1.19l-2.73,25.96c-3.95-.95-8.06-1.42-12.33-1.42-11.14,0-20.17,3.64-27.08,10.9-6.92,7.27-10.37,16.71-10.37,28.33v68.51h-27.85v-131.08h21.81l3.67,23.11h1.42c4.34-7.82,10.02-14.02,17.01-18.61,6.99-4.58,14.52-6.87,22.58-6.87Z"/>
      <path class="cls-1" d="M2255.79,517.96h-27.97v-80.83c0-10.03-1.9-17.52-5.69-22.46-3.79-4.94-9.72-7.41-17.78-7.41-10.75,0-18.63,3.5-23.65,10.49-5.02,6.99-7.53,18.63-7.53,34.9v65.31h-27.85v-131.08h21.81l3.91,17.19h1.42c3.63-6.24,8.91-11.06,15.82-14.46,6.91-3.4,14.52-5.1,22.82-5.1,20.15,0,33.5,6.87,40.06,20.62h1.9c3.87-6.48,9.32-11.54,16.35-15.17,7.03-3.63,15.09-5.45,24.18-5.45,15.65,0,27.04,3.95,34.19,11.85,7.15,7.9,10.73,19.95,10.73,36.15v85.45h-27.85v-80.83c0-10.03-1.92-17.52-5.75-22.46-3.83-4.94-9.78-7.41-17.84-7.41-10.83,0-18.75,3.38-23.76,10.13-5.02,6.76-7.53,17.13-7.53,31.11v69.45Z"/>
      <path class="cls-1" d="M2459.41,517.96l-5.57-18.25h-.95c-6.32,7.98-12.68,13.41-19.08,16.3s-14.62,4.33-24.65,4.33c-12.88,0-22.94-3.48-30.16-10.43-7.23-6.95-10.85-16.79-10.85-29.51,0-13.51,5.02-23.7,15.05-30.58,10.03-6.87,25.32-10.63,45.87-11.26l22.64-.71v-6.99c0-8.38-1.96-14.64-5.87-18.79-3.91-4.15-9.98-6.22-18.19-6.22-6.72,0-13.16.99-19.32,2.96-6.16,1.97-12.09,4.31-17.78,6.99l-9.01-19.91c7.11-3.71,14.89-6.54,23.35-8.47,8.45-1.94,16.43-2.9,23.94-2.9,16.67,0,29.25,3.63,37.75,10.9,8.49,7.27,12.74,18.69,12.74,34.25v88.3h-19.91ZM2417.92,499c10.11,0,18.23-2.82,24.36-8.47,6.12-5.65,9.19-13.57,9.19-23.76v-11.38l-16.83.71c-13.12.47-22.66,2.67-28.62,6.58-5.97,3.91-8.95,9.9-8.95,17.95,0,5.85,1.74,10.37,5.22,13.57,3.48,3.2,8.69,4.8,15.64,4.8Z"/>
      <path class="cls-1" d="M2546.05,517.96h-27.85v-184.42h27.85v184.42Z"/>
      <path class="cls-1" d="M2613.72,517.96h-27.85v-184.42h27.85v184.42Z"/>
      <path class="cls-1" d="M2735.56,517.96l-5.57-18.25h-.95c-6.32,7.98-12.68,13.41-19.08,16.3-6.4,2.88-14.62,4.33-24.65,4.33-12.88,0-22.94-3.48-30.16-10.43-7.23-6.95-10.85-16.79-10.85-29.51,0-13.51,5.02-23.7,15.05-30.58,10.03-6.87,25.32-10.63,45.87-11.26l22.64-.71v-6.99c0-8.38-1.96-14.64-5.87-18.79-3.91-4.15-9.98-6.22-18.19-6.22-6.72,0-13.16.99-19.32,2.96-6.16,1.97-12.09,4.31-17.78,6.99l-9.01-19.91c7.11-3.71,14.89-6.54,23.35-8.47,8.45-1.94,16.43-2.9,23.94-2.9,16.67,0,29.25,3.63,37.75,10.9,8.49,7.27,12.74,18.69,12.74,34.25v88.3h-19.91ZM2694.08,499c10.11,0,18.23-2.82,24.36-8.47,6.12-5.65,9.19-13.57,9.19-23.76v-11.38l-16.83.71c-13.12.47-22.66,2.67-28.62,6.58-5.97,3.91-8.95,9.9-8.95,17.95,0,5.85,1.74,10.37,5.22,13.57,3.48,3.2,8.69,4.8,15.64,4.8Z"/>
      <path class="cls-1" d="M2910.26,520.33c-19.83,0-34.9-5.79-45.22-17.36-10.31-11.57-15.47-28.19-15.47-49.84s5.39-38.99,16.18-50.85c10.78-11.85,26.37-17.78,46.76-17.78,13.83,0,26.27,2.57,37.33,7.7l-8.41,22.4c-11.77-4.58-21.49-6.87-29.16-6.87-22.68,0-34.02,15.05-34.02,45.16,0,14.7,2.82,25.74,8.47,33.13,5.65,7.39,13.93,11.08,24.83,11.08,12.4,0,24.14-3.08,35.2-9.25v24.3c-4.98,2.92-10.29,5.02-15.94,6.28-5.65,1.26-12.5,1.9-20.56,1.9Z"/>
      <path class="cls-1" d="M3070.03,517.96l-3.91-17.19h-1.42c-3.87,6.09-9.38,10.87-16.53,14.34-7.15,3.48-15.31,5.22-24.48,5.22-15.88,0-27.73-3.95-35.56-11.85-7.82-7.9-11.73-19.87-11.73-35.91v-85.69h28.09v80.83c0,10.03,2.05,17.56,6.16,22.58,4.11,5.02,10.55,7.53,19.32,7.53,11.69,0,20.29-3.5,25.78-10.49,5.49-6.99,8.24-18.71,8.24-35.14v-65.31h27.97v131.08h-21.93Z"/>
      <path class="cls-1" d="M3198.15,384.51c5.61,0,10.23.4,13.87,1.19l-2.73,25.96c-3.95-.95-8.06-1.42-12.33-1.42-11.14,0-20.17,3.64-27.08,10.9-6.92,7.27-10.37,16.71-10.37,28.33v68.51h-27.85v-131.08h21.81l3.67,23.11h1.42c4.34-7.82,10.02-14.02,17.01-18.61,6.99-4.58,14.52-6.87,22.58-6.87Z"/>
      <path class="cls-1" d="M3302.81,384.51c5.61,0,10.23.4,13.87,1.19l-2.73,25.96c-3.95-.95-8.06-1.42-12.33-1.42-11.14,0-20.17,3.64-27.08,10.9-6.92,7.27-10.37,16.71-10.37,28.33v68.51h-27.85v-131.08h21.81l3.67,23.11h1.42c4.34-7.82,10.02-14.02,17.01-18.61,6.99-4.58,14.52-6.87,22.58-6.87Z"/>
      <path class="cls-1" d="M3339.31,352.15c0-4.98,1.36-8.81,4.09-11.5,2.73-2.69,6.62-4.03,11.67-4.03s8.71,1.34,11.44,4.03c2.73,2.69,4.09,6.52,4.09,11.5s-1.36,8.47-4.09,11.2-6.54,4.09-11.44,4.09-8.95-1.36-11.67-4.09c-2.73-2.73-4.09-6.46-4.09-11.2ZM3368.83,517.96h-27.85v-131.08h27.85v131.08Z"/>
      <path class="cls-1" d="M3461.51,520.33c-19.83,0-34.9-5.79-45.22-17.36-10.31-11.57-15.47-28.19-15.47-49.84s5.39-38.99,16.18-50.85c10.78-11.85,26.37-17.78,46.76-17.78,13.83,0,26.27,2.57,37.33,7.7l-8.41,22.4c-11.77-4.58-21.49-6.87-29.16-6.87-22.68,0-34.02,15.05-34.02,45.16,0,14.7,2.82,25.74,8.47,33.13,5.65,7.39,13.93,11.08,24.83,11.08,12.4,0,24.14-3.08,35.2-9.25v24.3c-4.98,2.92-10.29,5.02-15.94,6.28-5.65,1.26-12.5,1.9-20.56,1.9Z"/>
      <path class="cls-1" d="M3621.28,517.96l-3.91-17.19h-1.42c-3.87,6.09-9.38,10.87-16.53,14.34-7.15,3.48-15.31,5.22-24.48,5.22-15.88,0-27.73-3.95-35.56-11.85-7.82-7.9-11.73-19.87-11.73-35.91v-85.69h28.09v80.83c0,10.03,2.05,17.56,6.16,22.58,4.11,5.02,10.55,7.53,19.32,7.53,11.69,0,20.29-3.5,25.78-10.49,5.49-6.99,8.24-18.71,8.24-35.14v-65.31h27.97v131.08h-21.93Z"/>
      <path class="cls-1" d="M3710.76,517.96h-27.85v-184.42h27.85v184.42Z"/>
      <path class="cls-1" d="M3832.6,517.96l-5.57-18.25h-.95c-6.32,7.98-12.68,13.41-19.08,16.3-6.4,2.88-14.62,4.33-24.65,4.33-12.88,0-22.94-3.48-30.16-10.43-7.23-6.95-10.85-16.79-10.85-29.51,0-13.51,5.02-23.7,15.05-30.58,10.03-6.87,25.32-10.63,45.87-11.26l22.64-.71v-6.99c0-8.38-1.96-14.64-5.87-18.79-3.91-4.15-9.98-6.22-18.19-6.22-6.72,0-13.16.99-19.32,2.96-6.16,1.97-12.09,4.31-17.78,6.99l-9.01-19.91c7.11-3.71,14.89-6.54,23.35-8.47,8.45-1.94,16.43-2.9,23.94-2.9,16.67,0,29.25,3.63,37.75,10.9,8.49,7.27,12.74,18.69,12.74,34.25v88.3h-19.91ZM3791.12,499c10.11,0,18.23-2.82,24.36-8.47,6.12-5.65,9.19-13.57,9.19-23.76v-11.38l-16.83.71c-13.12.47-22.66,2.67-28.62,6.58-5.97,3.91-8.95,9.9-8.95,17.95,0,5.85,1.74,10.37,5.22,13.57,3.48,3.2,8.69,4.8,15.64,4.8Z"/>
      <path class="cls-1" d="M3957.88,384.51c5.61,0,10.23.4,13.87,1.19l-2.73,25.96c-3.95-.95-8.06-1.42-12.33-1.42-11.14,0-20.17,3.64-27.08,10.9-6.92,7.27-10.37,16.71-10.37,28.33v68.51h-27.85v-131.08h21.81l3.67,23.11h1.42c4.34-7.82,10.02-14.02,17.01-18.61,6.99-4.58,14.52-6.87,22.58-6.87Z"/>
    </g>
    <g>
      <path class="cls-1" d="M574.01,561.55l124.93-153.29c6.15-7.6,3.27-17.7-6.4-22.52-4.69-2.34-10.26-3.11-15.7-2.17-5.46.95-10.12,3.5-13.12,7.18l-86.44,106.07v-205.78c0-8.99-9.36-16.3-20.87-16.3-11.5,0-20.86,7.31-20.86,16.3v205.79s-86.44-106.07-86.44-106.07c-3-3.69-7.66-6.24-13.12-7.18-5.44-.94-11.01-.17-15.7,2.17-6.04,3.02-9.64,8.17-9.64,13.77,0,3.07,1.12,6.09,3.26,8.76l124.91,153.27c3.86,4.72,10.44,7.53,17.6,7.53s13.73-2.82,17.6-7.53Z"/>
      <path class="cls-1" d="M725.49,635.08h-338.17c-9.34,0-16.92-7.58-16.92-16.92v-97.84c0-9.34,7.57-16.92,16.92-16.92s16.92,7.58,16.92,16.92v80.92h304.33v-80.92c0-9.34,7.57-16.92,16.92-16.92s16.92,7.58,16.92,16.92v97.84c0,9.34-7.57,16.92-16.92,16.92Z"/>
    </g>
  </g>
</svg>