<?xml version="1.0" encoding="UTF-8"?>
<svg id="Capa_1" data-name="Capa 1" xmlns="http://www.w3.org/2000/svg" viewBox="0 0 4131.83 857.82">
  <defs>
    <style>
      .cls-1 {
        fill: #b81f2a;
      }

      .cls-2 {
        fill: #fff;
      }
    </style>
  </defs>
  <rect class="cls-1" x="0" y="0" width="4131.83" height="857.82" rx="428.91" ry="428.91"/>
  <g>
    <g>
      <path class="cls-2" d="M708.06,431.67c0,28.92-8.03,51.02-24.08,66.32-16.06,15.3-39.18,22.94-69.37,22.94h-49v-175.17h54.16c27.88,0,49.56,7.51,65.06,22.53,15.5,15.02,23.24,36.14,23.24,63.38ZM677.86,432.62c0-41.93-19.61-62.9-58.83-62.9h-24.8v127.12h20.37c42.17,0,63.26-21.41,63.26-64.22Z"/>
      <path class="cls-2" d="M800.55,523.32c-20.61,0-36.72-6.01-48.34-18.03-11.62-12.02-17.43-28.58-17.43-49.66s5.39-38.66,16.17-51.04c10.78-12.38,25.6-18.57,44.45-18.57,17.49,0,31.31,5.31,41.46,15.94s15.22,25.24,15.22,43.85v15.22h-88.3c.4,12.86,3.87,22.74,10.42,29.65,6.55,6.91,15.78,10.36,27.68,10.36,7.83,0,15.12-.74,21.87-2.22s14-3.93,21.75-7.37v22.88c-6.87,3.27-13.82,5.59-20.85,6.95-7.03,1.36-15.06,2.04-24.08,2.04ZM795.4,407.34c-8.95,0-16.11,2.84-21.51,8.51-5.39,5.67-8.61,13.94-9.65,24.8h60.15c-.16-10.94-2.8-19.23-7.91-24.86-5.11-5.63-12.14-8.45-21.09-8.45Z"/>
      <path class="cls-2" d="M973.08,483.19c0,12.94-4.71,22.86-14.14,29.77-9.43,6.91-22.92,10.36-40.5,10.36s-31.83-2.68-42.53-8.03v-24.32c15.58,7.19,30.07,10.78,43.49,10.78,17.33,0,26-5.23,26-15.7,0-3.35-.96-6.15-2.88-8.39-1.92-2.24-5.07-4.55-9.47-6.95-4.39-2.4-10.5-5.11-18.33-8.15-15.26-5.91-25.58-11.82-30.97-17.73-5.39-5.91-8.09-13.58-8.09-23,0-11.34,4.57-20.15,13.72-26.42,9.15-6.27,21.59-9.41,37.32-9.41s30.31,3.16,44.21,9.47l-9.11,21.21c-14.3-5.91-26.32-8.87-36.06-8.87-14.86,0-22.29,4.23-22.29,12.7,0,4.15,1.94,7.67,5.81,10.54,3.87,2.88,12.32,6.83,25.34,11.86,10.94,4.23,18.89,8.11,23.84,11.62,4.95,3.51,8.63,7.57,11.02,12.16,2.4,4.59,3.59,10.08,3.59,16.47Z"/>
      <path class="cls-2" d="M1056.95,523.32c-20.05,0-35.29-5.85-45.71-17.55-10.42-11.7-15.64-28.5-15.64-50.38s5.45-39.42,16.35-51.4c10.9-11.98,26.66-17.97,47.27-17.97,13.98,0,26.56,2.6,37.74,7.79l-8.51,22.64c-11.9-4.63-21.73-6.95-29.47-6.95-22.92,0-34.39,15.22-34.39,45.65,0,14.86,2.86,26.02,8.57,33.49,5.71,7.47,14.08,11.2,25.1,11.2,12.54,0,24.4-3.12,35.58-9.35v24.56c-5.03,2.96-10.4,5.07-16.11,6.35s-12.64,1.92-20.79,1.92Z"/>
      <path class="cls-2" d="M1218.46,520.93l-3.95-17.37h-1.44c-3.91,6.15-9.49,10.98-16.71,14.5-7.23,3.51-15.48,5.27-24.74,5.27-16.06,0-28.04-3.99-35.94-11.98-7.91-7.99-11.86-20.09-11.86-36.3v-86.63h28.4v81.71c0,10.14,2.08,17.75,6.23,22.82,4.15,5.07,10.66,7.61,19.53,7.61,11.82,0,20.51-3.53,26.06-10.6,5.55-7.07,8.33-18.91,8.33-35.52v-66.02h28.28v132.51h-22.17Z"/>
      <path class="cls-2" d="M1348.46,386.02c16.53,0,29.41,5.99,38.64,17.97,9.23,11.98,13.84,28.8,13.84,50.44s-4.67,38.64-14.02,50.74c-9.35,12.1-22.33,18.15-38.94,18.15s-29.79-6.03-39.06-18.09h-1.92l-5.15,15.7h-21.09v-186.43h28.16v44.33c0,3.27-.16,8.15-.48,14.62-.32,6.47-.56,10.58-.72,12.34h1.2c8.95-13.18,22.13-19.77,39.54-19.77ZM1341.15,409.02c-11.34,0-19.51,3.33-24.5,10-4.99,6.67-7.57,17.83-7.73,33.49v1.92c0,16.13,2.56,27.82,7.67,35.05,5.11,7.23,13.46,10.84,25.04,10.84,9.98,0,17.55-3.95,22.7-11.86,5.15-7.91,7.73-19.33,7.73-34.27,0-30.11-10.3-45.17-30.91-45.17Z"/>
      <path class="cls-2" d="M1500.86,386.02c5.67,0,10.34.4,14.02,1.2l-2.76,26.24c-3.99-.96-8.15-1.44-12.46-1.44-11.26,0-20.39,3.67-27.38,11.02-6.99,7.35-10.48,16.89-10.48,28.64v69.25h-28.16v-132.51h22.05l3.71,23.36h1.44c4.39-7.91,10.12-14.18,17.19-18.81,7.07-4.63,14.68-6.95,22.82-6.95Z"/>
      <path class="cls-2" d="M1597.31,523.32c-20.61,0-36.72-6.01-48.34-18.03-11.62-12.02-17.43-28.58-17.43-49.66s5.39-38.66,16.17-51.04c10.78-12.38,25.6-18.57,44.45-18.57,17.49,0,31.31,5.31,41.46,15.94,10.14,10.62,15.22,25.24,15.22,43.85v15.22h-88.3c.4,12.86,3.87,22.74,10.42,29.65,6.55,6.91,15.78,10.36,27.68,10.36,7.83,0,15.12-.74,21.87-2.22,6.75-1.48,14-3.93,21.75-7.37v22.88c-6.87,3.27-13.82,5.59-20.85,6.95-7.03,1.36-15.06,2.04-24.08,2.04ZM1592.16,407.34c-8.95,0-16.11,2.84-21.51,8.51-5.39,5.67-8.61,13.94-9.65,24.8h60.15c-.16-10.94-2.8-19.23-7.91-24.86s-12.14-8.45-21.09-8.45Z"/>
      <path class="cls-2" d="M1793.93,500.56c6.87,0,13.74-1.08,20.61-3.23v21.21c-3.12,1.36-7.13,2.5-12.04,3.41-4.91.92-10,1.38-15.28,1.38-26.68,0-40.02-14.06-40.02-42.17v-71.41h-18.09v-12.46l19.41-10.3,9.59-28.04h17.37v29.47h37.74v21.33h-37.74v70.93c0,6.79,1.7,11.8,5.09,15.04,3.39,3.23,7.85,4.85,13.36,4.85Z"/>
      <path class="cls-2" d="M1934.47,520.93l-3.95-17.37h-1.44c-3.91,6.15-9.49,10.98-16.71,14.5-7.23,3.51-15.48,5.27-24.74,5.27-16.06,0-28.04-3.99-35.94-11.98-7.91-7.99-11.86-20.09-11.86-36.3v-86.63h28.4v81.71c0,10.14,2.08,17.75,6.23,22.82,4.15,5.07,10.66,7.61,19.53,7.61,11.82,0,20.51-3.53,26.06-10.6,5.55-7.07,8.33-18.91,8.33-35.52v-66.02h28.28v132.51h-22.17Z"/>
      <path class="cls-2" d="M2113.95,523.32c-20.05,0-35.29-5.85-45.71-17.55-10.42-11.7-15.64-28.5-15.64-50.38s5.45-39.42,16.35-51.4c10.9-11.98,26.66-17.97,47.27-17.97,13.98,0,26.56,2.6,37.74,7.79l-8.51,22.64c-11.9-4.63-21.73-6.95-29.47-6.95-22.92,0-34.39,15.22-34.39,45.65,0,14.86,2.86,26.02,8.57,33.49,5.71,7.47,14.08,11.2,25.1,11.2,12.54,0,24.4-3.12,35.58-9.35v24.56c-5.03,2.96-10.4,5.07-16.11,6.35-5.71,1.28-12.64,1.92-20.79,1.92Z"/>
      <path class="cls-2" d="M2264.92,520.93l-5.63-18.45h-.96c-6.39,8.07-12.82,13.56-19.29,16.47-6.47,2.92-14.78,4.37-24.92,4.37-13.02,0-23.18-3.51-30.49-10.54-7.31-7.03-10.96-16.97-10.96-29.83,0-13.66,5.07-23.96,15.22-30.91,10.14-6.95,25.6-10.74,46.37-11.38l22.88-.72v-7.07c0-8.47-1.98-14.8-5.93-18.99-3.95-4.19-10.08-6.29-18.39-6.29-6.79,0-13.3,1-19.53,3-6.23,2-12.22,4.35-17.97,7.07l-9.11-20.13c7.19-3.75,15.06-6.61,23.6-8.57,8.55-1.96,16.61-2.94,24.2-2.94,16.85,0,29.57,3.67,38.16,11.02,8.59,7.35,12.88,18.89,12.88,34.63v89.26h-20.13ZM2222.98,501.76c10.22,0,18.43-2.86,24.62-8.57,6.19-5.71,9.29-13.72,9.29-24.02v-11.5l-17.01.72c-13.26.48-22.9,2.7-28.94,6.65-6.03,3.95-9.05,10-9.05,18.15,0,5.91,1.76,10.48,5.27,13.72,3.51,3.23,8.79,4.85,15.82,4.85Z"/>
      <path class="cls-2" d="M2391.56,386.02c5.67,0,10.34.4,14.02,1.2l-2.76,26.24c-3.99-.96-8.15-1.44-12.46-1.44-11.26,0-20.39,3.67-27.38,11.02-6.99,7.35-10.48,16.89-10.48,28.64v69.25h-28.16v-132.51h22.05l3.71,23.36h1.44c4.39-7.91,10.12-14.18,17.19-18.81,7.07-4.63,14.68-6.95,22.82-6.95Z"/>
      <path class="cls-2" d="M2497.36,386.02c5.67,0,10.34.4,14.02,1.2l-2.76,26.24c-3.99-.96-8.15-1.44-12.46-1.44-11.26,0-20.39,3.67-27.38,11.02-6.99,7.35-10.48,16.89-10.48,28.64v69.25h-28.16v-132.51h22.05l3.71,23.36h1.44c4.39-7.91,10.12-14.18,17.19-18.81,7.07-4.63,14.68-6.95,22.82-6.95Z"/>
      <path class="cls-2" d="M2593.81,523.32c-20.61,0-36.72-6.01-48.34-18.03-11.62-12.02-17.43-28.58-17.43-49.66s5.39-38.66,16.17-51.04c10.78-12.38,25.6-18.57,44.45-18.57,17.49,0,31.31,5.31,41.46,15.94,10.14,10.62,15.22,25.24,15.22,43.85v15.22h-88.3c.4,12.86,3.87,22.74,10.42,29.65,6.55,6.91,15.78,10.36,27.68,10.36,7.83,0,15.12-.74,21.87-2.22s14-3.93,21.75-7.37v22.88c-6.87,3.27-13.82,5.59-20.85,6.95-7.03,1.36-15.06,2.04-24.08,2.04ZM2588.65,407.34c-8.95,0-16.11,2.84-21.51,8.51-5.39,5.67-8.61,13.94-9.65,24.8h60.15c-.16-10.94-2.8-19.23-7.91-24.86-5.11-5.63-12.14-8.45-21.09-8.45Z"/>
      <path class="cls-2" d="M2744.53,386.02c5.67,0,10.34.4,14.02,1.2l-2.76,26.24c-3.99-.96-8.15-1.44-12.46-1.44-11.26,0-20.39,3.67-27.38,11.02-6.99,7.35-10.48,16.89-10.48,28.64v69.25h-28.16v-132.51h22.05l3.71,23.36h1.44c4.39-7.91,10.12-14.18,17.19-18.81,7.07-4.63,14.68-6.95,22.82-6.95Z"/>
      <path class="cls-2" d="M2866.02,520.93l-5.63-18.45h-.96c-6.39,8.07-12.82,13.56-19.29,16.47-6.47,2.92-14.78,4.37-24.92,4.37-13.02,0-23.18-3.51-30.49-10.54-7.31-7.03-10.96-16.97-10.96-29.83,0-13.66,5.07-23.96,15.22-30.91,10.14-6.95,25.6-10.74,46.37-11.38l22.88-.72v-7.07c0-8.47-1.98-14.8-5.93-18.99s-10.08-6.29-18.39-6.29c-6.79,0-13.3,1-19.53,3-6.23,2-12.22,4.35-17.97,7.07l-9.11-20.13c7.19-3.75,15.06-6.61,23.6-8.57s16.61-2.94,24.2-2.94c16.85,0,29.57,3.67,38.16,11.02,8.59,7.35,12.88,18.89,12.88,34.63v89.26h-20.13ZM2824.09,501.76c10.22,0,18.43-2.86,24.62-8.57,6.19-5.71,9.29-13.72,9.29-24.02v-11.5l-17.01.72c-13.26.48-22.9,2.7-28.94,6.65-6.03,3.95-9.05,10-9.05,18.15,0,5.91,1.76,10.48,5.27,13.72,3.51,3.23,8.79,4.85,15.82,4.85Z"/>
    </g>
    <path class="cls-2" d="M3558.02,409.74l-166.93-136.05c-8.28-6.7-19.27-3.56-24.52,6.97-2.55,5.1-3.38,11.17-2.36,17.09,1.03,5.95,3.81,11.02,7.82,14.29l115.51,94.13h-354.1c-9.79,0-17.75,10.19-17.75,22.72s7.96,22.72,17.75,22.72h354.11l-115.51,94.14c-4.02,3.27-6.79,8.35-7.82,14.29-1.02,5.92-.18,11.99,2.37,17.1,3.29,6.57,8.9,10.5,14.99,10.5,3.35,0,6.63-1.22,9.54-3.55l166.91-136.03c5.14-4.21,8.2-11.37,8.2-19.16s-3.07-14.96-8.2-19.16Z"/>
  </g>
</svg>