<?xml version="1.0" encoding="UTF-8"?>
<svg id="Capa_1" xmlns="http://www.w3.org/2000/svg" version="1.1" viewBox="0 0 1908.22 413.84">
  <!-- Generator: Adobe Illustrator 30.6.0, SVG Export Plug-In . SVG Version: 2.1.4 Build 109)  -->
  <defs>
    <style>
      .st0 {
        fill: #cab9f5;
      }

      .st1 {
        fill: #fc8e8e;
      }

      .st2 {
        fill: #8c8c8c;
      }

      .st3 {
        fill: #eae3fb;
      }
    </style>
  </defs>
  <g>
    <path class="st3" d="M807.3,281.3c0,1.66-.42,2.91-1.25,3.75-5.41.83-13.74,2.08-19.57,1.66-5-.42-10.83.83-12.91.83,0-3.33-.83-5.41-.42-10.41.42-4.58,0-9.99,0-14.16v-20.41c-.42-12.91-.42-28.32-.83-32.9-.42-5,.83-9.99.83-14.99-.42-7.91,0-15.83,0-23.74,0-6.67-.83-19.58,0-26.24,4.58-.83,11.66-.83,19.16-1.25,6.25-.42,13.33-.42,15.83-.42.83,0,.42,4.58.42,5.42-.42,13.74.42,22.9-.42,34.15.42,11.25,0,17.91-.83,28.74-.42,3.33,1.25,32.9.83,42.48.83,10.83,0,19.99-.83,27.49ZM772.73,101.39c0-2.5-.42-5-.42-7.08,0-.83.42-1.66.42-2.5h29.99q2.91,0,2.91,2.5v27.07c-6.25.83-32.07.83-32.48-.84-.42-1.25-.42-2.5-.42-4.16-.42-2.91,0-9.16,0-14.99Z"/>
    <path class="st3" d="M886.44,185.1c-.83,2.91-.83,4.99-.83,7.91,0,3.33.83,15.41.83,19.16v9.16c0,5,.42,9.99.42,14.99,0,3.75-.83,7.5-.42,11.24,0,3.33.83,6.25.83,9.58v37.9c0,2.92,1.66,6.25,0,5.83-5.41,0-13.74,2.08-19.57,2.08-5,0-7.91,0-13.75-2.91v-5.42c-2.5-10.41-2.5-18.74-2.5-26.65,0-5.83-.42-11.24.83-16.66,0-.83,0-2.08-.83-3.33-.42-1.25-.42-11.24-.42-12.91v-17.49c0-6.67-.42-13.33.42-20,.83-.83,2.08-22.49,2.08-24.99.42-8.75,0-17.91.42-26.24,0-15.82-.42-31.23,0-46.64,0-10,0-19.58-.42-29.15-.83-10.41,1.25-9.16.42-19.99,0-5.42.84-10.83.84-15.83,0-5.41-.42-8.75-.42-14.16l2.08-2.08c5.41,0,12.91.84,17.91.42,4.58-.42,5.41-.42,9.99-.42,1.25,0,2.92.84,3.33,1.25,1.25,18.32-.83,35.4-.83,54.97v29.15c-.42,19.99-1.67,36.65-1.67,53.31,0,5.83.84,12.91.84,18.74.42,1.25.42,7.08.42,9.16Z"/>
    <path class="st3" d="M943.08,272.97c-2.5-2.91-5-4.17-5.42-6.67-3.75-8.33-9.58-13.32-11.24-21.24-1.66-7.5-3.33-16.24-4.16-23.32,0-7.5-.83-13.74-.83-21.65,0-8.33,1.25-14.16,1.25-22.49,0-5.41-.42-11.66-.42-17.08v-5.83c0-5,1.25-10.41,1.25-15.83,6.67-.42,18.32,0,23.32,0,1.66.42,9.58-.42,11.66-.42,2.5,0,15.41,0,17.91.42,0,0-1.25,7.08-1.25,9.58,0,7.49-.83,13.33-.83,19.99s1.66,44.15,2.91,50.81c0,5.41.42,8.33.84,13.74.42,5.83,3.75,10.41,5,11.67l2.5,6.66,5.83,7.5c3.75,5,11.24,5,17.49,4.58l9.58-.83c4.58-.42,10.83-7.91,14.99-10.42,2.5-2.5,4.58-8.75,6.25-14.16.42-.83,5-21.24,5-22.49.42-4.58,1.25-10.41.83-14.99-.83-5,.83-11.67.83-17.08,0-4.58.83-10.83,1.25-13.75,0,.84.83-12.49.42-13.74-.42-3.33-1.66-6.25-1.66-9.58,0-1.66.83-3.33.83-5h8.75c2.08,0,4.16.83,5.41.83,5.42,0,9.58.42,12.08,0,2.5-.83,3.75-.42,6.67-.83,4.16.83,6.66-.42,11.66,0,.42,2.92-.83,8.33-.83,13.33,0,10.41.42,21.66,0,32.48-.42,5.83,0,11.66-.83,17.08,0,1.66-.42,14.16,0,15.41,2.08,12.07-.83,38.31-.42,50.39,0,8.32.83,16.24.83,24.57-13.33,2.5-25.41,1.66-38.73,2.5-.83-1.26-1.25-2.5-1.25-5.42s-.42-5-.83-7.5c-.42-2.5-.84-6.25-.84-6.25-.83,0-3.75,4.17-6.25,5-5.41,2.5-10.83,5.83-16.24,6.67-10.83,4.99-24.99,4.99-39.14,4.99-8.33,0-13.74-3.33-19.16-6.24-8.75-3.34-20.82-12.08-24.99-15.41Z"/>
    <path class="st3" d="M1216.71,243.4c0-4.99-2.91-10.41-8.33-13.32-13.33-5-26.65-10.41-42.89-13.32-7.91-2.92-15.83-5.42-27.07-8.33-10.41-5-17.91-13.75-20.82-26.66,0-10.41-1.25-20.4,3.75-30.82,6.25-15.41,9.58-12.49,16.24-18.32,12.49-5,19.99-6.66,33.32-9.58,5.41-2.92,10.83-2.92,15.82-2.92h22.49c8.33,0,15.41-.42,22.9,0,12.07.42,21.66,2.5,35.4,5,5.83.84,10.41,1.67,13.74,2.92-.83,2.5-2.08,9.58-2.5,15.83,0,.83-.42,2.08-.42,2.91s-.42,2.08-1.25,2.5-2.5-.42-4.16-.83c-9.58-.84-19.58-.84-29.57-.42-9.99.42-20.4,2.5-29.57,3.75-4.16,1.25-8.33,2.08-12.08,2.92-4.16.83-7.91,2.92-12.08,5.41-2.5,2.92-4.58,5.83-5.83,9.16-1.25,2.92-2.08,6.25-2.08,10-.83,2.91,0,9.99,3.33,13.74,3.33,3.75,6.25,6.25,9.99,7.5,10.41,2.91,20.41,4.99,28.32,7.07,2.5,0,6.66,1.67,9.16,1.67,11.24.83,19.16,3.75,29.57,7.5,7.91,2.91,16.24,5.41,23.74,10.41,5.83,8.33,8.33,13.32,11.24,21.65v10.83c0,5.42-2.91,10.83-5.41,13.75-2.92,7.5-7.91,13.32-16.24,18.74-10.41,7.91-21.65,13.32-34.98,15.41-18.74,5.83-37.48,6.66-58.72,3.75l-22.9-2.08c-5-.42-12.08-1.66-18.74-3.75-9.58-2.91-13.33-2.5-13.74-3.33s-1.25-2.08-1.25-2.5c-2.5-6.25-2.08-10.41-5-18.32-1.25-2.92-1.66-5-2.08-7.08,0,0-.42-2.08,0-3.75,2.92,0,4.58.83,7.08.83,6.66,1.66,16.66,3.75,21.65,3.75s10.83.42,18.74.42c6.66.42,14.16,1.25,21.24-1.66,3.75-2.91,17.08-6.67,21.66-11.66,5.42-5,8.33-10.42,8.33-18.75Z"/>
    <path class="st3" d="M1409.56,292.13c0,3.33,0,11.24-.42,14.58.42,2.08-2.09,4.58-2.92,5.41h-10.83c-2.91,0-6.66-.42-9.58-.42-4.16,1.66-17.91.42-19.57.42q-2.5-2.91-2.5-5.41v-39.98l-.83-24.57.83-27.9-.42-24.16-1.66-19.99c-6.67,0-17.91,1.25-22.9,0-9.58-1.66-13.33,0-20.82,0v-26.65h2.5c2.5,0,5-.42,5.83,0,2.91,2.08,9.99.42,9.58-.42,6.25-.42,5.41-.42,10.41-.42,4.58,0,15.41.42,18.32,0,.42,0,0-15.41,0-21.24,1.25-10.41,1.25-18.33,1.67-29.15.42-7.5.42-14.58.42-22.49s1.25-20.82.83-29.57c0-2.91-1.25-2.91-1.25-5.41s0-4.16,2.91-4.16c5,0,10.83.83,15.83.83,8.33,0,15.83,0,19.99.42,3.75.42,6.67.84,9.58,1.67.42,0,0,11.24-.42,17.49-.42,13.74-.42,22.49,0,36.23,0,6.25-.42,12.91,0,19.16,0,3.33-1.66,25.41-2.08,28.74,0,2.91,1.66,5.41,2.5,5.41,2.92,0,7.91,1.25,10.83,1.25,2.5,0,5.41,1.25,10.83,1.25,4.99,0,10.41.42,16.24.42,2.5,0,4.99.42,4.99.42,2.5,8.33,2.5,20.82,0,26.23h-2.5c-10.83,1.25-21.66,2.08-32.49,2.08-2.5,0-7.08.42-9.99.42,0,2.5-.42,5.41-.42,5.41v3.75c0,5,.42,8.75,0,13.33l.83,22.08-1.66,18.74c.42,5.83-1.25,31.23-1.66,37.06,0,6.25-.42,12.91,0,19.16Z"/>
    <path class="st3" d="M1483.28,210.08c.42-5,.42-9.99.42-15.41l-1.25-33.74v-18.74c5.83,0,12.49-.42,20.82.42,0,0,6.25.42,9.16.42,3.75.84,2.5.42,4.16,1.25,0,2.5-.83,3.33-.83,6.25v13.33c2.09-2.92,2.09-4.16,5-7.08l2.5-.84c7.08-7.08,18.74-8.75,29.16-7.91,2.08,0,7.91,2.08,12.91,5,4.58.83,6.25,2.91,6.25,2.91,5.41,5,11.24,7.91,13.32,13.33,5.42,7.91,8.33,16.66,11.24,27.07,0,2.92,0,5.42-2.91,5.42-8.33,2.91-13.74,1.66-25.41,2.5h-4.58c-.83-.42-1.25-2.08-1.25-2.5-.42-3.34-1.67-5.83-1.67-7.5,0-2.91-2.5-6.25-2.5-6.25-5.41-5.41-9.99-7.91-15.41-7.91-1.25,0-3.33,0-4.99.83-2.5.83-9.58,4.16-11.24,5.83-2.92,2.91-6.25,5.83-7.91,9.58-.42,2.08-.83,9.16-.83,10.41-.84,5-2.5,14.99-2.5,20.83,0,3.75-1.25,10.83-1.25,15.82,0,3.75-.42,7.08-.42,10.42v15.82c0,3.34-.42,7.5-.42,11.25v9.16c-13.74,2.91-23.32,2.91-28.73,0-1.25-3.75-1.66-11.25-1.25-12.5,1.25-9.99,0-19.99,0-30.4-.42-5.42.42-12.07.42-17.08,0-3.75.42-12.91,0-19.99Z"/>
    <path class="st3" d="M1770.66,293.37l-2.92.42c-2.91.42-2.5,0-6.66,0-1.26.42-12.08,2.91-17.08.42-2.92,0-2.92-.83-5.83-.83-2.5-2.08-2.5-7.5-2.5-10.41v-10.41l-3.34,4.58-7.49,7.08c-5.42,3.75-8.33,6.25-13.33,8.75-8.33,5-18.74,6.25-27.07,6.25s-18.32-4.58-25.41-7.08c-2.08-.42-4.16-2.08-5.83-3.33-3.33-2.92-7.91-5.83-10.83-8.33-1.66-1.25-2.91-2.92-4.99-3.75-1.66-.83-2.92-2.5-3.75-4.16-2.91-5.83-7.91-11.24-10.41-19.16-1.66-5.83-5.42-11.67-5.42-16.66,0-2.5-.83-11.67-.83-14.16,0-4.99.42-6.67.42-12.07,0-2.5.84-5.42,2.09-10.41.83-5.83,1.25-14.16,2.5-18.33,3.75-7.08,4.58-7.08,5.83-11.24,1.25-3.33,2.91-10,6.66-12.49,2.92-2.08,14.99-13.33,16.66-13.74l7.5-3.33c4.58-1.66,10.41-2.5,15.41-2.5l12.91-.42c2.92,0,7.08,0,8.33.42,2.5,0,5.42,2.5,8.33,2.5,2.5,0,7.5,2.5,10.41,5,5.42,2.08,8.33,5.83,10.83,8.33,2.5,2.92,5.41,5,7.91,7.91.42,1.66,2.92,2.91,2.92,2.91.83-1.25.83-5,2.5-7.91.42-7.91.83-14.99,1.25-17.08-.42-2.08.42-7.91,3.34-7.08,2.5-.83,17.49,2.5,24.98,2.5.42,0,.42,3.75,0,5.41l2.5,39.98v44.98c0,1.66-.42,3.33-.42,4.99.42,5,.42,10.41.42,15.83.42,3.75,0,7.91,0,12.49,0,7.08.83,24.57.42,32.07v2.08ZM1716.93,229.24c0-3.33,3.33-15.41-2.92-32.07-1.66-4.16-4.58-10.41-11.66-12.91-3.75-.83-7.08-2.92-10.83-2.5-3.75,1.25-10.83,5.41-14.58,10.83-2.5,2.91-2.91,5.83-3.33,10.41-1.66,7.08-2.5,9.99-2.5,15.83,0,10.83,9.17,20.4,10.83,22.9,1.66,1.66,2.5.83,5.41,3.75,5.42,2.5,10.42,0,16.24-2.92h2.5c5-2.5,7.91-4.99,10.83-10.41.42-.42,0-2.91,0-2.91Z"/>
  </g>
  <g>
    <g>
      <path class="st0" d="M34.85,111.01l.91,70v72.42c0,10.3-7.58,18.79-18.18,18.79S0,263.73,0,253.43V56.46c0-9.7,6.97-19.09,19.7-19.09,9.7,0,16.67,4.54,21.52,13.64l77.27,146.67-.61-73.03V56.16c0-10.3,7.27-18.79,17.88-18.79s17.88,8.48,17.88,18.79v197.88c0,9.7-7.58,18.18-19.7,18.18-10.91,0-17.27-5.76-22.12-14.85L34.85,111.01Z"/>
      <path class="st0" d="M255.74,272.82c-48.18,0-69.39-23.64-69.39-71.51v-28.79c0-44.85,20-71.51,62.73-71.51s63.03,24.54,63.03,70v15.15c0,8.79-6.67,15.15-15.45,15.15h-72.73v1.51c0,26.97,11.82,38.48,36.36,38.48,11.21,0,23.33-4.24,32.42-6.36,8.18-1.51,16.97,3.03,16.97,13.33,0,7.88-4.24,12.73-9.39,15.45-10.61,5.76-28.79,9.09-44.55,9.09ZM223.93,174.64h50.3v-6.67c-.3-25.76-7.88-36.67-25.15-36.67s-25.15,12.12-25.15,39.09v4.24Z"/>
      <path class="st0" d="M376.64,205.85c0,23.94,9.39,33.33,24.85,33.33s25.76-10,26.06-32.42v-86.67c0-10.61,8.48-19.09,19.09-19.09s18.79,8.48,18.79,19.09v133.64c0,10.3-8.48,19.09-18.79,19.09s-19.09-8.79-19.09-19.09v-1.82c-9.09,13.33-22.12,20.91-41.52,20.91-32.42,0-46.67-20.91-46.67-60.3v-92.42c0-10.61,8.18-19.09,18.79-19.09s18.48,8.48,18.48,19.09v85.76Z"/>
      <path class="st0" d="M499.06,120.1c0-10.3,8.18-19.09,18.48-19.09s19.09,8.79,19.09,19.09v8.18c7.27-15.15,17.88-26.36,31.51-26.36,10,0,16.06,6.06,16.06,18.18,0,15.76-8.18,19.7-19.7,20.91-15.76,1.21-27.27,15.46-27.88,41.51v71.52c0,10.3-8.48,18.79-19.09,18.79s-18.48-8.48-18.48-18.79V120.1Z"/>
      <path class="st0" d="M594.81,173.43c0-48.18,23.03-72.42,64.85-72.42s64.85,24.85,64.85,72.42v26.97c0,46.97-22.12,72.42-64.85,72.42s-64.85-24.24-64.85-72.42v-26.97ZM632.99,203.43c0,26.67,8.48,38.79,26.67,38.79s26.67-11.52,26.67-38.79v-33.03c0-26.97-8.79-39.09-26.67-39.09s-26.67,12.42-26.67,39.09v33.03Z"/>
    </g>
    <path class="st0" d="M1863.07,185.41h30c8.18,0,15.15,6.67,15.15,15.45s-6.97,15.15-15.15,15.15h-30v38.18c0,8.18-6.67,14.55-15.15,14.55s-14.85-6.36-14.85-14.55v-38.18h-30.3c-8.48,0-15.46-6.67-15.46-15.45s6.97-15.15,15.46-15.15h30.3v-37.57c0-8.18,6.67-14.85,15.15-14.85s14.85,6.67,14.85,14.85v37.57Z"/>
  </g>
  <g>
    <path class="st2" d="M501.06,357.52h6.36l11.13-24.1c.92-1.84,2.59-3.27,4.85-3.27,3.01,0,5.27,2.26,5.27,5.02,0,1-.33,1.76-.75,2.59l-11.88,22.93,12.55,26.44c.34.75.75,1.59.75,2.51,0,3.01-2.43,5.44-5.44,5.44-2.51,0-4.27-1.67-5.19-3.77l-10.8-24.44h-6.86v22.76c0,2.93-2.34,5.44-5.36,5.44s-5.36-2.51-5.36-5.44v-54.06c0-3.01,2.43-5.44,5.36-5.44s5.36,2.43,5.36,5.44v21.93Z"/>
    <path class="st2" d="M536.05,334.25c0-2.85,2.18-5.19,5.11-5.19s5.27,2.26,5.27,5.19v2.51c0,3.01-2.18,5.36-5.27,5.36s-5.11-2.34-5.11-5.36v-2.51ZM536.05,353c0-2.85,2.26-5.27,5.11-5.27s5.27,2.43,5.27,5.27v36.99c0,2.85-2.34,5.19-5.27,5.19s-5.11-2.34-5.11-5.19v-36.99Z"/>
    <path class="st2" d="M558.31,348.73v-8.7c0-2.93,2.34-5.19,5.27-5.19s5.11,2.26,5.11,5.19v8.7h5.61c2.26,0,4.18,1.84,4.18,4.27,0,2.26-1.92,4.1-4.18,4.1h-5.61v22.34c0,5.02,1.34,6.44,4.44,6.61l2.59.17c2.09.17,3.35,1.59,3.35,4.02,0,2.01-1.34,3.6-3.18,4.18-1.26.5-2.93.75-4.6.75-8.7,0-12.97-4.94-12.97-14.64v-23.43h-2.18c-2.26,0-4.18-1.84-4.18-4.1,0-2.43,1.92-4.27,4.18-4.27h2.18Z"/>
    <path class="st2" d="M602.67,353c0-2.85,2.26-5.27,5.19-5.27s5.19,2.43,5.19,5.27v.42c2.26-3.6,5.77-5.69,10.8-5.69,10.21,0,14.56,7.12,14.56,19.75v8.2c0,12.47-4.6,19.5-14.98,19.5-5.02,0-8.29-2.09-10.38-5.52v19c0,2.84-2.26,5.19-5.19,5.19s-5.19-2.34-5.19-5.19v-55.65ZM613.05,365.47v12.22c.25,5.61,3.43,8.87,7.87,8.87s6.95-3.18,6.95-10.21v-9.54c0-6.95-2.51-10.38-7.11-10.38-4.18,0-7.36,3.1-7.7,9.04Z"/>
    <path class="st2" d="M664.52,395.18c-13.31,0-19.16-6.53-19.16-19.75v-7.95c0-12.38,5.52-19.75,17.32-19.75s17.41,6.78,17.41,19.33v4.18c0,2.43-1.84,4.19-4.27,4.19h-20.08v.42c0,7.45,3.26,10.63,10.04,10.63,3.1,0,6.44-1.17,8.95-1.76,2.26-.42,4.69.84,4.69,3.68,0,2.17-1.17,3.51-2.59,4.27-2.93,1.59-7.95,2.51-12.3,2.51ZM655.74,368.06h13.89v-1.84c-.08-7.11-2.18-10.13-6.95-10.13s-6.95,3.35-6.95,10.79v1.17Z"/>
    <path class="st2" d="M711.98,389.4c-2.18,3.68-5.52,5.77-10.55,5.77-10.46,0-14.81-7.03-14.81-19.5v-8.37c0-12.55,4.94-19.58,15.15-19.58,5.02,0,8.12,2.09,10.21,5.44v-17.74c0-2.93,2.26-5.27,5.19-5.27s5.19,2.34,5.19,5.27v54.56c0,2.85-2.34,5.19-5.19,5.19s-5.19-2.34-5.19-5.19v-.59ZM711.98,366.14c-.17-6.61-3.43-9.71-7.62-9.71-4.77,0-7.2,3.27-7.2,10.21v9.71c0,7.03,2.43,10.29,7.11,10.29s7.7-3.77,7.7-10.13v-10.38Z"/>
    <path class="st2" d="M753.24,389.4c-2.09,3.68-5.52,5.77-10.8,5.77-8.87,0-12.8-5.86-12.8-13.3,0-9.54,5.52-14.23,16.99-14.23h6.61v-.33c0-7.03-1.42-10.13-8.62-10.13-3.68,0-5.94,1.26-8.03,2.01-.42.17-.84.34-1.34.34-2.43,0-4.27-1.67-4.27-4.27,0-1.76,1-3.1,2.43-4.02,3.26-2.18,8.2-3.52,13.31-3.52,12.64,0,16.91,5.94,16.91,17.99v24.27c0,2.85-2.26,5.19-5.19,5.19s-5.19-2.34-5.19-5.19v-.59ZM753.24,375.01c-2.18,0-5.44-.08-5.52-.08-6.03,0-7.95,1.76-7.95,6.53,0,3.6,1.59,5.78,5.52,5.78s7.7-2.34,7.95-8.12v-4.1Z"/>
    <path class="st2" d="M775.6,411.41c-1.67-.92-2.68-2.34-2.68-4.19,0-2.76,2.26-4.43,4.77-4.18,2.68.42,5.52,1.76,8.95,1.76,8.03,0,10.29-3.85,10.29-11.63v-4.69c-2.26,3.85-5.61,5.94-10.88,5.94-10.29,0-14.48-7.2-14.48-19.58v-7.53c0-12.55,4.69-19.58,14.73-19.58,5.19,0,8.45,2.09,10.63,5.52v-.25c0-2.85,2.26-5.27,5.19-5.27s5.19,2.43,5.19,5.27v39.92c0,13.81-7.36,20.76-20.42,20.76-4.18,0-8.54-.59-11.3-2.26ZM796.94,364.63c-.59-5.61-3.68-8.2-7.62-8.2-4.69,0-7.11,3.18-7.11,10.21v8.87c0,7.12,2.34,10.29,7.03,10.29s7.7-3.68,7.7-10.13v-11.05Z"/>
    <path class="st2" d="M815.44,367.73c0-13.31,6.36-20,17.91-20s17.91,6.86,17.91,20v7.45c0,12.97-6.11,20-17.91,20s-17.91-6.69-17.91-20v-7.45ZM825.98,376.01c0,7.36,2.34,10.71,7.36,10.71s7.37-3.18,7.37-10.71v-9.12c0-7.45-2.43-10.79-7.37-10.79s-7.36,3.43-7.36,10.79v9.12ZM831.84,336.26l4.27-7.28c.84-1.34,2.09-2.34,3.68-2.34,2.18,0,3.85,1.67,3.85,3.85,0,1-.42,1.67-.84,2.34l-4.27,7.2c-.84,1.42-2.09,2.59-3.77,2.59-2.18,0-3.85-1.59-3.85-3.77,0-.84.42-1.76.92-2.59Z"/>
    <path class="st2" d="M862.14,411.41c-1.67-.92-2.68-2.34-2.68-4.19,0-2.76,2.26-4.43,4.77-4.18,2.68.42,5.52,1.76,8.95,1.76,8.03,0,10.29-3.85,10.29-11.63v-4.69c-2.26,3.85-5.61,5.94-10.88,5.94-10.29,0-14.48-7.2-14.48-19.58v-7.53c0-12.55,4.69-19.58,14.73-19.58,5.19,0,8.45,2.09,10.63,5.52v-.25c0-2.85,2.26-5.27,5.19-5.27s5.19,2.43,5.19,5.27v39.92c0,13.81-7.36,20.76-20.42,20.76-4.18,0-8.54-.59-11.3-2.26ZM883.48,364.63c-.59-5.61-3.68-8.2-7.62-8.2-4.69,0-7.11,3.18-7.11,10.21v8.87c0,7.12,2.34,10.29,7.03,10.29s7.7-3.68,7.7-10.13v-11.05Z"/>
    <path class="st2" d="M903.32,334.25c0-2.85,2.18-5.19,5.11-5.19s5.27,2.26,5.27,5.19v2.51c0,3.01-2.18,5.36-5.27,5.36s-5.11-2.34-5.11-5.36v-2.51ZM903.32,353c0-2.85,2.26-5.27,5.11-5.27s5.27,2.43,5.27,5.27v36.99c0,2.85-2.34,5.19-5.27,5.19s-5.11-2.34-5.11-5.19v-36.99Z"/>
    <path class="st2" d="M949.86,349.74c1.42.84,2.34,2.26,2.34,4.18,0,2.34-1.59,4.02-3.77,4.19-.42,0-.84-.08-1.17-.17-1.76-.58-3.77-1.26-5.86-1.26-6.28,0-9.21,3.52-9.21,10.63v8.62c0,6.78,2.93,10.38,9.21,10.38,2.26,0,4.02-.75,5.94-1.42.42-.08.84-.25,1.26-.17,2.09.17,3.68,1.93,3.68,4.1,0,1.93-1.09,3.43-2.68,4.19-2.43,1.51-5.61,2.17-9.46,2.17-12.64,0-18.5-7.03-18.5-19.83v-7.62c0-12.72,5.94-20,18.91-20,3.35,0,6.78.59,9.29,2.01Z"/>
    <path class="st2" d="M956.98,367.73c0-13.31,6.36-20,17.91-20s17.91,6.86,17.91,20v7.45c0,12.97-6.11,20-17.91,20s-17.91-6.69-17.91-20v-7.45ZM967.52,376.01c0,7.36,2.34,10.71,7.36,10.71s7.37-3.18,7.37-10.71v-9.12c0-7.45-2.43-10.79-7.37-10.79s-7.36,3.43-7.36,10.79v9.12Z"/>
    <path class="st2" d="M1042.77,389.4c-2.17,3.68-5.52,5.77-10.55,5.77-10.46,0-14.81-7.03-14.81-19.5v-8.37c0-12.55,4.94-19.58,15.15-19.58,5.02,0,8.12,2.09,10.21,5.44v-17.74c0-2.93,2.26-5.27,5.19-5.27s5.19,2.34,5.19,5.27v54.56c0,2.85-2.34,5.19-5.19,5.19s-5.19-2.34-5.19-5.19v-.59ZM1042.77,366.14c-.17-6.61-3.43-9.71-7.62-9.71-4.77,0-7.2,3.27-7.2,10.21v9.71c0,7.03,2.43,10.29,7.11,10.29s7.7-3.77,7.7-10.13v-10.38Z"/>
    <path class="st2" d="M1080.52,395.18c-13.31,0-19.16-6.53-19.16-19.75v-7.95c0-12.38,5.52-19.75,17.32-19.75s17.41,6.78,17.41,19.33v4.18c0,2.43-1.84,4.19-4.27,4.19h-20.08v.42c0,7.45,3.26,10.63,10.04,10.63,3.1,0,6.44-1.17,8.95-1.76,2.26-.42,4.69.84,4.69,3.68,0,2.17-1.17,3.51-2.59,4.27-2.93,1.59-7.95,2.51-12.3,2.51ZM1071.73,368.06h13.89v-1.84c-.08-7.11-2.18-10.13-6.95-10.13s-6.94,3.35-6.94,10.79v1.17Z"/>
    <path class="st2" d="M1121.62,335.43c0-2.93,2.26-5.27,5.19-5.27s5.19,2.34,5.19,5.27v18.24c2.43-3.68,6.11-5.94,11.63-5.94,8.95,0,12.97,5.78,12.97,16.65v25.61c0,2.85-2.34,5.19-5.19,5.19s-5.27-2.34-5.27-5.19v-23.77c0-6.53-2.51-9.12-6.78-9.12s-7.2,2.68-7.36,8.87v24.02c0,2.85-2.26,5.19-5.19,5.19s-5.19-2.34-5.19-5.19v-54.56Z"/>
    <path class="st2" d="M1183.64,395.18c-13.3,0-19.16-6.53-19.16-19.75v-7.95c0-12.38,5.52-19.75,17.32-19.75s17.41,6.78,17.41,19.33v4.18c0,2.43-1.84,4.19-4.27,4.19h-20.08v.42c0,7.45,3.26,10.63,10.04,10.63,3.1,0,6.44-1.17,8.95-1.76,2.26-.42,4.69.84,4.69,3.68,0,2.17-1.17,3.51-2.59,4.27-2.93,1.59-7.95,2.51-12.3,2.51ZM1174.85,368.06h13.89v-1.84c-.08-7.11-2.17-10.13-6.94-10.13s-6.95,3.35-6.95,10.79v1.17Z"/>
    <path class="st2" d="M1206.91,353c0-2.85,2.26-5.27,5.11-5.27s5.27,2.43,5.27,5.27v2.26c2.01-4.19,4.94-7.28,8.7-7.28,2.76,0,4.43,1.67,4.43,5.02,0,4.35-2.26,5.44-5.44,5.77-4.35.34-7.53,4.27-7.7,11.47v19.75c0,2.85-2.34,5.19-5.27,5.19s-5.11-2.34-5.11-5.19v-36.99Z"/>
    <path class="st2" d="M1235.87,353c0-2.85,2.26-5.27,5.11-5.27s5.27,2.43,5.27,5.27v2.26c2.01-4.19,4.94-7.28,8.7-7.28,2.76,0,4.43,1.67,4.43,5.02,0,4.35-2.26,5.44-5.44,5.77-4.35.34-7.53,4.27-7.7,11.47v19.75c0,2.85-2.34,5.19-5.27,5.19s-5.11-2.34-5.11-5.19v-36.99Z"/>
    <path class="st2" d="M1285.5,389.4c-2.09,3.68-5.52,5.77-10.8,5.77-8.87,0-12.8-5.86-12.8-13.3,0-9.54,5.52-14.23,16.99-14.23h6.61v-.33c0-7.03-1.42-10.13-8.62-10.13-3.68,0-5.94,1.26-8.03,2.01-.42.17-.84.34-1.34.34-2.43,0-4.27-1.67-4.27-4.27,0-1.76,1-3.1,2.43-4.02,3.27-2.18,8.2-3.52,13.31-3.52,12.64,0,16.91,5.94,16.91,17.99v24.27c0,2.85-2.26,5.19-5.19,5.19s-5.19-2.34-5.19-5.19v-.59ZM1285.5,375.01c-2.18,0-5.44-.08-5.52-.08-6.02,0-7.95,1.76-7.95,6.53,0,3.6,1.59,5.78,5.52,5.78s7.7-2.34,7.95-8.12v-4.1Z"/>
    <path class="st2" d="M1329.03,366.22c0-6.53-2.26-9.12-6.69-9.12-3.93,0-6.86,2.51-6.95,8.45v24.44c0,2.85-2.34,5.19-5.27,5.19s-5.11-2.34-5.11-5.19v-36.99c0-2.85,2.26-5.27,5.11-5.27s5.27,2.43,5.27,5.27v.42c2.34-3.51,5.94-5.69,11.05-5.69,6.28,0,9.96,2.68,11.72,7.87,2.43-4.85,6.28-7.87,12.38-7.87,9.12,0,12.89,5.78,12.89,16.65v25.61c0,2.85-2.26,5.19-5.19,5.19s-5.11-2.34-5.11-5.19v-23.77c0-6.53-2.34-9.12-6.7-9.12-4.1,0-7.03,2.85-7.03,9.04v23.85c0,2.85-2.34,5.19-5.19,5.19s-5.19-2.34-5.19-5.19v-23.77Z"/>
    <path class="st2" d="M1372.64,334.25c0-2.85,2.17-5.19,5.11-5.19s5.27,2.26,5.27,5.19v2.51c0,3.01-2.18,5.36-5.27,5.36s-5.11-2.34-5.11-5.36v-2.51ZM1372.64,353c0-2.85,2.26-5.27,5.11-5.27s5.27,2.43,5.27,5.27v36.99c0,2.85-2.34,5.19-5.27,5.19s-5.11-2.34-5.11-5.19v-36.99Z"/>
    <path class="st2" d="M1410.22,395.18c-13.3,0-19.16-6.53-19.16-19.75v-7.95c0-12.38,5.52-19.75,17.32-19.75s17.41,6.78,17.41,19.33v4.18c0,2.43-1.84,4.19-4.27,4.19h-20.08v.42c0,7.45,3.26,10.63,10.04,10.63,3.1,0,6.44-1.17,8.95-1.76,2.26-.42,4.69.84,4.69,3.68,0,2.17-1.17,3.51-2.59,4.27-2.93,1.59-7.95,2.51-12.3,2.51ZM1401.43,368.06h13.89v-1.84c-.08-7.11-2.17-10.13-6.94-10.13s-6.95,3.35-6.95,10.79v1.17Z"/>
    <path class="st2" d="M1458.01,366.22c0-6.53-2.51-9.12-6.78-9.12s-7.2,2.59-7.36,8.45v24.44c0,2.85-2.34,5.19-5.27,5.19s-5.11-2.34-5.11-5.19v-36.99c0-2.85,2.26-5.27,5.11-5.27s5.27,2.43,5.27,5.27v.58c2.43-3.68,6.19-5.86,11.55-5.86,9.04,0,12.97,5.78,12.97,16.65v25.61c0,2.85-2.34,5.19-5.19,5.19s-5.19-2.34-5.19-5.19v-23.77Z"/>
    <path class="st2" d="M1479.86,348.73v-8.7c0-2.93,2.34-5.19,5.27-5.19s5.11,2.26,5.11,5.19v8.7h5.61c2.26,0,4.18,1.84,4.18,4.27,0,2.26-1.92,4.1-4.18,4.1h-5.61v22.34c0,5.02,1.34,6.44,4.43,6.61l2.59.17c2.09.17,3.35,1.59,3.35,4.02,0,2.01-1.34,3.6-3.18,4.18-1.26.5-2.93.75-4.6.75-8.7,0-12.97-4.94-12.97-14.64v-23.43h-2.17c-2.26,0-4.19-1.84-4.19-4.1,0-2.43,1.93-4.27,4.19-4.27h2.17Z"/>
    <path class="st2" d="M1527.82,389.4c-2.09,3.68-5.52,5.77-10.8,5.77-8.87,0-12.8-5.86-12.8-13.3,0-9.54,5.52-14.23,16.99-14.23h6.61v-.33c0-7.03-1.42-10.13-8.62-10.13-3.68,0-5.94,1.26-8.03,2.01-.42.17-.84.34-1.34.34-2.43,0-4.27-1.67-4.27-4.27,0-1.76,1-3.1,2.43-4.02,3.27-2.18,8.2-3.52,13.31-3.52,12.64,0,16.91,5.94,16.91,17.99v24.27c0,2.85-2.26,5.19-5.19,5.19s-5.19-2.34-5.19-5.19v-.59ZM1527.82,375.01c-2.18,0-5.44-.08-5.52-.08-6.02,0-7.95,1.76-7.95,6.53,0,3.6,1.59,5.78,5.52,5.78s7.7-2.34,7.95-8.12v-4.1Z"/>
    <path class="st2" d="M1567,381.2c0-3.93-2.51-4.85-5.78-5.44l-4.18-.67c-5.78-1.09-11.3-4.02-11.3-12.72,0-10.96,8.03-14.65,16.57-14.65,3.77,0,8.37.84,10.88,2.26,1.42.84,2.59,2.17,2.59,4.02,0,2.76-2.01,4.27-4.85,3.85-2.51-.42-4.69-1.67-8.2-1.67-4.85,0-7.2,1.93-7.2,5.44s2.18,4.35,5.52,4.94l4.18.58c6.95,1.26,11.63,4.6,11.63,12.8,0,11.3-8.2,15.23-17.32,15.23-4.19,0-9.04-.92-11.55-2.59-1.42-.84-2.34-2.18-2.34-4.02,0-3.01,2.43-4.02,4.94-3.77,2.59.25,5.52,1.84,9.04,1.84,4.6,0,7.37-1.59,7.37-5.44Z"/>
    <path class="st2" d="M1626.17,389.4c-2.18,3.68-5.52,5.77-10.55,5.77-10.46,0-14.81-7.03-14.81-19.5v-8.37c0-12.55,4.94-19.58,15.15-19.58,5.02,0,8.12,2.09,10.21,5.44v-17.74c0-2.93,2.26-5.27,5.19-5.27s5.19,2.34,5.19,5.27v54.56c0,2.85-2.34,5.19-5.19,5.19s-5.19-2.34-5.19-5.19v-.59ZM1626.17,366.14c-.17-6.61-3.43-9.71-7.62-9.71-4.77,0-7.2,3.27-7.2,10.21v9.71c0,7.03,2.43,10.29,7.11,10.29s7.7-3.77,7.7-10.13v-10.38Z"/>
    <path class="st2" d="M1644.67,367.73c0-13.31,6.36-20,17.91-20s17.91,6.86,17.91,20v7.45c0,12.97-6.11,20-17.91,20s-17.91-6.69-17.91-20v-7.45ZM1655.22,376.01c0,7.36,2.34,10.71,7.36,10.71s7.36-3.18,7.36-10.71v-9.12c0-7.45-2.43-10.79-7.36-10.79s-7.36,3.43-7.36,10.79v9.12Z"/>
    <path class="st2" d="M1715.4,349.74c1.42.84,2.34,2.26,2.34,4.18,0,2.34-1.59,4.02-3.77,4.19-.42,0-.84-.08-1.17-.17-1.76-.58-3.77-1.26-5.86-1.26-6.28,0-9.2,3.52-9.2,10.63v8.62c0,6.78,2.93,10.38,9.2,10.38,2.26,0,4.02-.75,5.94-1.42.42-.08.84-.25,1.26-.17,2.09.17,3.68,1.93,3.68,4.1,0,1.93-1.09,3.43-2.68,4.19-2.43,1.51-5.61,2.17-9.46,2.17-12.64,0-18.49-7.03-18.49-19.83v-7.62c0-12.72,5.94-20,18.91-20,3.35,0,6.78.59,9.29,2.01Z"/>
    <path class="st2" d="M1741.76,395.18c-13.3,0-19.16-6.53-19.16-19.75v-7.95c0-12.38,5.52-19.75,17.32-19.75s17.41,6.78,17.41,19.33v4.18c0,2.43-1.84,4.19-4.27,4.19h-20.08v.42c0,7.45,3.26,10.63,10.04,10.63,3.1,0,6.44-1.17,8.95-1.76,2.26-.42,4.69.84,4.69,3.68,0,2.17-1.17,3.51-2.59,4.27-2.93,1.59-7.95,2.51-12.3,2.51ZM1732.98,368.06h13.89v-1.84c-.08-7.11-2.17-10.13-6.94-10.13s-6.95,3.35-6.95,10.79v1.17Z"/>
    <path class="st2" d="M1789.56,366.22c0-6.53-2.51-9.12-6.78-9.12s-7.2,2.59-7.36,8.45v24.44c0,2.85-2.34,5.19-5.27,5.19s-5.11-2.34-5.11-5.19v-36.99c0-2.85,2.26-5.27,5.11-5.27s5.27,2.43,5.27,5.27v.58c2.43-3.68,6.19-5.86,11.55-5.86,9.04,0,12.97,5.78,12.97,16.65v25.61c0,2.85-2.34,5.19-5.19,5.19s-5.19-2.34-5.19-5.19v-23.77Z"/>
    <path class="st2" d="M1811.4,348.73v-8.7c0-2.93,2.34-5.19,5.27-5.19s5.11,2.26,5.11,5.19v8.7h5.61c2.26,0,4.18,1.84,4.18,4.27,0,2.26-1.92,4.1-4.18,4.1h-5.61v22.34c0,5.02,1.34,6.44,4.43,6.61l2.59.17c2.09.17,3.35,1.59,3.35,4.02,0,2.01-1.34,3.6-3.18,4.18-1.26.5-2.93.75-4.6.75-8.7,0-12.97-4.94-12.97-14.64v-23.43h-2.17c-2.26,0-4.19-1.84-4.19-4.1,0-2.43,1.93-4.27,4.19-4.27h2.17Z"/>
    <path class="st2" d="M1855.26,395.18c-13.3,0-19.16-6.53-19.16-19.75v-7.95c0-12.38,5.52-19.75,17.32-19.75s17.41,6.78,17.41,19.33v4.18c0,2.43-1.84,4.19-4.27,4.19h-20.08v.42c0,7.45,3.26,10.63,10.04,10.63,3.1,0,6.44-1.17,8.95-1.76,2.26-.42,4.69.84,4.69,3.68,0,2.17-1.17,3.51-2.59,4.27-2.93,1.59-7.95,2.51-12.3,2.51ZM1846.48,368.06h13.89v-1.84c-.08-7.11-2.17-10.13-6.94-10.13s-6.95,3.35-6.95,10.79v1.17Z"/>
    <path class="st2" d="M1898.2,381.2c0-3.93-2.51-4.85-5.78-5.44l-4.18-.67c-5.78-1.09-11.3-4.02-11.3-12.72,0-10.96,8.03-14.65,16.57-14.65,3.77,0,8.37.84,10.88,2.26,1.42.84,2.59,2.17,2.59,4.02,0,2.76-2.01,4.27-4.85,3.85-2.51-.42-4.69-1.67-8.2-1.67-4.85,0-7.2,1.93-7.2,5.44s2.18,4.35,5.52,4.94l4.18.58c6.95,1.26,11.63,4.6,11.63,12.8,0,11.3-8.2,15.23-17.32,15.23-4.19,0-9.04-.92-11.55-2.59-1.42-.84-2.34-2.18-2.34-4.02,0-3.01,2.43-4.02,4.94-3.77,2.59.25,5.52,1.84,9.04,1.84,4.6,0,7.37-1.59,7.37-5.44Z"/>
  </g>
  <g>
    <path class="st1" d="M790.85,262.79c0,1.66-.42,2.91-1.25,3.75-5.41.83-13.74,2.08-19.57,1.66-5-.42-10.83.83-12.91.83,0-3.33-.83-5.41-.42-10.41.42-4.58,0-9.99,0-14.16v-20.41c-.42-12.91-.42-28.32-.83-32.9-.42-5,.83-9.99.83-14.99-.42-7.91,0-15.83,0-23.74,0-6.67-.83-19.58,0-26.24,4.58-.83,11.66-.83,19.16-1.25,6.25-.42,13.33-.42,15.83-.42.83,0,.42,4.58.42,5.42-.42,13.74.42,22.9-.42,34.15.42,11.25,0,17.91-.83,28.74-.42,3.33,1.25,32.9.83,42.48.83,10.83,0,19.99-.83,27.49ZM756.28,82.88c0-2.5-.42-5-.42-7.08,0-.83.42-1.66.42-2.5h29.99q2.91,0,2.91,2.5v27.07c-6.25.83-32.07.83-32.48-.84-.42-1.25-.42-2.5-.42-4.16-.42-2.91,0-9.16,0-14.99Z"/>
    <path class="st1" d="M869.99,166.59c-.83,2.91-.83,4.99-.83,7.91,0,3.33.83,15.41.83,19.16v9.16c0,5,.42,9.99.42,14.99,0,3.75-.83,7.5-.42,11.24,0,3.33.83,6.25.83,9.58v37.9c0,2.92,1.66,6.25,0,5.83-5.41,0-13.74,2.08-19.57,2.08-5,0-7.91,0-13.75-2.91v-5.42c-2.5-10.41-2.5-18.74-2.5-26.65,0-5.83-.42-11.24.83-16.66,0-.83,0-2.08-.83-3.33-.42-1.25-.42-11.24-.42-12.91v-17.49c0-6.67-.42-13.33.42-20,.83-.83,2.08-22.49,2.08-24.99.42-8.75,0-17.91.42-26.24,0-15.82-.42-31.23,0-46.64,0-10,0-19.58-.42-29.15-.83-10.41,1.25-9.16.42-19.99,0-5.42.84-10.83.84-15.83,0-5.41-.42-8.75-.42-14.16l2.08-2.08c5.41,0,12.91.84,17.91.42,4.58-.42,5.41-.42,9.99-.42,1.25,0,2.92.84,3.33,1.25,1.25,18.32-.83,35.4-.83,54.97v29.15c-.42,19.99-1.67,36.65-1.67,53.31,0,5.83.84,12.91.84,18.74.42,1.25.42,7.08.42,9.16Z"/>
    <path class="st1" d="M926.63,254.46c-2.5-2.91-5-4.17-5.42-6.67-3.75-8.33-9.58-13.32-11.24-21.24-1.66-7.5-3.33-16.24-4.16-23.32,0-7.5-.83-13.74-.83-21.65,0-8.33,1.25-14.16,1.25-22.49,0-5.41-.42-11.66-.42-17.08v-5.83c0-5,1.25-10.41,1.25-15.83,6.67-.42,18.32,0,23.32,0,1.66.42,9.58-.42,11.66-.42,2.5,0,15.41,0,17.91.42,0,0-1.25,7.08-1.25,9.58,0,7.49-.83,13.33-.83,19.99s1.66,44.15,2.91,50.81c0,5.41.42,8.33.84,13.74.42,5.83,3.75,10.41,5,11.67l2.5,6.66,5.83,7.5c3.75,5,11.24,5,17.49,4.58l9.58-.83c4.58-.42,10.83-7.91,14.99-10.42,2.5-2.5,4.58-8.75,6.25-14.16.42-.83,5-21.24,5-22.49.42-4.58,1.25-10.41.83-14.99-.83-5,.83-11.67.83-17.08,0-4.58.83-10.83,1.25-13.75,0,.84.83-12.49.42-13.74-.42-3.33-1.66-6.25-1.66-9.58,0-1.66.83-3.33.83-5h8.75c2.08,0,4.16.83,5.41.83,5.42,0,9.58.42,12.08,0,2.5-.83,3.75-.42,6.67-.83,4.16.83,6.66-.42,11.66,0,.42,2.92-.83,8.33-.83,13.33,0,10.41.42,21.66,0,32.48-.42,5.83,0,11.66-.83,17.08,0,1.66-.42,14.16,0,15.41,2.08,12.07-.83,38.31-.42,50.39,0,8.32.83,16.24.83,24.57-13.33,2.5-25.41,1.66-38.73,2.5-.83-1.26-1.25-2.5-1.25-5.42s-.42-5-.83-7.5c-.42-2.5-.84-6.25-.84-6.25-.83,0-3.75,4.17-6.25,5-5.41,2.5-10.83,5.83-16.24,6.67-10.83,4.99-24.99,4.99-39.14,4.99-8.33,0-13.74-3.33-19.16-6.24-8.75-3.34-20.82-12.08-24.99-15.41Z"/>
    <path class="st1" d="M1200.26,224.89c0-4.99-2.91-10.41-8.33-13.32-13.33-5-26.65-10.41-42.89-13.32-7.91-2.92-15.83-5.42-27.07-8.33-10.41-5-17.91-13.75-20.82-26.66,0-10.41-1.25-20.4,3.75-30.82,6.25-15.41,9.58-12.49,16.24-18.32,12.49-5,19.99-6.66,33.32-9.58,5.41-2.92,10.83-2.92,15.82-2.92h22.49c8.33,0,15.41-.42,22.9,0,12.07.42,21.66,2.5,35.4,5,5.83.84,10.41,1.67,13.74,2.92-.83,2.5-2.08,9.58-2.5,15.83,0,.83-.42,2.08-.42,2.91s-.42,2.08-1.25,2.5-2.5-.42-4.16-.83c-9.58-.84-19.58-.84-29.57-.42-9.99.42-20.4,2.5-29.57,3.75-4.16,1.25-8.33,2.08-12.08,2.92-4.16.83-7.91,2.92-12.08,5.41-2.5,2.92-4.58,5.83-5.83,9.16-1.25,2.92-2.08,6.25-2.08,10-.83,2.91,0,9.99,3.33,13.74,3.33,3.75,6.25,6.25,9.99,7.5,10.41,2.91,20.41,4.99,28.32,7.07,2.5,0,6.66,1.67,9.16,1.67,11.24.83,19.16,3.75,29.57,7.5,7.91,2.91,16.24,5.41,23.74,10.41,5.83,8.33,8.33,13.32,11.24,21.65v10.83c0,5.42-2.91,10.83-5.41,13.75-2.92,7.5-7.91,13.32-16.24,18.74-10.41,7.91-21.65,13.32-34.98,15.41-18.74,5.83-37.48,6.66-58.72,3.75l-22.9-2.08c-5-.42-12.08-1.66-18.74-3.75-9.58-2.91-13.33-2.5-13.74-3.33s-1.25-2.08-1.25-2.5c-2.5-6.25-2.08-10.41-5-18.32-1.25-2.92-1.66-5-2.08-7.08,0,0-.42-2.08,0-3.75,2.92,0,4.58.83,7.08.83,6.66,1.66,16.66,3.75,21.65,3.75s10.83.42,18.74.42c6.66.42,14.16,1.25,21.24-1.66,3.75-2.91,17.08-6.67,21.66-11.66,5.42-5,8.33-10.42,8.33-18.75Z"/>
    <path class="st1" d="M1393.1,273.62c0,3.33,0,11.24-.42,14.58.42,2.08-2.09,4.58-2.92,5.41h-10.83c-2.91,0-6.66-.42-9.58-.42-4.16,1.66-17.91.42-19.57.42q-2.5-2.91-2.5-5.41v-39.98l-.83-24.57.83-27.9-.42-24.16-1.66-19.99c-6.67,0-17.91,1.25-22.9,0-9.58-1.66-13.33,0-20.82,0v-26.65h2.5c2.5,0,5-.42,5.83,0,2.91,2.08,9.99.42,9.58-.42,6.25-.42,5.41-.42,10.41-.42,4.58,0,15.41.42,18.32,0,.42,0,0-15.41,0-21.24,1.25-10.41,1.25-18.33,1.67-29.15.42-7.5.42-14.58.42-22.49s1.25-20.82.83-29.57c0-2.91-1.25-2.91-1.25-5.41s0-4.16,2.91-4.16c5,0,10.83.83,15.83.83,8.33,0,15.83,0,19.99.42,3.75.42,6.67.84,9.58,1.67.42,0,0,11.24-.42,17.49-.42,13.74-.42,22.49,0,36.23,0,6.25-.42,12.91,0,19.16,0,3.33-1.66,25.41-2.08,28.74,0,2.91,1.66,5.41,2.5,5.41,2.92,0,7.91,1.25,10.83,1.25,2.5,0,5.41,1.25,10.83,1.25,4.99,0,10.41.42,16.24.42,2.5,0,4.99.42,4.99.42,2.5,8.33,2.5,20.82,0,26.23h-2.5c-10.83,1.25-21.66,2.08-32.49,2.08-2.5,0-7.08.42-9.99.42,0,2.5-.42,5.41-.42,5.41v3.75c0,5,.42,8.75,0,13.33l.83,22.08-1.66,18.74c.42,5.83-1.25,31.23-1.66,37.06,0,6.25-.42,12.91,0,19.16Z"/>
    <path class="st1" d="M1466.83,191.58c.42-5,.42-9.99.42-15.41l-1.25-33.74v-18.74c5.83,0,12.49-.42,20.82.42,0,0,6.25.42,9.16.42,3.75.84,2.5.42,4.16,1.25,0,2.5-.83,3.33-.83,6.25v13.33c2.09-2.92,2.09-4.16,5-7.08l2.5-.84c7.08-7.08,18.74-8.75,29.16-7.91,2.08,0,7.91,2.08,12.91,5,4.58.83,6.25,2.91,6.25,2.91,5.41,5,11.24,7.91,13.32,13.33,5.42,7.91,8.33,16.66,11.24,27.07,0,2.92,0,5.42-2.91,5.42-8.33,2.91-13.74,1.66-25.41,2.5h-4.58c-.83-.42-1.25-2.08-1.25-2.5-.42-3.34-1.67-5.83-1.67-7.5,0-2.91-2.5-6.25-2.5-6.25-5.41-5.41-9.99-7.91-15.41-7.91-1.25,0-3.33,0-4.99.83-2.5.83-9.58,4.16-11.24,5.83-2.92,2.91-6.25,5.83-7.91,9.58-.42,2.08-.83,9.16-.83,10.41-.84,5-2.5,14.99-2.5,20.83,0,3.75-1.25,10.83-1.25,15.82,0,3.75-.42,7.08-.42,10.42v15.82c0,3.34-.42,7.5-.42,11.25v9.16c-13.74,2.91-23.32,2.91-28.73,0-1.25-3.75-1.66-11.25-1.25-12.5,1.25-9.99,0-19.99,0-30.4-.42-5.42.42-12.07.42-17.08,0-3.75.42-12.91,0-19.99Z"/>
    <path class="st1" d="M1754.2,274.87l-2.92.42c-2.91.42-2.5,0-6.66,0-1.26.42-12.08,2.91-17.08.42-2.92,0-2.92-.83-5.83-.83-2.5-2.08-2.5-7.5-2.5-10.41v-10.41l-3.34,4.58-7.49,7.08c-5.42,3.75-8.33,6.25-13.33,8.75-8.33,5-18.74,6.25-27.07,6.25s-18.32-4.58-25.41-7.08c-2.08-.42-4.16-2.08-5.83-3.33-3.33-2.92-7.91-5.83-10.83-8.33-1.66-1.25-2.91-2.92-4.99-3.75-1.66-.83-2.92-2.5-3.75-4.16-2.91-5.83-7.91-11.24-10.41-19.16-1.66-5.83-5.42-11.67-5.42-16.66,0-2.5-.83-11.67-.83-14.16,0-4.99.42-6.67.42-12.07,0-2.5.84-5.42,2.09-10.41.83-5.83,1.25-14.16,2.5-18.33,3.75-7.08,4.58-7.08,5.83-11.24,1.25-3.33,2.91-10,6.66-12.49,2.92-2.08,14.99-13.33,16.66-13.74l7.5-3.33c4.58-1.66,10.41-2.5,15.41-2.5l12.91-.42c2.92,0,7.08,0,8.33.42,2.5,0,5.42,2.5,8.33,2.5,2.5,0,7.5,2.5,10.41,5,5.42,2.08,8.33,5.83,10.83,8.33,2.5,2.92,5.41,5,7.91,7.91.42,1.66,2.92,2.91,2.92,2.91.83-1.25.83-5,2.5-7.91.42-7.91.83-14.99,1.25-17.08-.42-2.08.42-7.91,3.34-7.08,2.5-.83,17.49,2.5,24.98,2.5.42,0,.42,3.75,0,5.41l2.5,39.98v44.98c0,1.66-.42,3.33-.42,4.99.42,5,.42,10.41.42,15.83.42,3.75,0,7.91,0,12.49,0,7.08.83,24.57.42,32.07v2.08ZM1700.48,210.73c0-3.33,3.33-15.41-2.92-32.07-1.66-4.16-4.58-10.41-11.66-12.91-3.75-.83-7.08-2.92-10.83-2.5-3.75,1.25-10.83,5.41-14.58,10.83-2.5,2.91-2.91,5.83-3.33,10.41-1.66,7.08-2.5,9.99-2.5,15.83,0,10.83,9.17,20.4,10.83,22.9,1.66,1.66,2.5.83,5.41,3.75,5.42,2.5,10.42,0,16.24-2.92h2.5c5-2.5,7.91-4.99,10.83-10.41.42-.42,0-2.91,0-2.91Z"/>
  </g>
</svg>